%TF.GenerationSoftware,KiCad,Pcbnew,(6.0.9-0)*%
%TF.CreationDate,2022-11-09T23:01:56-06:00*%
%TF.ProjectId,CluePCB,436c7565-5043-4422-9e6b-696361645f70,1*%
%TF.SameCoordinates,Original*%
%TF.FileFunction,Drillmap*%
%TF.FilePolarity,Positive*%
%FSLAX45Y45*%
G04 Gerber Fmt 4.5, Leading zero omitted, Abs format (unit mm)*
G04 Created by KiCad (PCBNEW (6.0.9-0)) date 2022-11-09 23:01:56*
%MOMM*%
%LPD*%
G01*
G04 APERTURE LIST*
%ADD10C,0.100000*%
%ADD11C,0.200000*%
%ADD12C,0.239000*%
%ADD13C,0.300000*%
%ADD14C,0.345000*%
G04 APERTURE END LIST*
D10*
X6070000Y-3660000D02*
X22910000Y-3660000D01*
X22910000Y-3660000D02*
X22910000Y-14620000D01*
X22910000Y-14620000D02*
X6070000Y-14620000D01*
X6070000Y-14620000D02*
X6070000Y-3660000D01*
D11*
D12*
X8046500Y-5685500D02*
X8285500Y-5924500D01*
X8285500Y-5685500D02*
X8046500Y-5924500D01*
D13*
X6780000Y-14000000D02*
G75*
G03*
X6780000Y-14000000I-150000J0D01*
G01*
X6790000Y-4200000D02*
G75*
G03*
X6790000Y-4200000I-150000J0D01*
G01*
X8974000Y-4598000D02*
G75*
G03*
X8974000Y-4598000I-150000J0D01*
G01*
X9536000Y-11403000D02*
G75*
G03*
X9536000Y-11403000I-150000J0D01*
G01*
X9540000Y-9327000D02*
G75*
G03*
X9540000Y-9327000I-150000J0D01*
G01*
X11116000Y-11407000D02*
G75*
G03*
X11116000Y-11407000I-150000J0D01*
G01*
X11128000Y-9313000D02*
G75*
G03*
X11128000Y-9313000I-150000J0D01*
G01*
X11670000Y-4569000D02*
G75*
G03*
X11670000Y-4569000I-150000J0D01*
G01*
X19539000Y-4320750D02*
G75*
G03*
X19539000Y-4320750I-150000J0D01*
G01*
X19558000Y-7899750D02*
G75*
G03*
X19558000Y-7899750I-150000J0D01*
G01*
X22330000Y-13890000D02*
G75*
G03*
X22330000Y-13890000I-150000J0D01*
G01*
X22369000Y-7915750D02*
G75*
G03*
X22369000Y-7915750I-150000J0D01*
G01*
X22401000Y-4330750D02*
G75*
G03*
X22401000Y-4330750I-150000J0D01*
G01*
D14*
X6566000Y-6465500D02*
X6566000Y-6810500D01*
X6393500Y-6638000D02*
X6738500Y-6638000D01*
X8166000Y-11985500D02*
X8166000Y-12330500D01*
X7993500Y-12158000D02*
X8338500Y-12158000D01*
D11*
X6322619Y-14935476D02*
X6322619Y-14735476D01*
X6370238Y-14735476D01*
X6398809Y-14745000D01*
X6417857Y-14764048D01*
X6427381Y-14783095D01*
X6436905Y-14821190D01*
X6436905Y-14849762D01*
X6427381Y-14887857D01*
X6417857Y-14906905D01*
X6398809Y-14925952D01*
X6370238Y-14935476D01*
X6322619Y-14935476D01*
X6522619Y-14935476D02*
X6522619Y-14802143D01*
X6522619Y-14840238D02*
X6532143Y-14821190D01*
X6541667Y-14811667D01*
X6560714Y-14802143D01*
X6579762Y-14802143D01*
X6646428Y-14935476D02*
X6646428Y-14802143D01*
X6646428Y-14735476D02*
X6636905Y-14745000D01*
X6646428Y-14754524D01*
X6655952Y-14745000D01*
X6646428Y-14735476D01*
X6646428Y-14754524D01*
X6770238Y-14935476D02*
X6751190Y-14925952D01*
X6741667Y-14906905D01*
X6741667Y-14735476D01*
X6875000Y-14935476D02*
X6855952Y-14925952D01*
X6846428Y-14906905D01*
X6846428Y-14735476D01*
X7103571Y-14935476D02*
X7103571Y-14735476D01*
X7170238Y-14878333D01*
X7236905Y-14735476D01*
X7236905Y-14935476D01*
X7417857Y-14935476D02*
X7417857Y-14830714D01*
X7408333Y-14811667D01*
X7389286Y-14802143D01*
X7351190Y-14802143D01*
X7332143Y-14811667D01*
X7417857Y-14925952D02*
X7398809Y-14935476D01*
X7351190Y-14935476D01*
X7332143Y-14925952D01*
X7322619Y-14906905D01*
X7322619Y-14887857D01*
X7332143Y-14868809D01*
X7351190Y-14859286D01*
X7398809Y-14859286D01*
X7417857Y-14849762D01*
X7513095Y-14802143D02*
X7513095Y-15002143D01*
X7513095Y-14811667D02*
X7532143Y-14802143D01*
X7570238Y-14802143D01*
X7589286Y-14811667D01*
X7598809Y-14821190D01*
X7608333Y-14840238D01*
X7608333Y-14897381D01*
X7598809Y-14916428D01*
X7589286Y-14925952D01*
X7570238Y-14935476D01*
X7532143Y-14935476D01*
X7513095Y-14925952D01*
X7694048Y-14916428D02*
X7703571Y-14925952D01*
X7694048Y-14935476D01*
X7684524Y-14925952D01*
X7694048Y-14916428D01*
X7694048Y-14935476D01*
X7694048Y-14811667D02*
X7703571Y-14821190D01*
X7694048Y-14830714D01*
X7684524Y-14821190D01*
X7694048Y-14811667D01*
X7694048Y-14830714D01*
X5865000Y-15165000D02*
X6065000Y-15365000D01*
X6065000Y-15165000D02*
X5865000Y-15365000D01*
X6313095Y-15174524D02*
X6322619Y-15165000D01*
X6341667Y-15155476D01*
X6389286Y-15155476D01*
X6408333Y-15165000D01*
X6417857Y-15174524D01*
X6427381Y-15193571D01*
X6427381Y-15212619D01*
X6417857Y-15241190D01*
X6303571Y-15355476D01*
X6427381Y-15355476D01*
X6513095Y-15336428D02*
X6522619Y-15345952D01*
X6513095Y-15355476D01*
X6503571Y-15345952D01*
X6513095Y-15336428D01*
X6513095Y-15355476D01*
X6589286Y-15155476D02*
X6713095Y-15155476D01*
X6646428Y-15231667D01*
X6675000Y-15231667D01*
X6694048Y-15241190D01*
X6703571Y-15250714D01*
X6713095Y-15269762D01*
X6713095Y-15317381D01*
X6703571Y-15336428D01*
X6694048Y-15345952D01*
X6675000Y-15355476D01*
X6617857Y-15355476D01*
X6598809Y-15345952D01*
X6589286Y-15336428D01*
X6808333Y-15355476D02*
X6846428Y-15355476D01*
X6865476Y-15345952D01*
X6875000Y-15336428D01*
X6894048Y-15307857D01*
X6903571Y-15269762D01*
X6903571Y-15193571D01*
X6894048Y-15174524D01*
X6884524Y-15165000D01*
X6865476Y-15155476D01*
X6827381Y-15155476D01*
X6808333Y-15165000D01*
X6798809Y-15174524D01*
X6789286Y-15193571D01*
X6789286Y-15241190D01*
X6798809Y-15260238D01*
X6808333Y-15269762D01*
X6827381Y-15279286D01*
X6865476Y-15279286D01*
X6884524Y-15269762D01*
X6894048Y-15260238D01*
X6903571Y-15241190D01*
X7027381Y-15155476D02*
X7046428Y-15155476D01*
X7065476Y-15165000D01*
X7075000Y-15174524D01*
X7084524Y-15193571D01*
X7094048Y-15231667D01*
X7094048Y-15279286D01*
X7084524Y-15317381D01*
X7075000Y-15336428D01*
X7065476Y-15345952D01*
X7046428Y-15355476D01*
X7027381Y-15355476D01*
X7008333Y-15345952D01*
X6998809Y-15336428D01*
X6989286Y-15317381D01*
X6979762Y-15279286D01*
X6979762Y-15231667D01*
X6989286Y-15193571D01*
X6998809Y-15174524D01*
X7008333Y-15165000D01*
X7027381Y-15155476D01*
X7179762Y-15355476D02*
X7179762Y-15222143D01*
X7179762Y-15241190D02*
X7189286Y-15231667D01*
X7208333Y-15222143D01*
X7236905Y-15222143D01*
X7255952Y-15231667D01*
X7265476Y-15250714D01*
X7265476Y-15355476D01*
X7265476Y-15250714D02*
X7275000Y-15231667D01*
X7294048Y-15222143D01*
X7322619Y-15222143D01*
X7341667Y-15231667D01*
X7351190Y-15250714D01*
X7351190Y-15355476D01*
X7446428Y-15355476D02*
X7446428Y-15222143D01*
X7446428Y-15241190D02*
X7455952Y-15231667D01*
X7475000Y-15222143D01*
X7503571Y-15222143D01*
X7522619Y-15231667D01*
X7532143Y-15250714D01*
X7532143Y-15355476D01*
X7532143Y-15250714D02*
X7541667Y-15231667D01*
X7560714Y-15222143D01*
X7589286Y-15222143D01*
X7608333Y-15231667D01*
X7617857Y-15250714D01*
X7617857Y-15355476D01*
X8008333Y-15145952D02*
X7836905Y-15403095D01*
X8265476Y-15155476D02*
X8284524Y-15155476D01*
X8303571Y-15165000D01*
X8313095Y-15174524D01*
X8322619Y-15193571D01*
X8332143Y-15231667D01*
X8332143Y-15279286D01*
X8322619Y-15317381D01*
X8313095Y-15336428D01*
X8303571Y-15345952D01*
X8284524Y-15355476D01*
X8265476Y-15355476D01*
X8246428Y-15345952D01*
X8236905Y-15336428D01*
X8227381Y-15317381D01*
X8217857Y-15279286D01*
X8217857Y-15231667D01*
X8227381Y-15193571D01*
X8236905Y-15174524D01*
X8246428Y-15165000D01*
X8265476Y-15155476D01*
X8417857Y-15336428D02*
X8427381Y-15345952D01*
X8417857Y-15355476D01*
X8408333Y-15345952D01*
X8417857Y-15336428D01*
X8417857Y-15355476D01*
X8551190Y-15155476D02*
X8570238Y-15155476D01*
X8589286Y-15165000D01*
X8598810Y-15174524D01*
X8608333Y-15193571D01*
X8617857Y-15231667D01*
X8617857Y-15279286D01*
X8608333Y-15317381D01*
X8598810Y-15336428D01*
X8589286Y-15345952D01*
X8570238Y-15355476D01*
X8551190Y-15355476D01*
X8532143Y-15345952D01*
X8522619Y-15336428D01*
X8513095Y-15317381D01*
X8503571Y-15279286D01*
X8503571Y-15231667D01*
X8513095Y-15193571D01*
X8522619Y-15174524D01*
X8532143Y-15165000D01*
X8551190Y-15155476D01*
X8713095Y-15355476D02*
X8751190Y-15355476D01*
X8770238Y-15345952D01*
X8779762Y-15336428D01*
X8798810Y-15307857D01*
X8808333Y-15269762D01*
X8808333Y-15193571D01*
X8798810Y-15174524D01*
X8789286Y-15165000D01*
X8770238Y-15155476D01*
X8732143Y-15155476D01*
X8713095Y-15165000D01*
X8703571Y-15174524D01*
X8694048Y-15193571D01*
X8694048Y-15241190D01*
X8703571Y-15260238D01*
X8713095Y-15269762D01*
X8732143Y-15279286D01*
X8770238Y-15279286D01*
X8789286Y-15269762D01*
X8798810Y-15260238D01*
X8808333Y-15241190D01*
X8979762Y-15222143D02*
X8979762Y-15355476D01*
X8932143Y-15145952D02*
X8884524Y-15288809D01*
X9008333Y-15288809D01*
X9189286Y-15355476D02*
X9075000Y-15355476D01*
X9132143Y-15355476D02*
X9132143Y-15155476D01*
X9113095Y-15184048D01*
X9094048Y-15203095D01*
X9075000Y-15212619D01*
X9265476Y-15155476D02*
X9265476Y-15193571D01*
X9341667Y-15155476D02*
X9341667Y-15193571D01*
X9636905Y-15431667D02*
X9627381Y-15422143D01*
X9608333Y-15393571D01*
X9598810Y-15374524D01*
X9589286Y-15345952D01*
X9579762Y-15298333D01*
X9579762Y-15260238D01*
X9589286Y-15212619D01*
X9598810Y-15184048D01*
X9608333Y-15165000D01*
X9627381Y-15136428D01*
X9636905Y-15126905D01*
X9817857Y-15355476D02*
X9703571Y-15355476D01*
X9760714Y-15355476D02*
X9760714Y-15155476D01*
X9741667Y-15184048D01*
X9722619Y-15203095D01*
X9703571Y-15212619D01*
X10055952Y-15355476D02*
X10055952Y-15155476D01*
X10141667Y-15355476D02*
X10141667Y-15250714D01*
X10132143Y-15231667D01*
X10113095Y-15222143D01*
X10084524Y-15222143D01*
X10065476Y-15231667D01*
X10055952Y-15241190D01*
X10265476Y-15355476D02*
X10246429Y-15345952D01*
X10236905Y-15336428D01*
X10227381Y-15317381D01*
X10227381Y-15260238D01*
X10236905Y-15241190D01*
X10246429Y-15231667D01*
X10265476Y-15222143D01*
X10294048Y-15222143D01*
X10313095Y-15231667D01*
X10322619Y-15241190D01*
X10332143Y-15260238D01*
X10332143Y-15317381D01*
X10322619Y-15336428D01*
X10313095Y-15345952D01*
X10294048Y-15355476D01*
X10265476Y-15355476D01*
X10446429Y-15355476D02*
X10427381Y-15345952D01*
X10417857Y-15326905D01*
X10417857Y-15155476D01*
X10598810Y-15345952D02*
X10579762Y-15355476D01*
X10541667Y-15355476D01*
X10522619Y-15345952D01*
X10513095Y-15326905D01*
X10513095Y-15250714D01*
X10522619Y-15231667D01*
X10541667Y-15222143D01*
X10579762Y-15222143D01*
X10598810Y-15231667D01*
X10608333Y-15250714D01*
X10608333Y-15269762D01*
X10513095Y-15288809D01*
X10675000Y-15431667D02*
X10684524Y-15422143D01*
X10703571Y-15393571D01*
X10713095Y-15374524D01*
X10722619Y-15345952D01*
X10732143Y-15298333D01*
X10732143Y-15260238D01*
X10722619Y-15212619D01*
X10713095Y-15184048D01*
X10703571Y-15165000D01*
X10684524Y-15136428D01*
X10675000Y-15126905D01*
X11036905Y-15431667D02*
X11027381Y-15422143D01*
X11008333Y-15393571D01*
X10998810Y-15374524D01*
X10989286Y-15345952D01*
X10979762Y-15298333D01*
X10979762Y-15260238D01*
X10989286Y-15212619D01*
X10998810Y-15184048D01*
X11008333Y-15165000D01*
X11027381Y-15136428D01*
X11036905Y-15126905D01*
X11113095Y-15222143D02*
X11113095Y-15355476D01*
X11113095Y-15241190D02*
X11122619Y-15231667D01*
X11141667Y-15222143D01*
X11170238Y-15222143D01*
X11189286Y-15231667D01*
X11198809Y-15250714D01*
X11198809Y-15355476D01*
X11322619Y-15355476D02*
X11303571Y-15345952D01*
X11294048Y-15336428D01*
X11284524Y-15317381D01*
X11284524Y-15260238D01*
X11294048Y-15241190D01*
X11303571Y-15231667D01*
X11322619Y-15222143D01*
X11351190Y-15222143D01*
X11370238Y-15231667D01*
X11379762Y-15241190D01*
X11389286Y-15260238D01*
X11389286Y-15317381D01*
X11379762Y-15336428D01*
X11370238Y-15345952D01*
X11351190Y-15355476D01*
X11322619Y-15355476D01*
X11446428Y-15222143D02*
X11522619Y-15222143D01*
X11475000Y-15155476D02*
X11475000Y-15326905D01*
X11484524Y-15345952D01*
X11503571Y-15355476D01*
X11522619Y-15355476D01*
X11741667Y-15222143D02*
X11741667Y-15422143D01*
X11741667Y-15231667D02*
X11760714Y-15222143D01*
X11798809Y-15222143D01*
X11817857Y-15231667D01*
X11827381Y-15241190D01*
X11836905Y-15260238D01*
X11836905Y-15317381D01*
X11827381Y-15336428D01*
X11817857Y-15345952D01*
X11798809Y-15355476D01*
X11760714Y-15355476D01*
X11741667Y-15345952D01*
X11951190Y-15355476D02*
X11932143Y-15345952D01*
X11922619Y-15326905D01*
X11922619Y-15155476D01*
X12113095Y-15355476D02*
X12113095Y-15250714D01*
X12103571Y-15231667D01*
X12084524Y-15222143D01*
X12046428Y-15222143D01*
X12027381Y-15231667D01*
X12113095Y-15345952D02*
X12094048Y-15355476D01*
X12046428Y-15355476D01*
X12027381Y-15345952D01*
X12017857Y-15326905D01*
X12017857Y-15307857D01*
X12027381Y-15288809D01*
X12046428Y-15279286D01*
X12094048Y-15279286D01*
X12113095Y-15269762D01*
X12179762Y-15222143D02*
X12255952Y-15222143D01*
X12208333Y-15155476D02*
X12208333Y-15326905D01*
X12217857Y-15345952D01*
X12236905Y-15355476D01*
X12255952Y-15355476D01*
X12398809Y-15345952D02*
X12379762Y-15355476D01*
X12341667Y-15355476D01*
X12322619Y-15345952D01*
X12313095Y-15326905D01*
X12313095Y-15250714D01*
X12322619Y-15231667D01*
X12341667Y-15222143D01*
X12379762Y-15222143D01*
X12398809Y-15231667D01*
X12408333Y-15250714D01*
X12408333Y-15269762D01*
X12313095Y-15288809D01*
X12579762Y-15355476D02*
X12579762Y-15155476D01*
X12579762Y-15345952D02*
X12560714Y-15355476D01*
X12522619Y-15355476D01*
X12503571Y-15345952D01*
X12494048Y-15336428D01*
X12484524Y-15317381D01*
X12484524Y-15260238D01*
X12494048Y-15241190D01*
X12503571Y-15231667D01*
X12522619Y-15222143D01*
X12560714Y-15222143D01*
X12579762Y-15231667D01*
X12655952Y-15431667D02*
X12665476Y-15422143D01*
X12684524Y-15393571D01*
X12694048Y-15374524D01*
X12703571Y-15345952D01*
X12713095Y-15298333D01*
X12713095Y-15260238D01*
X12703571Y-15212619D01*
X12694048Y-15184048D01*
X12684524Y-15165000D01*
X12665476Y-15136428D01*
X12655952Y-15126905D01*
X6065000Y-15585000D02*
G75*
G03*
X6065000Y-15585000I-100000J0D01*
G01*
X6303571Y-15475476D02*
X6427381Y-15475476D01*
X6360714Y-15551667D01*
X6389286Y-15551667D01*
X6408333Y-15561190D01*
X6417857Y-15570714D01*
X6427381Y-15589762D01*
X6427381Y-15637381D01*
X6417857Y-15656428D01*
X6408333Y-15665952D01*
X6389286Y-15675476D01*
X6332143Y-15675476D01*
X6313095Y-15665952D01*
X6303571Y-15656428D01*
X6513095Y-15656428D02*
X6522619Y-15665952D01*
X6513095Y-15675476D01*
X6503571Y-15665952D01*
X6513095Y-15656428D01*
X6513095Y-15675476D01*
X6646428Y-15475476D02*
X6665476Y-15475476D01*
X6684524Y-15485000D01*
X6694048Y-15494524D01*
X6703571Y-15513571D01*
X6713095Y-15551667D01*
X6713095Y-15599286D01*
X6703571Y-15637381D01*
X6694048Y-15656428D01*
X6684524Y-15665952D01*
X6665476Y-15675476D01*
X6646428Y-15675476D01*
X6627381Y-15665952D01*
X6617857Y-15656428D01*
X6608333Y-15637381D01*
X6598809Y-15599286D01*
X6598809Y-15551667D01*
X6608333Y-15513571D01*
X6617857Y-15494524D01*
X6627381Y-15485000D01*
X6646428Y-15475476D01*
X6836905Y-15475476D02*
X6855952Y-15475476D01*
X6875000Y-15485000D01*
X6884524Y-15494524D01*
X6894048Y-15513571D01*
X6903571Y-15551667D01*
X6903571Y-15599286D01*
X6894048Y-15637381D01*
X6884524Y-15656428D01*
X6875000Y-15665952D01*
X6855952Y-15675476D01*
X6836905Y-15675476D01*
X6817857Y-15665952D01*
X6808333Y-15656428D01*
X6798809Y-15637381D01*
X6789286Y-15599286D01*
X6789286Y-15551667D01*
X6798809Y-15513571D01*
X6808333Y-15494524D01*
X6817857Y-15485000D01*
X6836905Y-15475476D01*
X7027381Y-15475476D02*
X7046428Y-15475476D01*
X7065476Y-15485000D01*
X7075000Y-15494524D01*
X7084524Y-15513571D01*
X7094048Y-15551667D01*
X7094048Y-15599286D01*
X7084524Y-15637381D01*
X7075000Y-15656428D01*
X7065476Y-15665952D01*
X7046428Y-15675476D01*
X7027381Y-15675476D01*
X7008333Y-15665952D01*
X6998809Y-15656428D01*
X6989286Y-15637381D01*
X6979762Y-15599286D01*
X6979762Y-15551667D01*
X6989286Y-15513571D01*
X6998809Y-15494524D01*
X7008333Y-15485000D01*
X7027381Y-15475476D01*
X7179762Y-15675476D02*
X7179762Y-15542143D01*
X7179762Y-15561190D02*
X7189286Y-15551667D01*
X7208333Y-15542143D01*
X7236905Y-15542143D01*
X7255952Y-15551667D01*
X7265476Y-15570714D01*
X7265476Y-15675476D01*
X7265476Y-15570714D02*
X7275000Y-15551667D01*
X7294048Y-15542143D01*
X7322619Y-15542143D01*
X7341667Y-15551667D01*
X7351190Y-15570714D01*
X7351190Y-15675476D01*
X7446428Y-15675476D02*
X7446428Y-15542143D01*
X7446428Y-15561190D02*
X7455952Y-15551667D01*
X7475000Y-15542143D01*
X7503571Y-15542143D01*
X7522619Y-15551667D01*
X7532143Y-15570714D01*
X7532143Y-15675476D01*
X7532143Y-15570714D02*
X7541667Y-15551667D01*
X7560714Y-15542143D01*
X7589286Y-15542143D01*
X7608333Y-15551667D01*
X7617857Y-15570714D01*
X7617857Y-15675476D01*
X8008333Y-15465952D02*
X7836905Y-15723095D01*
X8265476Y-15475476D02*
X8284524Y-15475476D01*
X8303571Y-15485000D01*
X8313095Y-15494524D01*
X8322619Y-15513571D01*
X8332143Y-15551667D01*
X8332143Y-15599286D01*
X8322619Y-15637381D01*
X8313095Y-15656428D01*
X8303571Y-15665952D01*
X8284524Y-15675476D01*
X8265476Y-15675476D01*
X8246428Y-15665952D01*
X8236905Y-15656428D01*
X8227381Y-15637381D01*
X8217857Y-15599286D01*
X8217857Y-15551667D01*
X8227381Y-15513571D01*
X8236905Y-15494524D01*
X8246428Y-15485000D01*
X8265476Y-15475476D01*
X8417857Y-15656428D02*
X8427381Y-15665952D01*
X8417857Y-15675476D01*
X8408333Y-15665952D01*
X8417857Y-15656428D01*
X8417857Y-15675476D01*
X8617857Y-15675476D02*
X8503571Y-15675476D01*
X8560714Y-15675476D02*
X8560714Y-15475476D01*
X8541667Y-15504048D01*
X8522619Y-15523095D01*
X8503571Y-15532619D01*
X8808333Y-15675476D02*
X8694048Y-15675476D01*
X8751190Y-15675476D02*
X8751190Y-15475476D01*
X8732143Y-15504048D01*
X8713095Y-15523095D01*
X8694048Y-15532619D01*
X8922619Y-15561190D02*
X8903571Y-15551667D01*
X8894048Y-15542143D01*
X8884524Y-15523095D01*
X8884524Y-15513571D01*
X8894048Y-15494524D01*
X8903571Y-15485000D01*
X8922619Y-15475476D01*
X8960714Y-15475476D01*
X8979762Y-15485000D01*
X8989286Y-15494524D01*
X8998810Y-15513571D01*
X8998810Y-15523095D01*
X8989286Y-15542143D01*
X8979762Y-15551667D01*
X8960714Y-15561190D01*
X8922619Y-15561190D01*
X8903571Y-15570714D01*
X8894048Y-15580238D01*
X8884524Y-15599286D01*
X8884524Y-15637381D01*
X8894048Y-15656428D01*
X8903571Y-15665952D01*
X8922619Y-15675476D01*
X8960714Y-15675476D01*
X8979762Y-15665952D01*
X8989286Y-15656428D01*
X8998810Y-15637381D01*
X8998810Y-15599286D01*
X8989286Y-15580238D01*
X8979762Y-15570714D01*
X8960714Y-15561190D01*
X9189286Y-15675476D02*
X9075000Y-15675476D01*
X9132143Y-15675476D02*
X9132143Y-15475476D01*
X9113095Y-15504048D01*
X9094048Y-15523095D01*
X9075000Y-15532619D01*
X9265476Y-15475476D02*
X9265476Y-15513571D01*
X9341667Y-15475476D02*
X9341667Y-15513571D01*
X9636905Y-15751667D02*
X9627381Y-15742143D01*
X9608333Y-15713571D01*
X9598810Y-15694524D01*
X9589286Y-15665952D01*
X9579762Y-15618333D01*
X9579762Y-15580238D01*
X9589286Y-15532619D01*
X9598810Y-15504048D01*
X9608333Y-15485000D01*
X9627381Y-15456428D01*
X9636905Y-15446905D01*
X9817857Y-15675476D02*
X9703571Y-15675476D01*
X9760714Y-15675476D02*
X9760714Y-15475476D01*
X9741667Y-15504048D01*
X9722619Y-15523095D01*
X9703571Y-15532619D01*
X9884524Y-15475476D02*
X10008333Y-15475476D01*
X9941667Y-15551667D01*
X9970238Y-15551667D01*
X9989286Y-15561190D01*
X9998810Y-15570714D01*
X10008333Y-15589762D01*
X10008333Y-15637381D01*
X9998810Y-15656428D01*
X9989286Y-15665952D01*
X9970238Y-15675476D01*
X9913095Y-15675476D01*
X9894048Y-15665952D01*
X9884524Y-15656428D01*
X10246429Y-15675476D02*
X10246429Y-15475476D01*
X10332143Y-15675476D02*
X10332143Y-15570714D01*
X10322619Y-15551667D01*
X10303571Y-15542143D01*
X10275000Y-15542143D01*
X10255952Y-15551667D01*
X10246429Y-15561190D01*
X10455952Y-15675476D02*
X10436905Y-15665952D01*
X10427381Y-15656428D01*
X10417857Y-15637381D01*
X10417857Y-15580238D01*
X10427381Y-15561190D01*
X10436905Y-15551667D01*
X10455952Y-15542143D01*
X10484524Y-15542143D01*
X10503571Y-15551667D01*
X10513095Y-15561190D01*
X10522619Y-15580238D01*
X10522619Y-15637381D01*
X10513095Y-15656428D01*
X10503571Y-15665952D01*
X10484524Y-15675476D01*
X10455952Y-15675476D01*
X10636905Y-15675476D02*
X10617857Y-15665952D01*
X10608333Y-15646905D01*
X10608333Y-15475476D01*
X10789286Y-15665952D02*
X10770238Y-15675476D01*
X10732143Y-15675476D01*
X10713095Y-15665952D01*
X10703571Y-15646905D01*
X10703571Y-15570714D01*
X10713095Y-15551667D01*
X10732143Y-15542143D01*
X10770238Y-15542143D01*
X10789286Y-15551667D01*
X10798810Y-15570714D01*
X10798810Y-15589762D01*
X10703571Y-15608809D01*
X10875000Y-15665952D02*
X10894048Y-15675476D01*
X10932143Y-15675476D01*
X10951190Y-15665952D01*
X10960714Y-15646905D01*
X10960714Y-15637381D01*
X10951190Y-15618333D01*
X10932143Y-15608809D01*
X10903571Y-15608809D01*
X10884524Y-15599286D01*
X10875000Y-15580238D01*
X10875000Y-15570714D01*
X10884524Y-15551667D01*
X10903571Y-15542143D01*
X10932143Y-15542143D01*
X10951190Y-15551667D01*
X11027381Y-15751667D02*
X11036905Y-15742143D01*
X11055952Y-15713571D01*
X11065476Y-15694524D01*
X11075000Y-15665952D01*
X11084524Y-15618333D01*
X11084524Y-15580238D01*
X11075000Y-15532619D01*
X11065476Y-15504048D01*
X11055952Y-15485000D01*
X11036905Y-15456428D01*
X11027381Y-15446905D01*
X11389286Y-15751667D02*
X11379762Y-15742143D01*
X11360714Y-15713571D01*
X11351190Y-15694524D01*
X11341667Y-15665952D01*
X11332143Y-15618333D01*
X11332143Y-15580238D01*
X11341667Y-15532619D01*
X11351190Y-15504048D01*
X11360714Y-15485000D01*
X11379762Y-15456428D01*
X11389286Y-15446905D01*
X11465476Y-15542143D02*
X11465476Y-15675476D01*
X11465476Y-15561190D02*
X11475000Y-15551667D01*
X11494048Y-15542143D01*
X11522619Y-15542143D01*
X11541667Y-15551667D01*
X11551190Y-15570714D01*
X11551190Y-15675476D01*
X11675000Y-15675476D02*
X11655952Y-15665952D01*
X11646428Y-15656428D01*
X11636905Y-15637381D01*
X11636905Y-15580238D01*
X11646428Y-15561190D01*
X11655952Y-15551667D01*
X11675000Y-15542143D01*
X11703571Y-15542143D01*
X11722619Y-15551667D01*
X11732143Y-15561190D01*
X11741667Y-15580238D01*
X11741667Y-15637381D01*
X11732143Y-15656428D01*
X11722619Y-15665952D01*
X11703571Y-15675476D01*
X11675000Y-15675476D01*
X11798809Y-15542143D02*
X11875000Y-15542143D01*
X11827381Y-15475476D02*
X11827381Y-15646905D01*
X11836905Y-15665952D01*
X11855952Y-15675476D01*
X11875000Y-15675476D01*
X12094048Y-15542143D02*
X12094048Y-15742143D01*
X12094048Y-15551667D02*
X12113095Y-15542143D01*
X12151190Y-15542143D01*
X12170238Y-15551667D01*
X12179762Y-15561190D01*
X12189286Y-15580238D01*
X12189286Y-15637381D01*
X12179762Y-15656428D01*
X12170238Y-15665952D01*
X12151190Y-15675476D01*
X12113095Y-15675476D01*
X12094048Y-15665952D01*
X12303571Y-15675476D02*
X12284524Y-15665952D01*
X12275000Y-15646905D01*
X12275000Y-15475476D01*
X12465476Y-15675476D02*
X12465476Y-15570714D01*
X12455952Y-15551667D01*
X12436905Y-15542143D01*
X12398809Y-15542143D01*
X12379762Y-15551667D01*
X12465476Y-15665952D02*
X12446428Y-15675476D01*
X12398809Y-15675476D01*
X12379762Y-15665952D01*
X12370238Y-15646905D01*
X12370238Y-15627857D01*
X12379762Y-15608809D01*
X12398809Y-15599286D01*
X12446428Y-15599286D01*
X12465476Y-15589762D01*
X12532143Y-15542143D02*
X12608333Y-15542143D01*
X12560714Y-15475476D02*
X12560714Y-15646905D01*
X12570238Y-15665952D01*
X12589286Y-15675476D01*
X12608333Y-15675476D01*
X12751190Y-15665952D02*
X12732143Y-15675476D01*
X12694048Y-15675476D01*
X12675000Y-15665952D01*
X12665476Y-15646905D01*
X12665476Y-15570714D01*
X12675000Y-15551667D01*
X12694048Y-15542143D01*
X12732143Y-15542143D01*
X12751190Y-15551667D01*
X12760714Y-15570714D01*
X12760714Y-15589762D01*
X12665476Y-15608809D01*
X12932143Y-15675476D02*
X12932143Y-15475476D01*
X12932143Y-15665952D02*
X12913095Y-15675476D01*
X12875000Y-15675476D01*
X12855952Y-15665952D01*
X12846428Y-15656428D01*
X12836905Y-15637381D01*
X12836905Y-15580238D01*
X12846428Y-15561190D01*
X12855952Y-15551667D01*
X12875000Y-15542143D01*
X12913095Y-15542143D01*
X12932143Y-15551667D01*
X13008333Y-15751667D02*
X13017857Y-15742143D01*
X13036905Y-15713571D01*
X13046428Y-15694524D01*
X13055952Y-15665952D01*
X13065476Y-15618333D01*
X13065476Y-15580238D01*
X13055952Y-15532619D01*
X13046428Y-15504048D01*
X13036905Y-15485000D01*
X13017857Y-15456428D01*
X13008333Y-15446905D01*
X5965000Y-15805000D02*
X5965000Y-16005000D01*
X5865000Y-15905000D02*
X6065000Y-15905000D01*
X6303571Y-15795476D02*
X6427381Y-15795476D01*
X6360714Y-15871667D01*
X6389286Y-15871667D01*
X6408333Y-15881190D01*
X6417857Y-15890714D01*
X6427381Y-15909762D01*
X6427381Y-15957381D01*
X6417857Y-15976428D01*
X6408333Y-15985952D01*
X6389286Y-15995476D01*
X6332143Y-15995476D01*
X6313095Y-15985952D01*
X6303571Y-15976428D01*
X6513095Y-15976428D02*
X6522619Y-15985952D01*
X6513095Y-15995476D01*
X6503571Y-15985952D01*
X6513095Y-15976428D01*
X6513095Y-15995476D01*
X6694048Y-15862143D02*
X6694048Y-15995476D01*
X6646428Y-15785952D02*
X6598809Y-15928809D01*
X6722619Y-15928809D01*
X6894048Y-15795476D02*
X6798809Y-15795476D01*
X6789286Y-15890714D01*
X6798809Y-15881190D01*
X6817857Y-15871667D01*
X6865476Y-15871667D01*
X6884524Y-15881190D01*
X6894048Y-15890714D01*
X6903571Y-15909762D01*
X6903571Y-15957381D01*
X6894048Y-15976428D01*
X6884524Y-15985952D01*
X6865476Y-15995476D01*
X6817857Y-15995476D01*
X6798809Y-15985952D01*
X6789286Y-15976428D01*
X7027381Y-15795476D02*
X7046428Y-15795476D01*
X7065476Y-15805000D01*
X7075000Y-15814524D01*
X7084524Y-15833571D01*
X7094048Y-15871667D01*
X7094048Y-15919286D01*
X7084524Y-15957381D01*
X7075000Y-15976428D01*
X7065476Y-15985952D01*
X7046428Y-15995476D01*
X7027381Y-15995476D01*
X7008333Y-15985952D01*
X6998809Y-15976428D01*
X6989286Y-15957381D01*
X6979762Y-15919286D01*
X6979762Y-15871667D01*
X6989286Y-15833571D01*
X6998809Y-15814524D01*
X7008333Y-15805000D01*
X7027381Y-15795476D01*
X7179762Y-15995476D02*
X7179762Y-15862143D01*
X7179762Y-15881190D02*
X7189286Y-15871667D01*
X7208333Y-15862143D01*
X7236905Y-15862143D01*
X7255952Y-15871667D01*
X7265476Y-15890714D01*
X7265476Y-15995476D01*
X7265476Y-15890714D02*
X7275000Y-15871667D01*
X7294048Y-15862143D01*
X7322619Y-15862143D01*
X7341667Y-15871667D01*
X7351190Y-15890714D01*
X7351190Y-15995476D01*
X7446428Y-15995476D02*
X7446428Y-15862143D01*
X7446428Y-15881190D02*
X7455952Y-15871667D01*
X7475000Y-15862143D01*
X7503571Y-15862143D01*
X7522619Y-15871667D01*
X7532143Y-15890714D01*
X7532143Y-15995476D01*
X7532143Y-15890714D02*
X7541667Y-15871667D01*
X7560714Y-15862143D01*
X7589286Y-15862143D01*
X7608333Y-15871667D01*
X7617857Y-15890714D01*
X7617857Y-15995476D01*
X8008333Y-15785952D02*
X7836905Y-16043095D01*
X8265476Y-15795476D02*
X8284524Y-15795476D01*
X8303571Y-15805000D01*
X8313095Y-15814524D01*
X8322619Y-15833571D01*
X8332143Y-15871667D01*
X8332143Y-15919286D01*
X8322619Y-15957381D01*
X8313095Y-15976428D01*
X8303571Y-15985952D01*
X8284524Y-15995476D01*
X8265476Y-15995476D01*
X8246428Y-15985952D01*
X8236905Y-15976428D01*
X8227381Y-15957381D01*
X8217857Y-15919286D01*
X8217857Y-15871667D01*
X8227381Y-15833571D01*
X8236905Y-15814524D01*
X8246428Y-15805000D01*
X8265476Y-15795476D01*
X8417857Y-15976428D02*
X8427381Y-15985952D01*
X8417857Y-15995476D01*
X8408333Y-15985952D01*
X8417857Y-15976428D01*
X8417857Y-15995476D01*
X8617857Y-15995476D02*
X8503571Y-15995476D01*
X8560714Y-15995476D02*
X8560714Y-15795476D01*
X8541667Y-15824048D01*
X8522619Y-15843095D01*
X8503571Y-15852619D01*
X8684524Y-15795476D02*
X8808333Y-15795476D01*
X8741667Y-15871667D01*
X8770238Y-15871667D01*
X8789286Y-15881190D01*
X8798810Y-15890714D01*
X8808333Y-15909762D01*
X8808333Y-15957381D01*
X8798810Y-15976428D01*
X8789286Y-15985952D01*
X8770238Y-15995476D01*
X8713095Y-15995476D01*
X8694048Y-15985952D01*
X8684524Y-15976428D01*
X8989286Y-15795476D02*
X8894048Y-15795476D01*
X8884524Y-15890714D01*
X8894048Y-15881190D01*
X8913095Y-15871667D01*
X8960714Y-15871667D01*
X8979762Y-15881190D01*
X8989286Y-15890714D01*
X8998810Y-15909762D01*
X8998810Y-15957381D01*
X8989286Y-15976428D01*
X8979762Y-15985952D01*
X8960714Y-15995476D01*
X8913095Y-15995476D01*
X8894048Y-15985952D01*
X8884524Y-15976428D01*
X9113095Y-15881190D02*
X9094048Y-15871667D01*
X9084524Y-15862143D01*
X9075000Y-15843095D01*
X9075000Y-15833571D01*
X9084524Y-15814524D01*
X9094048Y-15805000D01*
X9113095Y-15795476D01*
X9151190Y-15795476D01*
X9170238Y-15805000D01*
X9179762Y-15814524D01*
X9189286Y-15833571D01*
X9189286Y-15843095D01*
X9179762Y-15862143D01*
X9170238Y-15871667D01*
X9151190Y-15881190D01*
X9113095Y-15881190D01*
X9094048Y-15890714D01*
X9084524Y-15900238D01*
X9075000Y-15919286D01*
X9075000Y-15957381D01*
X9084524Y-15976428D01*
X9094048Y-15985952D01*
X9113095Y-15995476D01*
X9151190Y-15995476D01*
X9170238Y-15985952D01*
X9179762Y-15976428D01*
X9189286Y-15957381D01*
X9189286Y-15919286D01*
X9179762Y-15900238D01*
X9170238Y-15890714D01*
X9151190Y-15881190D01*
X9265476Y-15795476D02*
X9265476Y-15833571D01*
X9341667Y-15795476D02*
X9341667Y-15833571D01*
X9636905Y-16071667D02*
X9627381Y-16062143D01*
X9608333Y-16033571D01*
X9598810Y-16014524D01*
X9589286Y-15985952D01*
X9579762Y-15938333D01*
X9579762Y-15900238D01*
X9589286Y-15852619D01*
X9598810Y-15824048D01*
X9608333Y-15805000D01*
X9627381Y-15776428D01*
X9636905Y-15766905D01*
X9703571Y-15814524D02*
X9713095Y-15805000D01*
X9732143Y-15795476D01*
X9779762Y-15795476D01*
X9798810Y-15805000D01*
X9808333Y-15814524D01*
X9817857Y-15833571D01*
X9817857Y-15852619D01*
X9808333Y-15881190D01*
X9694048Y-15995476D01*
X9817857Y-15995476D01*
X10055952Y-15995476D02*
X10055952Y-15795476D01*
X10141667Y-15995476D02*
X10141667Y-15890714D01*
X10132143Y-15871667D01*
X10113095Y-15862143D01*
X10084524Y-15862143D01*
X10065476Y-15871667D01*
X10055952Y-15881190D01*
X10265476Y-15995476D02*
X10246429Y-15985952D01*
X10236905Y-15976428D01*
X10227381Y-15957381D01*
X10227381Y-15900238D01*
X10236905Y-15881190D01*
X10246429Y-15871667D01*
X10265476Y-15862143D01*
X10294048Y-15862143D01*
X10313095Y-15871667D01*
X10322619Y-15881190D01*
X10332143Y-15900238D01*
X10332143Y-15957381D01*
X10322619Y-15976428D01*
X10313095Y-15985952D01*
X10294048Y-15995476D01*
X10265476Y-15995476D01*
X10446429Y-15995476D02*
X10427381Y-15985952D01*
X10417857Y-15966905D01*
X10417857Y-15795476D01*
X10598810Y-15985952D02*
X10579762Y-15995476D01*
X10541667Y-15995476D01*
X10522619Y-15985952D01*
X10513095Y-15966905D01*
X10513095Y-15890714D01*
X10522619Y-15871667D01*
X10541667Y-15862143D01*
X10579762Y-15862143D01*
X10598810Y-15871667D01*
X10608333Y-15890714D01*
X10608333Y-15909762D01*
X10513095Y-15928809D01*
X10684524Y-15985952D02*
X10703571Y-15995476D01*
X10741667Y-15995476D01*
X10760714Y-15985952D01*
X10770238Y-15966905D01*
X10770238Y-15957381D01*
X10760714Y-15938333D01*
X10741667Y-15928809D01*
X10713095Y-15928809D01*
X10694048Y-15919286D01*
X10684524Y-15900238D01*
X10684524Y-15890714D01*
X10694048Y-15871667D01*
X10713095Y-15862143D01*
X10741667Y-15862143D01*
X10760714Y-15871667D01*
X10836905Y-16071667D02*
X10846429Y-16062143D01*
X10865476Y-16033571D01*
X10875000Y-16014524D01*
X10884524Y-15985952D01*
X10894048Y-15938333D01*
X10894048Y-15900238D01*
X10884524Y-15852619D01*
X10875000Y-15824048D01*
X10865476Y-15805000D01*
X10846429Y-15776428D01*
X10836905Y-15766905D01*
X11198809Y-16071667D02*
X11189286Y-16062143D01*
X11170238Y-16033571D01*
X11160714Y-16014524D01*
X11151190Y-15985952D01*
X11141667Y-15938333D01*
X11141667Y-15900238D01*
X11151190Y-15852619D01*
X11160714Y-15824048D01*
X11170238Y-15805000D01*
X11189286Y-15776428D01*
X11198809Y-15766905D01*
X11275000Y-15862143D02*
X11275000Y-15995476D01*
X11275000Y-15881190D02*
X11284524Y-15871667D01*
X11303571Y-15862143D01*
X11332143Y-15862143D01*
X11351190Y-15871667D01*
X11360714Y-15890714D01*
X11360714Y-15995476D01*
X11484524Y-15995476D02*
X11465476Y-15985952D01*
X11455952Y-15976428D01*
X11446428Y-15957381D01*
X11446428Y-15900238D01*
X11455952Y-15881190D01*
X11465476Y-15871667D01*
X11484524Y-15862143D01*
X11513095Y-15862143D01*
X11532143Y-15871667D01*
X11541667Y-15881190D01*
X11551190Y-15900238D01*
X11551190Y-15957381D01*
X11541667Y-15976428D01*
X11532143Y-15985952D01*
X11513095Y-15995476D01*
X11484524Y-15995476D01*
X11608333Y-15862143D02*
X11684524Y-15862143D01*
X11636905Y-15795476D02*
X11636905Y-15966905D01*
X11646428Y-15985952D01*
X11665476Y-15995476D01*
X11684524Y-15995476D01*
X11903571Y-15862143D02*
X11903571Y-16062143D01*
X11903571Y-15871667D02*
X11922619Y-15862143D01*
X11960714Y-15862143D01*
X11979762Y-15871667D01*
X11989286Y-15881190D01*
X11998809Y-15900238D01*
X11998809Y-15957381D01*
X11989286Y-15976428D01*
X11979762Y-15985952D01*
X11960714Y-15995476D01*
X11922619Y-15995476D01*
X11903571Y-15985952D01*
X12113095Y-15995476D02*
X12094048Y-15985952D01*
X12084524Y-15966905D01*
X12084524Y-15795476D01*
X12275000Y-15995476D02*
X12275000Y-15890714D01*
X12265476Y-15871667D01*
X12246428Y-15862143D01*
X12208333Y-15862143D01*
X12189286Y-15871667D01*
X12275000Y-15985952D02*
X12255952Y-15995476D01*
X12208333Y-15995476D01*
X12189286Y-15985952D01*
X12179762Y-15966905D01*
X12179762Y-15947857D01*
X12189286Y-15928809D01*
X12208333Y-15919286D01*
X12255952Y-15919286D01*
X12275000Y-15909762D01*
X12341667Y-15862143D02*
X12417857Y-15862143D01*
X12370238Y-15795476D02*
X12370238Y-15966905D01*
X12379762Y-15985952D01*
X12398809Y-15995476D01*
X12417857Y-15995476D01*
X12560714Y-15985952D02*
X12541667Y-15995476D01*
X12503571Y-15995476D01*
X12484524Y-15985952D01*
X12475000Y-15966905D01*
X12475000Y-15890714D01*
X12484524Y-15871667D01*
X12503571Y-15862143D01*
X12541667Y-15862143D01*
X12560714Y-15871667D01*
X12570238Y-15890714D01*
X12570238Y-15909762D01*
X12475000Y-15928809D01*
X12741667Y-15995476D02*
X12741667Y-15795476D01*
X12741667Y-15985952D02*
X12722619Y-15995476D01*
X12684524Y-15995476D01*
X12665476Y-15985952D01*
X12655952Y-15976428D01*
X12646428Y-15957381D01*
X12646428Y-15900238D01*
X12655952Y-15881190D01*
X12665476Y-15871667D01*
X12684524Y-15862143D01*
X12722619Y-15862143D01*
X12741667Y-15871667D01*
X12817857Y-16071667D02*
X12827381Y-16062143D01*
X12846428Y-16033571D01*
X12855952Y-16014524D01*
X12865476Y-15985952D01*
X12875000Y-15938333D01*
X12875000Y-15900238D01*
X12865476Y-15852619D01*
X12855952Y-15824048D01*
X12846428Y-15805000D01*
X12827381Y-15776428D01*
X12817857Y-15766905D01*
M02*
