%TF.GenerationSoftware,KiCad,Pcbnew,(6.0.9-0)*%
%TF.CreationDate,2022-11-09T23:01:03-06:00*%
%TF.ProjectId,CluePCB,436c7565-5043-4422-9e6b-696361645f70,1*%
%TF.SameCoordinates,Original*%
%TF.FileFunction,Soldermask,Bot*%
%TF.FilePolarity,Negative*%
%FSLAX46Y46*%
G04 Gerber Fmt 4.6, Leading zero omitted, Abs format (unit mm)*
G04 Created by KiCad (PCBNEW (6.0.9-0)) date 2022-11-09 23:01:03*
%MOMM*%
%LPD*%
G01*
G04 APERTURE LIST*
%ADD10R,1.700000X1.700000*%
%ADD11O,1.700000X1.700000*%
%ADD12C,3.000000*%
%ADD13C,3.450000*%
%ADD14C,2.390000*%
%ADD15C,1.524000*%
%ADD16C,1.600000*%
G04 APERTURE END LIST*
D10*
%TO.C,U4*%
X128710000Y-115190000D03*
D11*
X131250000Y-115190000D03*
X133790000Y-115190000D03*
X136330000Y-115190000D03*
X138870000Y-115190000D03*
X141410000Y-115190000D03*
X143950000Y-115190000D03*
X146490000Y-115190000D03*
X149030000Y-115190000D03*
X151570000Y-115190000D03*
X154110000Y-115190000D03*
X156650000Y-115190000D03*
X159190000Y-115190000D03*
X161730000Y-115190000D03*
X164270000Y-115190000D03*
X166810000Y-115190000D03*
X169350000Y-115190000D03*
X171890000Y-115190000D03*
X174430000Y-115190000D03*
X176970000Y-115190000D03*
X179510000Y-115190000D03*
X182050000Y-115190000D03*
%TD*%
D12*
%TO.C,H3*%
X221800000Y-138900000D03*
%TD*%
%TO.C,H2*%
X66400000Y-42000000D03*
%TD*%
%TO.C,H1*%
X66300000Y-140000000D03*
%TD*%
D10*
%TO.C,J3*%
X133155000Y-137080000D03*
D11*
X135695000Y-137080000D03*
%TD*%
D13*
%TO.C,BT1*%
X65660000Y-66380000D03*
X81660000Y-121580000D03*
D14*
X81660000Y-58050000D03*
%TD*%
D10*
%TO.C,U5*%
X199840000Y-90500000D03*
D11*
X199840000Y-93040000D03*
X199840000Y-95580000D03*
X199840000Y-98120000D03*
X199840000Y-100660000D03*
X199840000Y-103200000D03*
X199840000Y-105740000D03*
X199840000Y-108280000D03*
X199840000Y-110820000D03*
D10*
X225240000Y-90540000D03*
D11*
X225240000Y-93080000D03*
X225240000Y-95620000D03*
X225240000Y-98160000D03*
X225240000Y-100700000D03*
%TD*%
D12*
%TO.C,U6*%
X222510000Y-43307500D03*
X193890000Y-43207500D03*
X222190000Y-79157500D03*
X194080000Y-78997500D03*
D10*
X192850000Y-54857500D03*
D11*
X192850000Y-57397500D03*
X192850000Y-59937500D03*
X192850000Y-62477500D03*
X192850000Y-65017500D03*
X192850000Y-67557500D03*
X192850000Y-70097500D03*
X192850000Y-72637500D03*
D10*
X223390000Y-59967500D03*
D11*
X223390000Y-62507500D03*
X223390000Y-65047500D03*
X223390000Y-67587500D03*
X223390000Y-70127500D03*
X223390000Y-72667500D03*
X223390000Y-75207500D03*
%TD*%
D12*
%TO.C,U2*%
X109660000Y-114070000D03*
X93900000Y-93270000D03*
X93860000Y-114030000D03*
X109780000Y-93130000D03*
D15*
X108360000Y-101840000D03*
X108360000Y-105430000D03*
X94230000Y-97340000D03*
X94270000Y-99950000D03*
X94230000Y-102490000D03*
X94190000Y-104960000D03*
X94190000Y-107570000D03*
X94190000Y-110140000D03*
%TD*%
D10*
%TO.C,J1*%
X64125000Y-50200000D03*
D11*
X66665000Y-50200000D03*
%TD*%
D16*
%TO.C,C1*%
X106720000Y-124460000D03*
X111720000Y-124460000D03*
%TD*%
D12*
%TO.C,U1*%
X115200000Y-45690000D03*
X88240000Y-45980000D03*
D15*
X113810000Y-40800000D03*
X111310000Y-40800000D03*
X97370000Y-47130000D03*
X94830000Y-47130000D03*
X92290000Y-47130000D03*
X86990000Y-54830000D03*
X86990000Y-57340000D03*
X110010000Y-53530000D03*
X110010000Y-56040000D03*
%TD*%
D10*
%TO.C,J2*%
X112475000Y-67000000D03*
D11*
X109935000Y-67000000D03*
%TD*%
D16*
%TO.C,C2*%
X137120000Y-125730000D03*
X132120000Y-125730000D03*
%TD*%
D10*
%TO.C,SW1*%
X77470000Y-41910000D03*
D11*
X80010000Y-41910000D03*
%TD*%
M02*
