%TF.GenerationSoftware,KiCad,Pcbnew,(6.0.9-0)*%
%TF.CreationDate,2022-11-09T23:01:03-06:00*%
%TF.ProjectId,CluePCB,436c7565-5043-4422-9e6b-696361645f70,1*%
%TF.SameCoordinates,Original*%
%TF.FileFunction,Legend,Top*%
%TF.FilePolarity,Positive*%
%FSLAX46Y46*%
G04 Gerber Fmt 4.6, Leading zero omitted, Abs format (unit mm)*
G04 Created by KiCad (PCBNEW (6.0.9-0)) date 2022-11-09 23:01:03*
%MOMM*%
%LPD*%
G01*
G04 APERTURE LIST*
%ADD10C,0.150000*%
%ADD11C,0.120000*%
%ADD12R,1.700000X1.700000*%
%ADD13O,1.700000X1.700000*%
%ADD14C,3.000000*%
%ADD15C,3.450000*%
%ADD16C,2.390000*%
%ADD17R,6.350000X7.340000*%
%ADD18C,1.524000*%
%ADD19C,1.600000*%
%ADD20R,1.200000X2.200000*%
%ADD21R,5.800000X6.400000*%
G04 APERTURE END LIST*
D10*
X214647619Y-97004761D02*
X214647619Y-96528571D01*
X215647619Y-96528571D01*
X214647619Y-97480952D02*
X214695238Y-97385714D01*
X214742857Y-97338095D01*
X214838095Y-97290476D01*
X215123809Y-97290476D01*
X215219047Y-97338095D01*
X215266666Y-97385714D01*
X215314285Y-97480952D01*
X215314285Y-97623809D01*
X215266666Y-97719047D01*
X215219047Y-97766666D01*
X215123809Y-97814285D01*
X214838095Y-97814285D01*
X214742857Y-97766666D01*
X214695238Y-97719047D01*
X214647619Y-97623809D01*
X214647619Y-97480952D01*
X214647619Y-98814285D02*
X215123809Y-98480952D01*
X214647619Y-98242857D02*
X215647619Y-98242857D01*
X215647619Y-98623809D01*
X215600000Y-98719047D01*
X215552380Y-98766666D01*
X215457142Y-98814285D01*
X215314285Y-98814285D01*
X215219047Y-98766666D01*
X215171428Y-98719047D01*
X215123809Y-98623809D01*
X215123809Y-98242857D01*
X214647619Y-99671428D02*
X215171428Y-99671428D01*
X215266666Y-99623809D01*
X215314285Y-99528571D01*
X215314285Y-99338095D01*
X215266666Y-99242857D01*
X214695238Y-99671428D02*
X214647619Y-99576190D01*
X214647619Y-99338095D01*
X214695238Y-99242857D01*
X214790476Y-99195238D01*
X214885714Y-99195238D01*
X214980952Y-99242857D01*
X215028571Y-99338095D01*
X215028571Y-99576190D01*
X215076190Y-99671428D01*
X214647619Y-100909523D02*
X215647619Y-100909523D01*
X214933333Y-101242857D01*
X215647619Y-101576190D01*
X214647619Y-101576190D01*
X214647619Y-102195238D02*
X214695238Y-102100000D01*
X214742857Y-102052380D01*
X214838095Y-102004761D01*
X215123809Y-102004761D01*
X215219047Y-102052380D01*
X215266666Y-102100000D01*
X215314285Y-102195238D01*
X215314285Y-102338095D01*
X215266666Y-102433333D01*
X215219047Y-102480952D01*
X215123809Y-102528571D01*
X214838095Y-102528571D01*
X214742857Y-102480952D01*
X214695238Y-102433333D01*
X214647619Y-102338095D01*
X214647619Y-102195238D01*
X214647619Y-103385714D02*
X215647619Y-103385714D01*
X214695238Y-103385714D02*
X214647619Y-103290476D01*
X214647619Y-103100000D01*
X214695238Y-103004761D01*
X214742857Y-102957142D01*
X214838095Y-102909523D01*
X215123809Y-102909523D01*
X215219047Y-102957142D01*
X215266666Y-103004761D01*
X215314285Y-103100000D01*
X215314285Y-103290476D01*
X215266666Y-103385714D01*
X215314285Y-104290476D02*
X214647619Y-104290476D01*
X215314285Y-103861904D02*
X214790476Y-103861904D01*
X214695238Y-103909523D01*
X214647619Y-104004761D01*
X214647619Y-104147619D01*
X214695238Y-104242857D01*
X214742857Y-104290476D01*
X214647619Y-104909523D02*
X214695238Y-104814285D01*
X214790476Y-104766666D01*
X215647619Y-104766666D01*
X214695238Y-105671428D02*
X214647619Y-105576190D01*
X214647619Y-105385714D01*
X214695238Y-105290476D01*
X214790476Y-105242857D01*
X215171428Y-105242857D01*
X215266666Y-105290476D01*
X215314285Y-105385714D01*
X215314285Y-105576190D01*
X215266666Y-105671428D01*
X215171428Y-105719047D01*
X215076190Y-105719047D01*
X214980952Y-105242857D01*
X103447619Y-100666666D02*
X104447619Y-100666666D01*
X104447619Y-101047619D01*
X104400000Y-101142857D01*
X104352380Y-101190476D01*
X104257142Y-101238095D01*
X104114285Y-101238095D01*
X104019047Y-101190476D01*
X103971428Y-101142857D01*
X103923809Y-101047619D01*
X103923809Y-100666666D01*
X104447619Y-101571428D02*
X103447619Y-101809523D01*
X104161904Y-102000000D01*
X103447619Y-102190476D01*
X104447619Y-102428571D01*
X103447619Y-103380952D02*
X103923809Y-103047619D01*
X103447619Y-102809523D02*
X104447619Y-102809523D01*
X104447619Y-103190476D01*
X104400000Y-103285714D01*
X104352380Y-103333333D01*
X104257142Y-103380952D01*
X104114285Y-103380952D01*
X104019047Y-103333333D01*
X103971428Y-103285714D01*
X103923809Y-103190476D01*
X103923809Y-102809523D01*
X103447619Y-104571428D02*
X104447619Y-104571428D01*
X103733333Y-104904761D01*
X104447619Y-105238095D01*
X103447619Y-105238095D01*
X104447619Y-105904761D02*
X104447619Y-106095238D01*
X104400000Y-106190476D01*
X104304761Y-106285714D01*
X104114285Y-106333333D01*
X103780952Y-106333333D01*
X103590476Y-106285714D01*
X103495238Y-106190476D01*
X103447619Y-106095238D01*
X103447619Y-105904761D01*
X103495238Y-105809523D01*
X103590476Y-105714285D01*
X103780952Y-105666666D01*
X104114285Y-105666666D01*
X104304761Y-105714285D01*
X104400000Y-105809523D01*
X104447619Y-105904761D01*
X103447619Y-106761904D02*
X104447619Y-106761904D01*
X103447619Y-107333333D01*
X104447619Y-107333333D01*
X105447619Y-44066666D02*
X106447619Y-44066666D01*
X106447619Y-44447619D01*
X106400000Y-44542857D01*
X106352380Y-44590476D01*
X106257142Y-44638095D01*
X106114285Y-44638095D01*
X106019047Y-44590476D01*
X105971428Y-44542857D01*
X105923809Y-44447619D01*
X105923809Y-44066666D01*
X106447619Y-44971428D02*
X105447619Y-45209523D01*
X106161904Y-45400000D01*
X105447619Y-45590476D01*
X106447619Y-45828571D01*
X105447619Y-46780952D02*
X105923809Y-46447619D01*
X105447619Y-46209523D02*
X106447619Y-46209523D01*
X106447619Y-46590476D01*
X106400000Y-46685714D01*
X106352380Y-46733333D01*
X106257142Y-46780952D01*
X106114285Y-46780952D01*
X106019047Y-46733333D01*
X105971428Y-46685714D01*
X105923809Y-46590476D01*
X105923809Y-46209523D01*
X105447619Y-47971428D02*
X106447619Y-47971428D01*
X105733333Y-48304761D01*
X106447619Y-48638095D01*
X105447619Y-48638095D01*
X105447619Y-49257142D02*
X105495238Y-49161904D01*
X105542857Y-49114285D01*
X105638095Y-49066666D01*
X105923809Y-49066666D01*
X106019047Y-49114285D01*
X106066666Y-49161904D01*
X106114285Y-49257142D01*
X106114285Y-49400000D01*
X106066666Y-49495238D01*
X106019047Y-49542857D01*
X105923809Y-49590476D01*
X105638095Y-49590476D01*
X105542857Y-49542857D01*
X105495238Y-49495238D01*
X105447619Y-49400000D01*
X105447619Y-49257142D01*
X105447619Y-50447619D02*
X106447619Y-50447619D01*
X105495238Y-50447619D02*
X105447619Y-50352380D01*
X105447619Y-50161904D01*
X105495238Y-50066666D01*
X105542857Y-50019047D01*
X105638095Y-49971428D01*
X105923809Y-49971428D01*
X106019047Y-50019047D01*
X106066666Y-50066666D01*
X106114285Y-50161904D01*
X106114285Y-50352380D01*
X106066666Y-50447619D01*
X106114285Y-51352380D02*
X105447619Y-51352380D01*
X106114285Y-50923809D02*
X105590476Y-50923809D01*
X105495238Y-50971428D01*
X105447619Y-51066666D01*
X105447619Y-51209523D01*
X105495238Y-51304761D01*
X105542857Y-51352380D01*
X105447619Y-51971428D02*
X105495238Y-51876190D01*
X105590476Y-51828571D01*
X106447619Y-51828571D01*
X105495238Y-52733333D02*
X105447619Y-52638095D01*
X105447619Y-52447619D01*
X105495238Y-52352380D01*
X105590476Y-52304761D01*
X105971428Y-52304761D01*
X106066666Y-52352380D01*
X106114285Y-52447619D01*
X106114285Y-52638095D01*
X106066666Y-52733333D01*
X105971428Y-52780952D01*
X105876190Y-52780952D01*
X105780952Y-52304761D01*
X204485714Y-56400000D02*
X204390476Y-56352380D01*
X204247619Y-56352380D01*
X204104761Y-56400000D01*
X204009523Y-56495238D01*
X203961904Y-56590476D01*
X203914285Y-56780952D01*
X203914285Y-56923809D01*
X203961904Y-57114285D01*
X204009523Y-57209523D01*
X204104761Y-57304761D01*
X204247619Y-57352380D01*
X204342857Y-57352380D01*
X204485714Y-57304761D01*
X204533333Y-57257142D01*
X204533333Y-56923809D01*
X204342857Y-56923809D01*
X204961904Y-57352380D02*
X204961904Y-56352380D01*
X205342857Y-56352380D01*
X205438095Y-56400000D01*
X205485714Y-56447619D01*
X205533333Y-56542857D01*
X205533333Y-56685714D01*
X205485714Y-56780952D01*
X205438095Y-56828571D01*
X205342857Y-56876190D01*
X204961904Y-56876190D01*
X205914285Y-57304761D02*
X206057142Y-57352380D01*
X206295238Y-57352380D01*
X206390476Y-57304761D01*
X206438095Y-57257142D01*
X206485714Y-57161904D01*
X206485714Y-57066666D01*
X206438095Y-56971428D01*
X206390476Y-56923809D01*
X206295238Y-56876190D01*
X206104761Y-56828571D01*
X206009523Y-56780952D01*
X205961904Y-56733333D01*
X205914285Y-56638095D01*
X205914285Y-56542857D01*
X205961904Y-56447619D01*
X206009523Y-56400000D01*
X206104761Y-56352380D01*
X206342857Y-56352380D01*
X206485714Y-56400000D01*
X207676190Y-57352380D02*
X207676190Y-56352380D01*
X208009523Y-57066666D01*
X208342857Y-56352380D01*
X208342857Y-57352380D01*
X208961904Y-57352380D02*
X208866666Y-57304761D01*
X208819047Y-57257142D01*
X208771428Y-57161904D01*
X208771428Y-56876190D01*
X208819047Y-56780952D01*
X208866666Y-56733333D01*
X208961904Y-56685714D01*
X209104761Y-56685714D01*
X209200000Y-56733333D01*
X209247619Y-56780952D01*
X209295238Y-56876190D01*
X209295238Y-57161904D01*
X209247619Y-57257142D01*
X209200000Y-57304761D01*
X209104761Y-57352380D01*
X208961904Y-57352380D01*
X210152380Y-57352380D02*
X210152380Y-56352380D01*
X210152380Y-57304761D02*
X210057142Y-57352380D01*
X209866666Y-57352380D01*
X209771428Y-57304761D01*
X209723809Y-57257142D01*
X209676190Y-57161904D01*
X209676190Y-56876190D01*
X209723809Y-56780952D01*
X209771428Y-56733333D01*
X209866666Y-56685714D01*
X210057142Y-56685714D01*
X210152380Y-56733333D01*
X211057142Y-56685714D02*
X211057142Y-57352380D01*
X210628571Y-56685714D02*
X210628571Y-57209523D01*
X210676190Y-57304761D01*
X210771428Y-57352380D01*
X210914285Y-57352380D01*
X211009523Y-57304761D01*
X211057142Y-57257142D01*
X211676190Y-57352380D02*
X211580952Y-57304761D01*
X211533333Y-57209523D01*
X211533333Y-56352380D01*
X212438095Y-57304761D02*
X212342857Y-57352380D01*
X212152380Y-57352380D01*
X212057142Y-57304761D01*
X212009523Y-57209523D01*
X212009523Y-56828571D01*
X212057142Y-56733333D01*
X212152380Y-56685714D01*
X212342857Y-56685714D01*
X212438095Y-56733333D01*
X212485714Y-56828571D01*
X212485714Y-56923809D01*
X212009523Y-57019047D01*
X120809523Y-39742380D02*
X120809523Y-38742380D01*
X120809523Y-39218571D02*
X121380952Y-39218571D01*
X121380952Y-39742380D02*
X121380952Y-38742380D01*
X121857142Y-39742380D02*
X121857142Y-39075714D01*
X121857142Y-38742380D02*
X121809523Y-38790000D01*
X121857142Y-38837619D01*
X121904761Y-38790000D01*
X121857142Y-38742380D01*
X121857142Y-38837619D01*
X122761904Y-39075714D02*
X122761904Y-39885238D01*
X122714285Y-39980476D01*
X122666666Y-40028095D01*
X122571428Y-40075714D01*
X122428571Y-40075714D01*
X122333333Y-40028095D01*
X122761904Y-39694761D02*
X122666666Y-39742380D01*
X122476190Y-39742380D01*
X122380952Y-39694761D01*
X122333333Y-39647142D01*
X122285714Y-39551904D01*
X122285714Y-39266190D01*
X122333333Y-39170952D01*
X122380952Y-39123333D01*
X122476190Y-39075714D01*
X122666666Y-39075714D01*
X122761904Y-39123333D01*
X123238095Y-39742380D02*
X123238095Y-38742380D01*
X123666666Y-39742380D02*
X123666666Y-39218571D01*
X123619047Y-39123333D01*
X123523809Y-39075714D01*
X123380952Y-39075714D01*
X123285714Y-39123333D01*
X123238095Y-39170952D01*
X124857142Y-39456666D02*
X125333333Y-39456666D01*
X124761904Y-39742380D02*
X125095238Y-38742380D01*
X125428571Y-39742380D01*
X125904761Y-39742380D02*
X125809523Y-39694761D01*
X125761904Y-39599523D01*
X125761904Y-38742380D01*
X126142857Y-39075714D02*
X126523809Y-39075714D01*
X126285714Y-38742380D02*
X126285714Y-39599523D01*
X126333333Y-39694761D01*
X126428571Y-39742380D01*
X126523809Y-39742380D01*
X126857142Y-39742380D02*
X126857142Y-39075714D01*
X126857142Y-38742380D02*
X126809523Y-38790000D01*
X126857142Y-38837619D01*
X126904761Y-38790000D01*
X126857142Y-38742380D01*
X126857142Y-38837619D01*
X127190476Y-39075714D02*
X127571428Y-39075714D01*
X127333333Y-38742380D02*
X127333333Y-39599523D01*
X127380952Y-39694761D01*
X127476190Y-39742380D01*
X127571428Y-39742380D01*
X128333333Y-39075714D02*
X128333333Y-39742380D01*
X127904761Y-39075714D02*
X127904761Y-39599523D01*
X127952380Y-39694761D01*
X128047619Y-39742380D01*
X128190476Y-39742380D01*
X128285714Y-39694761D01*
X128333333Y-39647142D01*
X129238095Y-39742380D02*
X129238095Y-38742380D01*
X129238095Y-39694761D02*
X129142857Y-39742380D01*
X128952380Y-39742380D01*
X128857142Y-39694761D01*
X128809523Y-39647142D01*
X128761904Y-39551904D01*
X128761904Y-39266190D01*
X128809523Y-39170952D01*
X128857142Y-39123333D01*
X128952380Y-39075714D01*
X129142857Y-39075714D01*
X129238095Y-39123333D01*
X130095238Y-39694761D02*
X130000000Y-39742380D01*
X129809523Y-39742380D01*
X129714285Y-39694761D01*
X129666666Y-39599523D01*
X129666666Y-39218571D01*
X129714285Y-39123333D01*
X129809523Y-39075714D01*
X130000000Y-39075714D01*
X130095238Y-39123333D01*
X130142857Y-39218571D01*
X130142857Y-39313809D01*
X129666666Y-39409047D01*
X131904761Y-39742380D02*
X131571428Y-39266190D01*
X131333333Y-39742380D02*
X131333333Y-38742380D01*
X131714285Y-38742380D01*
X131809523Y-38790000D01*
X131857142Y-38837619D01*
X131904761Y-38932857D01*
X131904761Y-39075714D01*
X131857142Y-39170952D01*
X131809523Y-39218571D01*
X131714285Y-39266190D01*
X131333333Y-39266190D01*
X132714285Y-39694761D02*
X132619047Y-39742380D01*
X132428571Y-39742380D01*
X132333333Y-39694761D01*
X132285714Y-39599523D01*
X132285714Y-39218571D01*
X132333333Y-39123333D01*
X132428571Y-39075714D01*
X132619047Y-39075714D01*
X132714285Y-39123333D01*
X132761904Y-39218571D01*
X132761904Y-39313809D01*
X132285714Y-39409047D01*
X133190476Y-39075714D02*
X133190476Y-40075714D01*
X133190476Y-39123333D02*
X133285714Y-39075714D01*
X133476190Y-39075714D01*
X133571428Y-39123333D01*
X133619047Y-39170952D01*
X133666666Y-39266190D01*
X133666666Y-39551904D01*
X133619047Y-39647142D01*
X133571428Y-39694761D01*
X133476190Y-39742380D01*
X133285714Y-39742380D01*
X133190476Y-39694761D01*
X134238095Y-39742380D02*
X134142857Y-39694761D01*
X134095238Y-39647142D01*
X134047619Y-39551904D01*
X134047619Y-39266190D01*
X134095238Y-39170952D01*
X134142857Y-39123333D01*
X134238095Y-39075714D01*
X134380952Y-39075714D01*
X134476190Y-39123333D01*
X134523809Y-39170952D01*
X134571428Y-39266190D01*
X134571428Y-39551904D01*
X134523809Y-39647142D01*
X134476190Y-39694761D01*
X134380952Y-39742380D01*
X134238095Y-39742380D01*
X135000000Y-39742380D02*
X135000000Y-39075714D01*
X135000000Y-39266190D02*
X135047619Y-39170952D01*
X135095238Y-39123333D01*
X135190476Y-39075714D01*
X135285714Y-39075714D01*
X135476190Y-39075714D02*
X135857142Y-39075714D01*
X135619047Y-38742380D02*
X135619047Y-39599523D01*
X135666666Y-39694761D01*
X135761904Y-39742380D01*
X135857142Y-39742380D01*
X136571428Y-39694761D02*
X136476190Y-39742380D01*
X136285714Y-39742380D01*
X136190476Y-39694761D01*
X136142857Y-39599523D01*
X136142857Y-39218571D01*
X136190476Y-39123333D01*
X136285714Y-39075714D01*
X136476190Y-39075714D01*
X136571428Y-39123333D01*
X136619047Y-39218571D01*
X136619047Y-39313809D01*
X136142857Y-39409047D01*
X137047619Y-39742380D02*
X137047619Y-39075714D01*
X137047619Y-39266190D02*
X137095238Y-39170952D01*
X137142857Y-39123333D01*
X137238095Y-39075714D01*
X137333333Y-39075714D01*
X138714285Y-40123333D02*
X138666666Y-40075714D01*
X138571428Y-39932857D01*
X138523809Y-39837619D01*
X138476190Y-39694761D01*
X138428571Y-39456666D01*
X138428571Y-39266190D01*
X138476190Y-39028095D01*
X138523809Y-38885238D01*
X138571428Y-38790000D01*
X138666666Y-38647142D01*
X138714285Y-38599523D01*
X139095238Y-39742380D02*
X139095238Y-38742380D01*
X139095238Y-39218571D02*
X139666666Y-39218571D01*
X139666666Y-39742380D02*
X139666666Y-38742380D01*
X140095238Y-39456666D02*
X140571428Y-39456666D01*
X140000000Y-39742380D02*
X140333333Y-38742380D01*
X140666666Y-39742380D01*
X141571428Y-39742380D02*
X141238095Y-39266190D01*
X141000000Y-39742380D02*
X141000000Y-38742380D01*
X141380952Y-38742380D01*
X141476190Y-38790000D01*
X141523809Y-38837619D01*
X141571428Y-38932857D01*
X141571428Y-39075714D01*
X141523809Y-39170952D01*
X141476190Y-39218571D01*
X141380952Y-39266190D01*
X141000000Y-39266190D01*
X141904761Y-40123333D02*
X141952380Y-40075714D01*
X142047619Y-39932857D01*
X142095238Y-39837619D01*
X142142857Y-39694761D01*
X142190476Y-39456666D01*
X142190476Y-39266190D01*
X142142857Y-39028095D01*
X142095238Y-38885238D01*
X142047619Y-38790000D01*
X141952380Y-38647142D01*
X141904761Y-38599523D01*
X129428571Y-41352380D02*
X129095238Y-40876190D01*
X128857142Y-41352380D02*
X128857142Y-40352380D01*
X129238095Y-40352380D01*
X129333333Y-40400000D01*
X129380952Y-40447619D01*
X129428571Y-40542857D01*
X129428571Y-40685714D01*
X129380952Y-40780952D01*
X129333333Y-40828571D01*
X129238095Y-40876190D01*
X128857142Y-40876190D01*
X130238095Y-41304761D02*
X130142857Y-41352380D01*
X129952380Y-41352380D01*
X129857142Y-41304761D01*
X129809523Y-41209523D01*
X129809523Y-40828571D01*
X129857142Y-40733333D01*
X129952380Y-40685714D01*
X130142857Y-40685714D01*
X130238095Y-40733333D01*
X130285714Y-40828571D01*
X130285714Y-40923809D01*
X129809523Y-41019047D01*
X130619047Y-40685714D02*
X130857142Y-41352380D01*
X131095238Y-40685714D01*
X132761904Y-41352380D02*
X132190476Y-41352380D01*
X132476190Y-41352380D02*
X132476190Y-40352380D01*
X132380952Y-40495238D01*
X132285714Y-40590476D01*
X132190476Y-40638095D01*
X133190476Y-41257142D02*
X133238095Y-41304761D01*
X133190476Y-41352380D01*
X133142857Y-41304761D01*
X133190476Y-41257142D01*
X133190476Y-41352380D01*
X133857142Y-40352380D02*
X133952380Y-40352380D01*
X134047619Y-40400000D01*
X134095238Y-40447619D01*
X134142857Y-40542857D01*
X134190476Y-40733333D01*
X134190476Y-40971428D01*
X134142857Y-41161904D01*
X134095238Y-41257142D01*
X134047619Y-41304761D01*
X133952380Y-41352380D01*
X133857142Y-41352380D01*
X133761904Y-41304761D01*
X133714285Y-41257142D01*
X133666666Y-41161904D01*
X133619047Y-40971428D01*
X133619047Y-40733333D01*
X133666666Y-40542857D01*
X133714285Y-40447619D01*
X133761904Y-40400000D01*
X133857142Y-40352380D01*
X125833333Y-42962380D02*
X125833333Y-41962380D01*
X126166666Y-42676666D01*
X126500000Y-41962380D01*
X126500000Y-42962380D01*
X127404761Y-42962380D02*
X127404761Y-42438571D01*
X127357142Y-42343333D01*
X127261904Y-42295714D01*
X127071428Y-42295714D01*
X126976190Y-42343333D01*
X127404761Y-42914761D02*
X127309523Y-42962380D01*
X127071428Y-42962380D01*
X126976190Y-42914761D01*
X126928571Y-42819523D01*
X126928571Y-42724285D01*
X126976190Y-42629047D01*
X127071428Y-42581428D01*
X127309523Y-42581428D01*
X127404761Y-42533809D01*
X127738095Y-42295714D02*
X128119047Y-42295714D01*
X127880952Y-41962380D02*
X127880952Y-42819523D01*
X127928571Y-42914761D01*
X128023809Y-42962380D01*
X128119047Y-42962380D01*
X128309523Y-42295714D02*
X128690476Y-42295714D01*
X128452380Y-41962380D02*
X128452380Y-42819523D01*
X128500000Y-42914761D01*
X128595238Y-42962380D01*
X128690476Y-42962380D01*
X129023809Y-42962380D02*
X129023809Y-41962380D01*
X129452380Y-42962380D02*
X129452380Y-42438571D01*
X129404761Y-42343333D01*
X129309523Y-42295714D01*
X129166666Y-42295714D01*
X129071428Y-42343333D01*
X129023809Y-42390952D01*
X130309523Y-42914761D02*
X130214285Y-42962380D01*
X130023809Y-42962380D01*
X129928571Y-42914761D01*
X129880952Y-42819523D01*
X129880952Y-42438571D01*
X129928571Y-42343333D01*
X130023809Y-42295714D01*
X130214285Y-42295714D01*
X130309523Y-42343333D01*
X130357142Y-42438571D01*
X130357142Y-42533809D01*
X129880952Y-42629047D01*
X130690476Y-42295714D02*
X130880952Y-42962380D01*
X131071428Y-42486190D01*
X131261904Y-42962380D01*
X131452380Y-42295714D01*
X132595238Y-42962380D02*
X132595238Y-41962380D01*
X133166666Y-42962380D01*
X133166666Y-41962380D01*
X134023809Y-42914761D02*
X133928571Y-42962380D01*
X133738095Y-42962380D01*
X133642857Y-42914761D01*
X133595238Y-42819523D01*
X133595238Y-42438571D01*
X133642857Y-42343333D01*
X133738095Y-42295714D01*
X133928571Y-42295714D01*
X134023809Y-42343333D01*
X134071428Y-42438571D01*
X134071428Y-42533809D01*
X133595238Y-42629047D01*
X134642857Y-42962380D02*
X134547619Y-42914761D01*
X134500000Y-42819523D01*
X134500000Y-41962380D01*
X134976190Y-42914761D02*
X135071428Y-42962380D01*
X135261904Y-42962380D01*
X135357142Y-42914761D01*
X135404761Y-42819523D01*
X135404761Y-42771904D01*
X135357142Y-42676666D01*
X135261904Y-42629047D01*
X135119047Y-42629047D01*
X135023809Y-42581428D01*
X134976190Y-42486190D01*
X134976190Y-42438571D01*
X135023809Y-42343333D01*
X135119047Y-42295714D01*
X135261904Y-42295714D01*
X135357142Y-42343333D01*
X135976190Y-42962380D02*
X135880952Y-42914761D01*
X135833333Y-42867142D01*
X135785714Y-42771904D01*
X135785714Y-42486190D01*
X135833333Y-42390952D01*
X135880952Y-42343333D01*
X135976190Y-42295714D01*
X136119047Y-42295714D01*
X136214285Y-42343333D01*
X136261904Y-42390952D01*
X136309523Y-42486190D01*
X136309523Y-42771904D01*
X136261904Y-42867142D01*
X136214285Y-42914761D01*
X136119047Y-42962380D01*
X135976190Y-42962380D01*
X136738095Y-42295714D02*
X136738095Y-42962380D01*
X136738095Y-42390952D02*
X136785714Y-42343333D01*
X136880952Y-42295714D01*
X137023809Y-42295714D01*
X137119047Y-42343333D01*
X137166666Y-42438571D01*
X137166666Y-42962380D01*
X151919047Y-78257142D02*
X151871428Y-78304761D01*
X151728571Y-78352380D01*
X151633333Y-78352380D01*
X151490476Y-78304761D01*
X151395238Y-78209523D01*
X151347619Y-78114285D01*
X151300000Y-77923809D01*
X151300000Y-77780952D01*
X151347619Y-77590476D01*
X151395238Y-77495238D01*
X151490476Y-77400000D01*
X151633333Y-77352380D01*
X151728571Y-77352380D01*
X151871428Y-77400000D01*
X151919047Y-77447619D01*
X152490476Y-78352380D02*
X152395238Y-78304761D01*
X152347619Y-78209523D01*
X152347619Y-77352380D01*
X153300000Y-77685714D02*
X153300000Y-78352380D01*
X152871428Y-77685714D02*
X152871428Y-78209523D01*
X152919047Y-78304761D01*
X153014285Y-78352380D01*
X153157142Y-78352380D01*
X153252380Y-78304761D01*
X153300000Y-78257142D01*
X154157142Y-78304761D02*
X154061904Y-78352380D01*
X153871428Y-78352380D01*
X153776190Y-78304761D01*
X153728571Y-78209523D01*
X153728571Y-77828571D01*
X153776190Y-77733333D01*
X153871428Y-77685714D01*
X154061904Y-77685714D01*
X154157142Y-77733333D01*
X154204761Y-77828571D01*
X154204761Y-77923809D01*
X153728571Y-78019047D01*
X155728571Y-77828571D02*
X155871428Y-77876190D01*
X155919047Y-77923809D01*
X155966666Y-78019047D01*
X155966666Y-78161904D01*
X155919047Y-78257142D01*
X155871428Y-78304761D01*
X155776190Y-78352380D01*
X155395238Y-78352380D01*
X155395238Y-77352380D01*
X155728571Y-77352380D01*
X155823809Y-77400000D01*
X155871428Y-77447619D01*
X155919047Y-77542857D01*
X155919047Y-77638095D01*
X155871428Y-77733333D01*
X155823809Y-77780952D01*
X155728571Y-77828571D01*
X155395238Y-77828571D01*
X156538095Y-78352380D02*
X156442857Y-78304761D01*
X156395238Y-78257142D01*
X156347619Y-78161904D01*
X156347619Y-77876190D01*
X156395238Y-77780952D01*
X156442857Y-77733333D01*
X156538095Y-77685714D01*
X156680952Y-77685714D01*
X156776190Y-77733333D01*
X156823809Y-77780952D01*
X156871428Y-77876190D01*
X156871428Y-78161904D01*
X156823809Y-78257142D01*
X156776190Y-78304761D01*
X156680952Y-78352380D01*
X156538095Y-78352380D01*
X157728571Y-78352380D02*
X157728571Y-77828571D01*
X157680952Y-77733333D01*
X157585714Y-77685714D01*
X157395238Y-77685714D01*
X157300000Y-77733333D01*
X157728571Y-78304761D02*
X157633333Y-78352380D01*
X157395238Y-78352380D01*
X157300000Y-78304761D01*
X157252380Y-78209523D01*
X157252380Y-78114285D01*
X157300000Y-78019047D01*
X157395238Y-77971428D01*
X157633333Y-77971428D01*
X157728571Y-77923809D01*
X158204761Y-78352380D02*
X158204761Y-77685714D01*
X158204761Y-77876190D02*
X158252380Y-77780952D01*
X158300000Y-77733333D01*
X158395238Y-77685714D01*
X158490476Y-77685714D01*
X159252380Y-78352380D02*
X159252380Y-77352380D01*
X159252380Y-78304761D02*
X159157142Y-78352380D01*
X158966666Y-78352380D01*
X158871428Y-78304761D01*
X158823809Y-78257142D01*
X158776190Y-78161904D01*
X158776190Y-77876190D01*
X158823809Y-77780952D01*
X158871428Y-77733333D01*
X158966666Y-77685714D01*
X159157142Y-77685714D01*
X159252380Y-77733333D01*
X130550000Y-64500000D02*
X182850000Y-64500000D01*
X182850000Y-64500000D02*
X182850000Y-91200000D01*
X182850000Y-91200000D02*
X130550000Y-91200000D01*
X130550000Y-91200000D02*
X130550000Y-64500000D01*
X74585714Y-45528571D02*
X74728571Y-45576190D01*
X74776190Y-45623809D01*
X74823809Y-45719047D01*
X74823809Y-45861904D01*
X74776190Y-45957142D01*
X74728571Y-46004761D01*
X74633333Y-46052380D01*
X74252380Y-46052380D01*
X74252380Y-45052380D01*
X74585714Y-45052380D01*
X74680952Y-45100000D01*
X74728571Y-45147619D01*
X74776190Y-45242857D01*
X74776190Y-45338095D01*
X74728571Y-45433333D01*
X74680952Y-45480952D01*
X74585714Y-45528571D01*
X74252380Y-45528571D01*
X75204761Y-45766666D02*
X75680952Y-45766666D01*
X75109523Y-46052380D02*
X75442857Y-45052380D01*
X75776190Y-46052380D01*
X75966666Y-45052380D02*
X76538095Y-45052380D01*
X76252380Y-46052380D02*
X76252380Y-45052380D01*
X76728571Y-45052380D02*
X77300000Y-45052380D01*
X77014285Y-46052380D02*
X77014285Y-45052380D01*
X78395238Y-46052380D02*
X78395238Y-45052380D01*
X78633333Y-45052380D01*
X78776190Y-45100000D01*
X78871428Y-45195238D01*
X78919047Y-45290476D01*
X78966666Y-45480952D01*
X78966666Y-45623809D01*
X78919047Y-45814285D01*
X78871428Y-45909523D01*
X78776190Y-46004761D01*
X78633333Y-46052380D01*
X78395238Y-46052380D01*
X79395238Y-46052380D02*
X79395238Y-45052380D01*
X79823809Y-46004761D02*
X79966666Y-46052380D01*
X80204761Y-46052380D01*
X80300000Y-46004761D01*
X80347619Y-45957142D01*
X80395238Y-45861904D01*
X80395238Y-45766666D01*
X80347619Y-45671428D01*
X80300000Y-45623809D01*
X80204761Y-45576190D01*
X80014285Y-45528571D01*
X79919047Y-45480952D01*
X79871428Y-45433333D01*
X79823809Y-45338095D01*
X79823809Y-45242857D01*
X79871428Y-45147619D01*
X79919047Y-45100000D01*
X80014285Y-45052380D01*
X80252380Y-45052380D01*
X80395238Y-45100000D01*
X81395238Y-45957142D02*
X81347619Y-46004761D01*
X81204761Y-46052380D01*
X81109523Y-46052380D01*
X80966666Y-46004761D01*
X80871428Y-45909523D01*
X80823809Y-45814285D01*
X80776190Y-45623809D01*
X80776190Y-45480952D01*
X80823809Y-45290476D01*
X80871428Y-45195238D01*
X80966666Y-45100000D01*
X81109523Y-45052380D01*
X81204761Y-45052380D01*
X81347619Y-45100000D01*
X81395238Y-45147619D01*
X62938095Y-46900000D02*
X62842857Y-46852380D01*
X62700000Y-46852380D01*
X62557142Y-46900000D01*
X62461904Y-46995238D01*
X62414285Y-47090476D01*
X62366666Y-47280952D01*
X62366666Y-47423809D01*
X62414285Y-47614285D01*
X62461904Y-47709523D01*
X62557142Y-47804761D01*
X62700000Y-47852380D01*
X62795238Y-47852380D01*
X62938095Y-47804761D01*
X62985714Y-47757142D01*
X62985714Y-47423809D01*
X62795238Y-47423809D01*
X63414285Y-47852380D02*
X63414285Y-46852380D01*
X63985714Y-47852380D01*
X63985714Y-46852380D01*
X64461904Y-47852380D02*
X64461904Y-46852380D01*
X64700000Y-46852380D01*
X64842857Y-46900000D01*
X64938095Y-46995238D01*
X64985714Y-47090476D01*
X65033333Y-47280952D01*
X65033333Y-47423809D01*
X64985714Y-47614285D01*
X64938095Y-47709523D01*
X64842857Y-47804761D01*
X64700000Y-47852380D01*
X64461904Y-47852380D01*
X131318095Y-134120000D02*
X131222857Y-134072380D01*
X131080000Y-134072380D01*
X130937142Y-134120000D01*
X130841904Y-134215238D01*
X130794285Y-134310476D01*
X130746666Y-134500952D01*
X130746666Y-134643809D01*
X130794285Y-134834285D01*
X130841904Y-134929523D01*
X130937142Y-135024761D01*
X131080000Y-135072380D01*
X131175238Y-135072380D01*
X131318095Y-135024761D01*
X131365714Y-134977142D01*
X131365714Y-134643809D01*
X131175238Y-134643809D01*
X131794285Y-135072380D02*
X131794285Y-134072380D01*
X132365714Y-135072380D01*
X132365714Y-134072380D01*
X132841904Y-135072380D02*
X132841904Y-134072380D01*
X133080000Y-134072380D01*
X133222857Y-134120000D01*
X133318095Y-134215238D01*
X133365714Y-134310476D01*
X133413333Y-134500952D01*
X133413333Y-134643809D01*
X133365714Y-134834285D01*
X133318095Y-134929523D01*
X133222857Y-135024761D01*
X133080000Y-135072380D01*
X132841904Y-135072380D01*
X131572380Y-139152380D02*
X132191428Y-139152380D01*
X131858095Y-139533333D01*
X132000952Y-139533333D01*
X132096190Y-139580952D01*
X132143809Y-139628571D01*
X132191428Y-139723809D01*
X132191428Y-139961904D01*
X132143809Y-140057142D01*
X132096190Y-140104761D01*
X132000952Y-140152380D01*
X131715238Y-140152380D01*
X131620000Y-140104761D01*
X131572380Y-140057142D01*
X132477142Y-139152380D02*
X132810476Y-140152380D01*
X133143809Y-139152380D01*
X133381904Y-139152380D02*
X134000952Y-139152380D01*
X133667619Y-139533333D01*
X133810476Y-139533333D01*
X133905714Y-139580952D01*
X133953333Y-139628571D01*
X134000952Y-139723809D01*
X134000952Y-139961904D01*
X133953333Y-140057142D01*
X133905714Y-140104761D01*
X133810476Y-140152380D01*
X133524761Y-140152380D01*
X133429523Y-140104761D01*
X133381904Y-140057142D01*
X135381904Y-139152380D02*
X135572380Y-139152380D01*
X135667619Y-139200000D01*
X135762857Y-139295238D01*
X135810476Y-139485714D01*
X135810476Y-139819047D01*
X135762857Y-140009523D01*
X135667619Y-140104761D01*
X135572380Y-140152380D01*
X135381904Y-140152380D01*
X135286666Y-140104761D01*
X135191428Y-140009523D01*
X135143809Y-139819047D01*
X135143809Y-139485714D01*
X135191428Y-139295238D01*
X135286666Y-139200000D01*
X135381904Y-139152380D01*
X136239047Y-139152380D02*
X136239047Y-139961904D01*
X136286666Y-140057142D01*
X136334285Y-140104761D01*
X136429523Y-140152380D01*
X136620000Y-140152380D01*
X136715238Y-140104761D01*
X136762857Y-140057142D01*
X136810476Y-139961904D01*
X136810476Y-139152380D01*
X137143809Y-139152380D02*
X137715238Y-139152380D01*
X137429523Y-140152380D02*
X137429523Y-139152380D01*
X134651904Y-134072380D02*
X135270952Y-134072380D01*
X134937619Y-134453333D01*
X135080476Y-134453333D01*
X135175714Y-134500952D01*
X135223333Y-134548571D01*
X135270952Y-134643809D01*
X135270952Y-134881904D01*
X135223333Y-134977142D01*
X135175714Y-135024761D01*
X135080476Y-135072380D01*
X134794761Y-135072380D01*
X134699523Y-135024761D01*
X134651904Y-134977142D01*
X135556666Y-134072380D02*
X135890000Y-135072380D01*
X136223333Y-134072380D01*
X136461428Y-134072380D02*
X137080476Y-134072380D01*
X136747142Y-134453333D01*
X136890000Y-134453333D01*
X136985238Y-134500952D01*
X137032857Y-134548571D01*
X137080476Y-134643809D01*
X137080476Y-134881904D01*
X137032857Y-134977142D01*
X136985238Y-135024761D01*
X136890000Y-135072380D01*
X136604285Y-135072380D01*
X136509047Y-135024761D01*
X136461428Y-134977142D01*
X65742857Y-47371428D02*
X66504761Y-47371428D01*
X66123809Y-47752380D02*
X66123809Y-46990476D01*
X67457142Y-46752380D02*
X66980952Y-46752380D01*
X66933333Y-47228571D01*
X66980952Y-47180952D01*
X67076190Y-47133333D01*
X67314285Y-47133333D01*
X67409523Y-47180952D01*
X67457142Y-47228571D01*
X67504761Y-47323809D01*
X67504761Y-47561904D01*
X67457142Y-47657142D01*
X67409523Y-47704761D01*
X67314285Y-47752380D01*
X67076190Y-47752380D01*
X66980952Y-47704761D01*
X66933333Y-47657142D01*
X64166666Y-52352380D02*
X63690476Y-52352380D01*
X63642857Y-52828571D01*
X63690476Y-52780952D01*
X63785714Y-52733333D01*
X64023809Y-52733333D01*
X64119047Y-52780952D01*
X64166666Y-52828571D01*
X64214285Y-52923809D01*
X64214285Y-53161904D01*
X64166666Y-53257142D01*
X64119047Y-53304761D01*
X64023809Y-53352380D01*
X63785714Y-53352380D01*
X63690476Y-53304761D01*
X63642857Y-53257142D01*
X64500000Y-52352380D02*
X64833333Y-53352380D01*
X65166666Y-52352380D01*
X66261904Y-53352380D02*
X66261904Y-52352380D01*
X66738095Y-53352380D02*
X66738095Y-52352380D01*
X67309523Y-53352380D01*
X67309523Y-52352380D01*
X108409523Y-71452380D02*
X108409523Y-70452380D01*
X108790476Y-70452380D01*
X108885714Y-70500000D01*
X108933333Y-70547619D01*
X108980952Y-70642857D01*
X108980952Y-70785714D01*
X108933333Y-70880952D01*
X108885714Y-70928571D01*
X108790476Y-70976190D01*
X108409523Y-70976190D01*
X109314285Y-70452380D02*
X109552380Y-71452380D01*
X109742857Y-70738095D01*
X109933333Y-71452380D01*
X110171428Y-70452380D01*
X111123809Y-71452380D02*
X110790476Y-70976190D01*
X110552380Y-71452380D02*
X110552380Y-70452380D01*
X110933333Y-70452380D01*
X111028571Y-70500000D01*
X111076190Y-70547619D01*
X111123809Y-70642857D01*
X111123809Y-70785714D01*
X111076190Y-70880952D01*
X111028571Y-70928571D01*
X110933333Y-70976190D01*
X110552380Y-70976190D01*
X112314285Y-70928571D02*
X112647619Y-70928571D01*
X112790476Y-71452380D02*
X112314285Y-71452380D01*
X112314285Y-70452380D01*
X112790476Y-70452380D01*
X113219047Y-71452380D02*
X113219047Y-70452380D01*
X113790476Y-71452380D01*
X113790476Y-70452380D01*
%TO.C,U4*%
X154638095Y-103552380D02*
X154638095Y-104361904D01*
X154685714Y-104457142D01*
X154733333Y-104504761D01*
X154828571Y-104552380D01*
X155019047Y-104552380D01*
X155114285Y-104504761D01*
X155161904Y-104457142D01*
X155209523Y-104361904D01*
X155209523Y-103552380D01*
X156114285Y-103885714D02*
X156114285Y-104552380D01*
X155876190Y-103504761D02*
X155638095Y-104219047D01*
X156257142Y-104219047D01*
%TO.C,H3*%
X221038095Y-135352380D02*
X221038095Y-134352380D01*
X221038095Y-134828571D02*
X221609523Y-134828571D01*
X221609523Y-135352380D02*
X221609523Y-134352380D01*
X221990476Y-134352380D02*
X222609523Y-134352380D01*
X222276190Y-134733333D01*
X222419047Y-134733333D01*
X222514285Y-134780952D01*
X222561904Y-134828571D01*
X222609523Y-134923809D01*
X222609523Y-135161904D01*
X222561904Y-135257142D01*
X222514285Y-135304761D01*
X222419047Y-135352380D01*
X222133333Y-135352380D01*
X222038095Y-135304761D01*
X221990476Y-135257142D01*
%TO.C,H2*%
X65638095Y-38452380D02*
X65638095Y-37452380D01*
X65638095Y-37928571D02*
X66209523Y-37928571D01*
X66209523Y-38452380D02*
X66209523Y-37452380D01*
X66638095Y-37547619D02*
X66685714Y-37500000D01*
X66780952Y-37452380D01*
X67019047Y-37452380D01*
X67114285Y-37500000D01*
X67161904Y-37547619D01*
X67209523Y-37642857D01*
X67209523Y-37738095D01*
X67161904Y-37880952D01*
X66590476Y-38452380D01*
X67209523Y-38452380D01*
%TO.C,H1*%
X65538095Y-136452380D02*
X65538095Y-135452380D01*
X65538095Y-135928571D02*
X66109523Y-135928571D01*
X66109523Y-136452380D02*
X66109523Y-135452380D01*
X67109523Y-136452380D02*
X66538095Y-136452380D01*
X66823809Y-136452380D02*
X66823809Y-135452380D01*
X66728571Y-135595238D01*
X66633333Y-135690476D01*
X66538095Y-135738095D01*
%TO.C,J3*%
X130277380Y-137413333D02*
X130991666Y-137413333D01*
X131134523Y-137460952D01*
X131229761Y-137556190D01*
X131277380Y-137699047D01*
X131277380Y-137794285D01*
X130277380Y-137032380D02*
X130277380Y-136413333D01*
X130658333Y-136746666D01*
X130658333Y-136603809D01*
X130705952Y-136508571D01*
X130753571Y-136460952D01*
X130848809Y-136413333D01*
X131086904Y-136413333D01*
X131182142Y-136460952D01*
X131229761Y-136508571D01*
X131277380Y-136603809D01*
X131277380Y-136889523D01*
X131229761Y-136984761D01*
X131182142Y-137032380D01*
%TO.C,BT1*%
X85088571Y-94765714D02*
X85136190Y-94622857D01*
X85183809Y-94575238D01*
X85279047Y-94527619D01*
X85421904Y-94527619D01*
X85517142Y-94575238D01*
X85564761Y-94622857D01*
X85612380Y-94718095D01*
X85612380Y-95099047D01*
X84612380Y-95099047D01*
X84612380Y-94765714D01*
X84660000Y-94670476D01*
X84707619Y-94622857D01*
X84802857Y-94575238D01*
X84898095Y-94575238D01*
X84993333Y-94622857D01*
X85040952Y-94670476D01*
X85088571Y-94765714D01*
X85088571Y-95099047D01*
X84612380Y-94241904D02*
X84612380Y-93670476D01*
X85612380Y-93956190D02*
X84612380Y-93956190D01*
X85612380Y-92813333D02*
X85612380Y-93384761D01*
X85612380Y-93099047D02*
X84612380Y-93099047D01*
X84755238Y-93194285D01*
X84850476Y-93289523D01*
X84898095Y-93384761D01*
%TO.C,U5*%
X212847619Y-99938095D02*
X212038095Y-99938095D01*
X211942857Y-99985714D01*
X211895238Y-100033333D01*
X211847619Y-100128571D01*
X211847619Y-100319047D01*
X211895238Y-100414285D01*
X211942857Y-100461904D01*
X212038095Y-100509523D01*
X212847619Y-100509523D01*
X212847619Y-101461904D02*
X212847619Y-100985714D01*
X212371428Y-100938095D01*
X212419047Y-100985714D01*
X212466666Y-101080952D01*
X212466666Y-101319047D01*
X212419047Y-101414285D01*
X212371428Y-101461904D01*
X212276190Y-101509523D01*
X212038095Y-101509523D01*
X211942857Y-101461904D01*
X211895238Y-101414285D01*
X211847619Y-101319047D01*
X211847619Y-101080952D01*
X211895238Y-100985714D01*
X211942857Y-100938095D01*
%TO.C,U6*%
X207338095Y-59329880D02*
X207338095Y-60139404D01*
X207385714Y-60234642D01*
X207433333Y-60282261D01*
X207528571Y-60329880D01*
X207719047Y-60329880D01*
X207814285Y-60282261D01*
X207861904Y-60234642D01*
X207909523Y-60139404D01*
X207909523Y-59329880D01*
X208814285Y-59329880D02*
X208623809Y-59329880D01*
X208528571Y-59377500D01*
X208480952Y-59425119D01*
X208385714Y-59567976D01*
X208338095Y-59758452D01*
X208338095Y-60139404D01*
X208385714Y-60234642D01*
X208433333Y-60282261D01*
X208528571Y-60329880D01*
X208719047Y-60329880D01*
X208814285Y-60282261D01*
X208861904Y-60234642D01*
X208909523Y-60139404D01*
X208909523Y-59901309D01*
X208861904Y-59806071D01*
X208814285Y-59758452D01*
X208719047Y-59710833D01*
X208528571Y-59710833D01*
X208433333Y-59758452D01*
X208385714Y-59806071D01*
X208338095Y-59901309D01*
%TO.C,U2*%
X102807619Y-103238095D02*
X101998095Y-103238095D01*
X101902857Y-103285714D01*
X101855238Y-103333333D01*
X101807619Y-103428571D01*
X101807619Y-103619047D01*
X101855238Y-103714285D01*
X101902857Y-103761904D01*
X101998095Y-103809523D01*
X102807619Y-103809523D01*
X102712380Y-104238095D02*
X102760000Y-104285714D01*
X102807619Y-104380952D01*
X102807619Y-104619047D01*
X102760000Y-104714285D01*
X102712380Y-104761904D01*
X102617142Y-104809523D01*
X102521904Y-104809523D01*
X102379047Y-104761904D01*
X101807619Y-104190476D01*
X101807619Y-104809523D01*
%TO.C,J1*%
X61247380Y-50533333D02*
X61961666Y-50533333D01*
X62104523Y-50580952D01*
X62199761Y-50676190D01*
X62247380Y-50819047D01*
X62247380Y-50914285D01*
X62247380Y-49533333D02*
X62247380Y-50104761D01*
X62247380Y-49819047D02*
X61247380Y-49819047D01*
X61390238Y-49914285D01*
X61485476Y-50009523D01*
X61533095Y-50104761D01*
%TO.C,C1*%
X109053333Y-121317142D02*
X109005714Y-121364761D01*
X108862857Y-121412380D01*
X108767619Y-121412380D01*
X108624761Y-121364761D01*
X108529523Y-121269523D01*
X108481904Y-121174285D01*
X108434285Y-120983809D01*
X108434285Y-120840952D01*
X108481904Y-120650476D01*
X108529523Y-120555238D01*
X108624761Y-120460000D01*
X108767619Y-120412380D01*
X108862857Y-120412380D01*
X109005714Y-120460000D01*
X109053333Y-120507619D01*
X110005714Y-121412380D02*
X109434285Y-121412380D01*
X109720000Y-121412380D02*
X109720000Y-120412380D01*
X109624761Y-120555238D01*
X109529523Y-120650476D01*
X109434285Y-120698095D01*
%TO.C,U1*%
X103917619Y-48768095D02*
X103108095Y-48768095D01*
X103012857Y-48815714D01*
X102965238Y-48863333D01*
X102917619Y-48958571D01*
X102917619Y-49149047D01*
X102965238Y-49244285D01*
X103012857Y-49291904D01*
X103108095Y-49339523D01*
X103917619Y-49339523D01*
X102917619Y-50339523D02*
X102917619Y-49768095D01*
X102917619Y-50053809D02*
X103917619Y-50053809D01*
X103774761Y-49958571D01*
X103679523Y-49863333D01*
X103631904Y-49768095D01*
%TO.C,J2*%
X114257380Y-67333333D02*
X114971666Y-67333333D01*
X115114523Y-67380952D01*
X115209761Y-67476190D01*
X115257380Y-67619047D01*
X115257380Y-67714285D01*
X114352619Y-66904761D02*
X114305000Y-66857142D01*
X114257380Y-66761904D01*
X114257380Y-66523809D01*
X114305000Y-66428571D01*
X114352619Y-66380952D01*
X114447857Y-66333333D01*
X114543095Y-66333333D01*
X114685952Y-66380952D01*
X115257380Y-66952380D01*
X115257380Y-66333333D01*
%TO.C,C2*%
X134453333Y-129587142D02*
X134405714Y-129634761D01*
X134262857Y-129682380D01*
X134167619Y-129682380D01*
X134024761Y-129634761D01*
X133929523Y-129539523D01*
X133881904Y-129444285D01*
X133834285Y-129253809D01*
X133834285Y-129110952D01*
X133881904Y-128920476D01*
X133929523Y-128825238D01*
X134024761Y-128730000D01*
X134167619Y-128682380D01*
X134262857Y-128682380D01*
X134405714Y-128730000D01*
X134453333Y-128777619D01*
X134834285Y-128777619D02*
X134881904Y-128730000D01*
X134977142Y-128682380D01*
X135215238Y-128682380D01*
X135310476Y-128730000D01*
X135358095Y-128777619D01*
X135405714Y-128872857D01*
X135405714Y-128968095D01*
X135358095Y-129110952D01*
X134786666Y-129682380D01*
X135405714Y-129682380D01*
%TO.C,U3*%
X119157380Y-128996904D02*
X119966904Y-128996904D01*
X120062142Y-128949285D01*
X120109761Y-128901666D01*
X120157380Y-128806428D01*
X120157380Y-128615952D01*
X120109761Y-128520714D01*
X120062142Y-128473095D01*
X119966904Y-128425476D01*
X119157380Y-128425476D01*
X119157380Y-128044523D02*
X119157380Y-127425476D01*
X119538333Y-127758809D01*
X119538333Y-127615952D01*
X119585952Y-127520714D01*
X119633571Y-127473095D01*
X119728809Y-127425476D01*
X119966904Y-127425476D01*
X120062142Y-127473095D01*
X120109761Y-127520714D01*
X120157380Y-127615952D01*
X120157380Y-127901666D01*
X120109761Y-127996904D01*
X120062142Y-128044523D01*
%TO.C,SW1*%
X75544761Y-43243333D02*
X75592380Y-43100476D01*
X75592380Y-42862380D01*
X75544761Y-42767142D01*
X75497142Y-42719523D01*
X75401904Y-42671904D01*
X75306666Y-42671904D01*
X75211428Y-42719523D01*
X75163809Y-42767142D01*
X75116190Y-42862380D01*
X75068571Y-43052857D01*
X75020952Y-43148095D01*
X74973333Y-43195714D01*
X74878095Y-43243333D01*
X74782857Y-43243333D01*
X74687619Y-43195714D01*
X74640000Y-43148095D01*
X74592380Y-43052857D01*
X74592380Y-42814761D01*
X74640000Y-42671904D01*
X74592380Y-42338571D02*
X75592380Y-42100476D01*
X74878095Y-41910000D01*
X75592380Y-41719523D01*
X74592380Y-41481428D01*
X75592380Y-40576666D02*
X75592380Y-41148095D01*
X75592380Y-40862380D02*
X74592380Y-40862380D01*
X74735238Y-40957619D01*
X74830476Y-41052857D01*
X74878095Y-41148095D01*
D11*
%TO.C,U4*%
X183380000Y-116520000D02*
X183380000Y-113860000D01*
X129980000Y-113860000D02*
X183380000Y-113860000D01*
X129980000Y-116520000D02*
X129980000Y-113860000D01*
X129980000Y-116520000D02*
X183380000Y-116520000D01*
X128710000Y-116520000D02*
X127380000Y-116520000D01*
X127380000Y-116520000D02*
X127380000Y-115190000D01*
X119840000Y-91900000D02*
X190960000Y-91900000D01*
X190960000Y-91900000D02*
X190960000Y-117300000D01*
X190960000Y-117300000D02*
X119840000Y-117300000D01*
X119840000Y-117300000D02*
X119840000Y-91900000D01*
%TO.C,J3*%
X137025000Y-138410000D02*
X137025000Y-135750000D01*
X134425000Y-135750000D02*
X137025000Y-135750000D01*
X131825000Y-138410000D02*
X131825000Y-137080000D01*
X134425000Y-138410000D02*
X137025000Y-138410000D01*
X134425000Y-138410000D02*
X134425000Y-135750000D01*
X133155000Y-138410000D02*
X131825000Y-138410000D01*
%TO.C,BT1*%
X79660000Y-137730000D02*
X79660000Y-135230000D01*
X79660000Y-50230000D02*
X79660000Y-52730000D01*
X70220000Y-132620000D02*
X63220000Y-132620000D01*
X77100000Y-55340000D02*
X77100000Y-50980000D01*
X78410000Y-51480000D02*
X80910000Y-51480000D01*
X63220000Y-55340000D02*
X70220000Y-55340000D01*
X84100000Y-55340000D02*
X77100000Y-55340000D01*
X84100000Y-132620000D02*
X84100000Y-55340000D01*
X77100000Y-132620000D02*
X84080000Y-132620000D01*
X63220000Y-132620000D02*
X63220000Y-55340000D01*
%TO.C,U5*%
X223910000Y-91810000D02*
X223910000Y-102030000D01*
X198510000Y-90500000D02*
X198510000Y-89170000D01*
X198510000Y-91770000D02*
X201170000Y-91770000D01*
X223910000Y-89210000D02*
X225240000Y-89210000D01*
X198510000Y-112150000D02*
X201170000Y-112150000D01*
X223910000Y-102030000D02*
X226570000Y-102030000D01*
X226570000Y-91810000D02*
X226570000Y-102030000D01*
X198510000Y-91770000D02*
X198510000Y-112150000D01*
X223910000Y-90540000D02*
X223910000Y-89210000D01*
X223910000Y-91810000D02*
X226570000Y-91810000D01*
X198510000Y-89170000D02*
X199840000Y-89170000D01*
X201170000Y-91770000D02*
X201170000Y-112150000D01*
X227040000Y-88000000D02*
X196560000Y-88000000D01*
X196560000Y-88000000D02*
X196560000Y-113400000D01*
X196560000Y-113400000D02*
X227040000Y-113400000D01*
X227040000Y-113400000D02*
X227040000Y-88000000D01*
%TO.C,U6*%
X191520000Y-54857500D02*
X191520000Y-53527500D01*
X191520000Y-73967500D02*
X194180000Y-73967500D01*
X222060000Y-61237500D02*
X222060000Y-76537500D01*
X224720000Y-61237500D02*
X224720000Y-76537500D01*
X191520000Y-56127500D02*
X194180000Y-56127500D01*
X194180000Y-56127500D02*
X194180000Y-73967500D01*
X222060000Y-61237500D02*
X224720000Y-61237500D01*
X222060000Y-59967500D02*
X222060000Y-58637500D01*
X222070000Y-76527500D02*
X224730000Y-76527500D01*
X222060000Y-58637500D02*
X223390000Y-58637500D01*
X191520000Y-56127500D02*
X191520000Y-73967500D01*
X191520000Y-53527500D02*
X192850000Y-53527500D01*
X190560000Y-40077500D02*
X225840000Y-40077500D01*
X225840000Y-40077500D02*
X225840000Y-82407500D01*
X225840000Y-82407500D02*
X190560000Y-82407500D01*
X190560000Y-82407500D02*
X190560000Y-40077500D01*
%TO.C,U2*%
X112410000Y-90760000D02*
X91160000Y-90760000D01*
X91160000Y-90760000D02*
X91160000Y-116590000D01*
X91160000Y-116590000D02*
X112410000Y-116590000D01*
X112410000Y-116590000D02*
X112410000Y-90760000D01*
%TO.C,J1*%
X65395000Y-51530000D02*
X67995000Y-51530000D01*
X64125000Y-51530000D02*
X62795000Y-51530000D01*
X67995000Y-51530000D02*
X67995000Y-48870000D01*
X62795000Y-51530000D02*
X62795000Y-50200000D01*
X65395000Y-51530000D02*
X65395000Y-48870000D01*
X65395000Y-48870000D02*
X67995000Y-48870000D01*
%TO.C,C1*%
X105600000Y-122090000D02*
X112840000Y-122090000D01*
X112840000Y-122090000D02*
X112840000Y-126830000D01*
X105600000Y-126830000D02*
X112840000Y-126830000D01*
X105600000Y-122090000D02*
X105600000Y-126830000D01*
%TO.C,U1*%
X118110000Y-38100000D02*
X85090000Y-38100000D01*
X85090000Y-38100000D02*
X85090000Y-60960000D01*
X85090000Y-60960000D02*
X118110000Y-60960000D01*
X118110000Y-60960000D02*
X118110000Y-38100000D01*
%TO.C,J2*%
X111205000Y-68330000D02*
X108605000Y-68330000D01*
X113805000Y-65670000D02*
X113805000Y-67000000D01*
X112475000Y-65670000D02*
X113805000Y-65670000D01*
X111205000Y-65670000D02*
X111205000Y-68330000D01*
X111205000Y-65670000D02*
X108605000Y-65670000D01*
X108605000Y-65670000D02*
X108605000Y-68330000D01*
%TO.C,C2*%
X138240000Y-128100000D02*
X131000000Y-128100000D01*
X138240000Y-123360000D02*
X131000000Y-123360000D01*
X138240000Y-128100000D02*
X138240000Y-123360000D01*
X131000000Y-128100000D02*
X131000000Y-123360000D01*
%TO.C,U3*%
X127655000Y-129205000D02*
X127655000Y-130705000D01*
X120755000Y-129205000D02*
X120755000Y-130705000D01*
X120755000Y-130705000D02*
X121025000Y-130705000D01*
X121025000Y-130705000D02*
X121025000Y-133535000D01*
X127655000Y-130705000D02*
X127385000Y-130705000D01*
X127385000Y-130705000D02*
X127385000Y-131805000D01*
%TO.C,SW1*%
X76140000Y-43240000D02*
X76140000Y-41910000D01*
X78740000Y-40580000D02*
X81340000Y-40580000D01*
X81340000Y-43240000D02*
X81340000Y-40580000D01*
X78740000Y-43240000D02*
X78740000Y-40580000D01*
X77470000Y-43240000D02*
X76140000Y-43240000D01*
X78740000Y-43240000D02*
X81340000Y-43240000D01*
%TD*%
%LPC*%
D12*
%TO.C,U4*%
X128710000Y-115190000D03*
D13*
X131250000Y-115190000D03*
X133790000Y-115190000D03*
X136330000Y-115190000D03*
X138870000Y-115190000D03*
X141410000Y-115190000D03*
X143950000Y-115190000D03*
X146490000Y-115190000D03*
X149030000Y-115190000D03*
X151570000Y-115190000D03*
X154110000Y-115190000D03*
X156650000Y-115190000D03*
X159190000Y-115190000D03*
X161730000Y-115190000D03*
X164270000Y-115190000D03*
X166810000Y-115190000D03*
X169350000Y-115190000D03*
X171890000Y-115190000D03*
X174430000Y-115190000D03*
X176970000Y-115190000D03*
X179510000Y-115190000D03*
X182050000Y-115190000D03*
%TD*%
D14*
%TO.C,H3*%
X221800000Y-138900000D03*
%TD*%
%TO.C,H2*%
X66400000Y-42000000D03*
%TD*%
%TO.C,H1*%
X66300000Y-140000000D03*
%TD*%
D12*
%TO.C,J3*%
X133155000Y-137080000D03*
D13*
X135695000Y-137080000D03*
%TD*%
D15*
%TO.C,BT1*%
X65660000Y-66380000D03*
X81660000Y-121580000D03*
D16*
X81660000Y-58050000D03*
D17*
X73660000Y-54650000D03*
X73660000Y-133310000D03*
%TD*%
D12*
%TO.C,U5*%
X199840000Y-90500000D03*
D13*
X199840000Y-93040000D03*
X199840000Y-95580000D03*
X199840000Y-98120000D03*
X199840000Y-100660000D03*
X199840000Y-103200000D03*
X199840000Y-105740000D03*
X199840000Y-108280000D03*
X199840000Y-110820000D03*
D12*
X225240000Y-90540000D03*
D13*
X225240000Y-93080000D03*
X225240000Y-95620000D03*
X225240000Y-98160000D03*
X225240000Y-100700000D03*
%TD*%
D14*
%TO.C,U6*%
X222510000Y-43307500D03*
X193890000Y-43207500D03*
X222190000Y-79157500D03*
X194080000Y-78997500D03*
D12*
X192850000Y-54857500D03*
D13*
X192850000Y-57397500D03*
X192850000Y-59937500D03*
X192850000Y-62477500D03*
X192850000Y-65017500D03*
X192850000Y-67557500D03*
X192850000Y-70097500D03*
X192850000Y-72637500D03*
D12*
X223390000Y-59967500D03*
D13*
X223390000Y-62507500D03*
X223390000Y-65047500D03*
X223390000Y-67587500D03*
X223390000Y-70127500D03*
X223390000Y-72667500D03*
X223390000Y-75207500D03*
%TD*%
D14*
%TO.C,U2*%
X109660000Y-114070000D03*
X93900000Y-93270000D03*
X93860000Y-114030000D03*
X109780000Y-93130000D03*
D18*
X108360000Y-101840000D03*
X108360000Y-105430000D03*
X94230000Y-97340000D03*
X94270000Y-99950000D03*
X94230000Y-102490000D03*
X94190000Y-104960000D03*
X94190000Y-107570000D03*
X94190000Y-110140000D03*
%TD*%
D12*
%TO.C,J1*%
X64125000Y-50200000D03*
D13*
X66665000Y-50200000D03*
%TD*%
D19*
%TO.C,C1*%
X106720000Y-124460000D03*
X111720000Y-124460000D03*
%TD*%
D14*
%TO.C,U1*%
X115200000Y-45690000D03*
X88240000Y-45980000D03*
D18*
X113810000Y-40800000D03*
X111310000Y-40800000D03*
X97370000Y-47130000D03*
X94830000Y-47130000D03*
X92290000Y-47130000D03*
X86990000Y-54830000D03*
X86990000Y-57340000D03*
X110010000Y-53530000D03*
X110010000Y-56040000D03*
%TD*%
D12*
%TO.C,J2*%
X112475000Y-67000000D03*
D13*
X109935000Y-67000000D03*
%TD*%
D19*
%TO.C,C2*%
X137120000Y-125730000D03*
X132120000Y-125730000D03*
%TD*%
D20*
%TO.C,U3*%
X121925000Y-132435000D03*
D21*
X124205000Y-126135000D03*
D20*
X126485000Y-132435000D03*
%TD*%
D12*
%TO.C,SW1*%
X77470000Y-41910000D03*
D13*
X80010000Y-41910000D03*
%TD*%
M02*
