%TF.GenerationSoftware,KiCad,Pcbnew,(6.0.9-0)*%
%TF.CreationDate,2022-11-09T23:01:03-06:00*%
%TF.ProjectId,CluePCB,436c7565-5043-4422-9e6b-696361645f70,1*%
%TF.SameCoordinates,Original*%
%TF.FileFunction,Copper,L2,Bot*%
%TF.FilePolarity,Positive*%
%FSLAX46Y46*%
G04 Gerber Fmt 4.6, Leading zero omitted, Abs format (unit mm)*
G04 Created by KiCad (PCBNEW (6.0.9-0)) date 2022-11-09 23:01:03*
%MOMM*%
%LPD*%
G01*
G04 APERTURE LIST*
%TA.AperFunction,ComponentPad*%
%ADD10R,1.700000X1.700000*%
%TD*%
%TA.AperFunction,ComponentPad*%
%ADD11O,1.700000X1.700000*%
%TD*%
%TA.AperFunction,ComponentPad*%
%ADD12C,1.524000*%
%TD*%
%TA.AperFunction,ComponentPad*%
%ADD13C,1.600000*%
%TD*%
%TA.AperFunction,ViaPad*%
%ADD14C,0.800000*%
%TD*%
%TA.AperFunction,Conductor*%
%ADD15C,0.250000*%
%TD*%
G04 APERTURE END LIST*
D10*
%TO.P,U4,1,GND*%
%TO.N,GND*%
X128710000Y-115190000D03*
D11*
%TO.P,U4,2,GND*%
X131250000Y-115190000D03*
%TO.P,U4,3,3V3*%
%TO.N,+3V3*%
X133790000Y-115190000D03*
%TO.P,U4,4,AIN0*%
%TO.N,unconnected-(U4-Pad4)*%
X136330000Y-115190000D03*
%TO.P,U4,5,AIN1*%
%TO.N,unconnected-(U4-Pad5)*%
X138870000Y-115190000D03*
%TO.P,U4,6,AIN2*%
%TO.N,RST*%
X141410000Y-115190000D03*
%TO.P,U4,7,AIN3*%
%TO.N,unconnected-(U4-Pad7)*%
X143950000Y-115190000D03*
%TO.P,U4,8,AIN4*%
%TO.N,unconnected-(U4-Pad8)*%
X146490000Y-115190000D03*
%TO.P,U4,9,DTA*%
%TO.N,unconnected-(U4-Pad9)*%
X149030000Y-115190000D03*
%TO.P,U4,10,LC9*%
%TO.N,unconnected-(U4-Pad10)*%
X151570000Y-115190000D03*
%TO.P,U4,11,LC8*%
%TO.N,unconnected-(U4-Pad11)*%
X154110000Y-115190000D03*
%TO.P,U4,12,GP*%
%TO.N,G0*%
X156650000Y-115190000D03*
%TO.P,U4,13,LC7*%
%TO.N,unconnected-(U4-Pad13)*%
X159190000Y-115190000D03*
%TO.P,U4,14,AIN10*%
%TO.N,unconnected-(U4-Pad14)*%
X161730000Y-115190000D03*
%TO.P,U4,15,DTD*%
%TO.N,unconnected-(U4-Pad15)*%
X164270000Y-115190000D03*
%TO.P,U4,16,GP12*%
%TO.N,unconnected-(U4-Pad16)*%
X166810000Y-115190000D03*
%TO.P,U4,17,SCK*%
%TO.N,SCK*%
X169350000Y-115190000D03*
%TO.P,U4,18,MISO*%
%TO.N,MISO*%
X171890000Y-115190000D03*
%TO.P,U4,19,MOSI*%
%TO.N,MOSI*%
X174430000Y-115190000D03*
%TO.P,U4,20,GP16*%
%TO.N,CS*%
X176970000Y-115190000D03*
%TO.P,U4,21,SCL*%
%TO.N,unconnected-(U4-Pad21)*%
X179510000Y-115190000D03*
%TO.P,U4,22,SDA*%
%TO.N,unconnected-(U4-Pad22)*%
X182050000Y-115190000D03*
%TD*%
D10*
%TO.P,J3,1,Pin_1*%
%TO.N,GND*%
X133155000Y-137080000D03*
D11*
%TO.P,J3,2,Pin_2*%
%TO.N,+3V3*%
X135695000Y-137080000D03*
%TD*%
D10*
%TO.P,U5,1,VIN*%
%TO.N,+3V3*%
X199840000Y-90500000D03*
D11*
%TO.P,U5,2,GND*%
%TO.N,GND*%
X199840000Y-93040000D03*
%TO.P,U5,3,EN*%
%TO.N,unconnected-(U5-Pad3)*%
X199840000Y-95580000D03*
%TO.P,U5,4,G0*%
%TO.N,G0*%
X199840000Y-98120000D03*
%TO.P,U5,5,SCK*%
%TO.N,SCK*%
X199840000Y-100660000D03*
%TO.P,U5,6,MISO*%
%TO.N,MISO*%
X199840000Y-103200000D03*
%TO.P,U5,7,MOSI*%
%TO.N,MOSI*%
X199840000Y-105740000D03*
%TO.P,U5,8,CS*%
%TO.N,CS*%
X199840000Y-108280000D03*
%TO.P,U5,9,RST*%
%TO.N,RST*%
X199840000Y-110820000D03*
D10*
%TO.P,U5,10,G1*%
%TO.N,unconnected-(U5-Pad10)*%
X225240000Y-90540000D03*
D11*
%TO.P,U5,11,G2*%
%TO.N,unconnected-(U5-Pad11)*%
X225240000Y-93080000D03*
%TO.P,U5,12,G3*%
%TO.N,unconnected-(U5-Pad12)*%
X225240000Y-95620000D03*
%TO.P,U5,13,G4*%
%TO.N,unconnected-(U5-Pad13)*%
X225240000Y-98160000D03*
%TO.P,U5,14,G5*%
%TO.N,unconnected-(U5-Pad14)*%
X225240000Y-100700000D03*
%TD*%
D10*
%TO.P,U6,1,PPS*%
%TO.N,unconnected-(U6-Pad1)*%
X192850000Y-54857500D03*
D11*
%TO.P,U6,2,RST*%
%TO.N,unconnected-(U6-Pad2)*%
X192850000Y-57397500D03*
%TO.P,U6,3,SAFE*%
%TO.N,unconnected-(U6-Pad3)*%
X192850000Y-59937500D03*
%TO.P,U6,4,INT*%
%TO.N,unconnected-(U6-Pad4)*%
X192850000Y-62477500D03*
%TO.P,U6,5,GND*%
%TO.N,unconnected-(U6-Pad5)*%
X192850000Y-65017500D03*
%TO.P,U6,6,3V3*%
%TO.N,unconnected-(U6-Pad6)*%
X192850000Y-67557500D03*
%TO.P,U6,7,SDA*%
%TO.N,unconnected-(U6-Pad7)*%
X192850000Y-70097500D03*
%TO.P,U6,8,SCL*%
%TO.N,unconnected-(U6-Pad8)*%
X192850000Y-72637500D03*
D10*
%TO.P,U6,9,GND*%
%TO.N,unconnected-(U6-Pad9)*%
X223390000Y-59967500D03*
D11*
%TO.P,U6,10,5V*%
%TO.N,unconnected-(U6-Pad10)*%
X223390000Y-62507500D03*
%TO.P,U6,11,3V3*%
%TO.N,unconnected-(U6-Pad11)*%
X223390000Y-65047500D03*
%TO.P,U6,12,CS*%
%TO.N,unconnected-(U6-Pad12)*%
X223390000Y-67587500D03*
%TO.P,U6,13,RX/MOSI*%
%TO.N,unconnected-(U6-Pad13)*%
X223390000Y-70127500D03*
%TO.P,U6,14,TX/MISO*%
%TO.N,unconnected-(U6-Pad14)*%
X223390000Y-72667500D03*
%TO.P,U6,15,SCK*%
%TO.N,unconnected-(U6-Pad15)*%
X223390000Y-75207500D03*
%TD*%
D12*
%TO.P,U2,1,V+*%
%TO.N,Net-(C1-Pad1)*%
X108360000Y-101840000D03*
%TO.P,U2,2,V-*%
%TO.N,Net-(U2-Pad2)*%
X108360000Y-105430000D03*
%TO.P,U2,3,VIN*%
%TO.N,unconnected-(U2-Pad3)*%
X94230000Y-97340000D03*
%TO.P,U2,4,GND*%
%TO.N,unconnected-(U2-Pad4)*%
X94270000Y-99950000D03*
%TO.P,U2,5,SCL*%
%TO.N,unconnected-(U2-Pad5)*%
X94230000Y-102490000D03*
%TO.P,U2,6,SDA*%
%TO.N,unconnected-(U2-Pad6)*%
X94190000Y-104960000D03*
%TO.P,U2,7*%
%TO.N,N/C*%
X94190000Y-107570000D03*
%TO.P,U2,8*%
X94190000Y-110140000D03*
%TD*%
D10*
%TO.P,J1,1,Pin_1*%
%TO.N,GND*%
X64125000Y-50200000D03*
D11*
%TO.P,J1,2,Pin_2*%
%TO.N,+5V*%
X66665000Y-50200000D03*
%TD*%
D13*
%TO.P,C1,1*%
%TO.N,Net-(C1-Pad1)*%
X106720000Y-124460000D03*
%TO.P,C1,2*%
%TO.N,GND*%
X111720000Y-124460000D03*
%TD*%
D12*
%TO.P,U1,1,EXT_SW+*%
%TO.N,Net-(SW1-Pad1)*%
X113810000Y-40800000D03*
%TO.P,U1,2,EXT_SW-*%
%TO.N,Net-(SW1-Pad2)*%
X111310000Y-40800000D03*
%TO.P,U1,3,5VIN+*%
%TO.N,+5V*%
X97370000Y-47130000D03*
%TO.P,U1,4,5VIN-*%
%TO.N,GND*%
X94830000Y-47130000D03*
%TO.P,U1,5,EN*%
%TO.N,Net-(J2-Pad2)*%
X92290000Y-47130000D03*
%TO.P,U1,6,5VOUT+*%
%TO.N,Net-(C1-Pad1)*%
X86990000Y-54830000D03*
%TO.P,U1,7,5VOUT-*%
%TO.N,GND*%
X86990000Y-57340000D03*
%TO.P,U1,8,BATT+*%
%TO.N,+BATT*%
X110010000Y-53530000D03*
%TO.P,U1,9,BATT-*%
%TO.N,GND*%
X110010000Y-56040000D03*
%TD*%
D10*
%TO.P,J2,1,Pin_1*%
%TO.N,GND*%
X112475000Y-67000000D03*
D11*
%TO.P,J2,2,Pin_2*%
%TO.N,Net-(J2-Pad2)*%
X109935000Y-67000000D03*
%TD*%
D13*
%TO.P,C2,1*%
%TO.N,+3V3*%
X137120000Y-125730000D03*
%TO.P,C2,2*%
%TO.N,GND*%
X132120000Y-125730000D03*
%TD*%
D10*
%TO.P,SW1,1,A*%
%TO.N,Net-(SW1-Pad1)*%
X77470000Y-41910000D03*
D11*
%TO.P,SW1,2,B*%
%TO.N,Net-(SW1-Pad2)*%
X80010000Y-41910000D03*
%TD*%
D14*
%TO.N,GND*%
X118110000Y-132080000D03*
%TD*%
D15*
%TO.N,RST*%
X141410000Y-115190000D02*
X143035000Y-116815000D01*
X143035000Y-116815000D02*
X193845000Y-116815000D01*
X193845000Y-116815000D02*
X199840000Y-110820000D01*
%TO.N,G0*%
X156650000Y-115190000D02*
X157528299Y-115190000D01*
X157528299Y-115190000D02*
X174598299Y-98120000D01*
X174598299Y-98120000D02*
X199840000Y-98120000D01*
%TO.N,SCK*%
X169350000Y-115190000D02*
X169350000Y-113550000D01*
X192600000Y-107900000D02*
X199840000Y-100660000D01*
X169350000Y-113550000D02*
X175000000Y-107900000D01*
X175000000Y-107900000D02*
X192600000Y-107900000D01*
%TO.N,MISO*%
X177300000Y-109780000D02*
X193260000Y-109780000D01*
X193260000Y-109780000D02*
X199840000Y-103200000D01*
X171890000Y-115190000D02*
X177300000Y-109780000D01*
%TO.N,MOSI*%
X174430000Y-115190000D02*
X178300000Y-111320000D01*
X178300000Y-111320000D02*
X178300000Y-111300000D01*
X194280000Y-111300000D02*
X199840000Y-105740000D01*
X178300000Y-111300000D02*
X194280000Y-111300000D01*
%TO.N,CS*%
X176970000Y-115190000D02*
X178145000Y-116365000D01*
X178145000Y-116365000D02*
X191755000Y-116365000D01*
X191755000Y-116365000D02*
X199840000Y-108280000D01*
%TO.N,Net-(J2-Pad2)*%
X92290000Y-47130000D02*
X92290000Y-49355000D01*
X92290000Y-49355000D02*
X109935000Y-67000000D01*
%TD*%
%TA.AperFunction,Conductor*%
%TO.N,GND*%
G36*
X228533621Y-37128502D02*
G01*
X228580114Y-37182158D01*
X228591500Y-37234500D01*
X228591500Y-145565500D01*
X228571498Y-145633621D01*
X228517842Y-145680114D01*
X228465500Y-145691500D01*
X61334500Y-145691500D01*
X61266379Y-145671498D01*
X61219886Y-145617842D01*
X61208500Y-145565500D01*
X61208500Y-139929733D01*
X64287822Y-139929733D01*
X64287975Y-139934121D01*
X64287975Y-139934127D01*
X64295150Y-140139576D01*
X64297625Y-140210458D01*
X64298387Y-140214781D01*
X64298388Y-140214788D01*
X64321934Y-140348322D01*
X64346402Y-140487087D01*
X64433203Y-140754235D01*
X64435131Y-140758188D01*
X64435133Y-140758193D01*
X64472061Y-140833905D01*
X64556340Y-141006702D01*
X64558795Y-141010341D01*
X64558798Y-141010347D01*
X64631890Y-141118710D01*
X64713415Y-141239576D01*
X64901371Y-141448322D01*
X65116550Y-141628879D01*
X65354764Y-141777731D01*
X65611375Y-141891982D01*
X65881390Y-141969407D01*
X65885740Y-141970018D01*
X65885743Y-141970019D01*
X65988690Y-141984487D01*
X66159552Y-142008500D01*
X66370146Y-142008500D01*
X66372332Y-142008347D01*
X66372336Y-142008347D01*
X66575827Y-141994118D01*
X66575832Y-141994117D01*
X66580212Y-141993811D01*
X66854970Y-141935409D01*
X66859099Y-141933906D01*
X66859103Y-141933905D01*
X67114781Y-141840846D01*
X67114785Y-141840844D01*
X67118926Y-141839337D01*
X67366942Y-141707464D01*
X67471896Y-141631211D01*
X67590629Y-141544947D01*
X67590632Y-141544944D01*
X67594192Y-141542358D01*
X67796252Y-141347231D01*
X67969188Y-141125882D01*
X67971384Y-141122078D01*
X67971389Y-141122071D01*
X68107435Y-140886431D01*
X68109636Y-140882619D01*
X68214862Y-140622176D01*
X68248544Y-140487087D01*
X68281753Y-140353893D01*
X68281754Y-140353888D01*
X68282817Y-140349624D01*
X68304894Y-140139576D01*
X68311719Y-140074636D01*
X68311719Y-140074633D01*
X68312178Y-140070267D01*
X68312025Y-140065873D01*
X68302529Y-139793939D01*
X68302528Y-139793933D01*
X68302375Y-139789542D01*
X68301155Y-139782619D01*
X68255231Y-139522176D01*
X68253598Y-139512913D01*
X68166797Y-139245765D01*
X68043660Y-138993298D01*
X68041205Y-138989659D01*
X68041202Y-138989653D01*
X67933334Y-138829733D01*
X219787822Y-138829733D01*
X219787975Y-138834121D01*
X219787975Y-138834127D01*
X219793672Y-138997250D01*
X219797625Y-139110458D01*
X219798387Y-139114781D01*
X219798388Y-139114788D01*
X219821483Y-139245765D01*
X219846402Y-139387087D01*
X219933203Y-139654235D01*
X220056340Y-139906702D01*
X220058795Y-139910341D01*
X220058798Y-139910347D01*
X220074838Y-139934127D01*
X220213415Y-140139576D01*
X220216360Y-140142847D01*
X220216361Y-140142848D01*
X220281136Y-140214788D01*
X220401371Y-140348322D01*
X220616550Y-140528879D01*
X220854764Y-140677731D01*
X221111375Y-140791982D01*
X221381390Y-140869407D01*
X221385740Y-140870018D01*
X221385743Y-140870019D01*
X221488690Y-140884487D01*
X221659552Y-140908500D01*
X221870146Y-140908500D01*
X221872332Y-140908347D01*
X221872336Y-140908347D01*
X222075827Y-140894118D01*
X222075832Y-140894117D01*
X222080212Y-140893811D01*
X222354970Y-140835409D01*
X222359099Y-140833906D01*
X222359103Y-140833905D01*
X222614781Y-140740846D01*
X222614785Y-140740844D01*
X222618926Y-140739337D01*
X222866942Y-140607464D01*
X222971896Y-140531211D01*
X223090629Y-140444947D01*
X223090632Y-140444944D01*
X223094192Y-140442358D01*
X223296252Y-140247231D01*
X223469188Y-140025882D01*
X223471384Y-140022078D01*
X223471389Y-140022071D01*
X223607435Y-139786431D01*
X223609636Y-139782619D01*
X223714862Y-139522176D01*
X223748544Y-139387087D01*
X223781753Y-139253893D01*
X223781754Y-139253888D01*
X223782817Y-139249624D01*
X223809758Y-138993298D01*
X223811719Y-138974636D01*
X223811719Y-138974633D01*
X223812178Y-138970267D01*
X223808954Y-138877929D01*
X223802529Y-138693939D01*
X223802528Y-138693933D01*
X223802375Y-138689542D01*
X223796503Y-138656236D01*
X223758650Y-138441564D01*
X223753598Y-138412913D01*
X223666797Y-138145765D01*
X223653026Y-138117529D01*
X223591631Y-137991653D01*
X223543660Y-137893298D01*
X223541205Y-137889659D01*
X223541202Y-137889653D01*
X223460935Y-137770653D01*
X223386585Y-137660424D01*
X223198629Y-137451678D01*
X222983450Y-137271121D01*
X222745236Y-137122269D01*
X222488625Y-137008018D01*
X222218610Y-136930593D01*
X222214260Y-136929982D01*
X222214257Y-136929981D01*
X222111310Y-136915513D01*
X221940448Y-136891500D01*
X221729854Y-136891500D01*
X221727668Y-136891653D01*
X221727664Y-136891653D01*
X221524173Y-136905882D01*
X221524168Y-136905883D01*
X221519788Y-136906189D01*
X221245030Y-136964591D01*
X221240901Y-136966094D01*
X221240897Y-136966095D01*
X220985219Y-137059154D01*
X220985215Y-137059156D01*
X220981074Y-137060663D01*
X220733058Y-137192536D01*
X220729499Y-137195122D01*
X220729497Y-137195123D01*
X220536049Y-137335671D01*
X220505808Y-137357642D01*
X220502644Y-137360698D01*
X220502641Y-137360700D01*
X220413865Y-137446431D01*
X220303748Y-137552769D01*
X220130812Y-137774118D01*
X220128616Y-137777922D01*
X220128611Y-137777929D01*
X220023902Y-137959292D01*
X219990364Y-138017381D01*
X219885138Y-138277824D01*
X219884073Y-138282097D01*
X219884072Y-138282099D01*
X219839542Y-138460700D01*
X219817183Y-138550376D01*
X219816724Y-138554744D01*
X219816723Y-138554749D01*
X219794723Y-138764075D01*
X219787822Y-138829733D01*
X67933334Y-138829733D01*
X67930387Y-138825364D01*
X67886585Y-138760424D01*
X67822763Y-138689542D01*
X67701566Y-138554940D01*
X67698629Y-138551678D01*
X67483450Y-138371121D01*
X67245236Y-138222269D01*
X66988625Y-138108018D01*
X66777935Y-138047604D01*
X66722837Y-138031805D01*
X66722836Y-138031805D01*
X66718610Y-138030593D01*
X66714260Y-138029982D01*
X66714257Y-138029981D01*
X66611310Y-138015513D01*
X66440448Y-137991500D01*
X66229854Y-137991500D01*
X66227668Y-137991653D01*
X66227664Y-137991653D01*
X66024173Y-138005882D01*
X66024168Y-138005883D01*
X66019788Y-138006189D01*
X65745030Y-138064591D01*
X65740901Y-138066094D01*
X65740897Y-138066095D01*
X65485219Y-138159154D01*
X65485215Y-138159156D01*
X65481074Y-138160663D01*
X65233058Y-138292536D01*
X65229499Y-138295122D01*
X65229497Y-138295123D01*
X65027938Y-138441564D01*
X65005808Y-138457642D01*
X64803748Y-138652769D01*
X64630812Y-138874118D01*
X64628616Y-138877922D01*
X64628611Y-138877929D01*
X64514794Y-139075067D01*
X64490364Y-139117381D01*
X64385138Y-139377824D01*
X64384073Y-139382097D01*
X64384072Y-139382099D01*
X64350379Y-139517236D01*
X64317183Y-139650376D01*
X64316724Y-139654744D01*
X64316723Y-139654749D01*
X64288281Y-139925364D01*
X64287822Y-139929733D01*
X61208500Y-139929733D01*
X61208500Y-137974669D01*
X131797001Y-137974669D01*
X131797371Y-137981490D01*
X131802895Y-138032352D01*
X131806521Y-138047604D01*
X131851676Y-138168054D01*
X131860214Y-138183649D01*
X131936715Y-138285724D01*
X131949276Y-138298285D01*
X132051351Y-138374786D01*
X132066946Y-138383324D01*
X132187394Y-138428478D01*
X132202649Y-138432105D01*
X132253514Y-138437631D01*
X132260328Y-138438000D01*
X132882885Y-138438000D01*
X132898124Y-138433525D01*
X132899329Y-138432135D01*
X132901000Y-138424452D01*
X132901000Y-138419884D01*
X133409000Y-138419884D01*
X133413475Y-138435123D01*
X133414865Y-138436328D01*
X133422548Y-138437999D01*
X134049669Y-138437999D01*
X134056490Y-138437629D01*
X134107352Y-138432105D01*
X134122604Y-138428479D01*
X134243054Y-138383324D01*
X134258649Y-138374786D01*
X134360724Y-138298285D01*
X134373285Y-138285724D01*
X134449786Y-138183649D01*
X134458324Y-138168054D01*
X134499225Y-138058952D01*
X134541867Y-138002188D01*
X134608428Y-137977488D01*
X134677777Y-137992696D01*
X134712444Y-138020684D01*
X134737865Y-138050031D01*
X134737869Y-138050035D01*
X134741250Y-138053938D01*
X134913126Y-138196632D01*
X135106000Y-138309338D01*
X135314692Y-138389030D01*
X135319760Y-138390061D01*
X135319763Y-138390062D01*
X135427017Y-138411883D01*
X135533597Y-138433567D01*
X135538772Y-138433757D01*
X135538774Y-138433757D01*
X135751673Y-138441564D01*
X135751677Y-138441564D01*
X135756837Y-138441753D01*
X135761957Y-138441097D01*
X135761959Y-138441097D01*
X135973288Y-138414025D01*
X135973289Y-138414025D01*
X135978416Y-138413368D01*
X135983366Y-138411883D01*
X136187429Y-138350661D01*
X136187434Y-138350659D01*
X136192384Y-138349174D01*
X136392994Y-138250896D01*
X136574860Y-138121173D01*
X136589278Y-138106806D01*
X136689330Y-138007102D01*
X136733096Y-137963489D01*
X136863453Y-137782077D01*
X136923578Y-137660424D01*
X136960136Y-137586453D01*
X136960137Y-137586451D01*
X136962430Y-137581811D01*
X136994900Y-137474940D01*
X137025865Y-137373023D01*
X137025865Y-137373021D01*
X137027370Y-137368069D01*
X137056529Y-137146590D01*
X137056611Y-137143240D01*
X137058074Y-137083365D01*
X137058074Y-137083361D01*
X137058156Y-137080000D01*
X137039852Y-136857361D01*
X136985431Y-136640702D01*
X136896354Y-136435840D01*
X136775014Y-136248277D01*
X136624670Y-136083051D01*
X136620619Y-136079852D01*
X136620615Y-136079848D01*
X136453414Y-135947800D01*
X136453410Y-135947798D01*
X136449359Y-135944598D01*
X136253789Y-135836638D01*
X136248920Y-135834914D01*
X136248916Y-135834912D01*
X136048087Y-135763795D01*
X136048083Y-135763794D01*
X136043212Y-135762069D01*
X136038119Y-135761162D01*
X136038116Y-135761161D01*
X135828373Y-135723800D01*
X135828367Y-135723799D01*
X135823284Y-135722894D01*
X135749452Y-135721992D01*
X135605081Y-135720228D01*
X135605079Y-135720228D01*
X135599911Y-135720165D01*
X135379091Y-135753955D01*
X135166756Y-135823357D01*
X134968607Y-135926507D01*
X134964474Y-135929610D01*
X134964471Y-135929612D01*
X134881450Y-135991946D01*
X134789965Y-136060635D01*
X134786393Y-136064373D01*
X134708898Y-136145466D01*
X134647374Y-136180895D01*
X134576462Y-136177438D01*
X134518676Y-136136192D01*
X134499823Y-136102644D01*
X134458324Y-135991946D01*
X134449786Y-135976351D01*
X134373285Y-135874276D01*
X134360724Y-135861715D01*
X134258649Y-135785214D01*
X134243054Y-135776676D01*
X134122606Y-135731522D01*
X134107351Y-135727895D01*
X134056486Y-135722369D01*
X134049672Y-135722000D01*
X133427115Y-135722000D01*
X133411876Y-135726475D01*
X133410671Y-135727865D01*
X133409000Y-135735548D01*
X133409000Y-138419884D01*
X132901000Y-138419884D01*
X132901000Y-137352115D01*
X132896525Y-137336876D01*
X132895135Y-137335671D01*
X132887452Y-137334000D01*
X131815116Y-137334000D01*
X131799877Y-137338475D01*
X131798672Y-137339865D01*
X131797001Y-137347548D01*
X131797001Y-137974669D01*
X61208500Y-137974669D01*
X61208500Y-136807885D01*
X131797000Y-136807885D01*
X131801475Y-136823124D01*
X131802865Y-136824329D01*
X131810548Y-136826000D01*
X132882885Y-136826000D01*
X132898124Y-136821525D01*
X132899329Y-136820135D01*
X132901000Y-136812452D01*
X132901000Y-135740116D01*
X132896525Y-135724877D01*
X132895135Y-135723672D01*
X132887452Y-135722001D01*
X132260331Y-135722001D01*
X132253510Y-135722371D01*
X132202648Y-135727895D01*
X132187396Y-135731521D01*
X132066946Y-135776676D01*
X132051351Y-135785214D01*
X131949276Y-135861715D01*
X131936715Y-135874276D01*
X131860214Y-135976351D01*
X131851676Y-135991946D01*
X131806522Y-136112394D01*
X131802895Y-136127649D01*
X131797369Y-136178514D01*
X131797000Y-136185328D01*
X131797000Y-136807885D01*
X61208500Y-136807885D01*
X61208500Y-126816062D01*
X131398493Y-126816062D01*
X131407789Y-126828077D01*
X131458994Y-126863931D01*
X131468489Y-126869414D01*
X131665947Y-126961490D01*
X131676239Y-126965236D01*
X131886688Y-127021625D01*
X131897481Y-127023528D01*
X132114525Y-127042517D01*
X132125475Y-127042517D01*
X132342519Y-127023528D01*
X132353312Y-127021625D01*
X132563761Y-126965236D01*
X132574053Y-126961490D01*
X132771511Y-126869414D01*
X132781006Y-126863931D01*
X132833048Y-126827491D01*
X132841424Y-126817012D01*
X132834356Y-126803566D01*
X132132812Y-126102022D01*
X132118868Y-126094408D01*
X132117035Y-126094539D01*
X132110420Y-126098790D01*
X131404923Y-126804287D01*
X131398493Y-126816062D01*
X61208500Y-126816062D01*
X61208500Y-124460000D01*
X105406502Y-124460000D01*
X105426457Y-124688087D01*
X105427881Y-124693400D01*
X105427881Y-124693402D01*
X105479408Y-124885700D01*
X105485716Y-124909243D01*
X105488039Y-124914224D01*
X105488039Y-124914225D01*
X105580151Y-125111762D01*
X105580154Y-125111767D01*
X105582477Y-125116749D01*
X105585634Y-125121257D01*
X105701156Y-125286239D01*
X105713802Y-125304300D01*
X105875700Y-125466198D01*
X105880208Y-125469355D01*
X105880211Y-125469357D01*
X105919244Y-125496688D01*
X106063251Y-125597523D01*
X106068233Y-125599846D01*
X106068238Y-125599849D01*
X106264765Y-125691490D01*
X106270757Y-125694284D01*
X106276065Y-125695706D01*
X106276067Y-125695707D01*
X106486598Y-125752119D01*
X106486600Y-125752119D01*
X106491913Y-125753543D01*
X106720000Y-125773498D01*
X106948087Y-125753543D01*
X106953400Y-125752119D01*
X106953402Y-125752119D01*
X107163933Y-125695707D01*
X107163935Y-125695706D01*
X107169243Y-125694284D01*
X107175235Y-125691490D01*
X107371762Y-125599849D01*
X107371767Y-125599846D01*
X107376749Y-125597523D01*
X107450243Y-125546062D01*
X110998493Y-125546062D01*
X111007789Y-125558077D01*
X111058994Y-125593931D01*
X111068489Y-125599414D01*
X111265947Y-125691490D01*
X111276239Y-125695236D01*
X111486688Y-125751625D01*
X111497481Y-125753528D01*
X111714525Y-125772517D01*
X111725475Y-125772517D01*
X111942519Y-125753528D01*
X111953312Y-125751625D01*
X112013585Y-125735475D01*
X130807483Y-125735475D01*
X130826472Y-125952519D01*
X130828375Y-125963312D01*
X130884764Y-126173761D01*
X130888510Y-126184053D01*
X130980586Y-126381511D01*
X130986069Y-126391006D01*
X131022509Y-126443048D01*
X131032988Y-126451424D01*
X131046434Y-126444356D01*
X131747978Y-125742812D01*
X131754356Y-125731132D01*
X132484408Y-125731132D01*
X132484539Y-125732965D01*
X132488790Y-125739580D01*
X133194287Y-126445077D01*
X133206062Y-126451507D01*
X133218077Y-126442211D01*
X133253931Y-126391006D01*
X133259414Y-126381511D01*
X133351490Y-126184053D01*
X133355236Y-126173761D01*
X133411625Y-125963312D01*
X133413528Y-125952519D01*
X133432517Y-125735475D01*
X133432517Y-125730000D01*
X135806502Y-125730000D01*
X135826457Y-125958087D01*
X135827881Y-125963400D01*
X135827881Y-125963402D01*
X135865025Y-126102022D01*
X135885716Y-126179243D01*
X135888039Y-126184224D01*
X135888039Y-126184225D01*
X135980151Y-126381762D01*
X135980154Y-126381767D01*
X135982477Y-126386749D01*
X136113802Y-126574300D01*
X136275700Y-126736198D01*
X136280208Y-126739355D01*
X136280211Y-126739357D01*
X136358389Y-126794098D01*
X136463251Y-126867523D01*
X136468233Y-126869846D01*
X136468238Y-126869849D01*
X136664765Y-126961490D01*
X136670757Y-126964284D01*
X136676065Y-126965706D01*
X136676067Y-126965707D01*
X136886598Y-127022119D01*
X136886600Y-127022119D01*
X136891913Y-127023543D01*
X137120000Y-127043498D01*
X137348087Y-127023543D01*
X137353400Y-127022119D01*
X137353402Y-127022119D01*
X137563933Y-126965707D01*
X137563935Y-126965706D01*
X137569243Y-126964284D01*
X137575235Y-126961490D01*
X137771762Y-126869849D01*
X137771767Y-126869846D01*
X137776749Y-126867523D01*
X137881611Y-126794098D01*
X137959789Y-126739357D01*
X137959792Y-126739355D01*
X137964300Y-126736198D01*
X138126198Y-126574300D01*
X138257523Y-126386749D01*
X138259846Y-126381767D01*
X138259849Y-126381762D01*
X138351961Y-126184225D01*
X138351961Y-126184224D01*
X138354284Y-126179243D01*
X138374976Y-126102022D01*
X138412119Y-125963402D01*
X138412119Y-125963400D01*
X138413543Y-125958087D01*
X138433498Y-125730000D01*
X138413543Y-125501913D01*
X138376981Y-125365461D01*
X138355707Y-125286067D01*
X138355706Y-125286065D01*
X138354284Y-125280757D01*
X138351961Y-125275775D01*
X138259849Y-125078238D01*
X138259846Y-125078233D01*
X138257523Y-125073251D01*
X138184098Y-124968389D01*
X138129357Y-124890211D01*
X138129355Y-124890208D01*
X138126198Y-124885700D01*
X137964300Y-124723802D01*
X137959792Y-124720645D01*
X137959789Y-124720643D01*
X137833920Y-124632509D01*
X137776749Y-124592477D01*
X137771767Y-124590154D01*
X137771762Y-124590151D01*
X137574225Y-124498039D01*
X137574224Y-124498039D01*
X137569243Y-124495716D01*
X137563935Y-124494294D01*
X137563933Y-124494293D01*
X137353402Y-124437881D01*
X137353400Y-124437881D01*
X137348087Y-124436457D01*
X137120000Y-124416502D01*
X136891913Y-124436457D01*
X136886600Y-124437881D01*
X136886598Y-124437881D01*
X136676067Y-124494293D01*
X136676065Y-124494294D01*
X136670757Y-124495716D01*
X136665776Y-124498039D01*
X136665775Y-124498039D01*
X136468238Y-124590151D01*
X136468233Y-124590154D01*
X136463251Y-124592477D01*
X136406080Y-124632509D01*
X136280211Y-124720643D01*
X136280208Y-124720645D01*
X136275700Y-124723802D01*
X136113802Y-124885700D01*
X136110645Y-124890208D01*
X136110643Y-124890211D01*
X136055902Y-124968389D01*
X135982477Y-125073251D01*
X135980154Y-125078233D01*
X135980151Y-125078238D01*
X135888039Y-125275775D01*
X135885716Y-125280757D01*
X135884294Y-125286065D01*
X135884293Y-125286067D01*
X135863019Y-125365461D01*
X135826457Y-125501913D01*
X135806502Y-125730000D01*
X133432517Y-125730000D01*
X133432517Y-125724525D01*
X133413528Y-125507481D01*
X133411625Y-125496688D01*
X133355236Y-125286239D01*
X133351490Y-125275947D01*
X133259414Y-125078489D01*
X133253931Y-125068994D01*
X133217491Y-125016952D01*
X133207012Y-125008576D01*
X133193566Y-125015644D01*
X132492022Y-125717188D01*
X132484408Y-125731132D01*
X131754356Y-125731132D01*
X131755592Y-125728868D01*
X131755461Y-125727035D01*
X131751210Y-125720420D01*
X131045713Y-125014923D01*
X131033938Y-125008493D01*
X131021923Y-125017789D01*
X130986069Y-125068994D01*
X130980586Y-125078489D01*
X130888510Y-125275947D01*
X130884764Y-125286239D01*
X130828375Y-125496688D01*
X130826472Y-125507481D01*
X130807483Y-125724525D01*
X130807483Y-125735475D01*
X112013585Y-125735475D01*
X112163761Y-125695236D01*
X112174053Y-125691490D01*
X112371511Y-125599414D01*
X112381006Y-125593931D01*
X112433048Y-125557491D01*
X112441424Y-125547012D01*
X112434356Y-125533566D01*
X111732812Y-124832022D01*
X111718868Y-124824408D01*
X111717035Y-124824539D01*
X111710420Y-124828790D01*
X111004923Y-125534287D01*
X110998493Y-125546062D01*
X107450243Y-125546062D01*
X107520756Y-125496688D01*
X107559789Y-125469357D01*
X107559792Y-125469355D01*
X107564300Y-125466198D01*
X107726198Y-125304300D01*
X107738845Y-125286239D01*
X107854366Y-125121257D01*
X107857523Y-125116749D01*
X107859846Y-125111767D01*
X107859849Y-125111762D01*
X107951961Y-124914225D01*
X107951961Y-124914224D01*
X107954284Y-124909243D01*
X107960593Y-124885700D01*
X108012119Y-124693402D01*
X108012119Y-124693400D01*
X108013543Y-124688087D01*
X108033019Y-124465475D01*
X110407483Y-124465475D01*
X110426472Y-124682519D01*
X110428375Y-124693312D01*
X110484764Y-124903761D01*
X110488510Y-124914053D01*
X110580586Y-125111511D01*
X110586069Y-125121006D01*
X110622509Y-125173048D01*
X110632988Y-125181424D01*
X110646434Y-125174356D01*
X111347978Y-124472812D01*
X111354356Y-124461132D01*
X112084408Y-124461132D01*
X112084539Y-124462965D01*
X112088790Y-124469580D01*
X112794287Y-125175077D01*
X112806062Y-125181507D01*
X112818077Y-125172211D01*
X112853931Y-125121006D01*
X112859414Y-125111511D01*
X112951490Y-124914053D01*
X112955236Y-124903761D01*
X113011625Y-124693312D01*
X113013528Y-124682519D01*
X113016987Y-124642988D01*
X131398576Y-124642988D01*
X131405644Y-124656434D01*
X132107188Y-125357978D01*
X132121132Y-125365592D01*
X132122965Y-125365461D01*
X132129580Y-125361210D01*
X132835077Y-124655713D01*
X132841507Y-124643938D01*
X132832211Y-124631923D01*
X132781006Y-124596069D01*
X132771511Y-124590586D01*
X132574053Y-124498510D01*
X132563761Y-124494764D01*
X132353312Y-124438375D01*
X132342519Y-124436472D01*
X132125475Y-124417483D01*
X132114525Y-124417483D01*
X131897481Y-124436472D01*
X131886688Y-124438375D01*
X131676239Y-124494764D01*
X131665947Y-124498510D01*
X131468489Y-124590586D01*
X131458994Y-124596069D01*
X131406952Y-124632509D01*
X131398576Y-124642988D01*
X113016987Y-124642988D01*
X113032517Y-124465475D01*
X113032517Y-124454525D01*
X113013528Y-124237481D01*
X113011625Y-124226688D01*
X112955236Y-124016239D01*
X112951490Y-124005947D01*
X112859414Y-123808489D01*
X112853931Y-123798994D01*
X112817491Y-123746952D01*
X112807012Y-123738576D01*
X112793566Y-123745644D01*
X112092022Y-124447188D01*
X112084408Y-124461132D01*
X111354356Y-124461132D01*
X111355592Y-124458868D01*
X111355461Y-124457035D01*
X111351210Y-124450420D01*
X110645713Y-123744923D01*
X110633938Y-123738493D01*
X110621923Y-123747789D01*
X110586069Y-123798994D01*
X110580586Y-123808489D01*
X110488510Y-124005947D01*
X110484764Y-124016239D01*
X110428375Y-124226688D01*
X110426472Y-124237481D01*
X110407483Y-124454525D01*
X110407483Y-124465475D01*
X108033019Y-124465475D01*
X108033498Y-124460000D01*
X108013543Y-124231913D01*
X107976981Y-124095461D01*
X107955707Y-124016067D01*
X107955706Y-124016065D01*
X107954284Y-124010757D01*
X107951961Y-124005775D01*
X107859849Y-123808238D01*
X107859846Y-123808233D01*
X107857523Y-123803251D01*
X107745727Y-123643590D01*
X107729357Y-123620211D01*
X107729355Y-123620208D01*
X107726198Y-123615700D01*
X107564300Y-123453802D01*
X107559792Y-123450645D01*
X107559789Y-123450643D01*
X107448886Y-123372988D01*
X110998576Y-123372988D01*
X111005644Y-123386434D01*
X111707188Y-124087978D01*
X111721132Y-124095592D01*
X111722965Y-124095461D01*
X111729580Y-124091210D01*
X112435077Y-123385713D01*
X112441507Y-123373938D01*
X112432211Y-123361923D01*
X112381006Y-123326069D01*
X112371511Y-123320586D01*
X112174053Y-123228510D01*
X112163761Y-123224764D01*
X111953312Y-123168375D01*
X111942519Y-123166472D01*
X111725475Y-123147483D01*
X111714525Y-123147483D01*
X111497481Y-123166472D01*
X111486688Y-123168375D01*
X111276239Y-123224764D01*
X111265947Y-123228510D01*
X111068489Y-123320586D01*
X111058994Y-123326069D01*
X111006952Y-123362509D01*
X110998576Y-123372988D01*
X107448886Y-123372988D01*
X107433920Y-123362509D01*
X107376749Y-123322477D01*
X107371767Y-123320154D01*
X107371762Y-123320151D01*
X107174225Y-123228039D01*
X107174224Y-123228039D01*
X107169243Y-123225716D01*
X107163935Y-123224294D01*
X107163933Y-123224293D01*
X106953402Y-123167881D01*
X106953400Y-123167881D01*
X106948087Y-123166457D01*
X106720000Y-123146502D01*
X106491913Y-123166457D01*
X106486600Y-123167881D01*
X106486598Y-123167881D01*
X106276067Y-123224293D01*
X106276065Y-123224294D01*
X106270757Y-123225716D01*
X106265776Y-123228039D01*
X106265775Y-123228039D01*
X106068238Y-123320151D01*
X106068233Y-123320154D01*
X106063251Y-123322477D01*
X106006080Y-123362509D01*
X105880211Y-123450643D01*
X105880208Y-123450645D01*
X105875700Y-123453802D01*
X105713802Y-123615700D01*
X105710645Y-123620208D01*
X105710643Y-123620211D01*
X105694273Y-123643590D01*
X105582477Y-123803251D01*
X105580154Y-123808233D01*
X105580151Y-123808238D01*
X105488039Y-124005775D01*
X105485716Y-124010757D01*
X105484294Y-124016065D01*
X105484293Y-124016067D01*
X105463019Y-124095461D01*
X105426457Y-124231913D01*
X105406502Y-124460000D01*
X61208500Y-124460000D01*
X61208500Y-121626880D01*
X79421992Y-121626880D01*
X79422355Y-121631028D01*
X79422355Y-121631032D01*
X79447487Y-121918293D01*
X79447488Y-121918301D01*
X79447852Y-121922459D01*
X79512577Y-122212021D01*
X79514019Y-122215941D01*
X79514021Y-122215947D01*
X79584619Y-122407827D01*
X79615029Y-122490480D01*
X79753410Y-122752942D01*
X79925288Y-122994797D01*
X80127642Y-123211796D01*
X80130867Y-123214445D01*
X80339373Y-123385713D01*
X80356918Y-123400125D01*
X80609088Y-123556477D01*
X80879722Y-123678105D01*
X81052390Y-123729580D01*
X81160065Y-123761679D01*
X81160067Y-123761679D01*
X81164064Y-123762871D01*
X81168184Y-123763524D01*
X81168186Y-123763524D01*
X81287106Y-123782359D01*
X81457119Y-123809286D01*
X81502146Y-123811331D01*
X81548497Y-123813436D01*
X81548516Y-123813436D01*
X81549916Y-123813500D01*
X81735264Y-123813500D01*
X81956056Y-123798835D01*
X82246910Y-123740188D01*
X82527453Y-123643590D01*
X82531196Y-123641716D01*
X82531200Y-123641714D01*
X82789012Y-123512611D01*
X82789014Y-123512610D01*
X82792756Y-123510736D01*
X82995446Y-123372988D01*
X83034699Y-123346312D01*
X83034702Y-123346310D01*
X83038158Y-123343961D01*
X83259346Y-123146196D01*
X83452436Y-122920914D01*
X83454711Y-122917411D01*
X83611763Y-122675572D01*
X83611765Y-122675569D01*
X83614035Y-122672073D01*
X83741304Y-122404046D01*
X83801696Y-122215947D01*
X83830726Y-122125530D01*
X83830727Y-122125524D01*
X83832006Y-122121542D01*
X83867091Y-121926548D01*
X83883809Y-121833632D01*
X83883810Y-121833627D01*
X83884548Y-121829523D01*
X83893751Y-121626880D01*
X83897819Y-121537290D01*
X83897819Y-121537285D01*
X83898008Y-121533120D01*
X83897645Y-121528968D01*
X83872513Y-121241707D01*
X83872512Y-121241699D01*
X83872148Y-121237541D01*
X83807423Y-120947979D01*
X83736773Y-120755954D01*
X83706418Y-120673452D01*
X83706416Y-120673448D01*
X83704971Y-120669520D01*
X83566590Y-120407058D01*
X83394712Y-120165203D01*
X83192358Y-119948204D01*
X82963082Y-119759875D01*
X82710912Y-119603523D01*
X82440278Y-119481895D01*
X82267610Y-119430420D01*
X82159935Y-119398321D01*
X82159933Y-119398321D01*
X82155936Y-119397129D01*
X82151816Y-119396476D01*
X82151814Y-119396476D01*
X82032894Y-119377641D01*
X81862881Y-119350714D01*
X81817854Y-119348669D01*
X81771503Y-119346564D01*
X81771484Y-119346564D01*
X81770084Y-119346500D01*
X81584736Y-119346500D01*
X81363944Y-119361165D01*
X81073090Y-119419812D01*
X80792547Y-119516410D01*
X80788804Y-119518284D01*
X80788800Y-119518286D01*
X80614179Y-119605730D01*
X80527244Y-119649264D01*
X80281842Y-119816039D01*
X80060654Y-120013804D01*
X79867564Y-120239086D01*
X79865290Y-120242588D01*
X79865289Y-120242589D01*
X79760698Y-120403646D01*
X79705965Y-120487927D01*
X79578696Y-120755954D01*
X79577417Y-120759937D01*
X79577416Y-120759940D01*
X79517044Y-120947979D01*
X79487994Y-121038458D01*
X79487253Y-121042577D01*
X79452174Y-121237541D01*
X79435452Y-121330477D01*
X79435263Y-121334644D01*
X79435262Y-121334651D01*
X79426060Y-121537290D01*
X79421992Y-121626880D01*
X61208500Y-121626880D01*
X61208500Y-116084669D01*
X127352001Y-116084669D01*
X127352371Y-116091490D01*
X127357895Y-116142352D01*
X127361521Y-116157604D01*
X127406676Y-116278054D01*
X127415214Y-116293649D01*
X127491715Y-116395724D01*
X127504276Y-116408285D01*
X127606351Y-116484786D01*
X127621946Y-116493324D01*
X127742394Y-116538478D01*
X127757649Y-116542105D01*
X127808514Y-116547631D01*
X127815328Y-116548000D01*
X128437885Y-116548000D01*
X128453124Y-116543525D01*
X128454329Y-116542135D01*
X128456000Y-116534452D01*
X128456000Y-116529884D01*
X128964000Y-116529884D01*
X128968475Y-116545123D01*
X128969865Y-116546328D01*
X128977548Y-116547999D01*
X129604669Y-116547999D01*
X129611490Y-116547629D01*
X129662352Y-116542105D01*
X129677604Y-116538479D01*
X129798054Y-116493324D01*
X129813649Y-116484786D01*
X129915724Y-116408285D01*
X129928285Y-116395724D01*
X130004786Y-116293649D01*
X130013325Y-116278052D01*
X130054425Y-116168418D01*
X130097066Y-116111653D01*
X130163628Y-116086953D01*
X130232977Y-116102160D01*
X130267645Y-116130150D01*
X130293219Y-116159674D01*
X130300580Y-116166883D01*
X130464434Y-116302916D01*
X130472881Y-116308831D01*
X130656756Y-116416279D01*
X130666042Y-116420729D01*
X130865001Y-116496703D01*
X130874899Y-116499579D01*
X130978250Y-116520606D01*
X130992299Y-116519410D01*
X130996000Y-116509065D01*
X130996000Y-116508517D01*
X131504000Y-116508517D01*
X131508064Y-116522359D01*
X131521478Y-116524393D01*
X131528184Y-116523534D01*
X131538262Y-116521392D01*
X131742255Y-116460191D01*
X131751842Y-116456433D01*
X131943095Y-116362739D01*
X131951945Y-116357464D01*
X132125328Y-116233792D01*
X132133200Y-116227139D01*
X132284052Y-116076812D01*
X132290730Y-116068965D01*
X132418022Y-115891819D01*
X132419279Y-115892722D01*
X132466373Y-115849362D01*
X132536311Y-115837145D01*
X132601751Y-115864678D01*
X132629579Y-115896511D01*
X132689987Y-115995088D01*
X132836250Y-116163938D01*
X133008126Y-116306632D01*
X133201000Y-116419338D01*
X133409692Y-116499030D01*
X133414760Y-116500061D01*
X133414763Y-116500062D01*
X133509862Y-116519410D01*
X133628597Y-116543567D01*
X133633772Y-116543757D01*
X133633774Y-116543757D01*
X133846673Y-116551564D01*
X133846677Y-116551564D01*
X133851837Y-116551753D01*
X133856957Y-116551097D01*
X133856959Y-116551097D01*
X134068288Y-116524025D01*
X134068289Y-116524025D01*
X134073416Y-116523368D01*
X134078366Y-116521883D01*
X134282429Y-116460661D01*
X134282434Y-116460659D01*
X134287384Y-116459174D01*
X134487994Y-116360896D01*
X134669860Y-116231173D01*
X134828096Y-116073489D01*
X134835707Y-116062898D01*
X134958453Y-115892077D01*
X134959776Y-115893028D01*
X135006645Y-115849857D01*
X135076580Y-115837625D01*
X135142026Y-115865144D01*
X135169875Y-115896994D01*
X135229987Y-115995088D01*
X135376250Y-116163938D01*
X135548126Y-116306632D01*
X135741000Y-116419338D01*
X135949692Y-116499030D01*
X135954760Y-116500061D01*
X135954763Y-116500062D01*
X136049862Y-116519410D01*
X136168597Y-116543567D01*
X136173772Y-116543757D01*
X136173774Y-116543757D01*
X136386673Y-116551564D01*
X136386677Y-116551564D01*
X136391837Y-116551753D01*
X136396957Y-116551097D01*
X136396959Y-116551097D01*
X136608288Y-116524025D01*
X136608289Y-116524025D01*
X136613416Y-116523368D01*
X136618366Y-116521883D01*
X136822429Y-116460661D01*
X136822434Y-116460659D01*
X136827384Y-116459174D01*
X137027994Y-116360896D01*
X137209860Y-116231173D01*
X137368096Y-116073489D01*
X137375707Y-116062898D01*
X137498453Y-115892077D01*
X137499776Y-115893028D01*
X137546645Y-115849857D01*
X137616580Y-115837625D01*
X137682026Y-115865144D01*
X137709875Y-115896994D01*
X137769987Y-115995088D01*
X137916250Y-116163938D01*
X138088126Y-116306632D01*
X138281000Y-116419338D01*
X138489692Y-116499030D01*
X138494760Y-116500061D01*
X138494763Y-116500062D01*
X138589862Y-116519410D01*
X138708597Y-116543567D01*
X138713772Y-116543757D01*
X138713774Y-116543757D01*
X138926673Y-116551564D01*
X138926677Y-116551564D01*
X138931837Y-116551753D01*
X138936957Y-116551097D01*
X138936959Y-116551097D01*
X139148288Y-116524025D01*
X139148289Y-116524025D01*
X139153416Y-116523368D01*
X139158366Y-116521883D01*
X139362429Y-116460661D01*
X139362434Y-116460659D01*
X139367384Y-116459174D01*
X139567994Y-116360896D01*
X139749860Y-116231173D01*
X139908096Y-116073489D01*
X139915707Y-116062898D01*
X140038453Y-115892077D01*
X140039776Y-115893028D01*
X140086645Y-115849857D01*
X140156580Y-115837625D01*
X140222026Y-115865144D01*
X140249875Y-115896994D01*
X140309987Y-115995088D01*
X140456250Y-116163938D01*
X140628126Y-116306632D01*
X140821000Y-116419338D01*
X141029692Y-116499030D01*
X141034760Y-116500061D01*
X141034763Y-116500062D01*
X141129862Y-116519410D01*
X141248597Y-116543567D01*
X141253772Y-116543757D01*
X141253774Y-116543757D01*
X141466673Y-116551564D01*
X141466677Y-116551564D01*
X141471837Y-116551753D01*
X141476957Y-116551097D01*
X141476959Y-116551097D01*
X141688288Y-116524025D01*
X141688289Y-116524025D01*
X141693416Y-116523368D01*
X141700003Y-116521392D01*
X141739827Y-116509444D01*
X141810823Y-116509028D01*
X141865131Y-116541035D01*
X142531353Y-117207258D01*
X142538887Y-117215537D01*
X142543000Y-117222018D01*
X142564095Y-117241827D01*
X142592651Y-117268643D01*
X142595493Y-117271398D01*
X142615230Y-117291135D01*
X142618427Y-117293615D01*
X142627447Y-117301318D01*
X142659679Y-117331586D01*
X142666625Y-117335405D01*
X142666628Y-117335407D01*
X142677434Y-117341348D01*
X142693953Y-117352199D01*
X142709959Y-117364614D01*
X142717228Y-117367759D01*
X142717232Y-117367762D01*
X142750537Y-117382174D01*
X142761187Y-117387391D01*
X142799940Y-117408695D01*
X142807615Y-117410666D01*
X142807616Y-117410666D01*
X142819562Y-117413733D01*
X142838267Y-117420137D01*
X142856855Y-117428181D01*
X142864678Y-117429420D01*
X142864688Y-117429423D01*
X142900524Y-117435099D01*
X142912144Y-117437505D01*
X142943959Y-117445673D01*
X142954970Y-117448500D01*
X142975224Y-117448500D01*
X142994934Y-117450051D01*
X143014943Y-117453220D01*
X143022835Y-117452474D01*
X143041580Y-117450702D01*
X143058962Y-117449059D01*
X143070819Y-117448500D01*
X193766233Y-117448500D01*
X193777416Y-117449027D01*
X193784909Y-117450702D01*
X193792835Y-117450453D01*
X193792836Y-117450453D01*
X193852986Y-117448562D01*
X193856945Y-117448500D01*
X193884856Y-117448500D01*
X193888791Y-117448003D01*
X193888856Y-117447995D01*
X193900693Y-117447062D01*
X193932951Y-117446048D01*
X193936970Y-117445922D01*
X193944889Y-117445673D01*
X193964343Y-117440021D01*
X193983700Y-117436013D01*
X193995930Y-117434468D01*
X193995931Y-117434468D01*
X194003797Y-117433474D01*
X194011168Y-117430555D01*
X194011170Y-117430555D01*
X194044912Y-117417196D01*
X194056142Y-117413351D01*
X194090983Y-117403229D01*
X194090984Y-117403229D01*
X194098593Y-117401018D01*
X194105412Y-117396985D01*
X194105417Y-117396983D01*
X194116028Y-117390707D01*
X194133776Y-117382012D01*
X194152617Y-117374552D01*
X194188387Y-117348564D01*
X194198307Y-117342048D01*
X194229535Y-117323580D01*
X194229538Y-117323578D01*
X194236362Y-117319542D01*
X194250683Y-117305221D01*
X194265717Y-117292380D01*
X194275694Y-117285131D01*
X194282107Y-117280472D01*
X194310298Y-117246395D01*
X194318288Y-117237616D01*
X199384549Y-112171355D01*
X199446861Y-112137329D01*
X199498762Y-112136979D01*
X199678597Y-112173567D01*
X199683772Y-112173757D01*
X199683774Y-112173757D01*
X199896673Y-112181564D01*
X199896677Y-112181564D01*
X199901837Y-112181753D01*
X199906957Y-112181097D01*
X199906959Y-112181097D01*
X200118288Y-112154025D01*
X200118289Y-112154025D01*
X200123416Y-112153368D01*
X200128366Y-112151883D01*
X200332429Y-112090661D01*
X200332434Y-112090659D01*
X200337384Y-112089174D01*
X200537994Y-111990896D01*
X200719860Y-111861173D01*
X200754105Y-111827048D01*
X200874435Y-111707137D01*
X200878096Y-111703489D01*
X201008453Y-111522077D01*
X201071479Y-111394554D01*
X201105136Y-111326453D01*
X201105137Y-111326451D01*
X201107430Y-111321811D01*
X201172370Y-111108069D01*
X201201529Y-110886590D01*
X201202915Y-110829866D01*
X201203074Y-110823365D01*
X201203074Y-110823361D01*
X201203156Y-110820000D01*
X201184852Y-110597361D01*
X201130431Y-110380702D01*
X201041354Y-110175840D01*
X200920014Y-109988277D01*
X200769670Y-109823051D01*
X200765619Y-109819852D01*
X200765615Y-109819848D01*
X200598414Y-109687800D01*
X200598410Y-109687798D01*
X200594359Y-109684598D01*
X200553053Y-109661796D01*
X200503084Y-109611364D01*
X200488312Y-109541921D01*
X200513428Y-109475516D01*
X200540780Y-109448909D01*
X200669109Y-109357373D01*
X200719860Y-109321173D01*
X200744323Y-109296796D01*
X200874435Y-109167137D01*
X200878096Y-109163489D01*
X200888273Y-109149327D01*
X201005435Y-108986277D01*
X201008453Y-108982077D01*
X201038008Y-108922278D01*
X201105136Y-108786453D01*
X201105137Y-108786451D01*
X201107430Y-108781811D01*
X201172370Y-108568069D01*
X201201529Y-108346590D01*
X201203156Y-108280000D01*
X201184852Y-108057361D01*
X201130431Y-107840702D01*
X201041354Y-107635840D01*
X200920014Y-107448277D01*
X200769670Y-107283051D01*
X200765619Y-107279852D01*
X200765615Y-107279848D01*
X200598414Y-107147800D01*
X200598410Y-107147798D01*
X200594359Y-107144598D01*
X200553053Y-107121796D01*
X200503084Y-107071364D01*
X200488312Y-107001921D01*
X200513428Y-106935516D01*
X200540780Y-106908909D01*
X200584603Y-106877650D01*
X200719860Y-106781173D01*
X200750923Y-106750219D01*
X200816817Y-106684554D01*
X200878096Y-106623489D01*
X201008453Y-106442077D01*
X201025801Y-106406977D01*
X201105136Y-106246453D01*
X201105137Y-106246451D01*
X201107430Y-106241811D01*
X201157301Y-106077668D01*
X201170865Y-106033023D01*
X201170865Y-106033021D01*
X201172370Y-106028069D01*
X201201529Y-105806590D01*
X201203156Y-105740000D01*
X201184852Y-105517361D01*
X201130431Y-105300702D01*
X201041354Y-105095840D01*
X200920014Y-104908277D01*
X200769670Y-104743051D01*
X200765619Y-104739852D01*
X200765615Y-104739848D01*
X200598414Y-104607800D01*
X200598410Y-104607798D01*
X200594359Y-104604598D01*
X200553053Y-104581796D01*
X200503084Y-104531364D01*
X200488312Y-104461921D01*
X200513428Y-104395516D01*
X200540780Y-104368909D01*
X200612411Y-104317815D01*
X200719860Y-104241173D01*
X200878096Y-104083489D01*
X200947488Y-103986920D01*
X201005435Y-103906277D01*
X201008453Y-103902077D01*
X201029907Y-103858669D01*
X201105136Y-103706453D01*
X201105137Y-103706451D01*
X201107430Y-103701811D01*
X201172370Y-103488069D01*
X201201529Y-103266590D01*
X201203156Y-103200000D01*
X201184852Y-102977361D01*
X201130431Y-102760702D01*
X201041354Y-102555840D01*
X200920014Y-102368277D01*
X200769670Y-102203051D01*
X200765619Y-102199852D01*
X200765615Y-102199848D01*
X200598414Y-102067800D01*
X200598410Y-102067798D01*
X200594359Y-102064598D01*
X200553053Y-102041796D01*
X200503084Y-101991364D01*
X200488312Y-101921921D01*
X200513428Y-101855516D01*
X200540780Y-101828909D01*
X200584603Y-101797650D01*
X200719860Y-101701173D01*
X200747191Y-101673938D01*
X200874435Y-101547137D01*
X200878096Y-101543489D01*
X201008453Y-101362077D01*
X201034276Y-101309829D01*
X201105136Y-101166453D01*
X201105137Y-101166451D01*
X201107430Y-101161811D01*
X201172370Y-100948069D01*
X201201529Y-100726590D01*
X201201611Y-100723240D01*
X201202993Y-100666695D01*
X223877251Y-100666695D01*
X223877548Y-100671848D01*
X223877548Y-100671851D01*
X223882935Y-100765270D01*
X223890110Y-100889715D01*
X223891247Y-100894761D01*
X223891248Y-100894767D01*
X223903261Y-100948069D01*
X223939222Y-101107639D01*
X224023266Y-101314616D01*
X224139987Y-101505088D01*
X224286250Y-101673938D01*
X224458126Y-101816632D01*
X224651000Y-101929338D01*
X224859692Y-102009030D01*
X224864760Y-102010061D01*
X224864763Y-102010062D01*
X224972017Y-102031883D01*
X225078597Y-102053567D01*
X225083772Y-102053757D01*
X225083774Y-102053757D01*
X225296673Y-102061564D01*
X225296677Y-102061564D01*
X225301837Y-102061753D01*
X225306957Y-102061097D01*
X225306959Y-102061097D01*
X225518288Y-102034025D01*
X225518289Y-102034025D01*
X225523416Y-102033368D01*
X225528366Y-102031883D01*
X225732429Y-101970661D01*
X225732434Y-101970659D01*
X225737384Y-101969174D01*
X225937994Y-101870896D01*
X226119860Y-101741173D01*
X226278096Y-101583489D01*
X226304218Y-101547137D01*
X226405435Y-101406277D01*
X226408453Y-101402077D01*
X226417790Y-101383186D01*
X226505136Y-101206453D01*
X226505137Y-101206451D01*
X226507430Y-101201811D01*
X226552190Y-101054488D01*
X226570865Y-100993023D01*
X226570865Y-100993021D01*
X226572370Y-100988069D01*
X226601529Y-100766590D01*
X226602211Y-100738669D01*
X226603074Y-100703365D01*
X226603074Y-100703361D01*
X226603156Y-100700000D01*
X226584852Y-100477361D01*
X226530431Y-100260702D01*
X226441354Y-100055840D01*
X226320014Y-99868277D01*
X226169670Y-99703051D01*
X226165619Y-99699852D01*
X226165615Y-99699848D01*
X225998414Y-99567800D01*
X225998410Y-99567798D01*
X225994359Y-99564598D01*
X225953053Y-99541796D01*
X225903084Y-99491364D01*
X225888312Y-99421921D01*
X225913428Y-99355516D01*
X225940780Y-99328909D01*
X225996858Y-99288909D01*
X226119860Y-99201173D01*
X226278096Y-99043489D01*
X226304218Y-99007137D01*
X226405435Y-98866277D01*
X226408453Y-98862077D01*
X226417790Y-98843186D01*
X226505136Y-98666453D01*
X226505137Y-98666451D01*
X226507430Y-98661811D01*
X226572370Y-98448069D01*
X226601529Y-98226590D01*
X226602425Y-98189908D01*
X226603074Y-98163365D01*
X226603074Y-98163361D01*
X226603156Y-98160000D01*
X226584852Y-97937361D01*
X226530431Y-97720702D01*
X226441354Y-97515840D01*
X226320014Y-97328277D01*
X226169670Y-97163051D01*
X226165619Y-97159852D01*
X226165615Y-97159848D01*
X225998414Y-97027800D01*
X225998410Y-97027798D01*
X225994359Y-97024598D01*
X225953053Y-97001796D01*
X225903084Y-96951364D01*
X225888312Y-96881921D01*
X225913428Y-96815516D01*
X225940780Y-96788909D01*
X225996858Y-96748909D01*
X226119860Y-96661173D01*
X226278096Y-96503489D01*
X226304218Y-96467137D01*
X226405435Y-96326277D01*
X226408453Y-96322077D01*
X226426147Y-96286277D01*
X226505136Y-96126453D01*
X226505137Y-96126451D01*
X226507430Y-96121811D01*
X226572370Y-95908069D01*
X226601529Y-95686590D01*
X226602425Y-95649908D01*
X226603074Y-95623365D01*
X226603074Y-95623361D01*
X226603156Y-95620000D01*
X226584852Y-95397361D01*
X226530431Y-95180702D01*
X226441354Y-94975840D01*
X226335593Y-94812358D01*
X226322822Y-94792617D01*
X226322820Y-94792614D01*
X226320014Y-94788277D01*
X226169670Y-94623051D01*
X226165619Y-94619852D01*
X226165615Y-94619848D01*
X225998414Y-94487800D01*
X225998410Y-94487798D01*
X225994359Y-94484598D01*
X225953053Y-94461796D01*
X225903084Y-94411364D01*
X225888312Y-94341921D01*
X225913428Y-94275516D01*
X225940780Y-94248909D01*
X225997234Y-94208641D01*
X226119860Y-94121173D01*
X226278096Y-93963489D01*
X226335046Y-93884235D01*
X226405435Y-93786277D01*
X226408453Y-93782077D01*
X226422941Y-93752764D01*
X226505136Y-93586453D01*
X226505137Y-93586451D01*
X226507430Y-93581811D01*
X226546786Y-93452275D01*
X226570865Y-93373023D01*
X226570865Y-93373021D01*
X226572370Y-93368069D01*
X226601529Y-93146590D01*
X226603156Y-93080000D01*
X226584852Y-92857361D01*
X226530431Y-92640702D01*
X226441354Y-92435840D01*
X226329732Y-92263298D01*
X226322822Y-92252617D01*
X226322820Y-92252614D01*
X226320014Y-92248277D01*
X226315730Y-92243569D01*
X226172798Y-92086488D01*
X226141746Y-92022642D01*
X226150141Y-91952143D01*
X226195317Y-91897375D01*
X226221761Y-91883706D01*
X226328297Y-91843767D01*
X226336705Y-91840615D01*
X226453261Y-91753261D01*
X226540615Y-91636705D01*
X226591745Y-91500316D01*
X226598500Y-91438134D01*
X226598500Y-89641866D01*
X226591745Y-89579684D01*
X226540615Y-89443295D01*
X226453261Y-89326739D01*
X226336705Y-89239385D01*
X226200316Y-89188255D01*
X226138134Y-89181500D01*
X224341866Y-89181500D01*
X224279684Y-89188255D01*
X224143295Y-89239385D01*
X224026739Y-89326739D01*
X223939385Y-89443295D01*
X223888255Y-89579684D01*
X223881500Y-89641866D01*
X223881500Y-91438134D01*
X223888255Y-91500316D01*
X223939385Y-91636705D01*
X224026739Y-91753261D01*
X224143295Y-91840615D01*
X224151704Y-91843767D01*
X224151705Y-91843768D01*
X224260451Y-91884535D01*
X224317216Y-91927176D01*
X224341916Y-91993738D01*
X224326709Y-92063087D01*
X224307316Y-92089568D01*
X224214469Y-92186727D01*
X224180629Y-92222138D01*
X224177715Y-92226410D01*
X224177714Y-92226411D01*
X224149856Y-92267250D01*
X224054743Y-92406680D01*
X223960688Y-92609305D01*
X223900989Y-92824570D01*
X223877251Y-93046695D01*
X223877548Y-93051848D01*
X223877548Y-93051851D01*
X223883011Y-93146590D01*
X223890110Y-93269715D01*
X223891247Y-93274761D01*
X223891248Y-93274767D01*
X223911119Y-93362939D01*
X223939222Y-93487639D01*
X224023266Y-93694616D01*
X224139987Y-93885088D01*
X224286250Y-94053938D01*
X224458126Y-94196632D01*
X224478677Y-94208641D01*
X224531445Y-94239476D01*
X224580169Y-94291114D01*
X224593240Y-94360897D01*
X224566509Y-94426669D01*
X224526055Y-94460027D01*
X224513607Y-94466507D01*
X224509474Y-94469610D01*
X224509471Y-94469612D01*
X224353298Y-94586870D01*
X224334965Y-94600635D01*
X224316605Y-94619848D01*
X224214771Y-94726411D01*
X224180629Y-94762138D01*
X224054743Y-94946680D01*
X224040454Y-94977464D01*
X223965775Y-95138347D01*
X223960688Y-95149305D01*
X223900989Y-95364570D01*
X223877251Y-95586695D01*
X223877548Y-95591848D01*
X223877548Y-95591851D01*
X223883011Y-95686590D01*
X223890110Y-95809715D01*
X223891247Y-95814761D01*
X223891248Y-95814767D01*
X223903261Y-95868069D01*
X223939222Y-96027639D01*
X224023266Y-96234616D01*
X224139987Y-96425088D01*
X224286250Y-96593938D01*
X224458126Y-96736632D01*
X224462993Y-96739476D01*
X224531445Y-96779476D01*
X224580169Y-96831114D01*
X224593240Y-96900897D01*
X224566509Y-96966669D01*
X224526055Y-97000027D01*
X224513607Y-97006507D01*
X224509474Y-97009610D01*
X224509471Y-97009612D01*
X224357099Y-97124016D01*
X224334965Y-97140635D01*
X224331393Y-97144373D01*
X224214771Y-97266411D01*
X224180629Y-97302138D01*
X224177715Y-97306410D01*
X224177714Y-97306411D01*
X224092556Y-97431249D01*
X224054743Y-97486680D01*
X224023962Y-97552992D01*
X223973997Y-97660634D01*
X223960688Y-97689305D01*
X223900989Y-97904570D01*
X223877251Y-98126695D01*
X223877548Y-98131848D01*
X223877548Y-98131851D01*
X223889812Y-98344547D01*
X223890110Y-98349715D01*
X223891247Y-98354761D01*
X223891248Y-98354767D01*
X223912275Y-98448069D01*
X223939222Y-98567639D01*
X223997916Y-98712185D01*
X224020707Y-98768313D01*
X224023266Y-98774616D01*
X224139987Y-98965088D01*
X224286250Y-99133938D01*
X224458126Y-99276632D01*
X224462993Y-99279476D01*
X224531445Y-99319476D01*
X224580169Y-99371114D01*
X224593240Y-99440897D01*
X224566509Y-99506669D01*
X224526055Y-99540027D01*
X224513607Y-99546507D01*
X224509474Y-99549610D01*
X224509471Y-99549612D01*
X224353298Y-99666870D01*
X224334965Y-99680635D01*
X224331393Y-99684373D01*
X224214771Y-99806411D01*
X224180629Y-99842138D01*
X224054743Y-100026680D01*
X224039003Y-100060590D01*
X223981435Y-100184610D01*
X223960688Y-100229305D01*
X223900989Y-100444570D01*
X223877251Y-100666695D01*
X201202993Y-100666695D01*
X201203074Y-100663365D01*
X201203074Y-100663361D01*
X201203156Y-100660000D01*
X201184852Y-100437361D01*
X201130431Y-100220702D01*
X201041354Y-100015840D01*
X200943420Y-99864457D01*
X200922822Y-99832617D01*
X200922820Y-99832614D01*
X200920014Y-99828277D01*
X200769670Y-99663051D01*
X200765619Y-99659852D01*
X200765615Y-99659848D01*
X200598414Y-99527800D01*
X200598410Y-99527798D01*
X200594359Y-99524598D01*
X200553053Y-99501796D01*
X200503084Y-99451364D01*
X200488312Y-99381921D01*
X200513428Y-99315516D01*
X200540780Y-99288909D01*
X200584603Y-99257650D01*
X200719860Y-99161173D01*
X200747191Y-99133938D01*
X200874435Y-99007137D01*
X200878096Y-99003489D01*
X201008453Y-98822077D01*
X201012611Y-98813665D01*
X201105136Y-98626453D01*
X201105137Y-98626451D01*
X201107430Y-98621811D01*
X201172370Y-98408069D01*
X201201529Y-98186590D01*
X201202089Y-98163678D01*
X201203074Y-98123365D01*
X201203074Y-98123361D01*
X201203156Y-98120000D01*
X201184852Y-97897361D01*
X201130431Y-97680702D01*
X201041354Y-97475840D01*
X200943420Y-97324457D01*
X200922822Y-97292617D01*
X200922820Y-97292614D01*
X200920014Y-97288277D01*
X200769670Y-97123051D01*
X200765619Y-97119852D01*
X200765615Y-97119848D01*
X200598414Y-96987800D01*
X200598410Y-96987798D01*
X200594359Y-96984598D01*
X200553053Y-96961796D01*
X200503084Y-96911364D01*
X200488312Y-96841921D01*
X200513428Y-96775516D01*
X200540780Y-96748909D01*
X200606090Y-96702324D01*
X200719860Y-96621173D01*
X200747191Y-96593938D01*
X200874435Y-96467137D01*
X200878096Y-96463489D01*
X200937594Y-96380689D01*
X201005435Y-96286277D01*
X201008453Y-96282077D01*
X201029907Y-96238669D01*
X201105136Y-96086453D01*
X201105137Y-96086451D01*
X201107430Y-96081811D01*
X201172370Y-95868069D01*
X201201529Y-95646590D01*
X201201611Y-95643240D01*
X201203074Y-95583365D01*
X201203074Y-95583361D01*
X201203156Y-95580000D01*
X201184852Y-95357361D01*
X201130431Y-95140702D01*
X201041354Y-94935840D01*
X200943420Y-94784457D01*
X200922822Y-94752617D01*
X200922820Y-94752614D01*
X200920014Y-94748277D01*
X200769670Y-94583051D01*
X200765619Y-94579852D01*
X200765615Y-94579848D01*
X200598414Y-94447800D01*
X200598410Y-94447798D01*
X200594359Y-94444598D01*
X200552569Y-94421529D01*
X200502598Y-94371097D01*
X200487826Y-94301654D01*
X200512942Y-94235248D01*
X200540294Y-94208641D01*
X200715328Y-94083792D01*
X200723200Y-94077139D01*
X200874052Y-93926812D01*
X200880730Y-93918965D01*
X201005003Y-93746020D01*
X201010313Y-93737183D01*
X201104670Y-93546267D01*
X201108469Y-93536672D01*
X201170377Y-93332910D01*
X201172555Y-93322837D01*
X201173986Y-93311962D01*
X201171775Y-93297778D01*
X201158617Y-93294000D01*
X198523225Y-93294000D01*
X198509694Y-93297973D01*
X198508257Y-93307966D01*
X198538565Y-93442446D01*
X198541645Y-93452275D01*
X198621770Y-93649603D01*
X198626413Y-93658794D01*
X198737694Y-93840388D01*
X198743777Y-93848699D01*
X198883213Y-94009667D01*
X198890580Y-94016883D01*
X199054434Y-94152916D01*
X199062881Y-94158831D01*
X199131969Y-94199203D01*
X199180693Y-94250842D01*
X199193764Y-94320625D01*
X199167033Y-94386396D01*
X199126584Y-94419752D01*
X199113607Y-94426507D01*
X199109474Y-94429610D01*
X199109471Y-94429612D01*
X199002969Y-94509576D01*
X198934965Y-94560635D01*
X198931393Y-94564373D01*
X198784276Y-94718322D01*
X198780629Y-94722138D01*
X198654743Y-94906680D01*
X198623087Y-94974877D01*
X198589270Y-95047731D01*
X198560688Y-95109305D01*
X198500989Y-95324570D01*
X198477251Y-95546695D01*
X198477548Y-95551848D01*
X198477548Y-95551851D01*
X198483011Y-95646590D01*
X198490110Y-95769715D01*
X198491247Y-95774761D01*
X198491248Y-95774767D01*
X198500263Y-95814767D01*
X198539222Y-95987639D01*
X198623266Y-96194616D01*
X198646902Y-96233186D01*
X198728854Y-96366920D01*
X198739987Y-96385088D01*
X198886250Y-96553938D01*
X199058126Y-96696632D01*
X199067867Y-96702324D01*
X199131445Y-96739476D01*
X199180169Y-96791114D01*
X199193240Y-96860897D01*
X199166509Y-96926669D01*
X199126055Y-96960027D01*
X199113607Y-96966507D01*
X199109474Y-96969610D01*
X199109471Y-96969612D01*
X199031972Y-97027800D01*
X198934965Y-97100635D01*
X198780629Y-97262138D01*
X198777715Y-97266410D01*
X198777714Y-97266411D01*
X198665095Y-97431504D01*
X198610184Y-97476507D01*
X198561007Y-97486500D01*
X174677067Y-97486500D01*
X174665884Y-97485973D01*
X174658391Y-97484298D01*
X174650465Y-97484547D01*
X174650464Y-97484547D01*
X174590301Y-97486438D01*
X174586343Y-97486500D01*
X174558443Y-97486500D01*
X174554453Y-97487004D01*
X174542619Y-97487936D01*
X174498410Y-97489326D01*
X174490794Y-97491539D01*
X174490792Y-97491539D01*
X174478951Y-97494979D01*
X174459592Y-97498988D01*
X174458282Y-97499154D01*
X174439502Y-97501526D01*
X174432136Y-97504442D01*
X174432130Y-97504444D01*
X174398397Y-97517800D01*
X174387167Y-97521645D01*
X174352316Y-97531770D01*
X174344706Y-97533981D01*
X174337883Y-97538016D01*
X174327265Y-97544295D01*
X174309512Y-97552992D01*
X174301956Y-97555984D01*
X174290682Y-97560448D01*
X174266174Y-97578254D01*
X174254911Y-97586437D01*
X174244994Y-97592951D01*
X174206937Y-97615458D01*
X174192616Y-97629779D01*
X174177583Y-97642619D01*
X174161192Y-97654528D01*
X174156141Y-97660634D01*
X174133001Y-97688605D01*
X174125011Y-97697384D01*
X157686666Y-114135728D01*
X157624354Y-114169754D01*
X157553539Y-114164689D01*
X157519483Y-114145518D01*
X157404359Y-114054598D01*
X157399831Y-114052098D01*
X157347945Y-114023456D01*
X157208789Y-113946638D01*
X157203920Y-113944914D01*
X157203916Y-113944912D01*
X157003087Y-113873795D01*
X157003083Y-113873794D01*
X156998212Y-113872069D01*
X156993119Y-113871162D01*
X156993116Y-113871161D01*
X156783373Y-113833800D01*
X156783367Y-113833799D01*
X156778284Y-113832894D01*
X156704452Y-113831992D01*
X156560081Y-113830228D01*
X156560079Y-113830228D01*
X156554911Y-113830165D01*
X156334091Y-113863955D01*
X156121756Y-113933357D01*
X156048071Y-113971715D01*
X155947975Y-114023822D01*
X155923607Y-114036507D01*
X155919474Y-114039610D01*
X155919471Y-114039612D01*
X155752884Y-114164689D01*
X155744965Y-114170635D01*
X155590629Y-114332138D01*
X155483201Y-114489621D01*
X155428293Y-114534621D01*
X155357768Y-114542792D01*
X155294021Y-114511538D01*
X155273324Y-114487054D01*
X155192822Y-114362617D01*
X155192820Y-114362614D01*
X155190014Y-114358277D01*
X155039670Y-114193051D01*
X155035619Y-114189852D01*
X155035615Y-114189848D01*
X154868414Y-114057800D01*
X154868408Y-114057796D01*
X154864359Y-114054598D01*
X154859831Y-114052098D01*
X154807945Y-114023456D01*
X154668789Y-113946638D01*
X154663920Y-113944914D01*
X154663916Y-113944912D01*
X154463087Y-113873795D01*
X154463083Y-113873794D01*
X154458212Y-113872069D01*
X154453119Y-113871162D01*
X154453116Y-113871161D01*
X154243373Y-113833800D01*
X154243367Y-113833799D01*
X154238284Y-113832894D01*
X154164452Y-113831992D01*
X154020081Y-113830228D01*
X154020079Y-113830228D01*
X154014911Y-113830165D01*
X153794091Y-113863955D01*
X153581756Y-113933357D01*
X153508071Y-113971715D01*
X153407975Y-114023822D01*
X153383607Y-114036507D01*
X153379474Y-114039610D01*
X153379471Y-114039612D01*
X153212884Y-114164689D01*
X153204965Y-114170635D01*
X153050629Y-114332138D01*
X152943201Y-114489621D01*
X152888293Y-114534621D01*
X152817768Y-114542792D01*
X152754021Y-114511538D01*
X152733324Y-114487054D01*
X152652822Y-114362617D01*
X152652820Y-114362614D01*
X152650014Y-114358277D01*
X152499670Y-114193051D01*
X152495619Y-114189852D01*
X152495615Y-114189848D01*
X152328414Y-114057800D01*
X152328408Y-114057796D01*
X152324359Y-114054598D01*
X152319831Y-114052098D01*
X152267945Y-114023456D01*
X152128789Y-113946638D01*
X152123920Y-113944914D01*
X152123916Y-113944912D01*
X151923087Y-113873795D01*
X151923083Y-113873794D01*
X151918212Y-113872069D01*
X151913119Y-113871162D01*
X151913116Y-113871161D01*
X151703373Y-113833800D01*
X151703367Y-113833799D01*
X151698284Y-113832894D01*
X151624452Y-113831992D01*
X151480081Y-113830228D01*
X151480079Y-113830228D01*
X151474911Y-113830165D01*
X151254091Y-113863955D01*
X151041756Y-113933357D01*
X150968071Y-113971715D01*
X150867975Y-114023822D01*
X150843607Y-114036507D01*
X150839474Y-114039610D01*
X150839471Y-114039612D01*
X150672884Y-114164689D01*
X150664965Y-114170635D01*
X150510629Y-114332138D01*
X150403201Y-114489621D01*
X150348293Y-114534621D01*
X150277768Y-114542792D01*
X150214021Y-114511538D01*
X150193324Y-114487054D01*
X150112822Y-114362617D01*
X150112820Y-114362614D01*
X150110014Y-114358277D01*
X149959670Y-114193051D01*
X149955619Y-114189852D01*
X149955615Y-114189848D01*
X149788414Y-114057800D01*
X149788408Y-114057796D01*
X149784359Y-114054598D01*
X149779831Y-114052098D01*
X149727945Y-114023456D01*
X149588789Y-113946638D01*
X149583920Y-113944914D01*
X149583916Y-113944912D01*
X149383087Y-113873795D01*
X149383083Y-113873794D01*
X149378212Y-113872069D01*
X149373119Y-113871162D01*
X149373116Y-113871161D01*
X149163373Y-113833800D01*
X149163367Y-113833799D01*
X149158284Y-113832894D01*
X149084452Y-113831992D01*
X148940081Y-113830228D01*
X148940079Y-113830228D01*
X148934911Y-113830165D01*
X148714091Y-113863955D01*
X148501756Y-113933357D01*
X148428071Y-113971715D01*
X148327975Y-114023822D01*
X148303607Y-114036507D01*
X148299474Y-114039610D01*
X148299471Y-114039612D01*
X148132884Y-114164689D01*
X148124965Y-114170635D01*
X147970629Y-114332138D01*
X147863201Y-114489621D01*
X147808293Y-114534621D01*
X147737768Y-114542792D01*
X147674021Y-114511538D01*
X147653324Y-114487054D01*
X147572822Y-114362617D01*
X147572820Y-114362614D01*
X147570014Y-114358277D01*
X147419670Y-114193051D01*
X147415619Y-114189852D01*
X147415615Y-114189848D01*
X147248414Y-114057800D01*
X147248408Y-114057796D01*
X147244359Y-114054598D01*
X147239831Y-114052098D01*
X147187945Y-114023456D01*
X147048789Y-113946638D01*
X147043920Y-113944914D01*
X147043916Y-113944912D01*
X146843087Y-113873795D01*
X146843083Y-113873794D01*
X146838212Y-113872069D01*
X146833119Y-113871162D01*
X146833116Y-113871161D01*
X146623373Y-113833800D01*
X146623367Y-113833799D01*
X146618284Y-113832894D01*
X146544452Y-113831992D01*
X146400081Y-113830228D01*
X146400079Y-113830228D01*
X146394911Y-113830165D01*
X146174091Y-113863955D01*
X145961756Y-113933357D01*
X145888071Y-113971715D01*
X145787975Y-114023822D01*
X145763607Y-114036507D01*
X145759474Y-114039610D01*
X145759471Y-114039612D01*
X145592884Y-114164689D01*
X145584965Y-114170635D01*
X145430629Y-114332138D01*
X145323201Y-114489621D01*
X145268293Y-114534621D01*
X145197768Y-114542792D01*
X145134021Y-114511538D01*
X145113324Y-114487054D01*
X145032822Y-114362617D01*
X145032820Y-114362614D01*
X145030014Y-114358277D01*
X144879670Y-114193051D01*
X144875619Y-114189852D01*
X144875615Y-114189848D01*
X144708414Y-114057800D01*
X144708408Y-114057796D01*
X144704359Y-114054598D01*
X144699831Y-114052098D01*
X144647945Y-114023456D01*
X144508789Y-113946638D01*
X144503920Y-113944914D01*
X144503916Y-113944912D01*
X144303087Y-113873795D01*
X144303083Y-113873794D01*
X144298212Y-113872069D01*
X144293119Y-113871162D01*
X144293116Y-113871161D01*
X144083373Y-113833800D01*
X144083367Y-113833799D01*
X144078284Y-113832894D01*
X144004452Y-113831992D01*
X143860081Y-113830228D01*
X143860079Y-113830228D01*
X143854911Y-113830165D01*
X143634091Y-113863955D01*
X143421756Y-113933357D01*
X143348071Y-113971715D01*
X143247975Y-114023822D01*
X143223607Y-114036507D01*
X143219474Y-114039610D01*
X143219471Y-114039612D01*
X143052884Y-114164689D01*
X143044965Y-114170635D01*
X142890629Y-114332138D01*
X142783201Y-114489621D01*
X142728293Y-114534621D01*
X142657768Y-114542792D01*
X142594021Y-114511538D01*
X142573324Y-114487054D01*
X142492822Y-114362617D01*
X142492820Y-114362614D01*
X142490014Y-114358277D01*
X142339670Y-114193051D01*
X142335619Y-114189852D01*
X142335615Y-114189848D01*
X142168414Y-114057800D01*
X142168408Y-114057796D01*
X142164359Y-114054598D01*
X142159831Y-114052098D01*
X142107945Y-114023456D01*
X141968789Y-113946638D01*
X141963920Y-113944914D01*
X141963916Y-113944912D01*
X141763087Y-113873795D01*
X141763083Y-113873794D01*
X141758212Y-113872069D01*
X141753119Y-113871162D01*
X141753116Y-113871161D01*
X141543373Y-113833800D01*
X141543367Y-113833799D01*
X141538284Y-113832894D01*
X141464452Y-113831992D01*
X141320081Y-113830228D01*
X141320079Y-113830228D01*
X141314911Y-113830165D01*
X141094091Y-113863955D01*
X140881756Y-113933357D01*
X140808071Y-113971715D01*
X140707975Y-114023822D01*
X140683607Y-114036507D01*
X140679474Y-114039610D01*
X140679471Y-114039612D01*
X140512884Y-114164689D01*
X140504965Y-114170635D01*
X140350629Y-114332138D01*
X140243201Y-114489621D01*
X140188293Y-114534621D01*
X140117768Y-114542792D01*
X140054021Y-114511538D01*
X140033324Y-114487054D01*
X139952822Y-114362617D01*
X139952820Y-114362614D01*
X139950014Y-114358277D01*
X139799670Y-114193051D01*
X139795619Y-114189852D01*
X139795615Y-114189848D01*
X139628414Y-114057800D01*
X139628408Y-114057796D01*
X139624359Y-114054598D01*
X139619831Y-114052098D01*
X139567945Y-114023456D01*
X139428789Y-113946638D01*
X139423920Y-113944914D01*
X139423916Y-113944912D01*
X139223087Y-113873795D01*
X139223083Y-113873794D01*
X139218212Y-113872069D01*
X139213119Y-113871162D01*
X139213116Y-113871161D01*
X139003373Y-113833800D01*
X139003367Y-113833799D01*
X138998284Y-113832894D01*
X138924452Y-113831992D01*
X138780081Y-113830228D01*
X138780079Y-113830228D01*
X138774911Y-113830165D01*
X138554091Y-113863955D01*
X138341756Y-113933357D01*
X138268071Y-113971715D01*
X138167975Y-114023822D01*
X138143607Y-114036507D01*
X138139474Y-114039610D01*
X138139471Y-114039612D01*
X137972884Y-114164689D01*
X137964965Y-114170635D01*
X137810629Y-114332138D01*
X137703201Y-114489621D01*
X137648293Y-114534621D01*
X137577768Y-114542792D01*
X137514021Y-114511538D01*
X137493324Y-114487054D01*
X137412822Y-114362617D01*
X137412820Y-114362614D01*
X137410014Y-114358277D01*
X137259670Y-114193051D01*
X137255619Y-114189852D01*
X137255615Y-114189848D01*
X137088414Y-114057800D01*
X137088408Y-114057796D01*
X137084359Y-114054598D01*
X137079831Y-114052098D01*
X137027945Y-114023456D01*
X136888789Y-113946638D01*
X136883920Y-113944914D01*
X136883916Y-113944912D01*
X136683087Y-113873795D01*
X136683083Y-113873794D01*
X136678212Y-113872069D01*
X136673119Y-113871162D01*
X136673116Y-113871161D01*
X136463373Y-113833800D01*
X136463367Y-113833799D01*
X136458284Y-113832894D01*
X136384452Y-113831992D01*
X136240081Y-113830228D01*
X136240079Y-113830228D01*
X136234911Y-113830165D01*
X136014091Y-113863955D01*
X135801756Y-113933357D01*
X135728071Y-113971715D01*
X135627975Y-114023822D01*
X135603607Y-114036507D01*
X135599474Y-114039610D01*
X135599471Y-114039612D01*
X135432884Y-114164689D01*
X135424965Y-114170635D01*
X135270629Y-114332138D01*
X135163201Y-114489621D01*
X135108293Y-114534621D01*
X135037768Y-114542792D01*
X134974021Y-114511538D01*
X134953324Y-114487054D01*
X134872822Y-114362617D01*
X134872820Y-114362614D01*
X134870014Y-114358277D01*
X134719670Y-114193051D01*
X134715619Y-114189852D01*
X134715615Y-114189848D01*
X134548414Y-114057800D01*
X134548408Y-114057796D01*
X134544359Y-114054598D01*
X134539831Y-114052098D01*
X134487945Y-114023456D01*
X134348789Y-113946638D01*
X134343920Y-113944914D01*
X134343916Y-113944912D01*
X134143087Y-113873795D01*
X134143083Y-113873794D01*
X134138212Y-113872069D01*
X134133119Y-113871162D01*
X134133116Y-113871161D01*
X133923373Y-113833800D01*
X133923367Y-113833799D01*
X133918284Y-113832894D01*
X133844452Y-113831992D01*
X133700081Y-113830228D01*
X133700079Y-113830228D01*
X133694911Y-113830165D01*
X133474091Y-113863955D01*
X133261756Y-113933357D01*
X133188071Y-113971715D01*
X133087975Y-114023822D01*
X133063607Y-114036507D01*
X133059474Y-114039610D01*
X133059471Y-114039612D01*
X132892884Y-114164689D01*
X132884965Y-114170635D01*
X132730629Y-114332138D01*
X132623204Y-114489618D01*
X132622898Y-114490066D01*
X132567987Y-114535069D01*
X132497462Y-114543240D01*
X132433715Y-114511986D01*
X132413018Y-114487502D01*
X132332426Y-114362926D01*
X132326136Y-114354757D01*
X132182806Y-114197240D01*
X132175273Y-114190215D01*
X132008139Y-114058222D01*
X131999552Y-114052517D01*
X131813117Y-113949599D01*
X131803705Y-113945369D01*
X131602959Y-113874280D01*
X131592988Y-113871646D01*
X131521837Y-113858972D01*
X131508540Y-113860432D01*
X131504000Y-113874989D01*
X131504000Y-116508517D01*
X130996000Y-116508517D01*
X130996000Y-115462115D01*
X130991525Y-115446876D01*
X130990135Y-115445671D01*
X130982452Y-115444000D01*
X128982115Y-115444000D01*
X128966876Y-115448475D01*
X128965671Y-115449865D01*
X128964000Y-115457548D01*
X128964000Y-116529884D01*
X128456000Y-116529884D01*
X128456000Y-115462115D01*
X128451525Y-115446876D01*
X128450135Y-115445671D01*
X128442452Y-115444000D01*
X127370116Y-115444000D01*
X127354877Y-115448475D01*
X127353672Y-115449865D01*
X127352001Y-115457548D01*
X127352001Y-116084669D01*
X61208500Y-116084669D01*
X61208500Y-113959733D01*
X91847822Y-113959733D01*
X91847975Y-113964121D01*
X91847975Y-113964127D01*
X91856878Y-114219059D01*
X91857625Y-114240458D01*
X91858387Y-114244781D01*
X91858388Y-114244788D01*
X91882164Y-114379624D01*
X91906402Y-114517087D01*
X91993203Y-114784235D01*
X92116340Y-115036702D01*
X92118795Y-115040341D01*
X92118798Y-115040347D01*
X92191890Y-115148710D01*
X92273415Y-115269576D01*
X92461371Y-115478322D01*
X92676550Y-115658879D01*
X92914764Y-115807731D01*
X93042669Y-115864678D01*
X93138325Y-115907267D01*
X93171375Y-115921982D01*
X93175603Y-115923194D01*
X93175602Y-115923194D01*
X93326298Y-115966405D01*
X93441390Y-115999407D01*
X93445740Y-116000018D01*
X93445743Y-116000019D01*
X93548690Y-116014487D01*
X93719552Y-116038500D01*
X93930146Y-116038500D01*
X93932332Y-116038347D01*
X93932336Y-116038347D01*
X94135827Y-116024118D01*
X94135832Y-116024117D01*
X94140212Y-116023811D01*
X94414970Y-115965409D01*
X94419099Y-115963906D01*
X94419103Y-115963905D01*
X94674781Y-115870846D01*
X94674785Y-115870844D01*
X94678926Y-115869337D01*
X94926942Y-115737464D01*
X94935151Y-115731500D01*
X95150629Y-115574947D01*
X95150632Y-115574944D01*
X95154192Y-115572358D01*
X95356252Y-115377231D01*
X95529188Y-115155882D01*
X95531384Y-115152078D01*
X95531389Y-115152071D01*
X95667435Y-114916431D01*
X95669636Y-114912619D01*
X95774862Y-114652176D01*
X95797529Y-114561265D01*
X95841753Y-114383893D01*
X95841754Y-114383888D01*
X95842817Y-114379624D01*
X95844605Y-114362617D01*
X95871719Y-114104636D01*
X95871719Y-114104633D01*
X95872178Y-114100267D01*
X95870695Y-114057796D01*
X95868668Y-113999733D01*
X107647822Y-113999733D01*
X107647975Y-114004121D01*
X107647975Y-114004127D01*
X107656447Y-114246712D01*
X107657625Y-114280458D01*
X107658387Y-114284781D01*
X107658388Y-114284788D01*
X107682164Y-114419624D01*
X107706402Y-114557087D01*
X107793203Y-114824235D01*
X107916340Y-115076702D01*
X107918795Y-115080341D01*
X107918798Y-115080347D01*
X107990498Y-115186646D01*
X108073415Y-115309576D01*
X108076360Y-115312847D01*
X108076361Y-115312848D01*
X108137084Y-115380287D01*
X108261371Y-115518322D01*
X108476550Y-115698879D01*
X108714764Y-115847731D01*
X108971375Y-115961982D01*
X108986800Y-115966405D01*
X109236093Y-116037888D01*
X109241390Y-116039407D01*
X109245740Y-116040018D01*
X109245743Y-116040019D01*
X109348690Y-116054487D01*
X109519552Y-116078500D01*
X109730146Y-116078500D01*
X109732332Y-116078347D01*
X109732336Y-116078347D01*
X109935827Y-116064118D01*
X109935832Y-116064117D01*
X109940212Y-116063811D01*
X110214970Y-116005409D01*
X110219099Y-116003906D01*
X110219103Y-116003905D01*
X110474781Y-115910846D01*
X110474785Y-115910844D01*
X110478926Y-115909337D01*
X110726942Y-115777464D01*
X110781998Y-115737464D01*
X110950629Y-115614947D01*
X110950632Y-115614944D01*
X110954192Y-115612358D01*
X111156252Y-115417231D01*
X111329188Y-115195882D01*
X111331384Y-115192078D01*
X111331389Y-115192071D01*
X111467435Y-114956431D01*
X111469636Y-114952619D01*
X111483669Y-114917885D01*
X127352000Y-114917885D01*
X127356475Y-114933124D01*
X127357865Y-114934329D01*
X127365548Y-114936000D01*
X128437885Y-114936000D01*
X128453124Y-114931525D01*
X128454329Y-114930135D01*
X128456000Y-114922452D01*
X128456000Y-114917885D01*
X128964000Y-114917885D01*
X128968475Y-114933124D01*
X128969865Y-114934329D01*
X128977548Y-114936000D01*
X130977885Y-114936000D01*
X130993124Y-114931525D01*
X130994329Y-114930135D01*
X130996000Y-114922452D01*
X130996000Y-113873102D01*
X130992082Y-113859758D01*
X130977806Y-113857771D01*
X130939324Y-113863660D01*
X130929288Y-113866051D01*
X130726868Y-113932212D01*
X130717359Y-113936209D01*
X130528463Y-114034542D01*
X130519738Y-114040036D01*
X130349433Y-114167905D01*
X130341726Y-114174748D01*
X130264094Y-114255985D01*
X130202570Y-114291415D01*
X130131657Y-114287958D01*
X130073871Y-114246712D01*
X130055018Y-114213164D01*
X130013324Y-114101946D01*
X130004786Y-114086351D01*
X129928285Y-113984276D01*
X129915724Y-113971715D01*
X129813649Y-113895214D01*
X129798054Y-113886676D01*
X129677606Y-113841522D01*
X129662351Y-113837895D01*
X129611486Y-113832369D01*
X129604672Y-113832000D01*
X128982115Y-113832000D01*
X128966876Y-113836475D01*
X128965671Y-113837865D01*
X128964000Y-113845548D01*
X128964000Y-114917885D01*
X128456000Y-114917885D01*
X128456000Y-113850116D01*
X128451525Y-113834877D01*
X128450135Y-113833672D01*
X128442452Y-113832001D01*
X127815331Y-113832001D01*
X127808510Y-113832371D01*
X127757648Y-113837895D01*
X127742396Y-113841521D01*
X127621946Y-113886676D01*
X127606351Y-113895214D01*
X127504276Y-113971715D01*
X127491715Y-113984276D01*
X127415214Y-114086351D01*
X127406676Y-114101946D01*
X127361522Y-114222394D01*
X127357895Y-114237649D01*
X127352369Y-114288514D01*
X127352000Y-114295328D01*
X127352000Y-114917885D01*
X111483669Y-114917885D01*
X111574862Y-114692176D01*
X111608544Y-114557087D01*
X111641753Y-114423893D01*
X111641754Y-114423888D01*
X111642817Y-114419624D01*
X111646573Y-114383893D01*
X111671719Y-114144636D01*
X111671719Y-114144633D01*
X111672178Y-114140267D01*
X111672025Y-114135873D01*
X111662529Y-113863939D01*
X111662528Y-113863933D01*
X111662375Y-113859542D01*
X111659908Y-113845548D01*
X111614360Y-113587236D01*
X111613598Y-113582913D01*
X111526797Y-113315765D01*
X111523010Y-113307999D01*
X111442811Y-113143569D01*
X111403660Y-113063298D01*
X111401205Y-113059659D01*
X111401202Y-113059653D01*
X111320935Y-112940653D01*
X111246585Y-112830424D01*
X111058629Y-112621678D01*
X110843450Y-112441121D01*
X110605236Y-112292269D01*
X110425376Y-112212190D01*
X110352639Y-112179805D01*
X110352637Y-112179804D01*
X110348625Y-112178018D01*
X110078610Y-112100593D01*
X110074260Y-112099982D01*
X110074257Y-112099981D01*
X109971310Y-112085513D01*
X109800448Y-112061500D01*
X109589854Y-112061500D01*
X109587668Y-112061653D01*
X109587664Y-112061653D01*
X109384173Y-112075882D01*
X109384168Y-112075883D01*
X109379788Y-112076189D01*
X109105030Y-112134591D01*
X109100901Y-112136094D01*
X109100897Y-112136095D01*
X108845219Y-112229154D01*
X108845215Y-112229156D01*
X108841074Y-112230663D01*
X108593058Y-112362536D01*
X108589499Y-112365122D01*
X108589497Y-112365123D01*
X108416655Y-112490700D01*
X108365808Y-112527642D01*
X108163748Y-112722769D01*
X107990812Y-112944118D01*
X107988616Y-112947922D01*
X107988611Y-112947929D01*
X107896396Y-113107651D01*
X107850364Y-113187381D01*
X107745138Y-113447824D01*
X107744073Y-113452097D01*
X107744072Y-113452099D01*
X107686066Y-113684749D01*
X107677183Y-113720376D01*
X107676724Y-113724744D01*
X107676723Y-113724749D01*
X107649039Y-113988150D01*
X107647822Y-113999733D01*
X95868668Y-113999733D01*
X95862529Y-113823939D01*
X95862528Y-113823933D01*
X95862375Y-113819542D01*
X95861120Y-113812421D01*
X95819914Y-113578735D01*
X95813598Y-113542913D01*
X95726797Y-113275765D01*
X95721809Y-113265537D01*
X95623169Y-113063298D01*
X95603660Y-113023298D01*
X95601205Y-113019659D01*
X95601202Y-113019653D01*
X95520935Y-112900653D01*
X95446585Y-112790424D01*
X95258629Y-112581678D01*
X95043450Y-112401121D01*
X94805236Y-112252269D01*
X94548625Y-112138018D01*
X94333000Y-112076189D01*
X94282837Y-112061805D01*
X94282836Y-112061805D01*
X94278610Y-112060593D01*
X94274260Y-112059982D01*
X94274257Y-112059981D01*
X94171310Y-112045513D01*
X94000448Y-112021500D01*
X93789854Y-112021500D01*
X93787668Y-112021653D01*
X93787664Y-112021653D01*
X93584173Y-112035882D01*
X93584168Y-112035883D01*
X93579788Y-112036189D01*
X93305030Y-112094591D01*
X93300901Y-112096094D01*
X93300897Y-112096095D01*
X93045219Y-112189154D01*
X93045215Y-112189156D01*
X93041074Y-112190663D01*
X92793058Y-112322536D01*
X92789499Y-112325122D01*
X92789497Y-112325123D01*
X92625947Y-112443949D01*
X92565808Y-112487642D01*
X92363748Y-112682769D01*
X92190812Y-112904118D01*
X92188616Y-112907922D01*
X92188611Y-112907929D01*
X92108695Y-113046348D01*
X92050364Y-113147381D01*
X91945138Y-113407824D01*
X91944073Y-113412097D01*
X91944072Y-113412099D01*
X91900759Y-113585819D01*
X91877183Y-113680376D01*
X91876724Y-113684744D01*
X91876723Y-113684749D01*
X91848887Y-113949599D01*
X91847822Y-113959733D01*
X61208500Y-113959733D01*
X61208500Y-110140000D01*
X92914647Y-110140000D01*
X92934022Y-110361463D01*
X92991560Y-110576196D01*
X92993882Y-110581177D01*
X92993883Y-110581178D01*
X93083186Y-110772689D01*
X93083189Y-110772694D01*
X93085512Y-110777676D01*
X93088668Y-110782183D01*
X93088669Y-110782185D01*
X93207397Y-110951746D01*
X93213023Y-110959781D01*
X93370219Y-111116977D01*
X93374727Y-111120134D01*
X93374730Y-111120136D01*
X93450495Y-111173187D01*
X93552323Y-111244488D01*
X93557305Y-111246811D01*
X93557310Y-111246814D01*
X93748822Y-111336117D01*
X93753804Y-111338440D01*
X93759112Y-111339862D01*
X93759114Y-111339863D01*
X93824949Y-111357503D01*
X93968537Y-111395978D01*
X94190000Y-111415353D01*
X94411463Y-111395978D01*
X94555051Y-111357503D01*
X94620886Y-111339863D01*
X94620888Y-111339862D01*
X94626196Y-111338440D01*
X94631178Y-111336117D01*
X94822690Y-111246814D01*
X94822695Y-111246811D01*
X94827677Y-111244488D01*
X94929505Y-111173187D01*
X95005270Y-111120136D01*
X95005273Y-111120134D01*
X95009781Y-111116977D01*
X95166977Y-110959781D01*
X95172604Y-110951746D01*
X95291331Y-110782185D01*
X95291332Y-110782183D01*
X95294488Y-110777676D01*
X95296811Y-110772694D01*
X95296814Y-110772689D01*
X95386117Y-110581178D01*
X95386118Y-110581177D01*
X95388440Y-110576196D01*
X95445978Y-110361463D01*
X95465353Y-110140000D01*
X95445978Y-109918537D01*
X95388440Y-109703804D01*
X95368852Y-109661797D01*
X95296814Y-109507311D01*
X95296811Y-109507306D01*
X95294488Y-109502324D01*
X95257087Y-109448909D01*
X95170136Y-109324730D01*
X95170134Y-109324727D01*
X95166977Y-109320219D01*
X95009781Y-109163023D01*
X95005273Y-109159866D01*
X95005270Y-109159864D01*
X94929505Y-109106813D01*
X94827677Y-109035512D01*
X94822695Y-109033189D01*
X94822690Y-109033186D01*
X94685460Y-108969195D01*
X94632175Y-108922278D01*
X94612714Y-108854000D01*
X94633256Y-108786040D01*
X94685460Y-108740805D01*
X94822690Y-108676814D01*
X94822695Y-108676811D01*
X94827677Y-108674488D01*
X94972584Y-108573023D01*
X95005270Y-108550136D01*
X95005273Y-108550134D01*
X95009781Y-108546977D01*
X95166977Y-108389781D01*
X95171581Y-108383207D01*
X95291331Y-108212185D01*
X95291332Y-108212183D01*
X95294488Y-108207676D01*
X95296811Y-108202694D01*
X95296814Y-108202689D01*
X95386117Y-108011178D01*
X95386118Y-108011177D01*
X95388440Y-108006196D01*
X95445978Y-107791463D01*
X95465353Y-107570000D01*
X95445978Y-107348537D01*
X95388440Y-107133804D01*
X95326942Y-107001921D01*
X95296814Y-106937311D01*
X95296811Y-106937306D01*
X95294488Y-106932324D01*
X95278093Y-106908909D01*
X95170136Y-106754730D01*
X95170134Y-106754727D01*
X95166977Y-106750219D01*
X95009781Y-106593023D01*
X95005273Y-106589866D01*
X95005270Y-106589864D01*
X94921676Y-106531331D01*
X94827677Y-106465512D01*
X94822695Y-106463189D01*
X94822690Y-106463186D01*
X94642569Y-106379195D01*
X94589284Y-106332278D01*
X94569823Y-106264001D01*
X94590365Y-106196041D01*
X94642569Y-106150805D01*
X94647470Y-106148520D01*
X94683616Y-106131665D01*
X94822690Y-106066814D01*
X94822695Y-106066811D01*
X94827677Y-106064488D01*
X94929505Y-105993187D01*
X95005270Y-105940136D01*
X95005273Y-105940134D01*
X95009781Y-105936977D01*
X95166977Y-105779781D01*
X95185921Y-105752727D01*
X95291331Y-105602185D01*
X95291332Y-105602183D01*
X95294488Y-105597676D01*
X95296811Y-105592694D01*
X95296814Y-105592689D01*
X95372677Y-105430000D01*
X107084647Y-105430000D01*
X107104022Y-105651463D01*
X107161560Y-105866196D01*
X107163882Y-105871177D01*
X107163883Y-105871178D01*
X107253186Y-106062689D01*
X107253189Y-106062694D01*
X107255512Y-106067676D01*
X107258668Y-106072183D01*
X107258669Y-106072185D01*
X107373974Y-106236857D01*
X107383023Y-106249781D01*
X107540219Y-106406977D01*
X107544727Y-106410134D01*
X107544730Y-106410136D01*
X107590347Y-106442077D01*
X107722323Y-106534488D01*
X107727305Y-106536811D01*
X107727310Y-106536814D01*
X107918822Y-106626117D01*
X107923804Y-106628440D01*
X107929112Y-106629862D01*
X107929114Y-106629863D01*
X107994949Y-106647503D01*
X108138537Y-106685978D01*
X108360000Y-106705353D01*
X108581463Y-106685978D01*
X108725051Y-106647503D01*
X108790886Y-106629863D01*
X108790888Y-106629862D01*
X108796196Y-106628440D01*
X108801178Y-106626117D01*
X108992690Y-106536814D01*
X108992695Y-106536811D01*
X108997677Y-106534488D01*
X109129653Y-106442077D01*
X109175270Y-106410136D01*
X109175273Y-106410134D01*
X109179781Y-106406977D01*
X109336977Y-106249781D01*
X109346027Y-106236857D01*
X109461331Y-106072185D01*
X109461332Y-106072183D01*
X109464488Y-106067676D01*
X109466811Y-106062694D01*
X109466814Y-106062689D01*
X109556117Y-105871178D01*
X109556118Y-105871177D01*
X109558440Y-105866196D01*
X109615978Y-105651463D01*
X109635353Y-105430000D01*
X109615978Y-105208537D01*
X109558440Y-104993804D01*
X109516777Y-104904457D01*
X109466814Y-104797311D01*
X109466811Y-104797306D01*
X109464488Y-104792324D01*
X109432661Y-104746870D01*
X109340136Y-104614730D01*
X109340134Y-104614727D01*
X109336977Y-104610219D01*
X109179781Y-104453023D01*
X109175273Y-104449866D01*
X109175270Y-104449864D01*
X109059654Y-104368909D01*
X108997677Y-104325512D01*
X108992695Y-104323189D01*
X108992690Y-104323186D01*
X108801178Y-104233883D01*
X108801177Y-104233882D01*
X108796196Y-104231560D01*
X108790888Y-104230138D01*
X108790886Y-104230137D01*
X108725051Y-104212497D01*
X108581463Y-104174022D01*
X108360000Y-104154647D01*
X108138537Y-104174022D01*
X107994949Y-104212497D01*
X107929114Y-104230137D01*
X107929112Y-104230138D01*
X107923804Y-104231560D01*
X107918823Y-104233882D01*
X107918822Y-104233883D01*
X107727311Y-104323186D01*
X107727306Y-104323189D01*
X107722324Y-104325512D01*
X107717817Y-104328668D01*
X107717815Y-104328669D01*
X107544730Y-104449864D01*
X107544727Y-104449866D01*
X107540219Y-104453023D01*
X107383023Y-104610219D01*
X107379866Y-104614727D01*
X107379864Y-104614730D01*
X107287339Y-104746870D01*
X107255512Y-104792324D01*
X107253189Y-104797306D01*
X107253186Y-104797311D01*
X107203223Y-104904457D01*
X107161560Y-104993804D01*
X107104022Y-105208537D01*
X107084647Y-105430000D01*
X95372677Y-105430000D01*
X95386117Y-105401178D01*
X95386118Y-105401177D01*
X95388440Y-105396196D01*
X95445978Y-105181463D01*
X95465353Y-104960000D01*
X95445978Y-104738537D01*
X95388440Y-104523804D01*
X95362966Y-104469174D01*
X95296814Y-104327311D01*
X95296811Y-104327306D01*
X95294488Y-104322324D01*
X95166977Y-104140219D01*
X95009781Y-103983023D01*
X95005273Y-103979866D01*
X95005270Y-103979864D01*
X94887553Y-103897438D01*
X94827677Y-103855512D01*
X94822696Y-103853189D01*
X94822685Y-103853183D01*
X94812684Y-103848520D01*
X94759400Y-103801603D01*
X94739939Y-103733326D01*
X94760481Y-103665366D01*
X94812685Y-103620131D01*
X94862690Y-103596814D01*
X94862695Y-103596811D01*
X94867677Y-103594488D01*
X95026985Y-103482939D01*
X95045270Y-103470136D01*
X95045273Y-103470134D01*
X95049781Y-103466977D01*
X95206977Y-103309781D01*
X95234897Y-103269908D01*
X95331331Y-103132185D01*
X95331332Y-103132183D01*
X95334488Y-103127676D01*
X95336811Y-103122694D01*
X95336814Y-103122689D01*
X95426117Y-102931178D01*
X95426118Y-102931177D01*
X95428440Y-102926196D01*
X95485978Y-102711463D01*
X95505353Y-102490000D01*
X95485978Y-102268537D01*
X95428440Y-102053804D01*
X95408043Y-102010062D01*
X95336814Y-101857311D01*
X95336811Y-101857306D01*
X95334488Y-101852324D01*
X95331331Y-101847815D01*
X95325859Y-101840000D01*
X107084647Y-101840000D01*
X107104022Y-102061463D01*
X107161560Y-102276196D01*
X107163882Y-102281177D01*
X107163883Y-102281178D01*
X107253186Y-102472689D01*
X107253189Y-102472694D01*
X107255512Y-102477676D01*
X107258668Y-102482183D01*
X107258669Y-102482185D01*
X107260308Y-102484525D01*
X107383023Y-102659781D01*
X107540219Y-102816977D01*
X107544727Y-102820134D01*
X107544730Y-102820136D01*
X107620495Y-102873187D01*
X107722323Y-102944488D01*
X107727305Y-102946811D01*
X107727310Y-102946814D01*
X107918822Y-103036117D01*
X107923804Y-103038440D01*
X107929112Y-103039862D01*
X107929114Y-103039863D01*
X107994949Y-103057503D01*
X108138537Y-103095978D01*
X108360000Y-103115353D01*
X108581463Y-103095978D01*
X108725051Y-103057503D01*
X108790886Y-103039863D01*
X108790888Y-103039862D01*
X108796196Y-103038440D01*
X108801178Y-103036117D01*
X108992690Y-102946814D01*
X108992695Y-102946811D01*
X108997677Y-102944488D01*
X109099505Y-102873187D01*
X109175270Y-102820136D01*
X109175273Y-102820134D01*
X109179781Y-102816977D01*
X109336977Y-102659781D01*
X109459693Y-102484525D01*
X109461331Y-102482185D01*
X109461332Y-102482183D01*
X109464488Y-102477676D01*
X109466811Y-102472694D01*
X109466814Y-102472689D01*
X109556117Y-102281178D01*
X109556118Y-102281177D01*
X109558440Y-102276196D01*
X109615978Y-102061463D01*
X109635353Y-101840000D01*
X109615978Y-101618537D01*
X109558440Y-101403804D01*
X109556117Y-101398822D01*
X109466814Y-101207311D01*
X109466811Y-101207306D01*
X109464488Y-101202324D01*
X109426758Y-101148440D01*
X109340136Y-101024730D01*
X109340134Y-101024727D01*
X109336977Y-101020219D01*
X109179781Y-100863023D01*
X109175273Y-100859866D01*
X109175270Y-100859864D01*
X109099505Y-100806813D01*
X108997677Y-100735512D01*
X108992695Y-100733189D01*
X108992690Y-100733186D01*
X108801178Y-100643883D01*
X108801177Y-100643882D01*
X108796196Y-100641560D01*
X108790888Y-100640138D01*
X108790886Y-100640137D01*
X108721563Y-100621562D01*
X108581463Y-100584022D01*
X108360000Y-100564647D01*
X108138537Y-100584022D01*
X107998437Y-100621562D01*
X107929114Y-100640137D01*
X107929112Y-100640138D01*
X107923804Y-100641560D01*
X107918823Y-100643882D01*
X107918822Y-100643883D01*
X107727311Y-100733186D01*
X107727306Y-100733189D01*
X107722324Y-100735512D01*
X107717817Y-100738668D01*
X107717815Y-100738669D01*
X107544730Y-100859864D01*
X107544727Y-100859866D01*
X107540219Y-100863023D01*
X107383023Y-101020219D01*
X107379866Y-101024727D01*
X107379864Y-101024730D01*
X107293242Y-101148440D01*
X107255512Y-101202324D01*
X107253189Y-101207306D01*
X107253186Y-101207311D01*
X107163883Y-101398822D01*
X107161560Y-101403804D01*
X107104022Y-101618537D01*
X107084647Y-101840000D01*
X95325859Y-101840000D01*
X95210136Y-101674730D01*
X95210134Y-101674727D01*
X95206977Y-101670219D01*
X95049781Y-101513023D01*
X95045273Y-101509866D01*
X95045270Y-101509864D01*
X94897332Y-101406277D01*
X94867677Y-101385512D01*
X94862695Y-101383189D01*
X94862690Y-101383186D01*
X94777627Y-101343521D01*
X94724342Y-101296604D01*
X94704881Y-101228326D01*
X94725423Y-101160366D01*
X94777627Y-101115131D01*
X94779058Y-101114464D01*
X94817627Y-101096479D01*
X94902690Y-101056814D01*
X94902695Y-101056811D01*
X94907677Y-101054488D01*
X95066985Y-100942939D01*
X95085270Y-100930136D01*
X95085273Y-100930134D01*
X95089781Y-100926977D01*
X95246977Y-100769781D01*
X95270973Y-100735512D01*
X95371331Y-100592185D01*
X95371332Y-100592183D01*
X95374488Y-100587676D01*
X95376811Y-100582694D01*
X95376814Y-100582689D01*
X95466117Y-100391178D01*
X95466118Y-100391177D01*
X95468440Y-100386196D01*
X95525978Y-100171463D01*
X95545353Y-99950000D01*
X95525978Y-99728537D01*
X95475941Y-99541797D01*
X95469863Y-99519114D01*
X95469862Y-99519112D01*
X95468440Y-99513804D01*
X95434443Y-99440897D01*
X95376814Y-99317311D01*
X95376811Y-99317306D01*
X95374488Y-99312324D01*
X95351324Y-99279242D01*
X95250136Y-99134730D01*
X95250134Y-99134727D01*
X95246977Y-99130219D01*
X95089781Y-98973023D01*
X95085273Y-98969866D01*
X95085270Y-98969864D01*
X94931334Y-98862077D01*
X94907677Y-98845512D01*
X94902695Y-98843189D01*
X94902690Y-98843186D01*
X94706196Y-98751560D01*
X94706804Y-98750255D01*
X94655103Y-98712185D01*
X94629768Y-98645862D01*
X94644311Y-98576371D01*
X94694116Y-98525775D01*
X94702112Y-98521692D01*
X94776505Y-98487002D01*
X94862690Y-98446814D01*
X94862695Y-98446811D01*
X94867677Y-98444488D01*
X94969505Y-98373187D01*
X95045270Y-98320136D01*
X95045273Y-98320134D01*
X95049781Y-98316977D01*
X95206977Y-98159781D01*
X95233739Y-98121562D01*
X95331331Y-97982185D01*
X95331332Y-97982183D01*
X95334488Y-97977676D01*
X95336811Y-97972694D01*
X95336814Y-97972689D01*
X95426117Y-97781178D01*
X95426118Y-97781177D01*
X95428440Y-97776196D01*
X95485978Y-97561463D01*
X95505353Y-97340000D01*
X95485978Y-97118537D01*
X95428440Y-96903804D01*
X95402952Y-96849144D01*
X95336814Y-96707311D01*
X95336811Y-96707306D01*
X95334488Y-96702324D01*
X95331331Y-96697815D01*
X95210136Y-96524730D01*
X95210134Y-96524727D01*
X95206977Y-96520219D01*
X95049781Y-96363023D01*
X95045273Y-96359866D01*
X95045270Y-96359864D01*
X94927553Y-96277438D01*
X94867677Y-96235512D01*
X94862695Y-96233189D01*
X94862690Y-96233186D01*
X94671178Y-96143883D01*
X94671177Y-96143882D01*
X94666196Y-96141560D01*
X94660888Y-96140138D01*
X94660886Y-96140137D01*
X94574004Y-96116857D01*
X94451463Y-96084022D01*
X94230000Y-96064647D01*
X94008537Y-96084022D01*
X93885996Y-96116857D01*
X93799114Y-96140137D01*
X93799112Y-96140138D01*
X93793804Y-96141560D01*
X93788823Y-96143882D01*
X93788822Y-96143883D01*
X93597311Y-96233186D01*
X93597306Y-96233189D01*
X93592324Y-96235512D01*
X93587817Y-96238668D01*
X93587815Y-96238669D01*
X93414730Y-96359864D01*
X93414727Y-96359866D01*
X93410219Y-96363023D01*
X93253023Y-96520219D01*
X93249866Y-96524727D01*
X93249864Y-96524730D01*
X93128669Y-96697815D01*
X93125512Y-96702324D01*
X93123189Y-96707306D01*
X93123186Y-96707311D01*
X93057048Y-96849144D01*
X93031560Y-96903804D01*
X92974022Y-97118537D01*
X92954647Y-97340000D01*
X92974022Y-97561463D01*
X93031560Y-97776196D01*
X93033882Y-97781177D01*
X93033883Y-97781178D01*
X93123186Y-97972689D01*
X93123189Y-97972694D01*
X93125512Y-97977676D01*
X93128668Y-97982183D01*
X93128669Y-97982185D01*
X93226262Y-98121562D01*
X93253023Y-98159781D01*
X93410219Y-98316977D01*
X93414727Y-98320134D01*
X93414730Y-98320136D01*
X93490495Y-98373187D01*
X93592323Y-98444488D01*
X93597305Y-98446811D01*
X93597310Y-98446814D01*
X93793804Y-98538440D01*
X93793196Y-98539745D01*
X93844897Y-98577815D01*
X93870232Y-98644138D01*
X93855689Y-98713629D01*
X93805884Y-98764225D01*
X93797886Y-98768309D01*
X93750501Y-98790405D01*
X93637311Y-98843186D01*
X93637306Y-98843189D01*
X93632324Y-98845512D01*
X93627817Y-98848668D01*
X93627815Y-98848669D01*
X93454730Y-98969864D01*
X93454727Y-98969866D01*
X93450219Y-98973023D01*
X93293023Y-99130219D01*
X93289866Y-99134727D01*
X93289864Y-99134730D01*
X93188676Y-99279242D01*
X93165512Y-99312324D01*
X93163189Y-99317306D01*
X93163186Y-99317311D01*
X93105557Y-99440897D01*
X93071560Y-99513804D01*
X93070138Y-99519112D01*
X93070137Y-99519114D01*
X93064059Y-99541797D01*
X93014022Y-99728537D01*
X92994647Y-99950000D01*
X93014022Y-100171463D01*
X93071560Y-100386196D01*
X93073882Y-100391177D01*
X93073883Y-100391178D01*
X93163186Y-100582689D01*
X93163189Y-100582694D01*
X93165512Y-100587676D01*
X93168668Y-100592183D01*
X93168669Y-100592185D01*
X93269028Y-100735512D01*
X93293023Y-100769781D01*
X93450219Y-100926977D01*
X93454727Y-100930134D01*
X93454730Y-100930136D01*
X93473015Y-100942939D01*
X93632323Y-101054488D01*
X93637305Y-101056811D01*
X93637310Y-101056814D01*
X93722373Y-101096479D01*
X93775658Y-101143396D01*
X93795119Y-101211674D01*
X93774577Y-101279634D01*
X93722373Y-101324869D01*
X93597311Y-101383186D01*
X93597306Y-101383189D01*
X93592324Y-101385512D01*
X93587817Y-101388668D01*
X93587815Y-101388669D01*
X93414730Y-101509864D01*
X93414727Y-101509866D01*
X93410219Y-101513023D01*
X93253023Y-101670219D01*
X93249866Y-101674727D01*
X93249864Y-101674730D01*
X93128669Y-101847815D01*
X93125512Y-101852324D01*
X93123189Y-101857306D01*
X93123186Y-101857311D01*
X93051957Y-102010062D01*
X93031560Y-102053804D01*
X92974022Y-102268537D01*
X92954647Y-102490000D01*
X92974022Y-102711463D01*
X93031560Y-102926196D01*
X93033882Y-102931177D01*
X93033883Y-102931178D01*
X93123186Y-103122689D01*
X93123189Y-103122694D01*
X93125512Y-103127676D01*
X93128668Y-103132183D01*
X93128669Y-103132185D01*
X93225104Y-103269908D01*
X93253023Y-103309781D01*
X93410219Y-103466977D01*
X93414727Y-103470134D01*
X93414730Y-103470136D01*
X93433015Y-103482939D01*
X93592323Y-103594488D01*
X93597304Y-103596811D01*
X93597315Y-103596817D01*
X93607316Y-103601480D01*
X93660600Y-103648397D01*
X93680061Y-103716674D01*
X93659519Y-103784634D01*
X93607315Y-103829869D01*
X93557311Y-103853186D01*
X93557306Y-103853189D01*
X93552324Y-103855512D01*
X93547817Y-103858668D01*
X93547815Y-103858669D01*
X93374730Y-103979864D01*
X93374727Y-103979866D01*
X93370219Y-103983023D01*
X93213023Y-104140219D01*
X93085512Y-104322324D01*
X93083189Y-104327306D01*
X93083186Y-104327311D01*
X93017034Y-104469174D01*
X92991560Y-104523804D01*
X92934022Y-104738537D01*
X92914647Y-104960000D01*
X92934022Y-105181463D01*
X92991560Y-105396196D01*
X92993882Y-105401177D01*
X92993883Y-105401178D01*
X93083186Y-105592689D01*
X93083189Y-105592694D01*
X93085512Y-105597676D01*
X93088668Y-105602183D01*
X93088669Y-105602185D01*
X93194080Y-105752727D01*
X93213023Y-105779781D01*
X93370219Y-105936977D01*
X93374727Y-105940134D01*
X93374730Y-105940136D01*
X93450495Y-105993187D01*
X93552323Y-106064488D01*
X93557305Y-106066811D01*
X93557310Y-106066814D01*
X93696384Y-106131665D01*
X93732531Y-106148520D01*
X93737431Y-106150805D01*
X93790716Y-106197722D01*
X93810177Y-106265999D01*
X93789635Y-106333959D01*
X93737431Y-106379195D01*
X93557311Y-106463186D01*
X93557306Y-106463189D01*
X93552324Y-106465512D01*
X93547817Y-106468668D01*
X93547815Y-106468669D01*
X93374730Y-106589864D01*
X93374727Y-106589866D01*
X93370219Y-106593023D01*
X93213023Y-106750219D01*
X93209866Y-106754727D01*
X93209864Y-106754730D01*
X93101907Y-106908909D01*
X93085512Y-106932324D01*
X93083189Y-106937306D01*
X93083186Y-106937311D01*
X93053058Y-107001921D01*
X92991560Y-107133804D01*
X92934022Y-107348537D01*
X92914647Y-107570000D01*
X92934022Y-107791463D01*
X92991560Y-108006196D01*
X92993882Y-108011177D01*
X92993883Y-108011178D01*
X93083186Y-108202689D01*
X93083189Y-108202694D01*
X93085512Y-108207676D01*
X93088668Y-108212183D01*
X93088669Y-108212185D01*
X93208420Y-108383207D01*
X93213023Y-108389781D01*
X93370219Y-108546977D01*
X93374727Y-108550134D01*
X93374730Y-108550136D01*
X93407416Y-108573023D01*
X93552323Y-108674488D01*
X93557305Y-108676811D01*
X93557310Y-108676814D01*
X93650573Y-108720303D01*
X93694542Y-108740806D01*
X93747826Y-108787722D01*
X93767287Y-108855999D01*
X93746745Y-108923959D01*
X93694541Y-108969195D01*
X93557311Y-109033186D01*
X93557306Y-109033189D01*
X93552324Y-109035512D01*
X93547817Y-109038668D01*
X93547815Y-109038669D01*
X93374730Y-109159864D01*
X93374727Y-109159866D01*
X93370219Y-109163023D01*
X93213023Y-109320219D01*
X93209866Y-109324727D01*
X93209864Y-109324730D01*
X93122913Y-109448909D01*
X93085512Y-109502324D01*
X93083189Y-109507306D01*
X93083186Y-109507311D01*
X93011148Y-109661797D01*
X92991560Y-109703804D01*
X92934022Y-109918537D01*
X92914647Y-110140000D01*
X61208500Y-110140000D01*
X61208500Y-93199733D01*
X91887822Y-93199733D01*
X91887975Y-93204121D01*
X91887975Y-93204127D01*
X91896641Y-93452275D01*
X91897625Y-93480458D01*
X91898387Y-93484781D01*
X91898388Y-93484788D01*
X91921716Y-93617087D01*
X91946402Y-93757087D01*
X92033203Y-94024235D01*
X92035131Y-94028188D01*
X92035133Y-94028193D01*
X92059006Y-94077139D01*
X92156340Y-94276702D01*
X92158795Y-94280341D01*
X92158798Y-94280347D01*
X92205223Y-94349174D01*
X92313415Y-94509576D01*
X92316360Y-94512847D01*
X92316361Y-94512848D01*
X92372377Y-94575060D01*
X92501371Y-94718322D01*
X92716550Y-94898879D01*
X92954764Y-95047731D01*
X93082516Y-95104610D01*
X93163580Y-95140702D01*
X93211375Y-95161982D01*
X93481390Y-95239407D01*
X93485740Y-95240018D01*
X93485743Y-95240019D01*
X93588690Y-95254487D01*
X93759552Y-95278500D01*
X93970146Y-95278500D01*
X93972332Y-95278347D01*
X93972336Y-95278347D01*
X94175827Y-95264118D01*
X94175832Y-95264117D01*
X94180212Y-95263811D01*
X94454970Y-95205409D01*
X94459099Y-95203906D01*
X94459103Y-95203905D01*
X94714781Y-95110846D01*
X94714785Y-95110844D01*
X94718926Y-95109337D01*
X94966942Y-94977464D01*
X95009313Y-94946680D01*
X95190629Y-94814947D01*
X95190632Y-94814944D01*
X95194192Y-94812358D01*
X95214635Y-94792617D01*
X95342333Y-94669300D01*
X95396252Y-94617231D01*
X95547123Y-94424124D01*
X95566481Y-94399347D01*
X95566482Y-94399346D01*
X95569188Y-94395882D01*
X95571384Y-94392078D01*
X95571389Y-94392071D01*
X95707435Y-94156431D01*
X95709636Y-94152619D01*
X95814862Y-93892176D01*
X95842313Y-93782077D01*
X95881753Y-93623893D01*
X95881754Y-93623888D01*
X95882817Y-93619624D01*
X95886304Y-93586453D01*
X95911719Y-93344636D01*
X95911719Y-93344633D01*
X95912178Y-93340267D01*
X95912025Y-93335873D01*
X95902529Y-93063939D01*
X95902528Y-93063933D01*
X95902382Y-93059733D01*
X107767822Y-93059733D01*
X107767975Y-93064121D01*
X107767975Y-93064127D01*
X107777465Y-93335873D01*
X107777625Y-93340458D01*
X107778387Y-93344781D01*
X107778388Y-93344788D01*
X107801535Y-93476061D01*
X107826402Y-93617087D01*
X107913203Y-93884235D01*
X107915131Y-93888188D01*
X107915133Y-93888193D01*
X107930142Y-93918965D01*
X108036340Y-94136702D01*
X108038795Y-94140341D01*
X108038798Y-94140347D01*
X108084863Y-94208641D01*
X108193415Y-94369576D01*
X108196360Y-94372847D01*
X108196361Y-94372848D01*
X108240194Y-94421529D01*
X108381371Y-94578322D01*
X108384733Y-94581143D01*
X108384734Y-94581144D01*
X108412417Y-94604373D01*
X108596550Y-94758879D01*
X108834764Y-94907731D01*
X109091375Y-95021982D01*
X109361390Y-95099407D01*
X109365740Y-95100018D01*
X109365743Y-95100019D01*
X109442783Y-95110846D01*
X109639552Y-95138500D01*
X109850146Y-95138500D01*
X109852332Y-95138347D01*
X109852336Y-95138347D01*
X110055827Y-95124118D01*
X110055832Y-95124117D01*
X110060212Y-95123811D01*
X110334970Y-95065409D01*
X110339099Y-95063906D01*
X110339103Y-95063905D01*
X110594781Y-94970846D01*
X110594785Y-94970844D01*
X110598926Y-94969337D01*
X110846942Y-94837464D01*
X110908669Y-94792617D01*
X111070629Y-94674947D01*
X111070632Y-94674944D01*
X111074192Y-94672358D01*
X111276252Y-94477231D01*
X111449188Y-94255882D01*
X111451384Y-94252078D01*
X111451389Y-94252071D01*
X111587435Y-94016431D01*
X111589636Y-94012619D01*
X111694862Y-93752176D01*
X111708115Y-93699020D01*
X111761753Y-93483893D01*
X111761754Y-93483888D01*
X111762817Y-93479624D01*
X111765692Y-93452275D01*
X111791719Y-93204636D01*
X111791719Y-93204633D01*
X111792178Y-93200267D01*
X111792007Y-93195364D01*
X111782529Y-92923939D01*
X111782528Y-92923933D01*
X111782375Y-92919542D01*
X111764751Y-92819588D01*
X111750630Y-92739506D01*
X111733598Y-92642913D01*
X111646797Y-92375765D01*
X111523660Y-92123298D01*
X111521205Y-92119659D01*
X111521202Y-92119653D01*
X111428914Y-91982831D01*
X111366585Y-91890424D01*
X111337841Y-91858500D01*
X111217684Y-91725053D01*
X111178629Y-91681678D01*
X110963450Y-91501121D01*
X110798636Y-91398134D01*
X198481500Y-91398134D01*
X198488255Y-91460316D01*
X198539385Y-91596705D01*
X198626739Y-91713261D01*
X198743295Y-91800615D01*
X198751704Y-91803767D01*
X198751705Y-91803768D01*
X198860960Y-91844726D01*
X198917725Y-91887367D01*
X198942425Y-91953929D01*
X198927218Y-92023278D01*
X198907825Y-92049759D01*
X198784590Y-92178717D01*
X198778104Y-92186727D01*
X198658098Y-92362649D01*
X198653000Y-92371623D01*
X198563338Y-92564783D01*
X198559775Y-92574470D01*
X198504389Y-92774183D01*
X198505912Y-92782607D01*
X198518292Y-92786000D01*
X201158344Y-92786000D01*
X201171875Y-92782027D01*
X201173180Y-92772947D01*
X201131214Y-92605875D01*
X201127894Y-92596124D01*
X201042972Y-92400814D01*
X201038105Y-92391739D01*
X200922426Y-92212926D01*
X200916136Y-92204757D01*
X200772293Y-92046677D01*
X200741241Y-91982831D01*
X200749635Y-91912333D01*
X200794812Y-91857564D01*
X200821256Y-91843895D01*
X200928297Y-91803767D01*
X200936705Y-91800615D01*
X201053261Y-91713261D01*
X201140615Y-91596705D01*
X201191745Y-91460316D01*
X201198500Y-91398134D01*
X201198500Y-89601866D01*
X201191745Y-89539684D01*
X201140615Y-89403295D01*
X201053261Y-89286739D01*
X200936705Y-89199385D01*
X200800316Y-89148255D01*
X200738134Y-89141500D01*
X198941866Y-89141500D01*
X198879684Y-89148255D01*
X198743295Y-89199385D01*
X198626739Y-89286739D01*
X198539385Y-89403295D01*
X198488255Y-89539684D01*
X198481500Y-89601866D01*
X198481500Y-91398134D01*
X110798636Y-91398134D01*
X110725236Y-91352269D01*
X110468625Y-91238018D01*
X110198610Y-91160593D01*
X110194260Y-91159982D01*
X110194257Y-91159981D01*
X110091310Y-91145513D01*
X109920448Y-91121500D01*
X109709854Y-91121500D01*
X109707668Y-91121653D01*
X109707664Y-91121653D01*
X109504173Y-91135882D01*
X109504168Y-91135883D01*
X109499788Y-91136189D01*
X109225030Y-91194591D01*
X109220901Y-91196094D01*
X109220897Y-91196095D01*
X108965219Y-91289154D01*
X108965215Y-91289156D01*
X108961074Y-91290663D01*
X108713058Y-91422536D01*
X108709499Y-91425122D01*
X108709497Y-91425123D01*
X108516803Y-91565123D01*
X108485808Y-91587642D01*
X108482644Y-91590698D01*
X108482641Y-91590700D01*
X108443708Y-91628297D01*
X108283748Y-91782769D01*
X108110812Y-92004118D01*
X108108616Y-92007922D01*
X108108611Y-92007929D01*
X108010007Y-92178717D01*
X107970364Y-92247381D01*
X107865138Y-92507824D01*
X107864073Y-92512097D01*
X107864072Y-92512099D01*
X107830379Y-92647236D01*
X107797183Y-92780376D01*
X107796724Y-92784744D01*
X107796723Y-92784749D01*
X107782094Y-92923939D01*
X107767822Y-93059733D01*
X95902382Y-93059733D01*
X95902375Y-93059542D01*
X95878608Y-92924749D01*
X95854360Y-92787236D01*
X95853598Y-92782913D01*
X95766797Y-92515765D01*
X95760933Y-92503741D01*
X95692117Y-92362649D01*
X95643660Y-92263298D01*
X95641205Y-92259659D01*
X95641202Y-92259653D01*
X95549229Y-92123298D01*
X95486585Y-92030424D01*
X95417709Y-91953929D01*
X95325701Y-91851745D01*
X95298629Y-91821678D01*
X95083450Y-91641121D01*
X94845236Y-91492269D01*
X94633806Y-91398134D01*
X94592639Y-91379805D01*
X94592637Y-91379804D01*
X94588625Y-91378018D01*
X94318610Y-91300593D01*
X94314260Y-91299982D01*
X94314257Y-91299981D01*
X94211310Y-91285513D01*
X94040448Y-91261500D01*
X93829854Y-91261500D01*
X93827668Y-91261653D01*
X93827664Y-91261653D01*
X93624173Y-91275882D01*
X93624168Y-91275883D01*
X93619788Y-91276189D01*
X93345030Y-91334591D01*
X93340901Y-91336094D01*
X93340897Y-91336095D01*
X93085219Y-91429154D01*
X93085215Y-91429156D01*
X93081074Y-91430663D01*
X92833058Y-91562536D01*
X92829499Y-91565122D01*
X92829497Y-91565123D01*
X92625602Y-91713261D01*
X92605808Y-91727642D01*
X92602644Y-91730698D01*
X92602641Y-91730700D01*
X92551887Y-91779713D01*
X92403748Y-91922769D01*
X92230812Y-92144118D01*
X92228616Y-92147922D01*
X92228611Y-92147929D01*
X92114794Y-92345068D01*
X92090364Y-92387381D01*
X91985138Y-92647824D01*
X91984073Y-92652097D01*
X91984072Y-92652099D01*
X91918471Y-92915212D01*
X91917183Y-92920376D01*
X91916724Y-92924744D01*
X91916723Y-92924749D01*
X91888281Y-93195364D01*
X91887822Y-93199733D01*
X61208500Y-93199733D01*
X61208500Y-78927233D01*
X192067822Y-78927233D01*
X192067975Y-78931621D01*
X192067975Y-78931627D01*
X192073563Y-79091627D01*
X192077625Y-79207958D01*
X192078387Y-79212281D01*
X192078388Y-79212288D01*
X192102164Y-79347124D01*
X192126402Y-79484587D01*
X192213203Y-79751735D01*
X192215131Y-79755688D01*
X192215133Y-79755693D01*
X192228822Y-79783759D01*
X192336340Y-80004202D01*
X192338795Y-80007841D01*
X192338798Y-80007847D01*
X192357814Y-80036039D01*
X192493415Y-80237076D01*
X192681371Y-80445822D01*
X192896550Y-80626379D01*
X193134764Y-80775231D01*
X193391375Y-80889482D01*
X193661390Y-80966907D01*
X193665740Y-80967518D01*
X193665743Y-80967519D01*
X193768690Y-80981987D01*
X193939552Y-81006000D01*
X194150146Y-81006000D01*
X194152332Y-81005847D01*
X194152336Y-81005847D01*
X194355827Y-80991618D01*
X194355832Y-80991617D01*
X194360212Y-80991311D01*
X194634970Y-80932909D01*
X194639099Y-80931406D01*
X194639103Y-80931405D01*
X194894781Y-80838346D01*
X194894785Y-80838344D01*
X194898926Y-80836837D01*
X195146942Y-80704964D01*
X195251896Y-80628711D01*
X195370629Y-80542447D01*
X195370632Y-80542444D01*
X195374192Y-80539858D01*
X195576252Y-80344731D01*
X195749188Y-80123382D01*
X195751384Y-80119578D01*
X195751389Y-80119571D01*
X195887435Y-79883931D01*
X195889636Y-79880119D01*
X195994862Y-79619676D01*
X196021860Y-79511393D01*
X196061753Y-79351393D01*
X196061754Y-79351388D01*
X196062817Y-79347124D01*
X196074903Y-79232136D01*
X196090132Y-79087233D01*
X220177822Y-79087233D01*
X220177975Y-79091621D01*
X220177975Y-79091627D01*
X220187047Y-79351393D01*
X220187625Y-79367958D01*
X220188387Y-79372281D01*
X220188388Y-79372288D01*
X220212164Y-79507124D01*
X220236402Y-79644587D01*
X220323203Y-79911735D01*
X220446340Y-80164202D01*
X220448795Y-80167841D01*
X220448798Y-80167847D01*
X220493031Y-80233425D01*
X220603415Y-80397076D01*
X220791371Y-80605822D01*
X220794733Y-80608643D01*
X220794734Y-80608644D01*
X220815870Y-80626379D01*
X221006550Y-80786379D01*
X221244764Y-80935231D01*
X221501375Y-81049482D01*
X221771390Y-81126907D01*
X221775740Y-81127518D01*
X221775743Y-81127519D01*
X221878690Y-81141987D01*
X222049552Y-81166000D01*
X222260146Y-81166000D01*
X222262332Y-81165847D01*
X222262336Y-81165847D01*
X222465827Y-81151618D01*
X222465832Y-81151617D01*
X222470212Y-81151311D01*
X222744970Y-81092909D01*
X222749099Y-81091406D01*
X222749103Y-81091405D01*
X223004781Y-80998346D01*
X223004785Y-80998344D01*
X223008926Y-80996837D01*
X223256942Y-80864964D01*
X223361896Y-80788711D01*
X223480629Y-80702447D01*
X223480632Y-80702444D01*
X223484192Y-80699858D01*
X223686252Y-80504731D01*
X223859188Y-80283382D01*
X223861384Y-80279578D01*
X223861389Y-80279571D01*
X223997435Y-80043931D01*
X223999636Y-80040119D01*
X224104862Y-79779676D01*
X224110842Y-79755693D01*
X224171753Y-79511393D01*
X224171754Y-79511388D01*
X224172817Y-79507124D01*
X224189634Y-79347124D01*
X224201719Y-79232136D01*
X224201719Y-79232133D01*
X224202178Y-79227767D01*
X224202025Y-79223373D01*
X224192529Y-78951439D01*
X224192528Y-78951433D01*
X224192375Y-78947042D01*
X224188883Y-78927233D01*
X224144360Y-78674736D01*
X224143598Y-78670413D01*
X224056797Y-78403265D01*
X224045255Y-78379599D01*
X223992320Y-78271069D01*
X223933660Y-78150798D01*
X223931205Y-78147159D01*
X223931202Y-78147153D01*
X223850935Y-78028153D01*
X223776585Y-77917924D01*
X223588629Y-77709178D01*
X223373450Y-77528621D01*
X223135236Y-77379769D01*
X222878625Y-77265518D01*
X222608610Y-77188093D01*
X222604260Y-77187482D01*
X222604257Y-77187481D01*
X222501310Y-77173013D01*
X222330448Y-77149000D01*
X222119854Y-77149000D01*
X222117668Y-77149153D01*
X222117664Y-77149153D01*
X221914173Y-77163382D01*
X221914168Y-77163383D01*
X221909788Y-77163689D01*
X221635030Y-77222091D01*
X221630901Y-77223594D01*
X221630897Y-77223595D01*
X221375219Y-77316654D01*
X221375215Y-77316656D01*
X221371074Y-77318163D01*
X221123058Y-77450036D01*
X221119499Y-77452622D01*
X221119497Y-77452623D01*
X221014895Y-77528621D01*
X220895808Y-77615142D01*
X220693748Y-77810269D01*
X220520812Y-78031618D01*
X220518616Y-78035422D01*
X220518611Y-78035429D01*
X220404794Y-78232567D01*
X220380364Y-78274881D01*
X220275138Y-78535324D01*
X220274073Y-78539597D01*
X220274072Y-78539599D01*
X220212378Y-78787042D01*
X220207183Y-78807876D01*
X220206724Y-78812244D01*
X220206723Y-78812249D01*
X220193011Y-78942712D01*
X220177822Y-79087233D01*
X196090132Y-79087233D01*
X196091719Y-79072136D01*
X196091719Y-79072133D01*
X196092178Y-79067767D01*
X196088116Y-78951439D01*
X196082529Y-78791439D01*
X196082528Y-78791433D01*
X196082375Y-78787042D01*
X196062573Y-78674736D01*
X196037990Y-78535324D01*
X196033598Y-78510413D01*
X195946797Y-78243265D01*
X195823660Y-77990798D01*
X195821205Y-77987159D01*
X195821202Y-77987153D01*
X195740935Y-77868153D01*
X195666585Y-77757924D01*
X195478629Y-77549178D01*
X195457501Y-77531449D01*
X195279509Y-77382096D01*
X195263450Y-77368621D01*
X195025236Y-77219769D01*
X194768625Y-77105518D01*
X194498610Y-77028093D01*
X194494260Y-77027482D01*
X194494257Y-77027481D01*
X194391310Y-77013013D01*
X194220448Y-76989000D01*
X194009854Y-76989000D01*
X194007668Y-76989153D01*
X194007664Y-76989153D01*
X193804173Y-77003382D01*
X193804168Y-77003383D01*
X193799788Y-77003689D01*
X193525030Y-77062091D01*
X193520901Y-77063594D01*
X193520897Y-77063595D01*
X193265219Y-77156654D01*
X193265215Y-77156656D01*
X193261074Y-77158163D01*
X193013058Y-77290036D01*
X193009499Y-77292622D01*
X193009497Y-77292623D01*
X192792836Y-77450036D01*
X192785808Y-77455142D01*
X192583748Y-77650269D01*
X192410812Y-77871618D01*
X192408616Y-77875422D01*
X192408611Y-77875429D01*
X192320436Y-78028153D01*
X192270364Y-78114881D01*
X192165138Y-78375324D01*
X192164073Y-78379597D01*
X192164072Y-78379599D01*
X192124180Y-78539599D01*
X192097183Y-78647876D01*
X192096724Y-78652244D01*
X192096723Y-78652249D01*
X192079907Y-78812249D01*
X192067822Y-78927233D01*
X61208500Y-78927233D01*
X61208500Y-75174195D01*
X222027251Y-75174195D01*
X222027548Y-75179348D01*
X222027548Y-75179351D01*
X222033011Y-75274090D01*
X222040110Y-75397215D01*
X222041247Y-75402261D01*
X222041248Y-75402267D01*
X222061119Y-75490439D01*
X222089222Y-75615139D01*
X222173266Y-75822116D01*
X222289987Y-76012588D01*
X222436250Y-76181438D01*
X222608126Y-76324132D01*
X222801000Y-76436838D01*
X223009692Y-76516530D01*
X223014760Y-76517561D01*
X223014763Y-76517562D01*
X223122017Y-76539383D01*
X223228597Y-76561067D01*
X223233772Y-76561257D01*
X223233774Y-76561257D01*
X223446673Y-76569064D01*
X223446677Y-76569064D01*
X223451837Y-76569253D01*
X223456957Y-76568597D01*
X223456959Y-76568597D01*
X223668288Y-76541525D01*
X223668289Y-76541525D01*
X223673416Y-76540868D01*
X223678366Y-76539383D01*
X223882429Y-76478161D01*
X223882434Y-76478159D01*
X223887384Y-76476674D01*
X224087994Y-76378396D01*
X224269860Y-76248673D01*
X224428096Y-76090989D01*
X224487594Y-76008189D01*
X224555435Y-75913777D01*
X224558453Y-75909577D01*
X224657430Y-75709311D01*
X224722370Y-75495569D01*
X224751529Y-75274090D01*
X224753156Y-75207500D01*
X224734852Y-74984861D01*
X224680431Y-74768202D01*
X224591354Y-74563340D01*
X224470014Y-74375777D01*
X224319670Y-74210551D01*
X224315619Y-74207352D01*
X224315615Y-74207348D01*
X224148414Y-74075300D01*
X224148410Y-74075298D01*
X224144359Y-74072098D01*
X224103053Y-74049296D01*
X224053084Y-73998864D01*
X224038312Y-73929421D01*
X224063428Y-73863016D01*
X224090780Y-73836409D01*
X224134603Y-73805150D01*
X224269860Y-73708673D01*
X224428096Y-73550989D01*
X224487594Y-73468189D01*
X224555435Y-73373777D01*
X224558453Y-73369577D01*
X224616506Y-73252116D01*
X224655136Y-73173953D01*
X224655137Y-73173951D01*
X224657430Y-73169311D01*
X224722370Y-72955569D01*
X224751529Y-72734090D01*
X224753156Y-72667500D01*
X224734852Y-72444861D01*
X224680431Y-72228202D01*
X224591354Y-72023340D01*
X224470014Y-71835777D01*
X224319670Y-71670551D01*
X224315619Y-71667352D01*
X224315615Y-71667348D01*
X224148414Y-71535300D01*
X224148410Y-71535298D01*
X224144359Y-71532098D01*
X224103053Y-71509296D01*
X224053084Y-71458864D01*
X224038312Y-71389421D01*
X224063428Y-71323016D01*
X224090780Y-71296409D01*
X224146063Y-71256976D01*
X224269860Y-71168673D01*
X224428096Y-71010989D01*
X224487594Y-70928189D01*
X224555435Y-70833777D01*
X224558453Y-70829577D01*
X224616506Y-70712116D01*
X224655136Y-70633953D01*
X224655137Y-70633951D01*
X224657430Y-70629311D01*
X224722370Y-70415569D01*
X224751529Y-70194090D01*
X224753156Y-70127500D01*
X224734852Y-69904861D01*
X224680431Y-69688202D01*
X224591354Y-69483340D01*
X224470014Y-69295777D01*
X224319670Y-69130551D01*
X224315619Y-69127352D01*
X224315615Y-69127348D01*
X224148414Y-68995300D01*
X224148410Y-68995298D01*
X224144359Y-68992098D01*
X224103053Y-68969296D01*
X224053084Y-68918864D01*
X224038312Y-68849421D01*
X224063428Y-68783016D01*
X224090780Y-68756409D01*
X224146063Y-68716976D01*
X224269860Y-68628673D01*
X224285151Y-68613436D01*
X224358655Y-68540188D01*
X224428096Y-68470989D01*
X224487594Y-68388189D01*
X224555435Y-68293777D01*
X224558453Y-68289577D01*
X224593688Y-68218285D01*
X224655136Y-68093953D01*
X224655137Y-68093951D01*
X224657430Y-68089311D01*
X224722370Y-67875569D01*
X224751529Y-67654090D01*
X224752386Y-67619020D01*
X224753074Y-67590865D01*
X224753074Y-67590861D01*
X224753156Y-67587500D01*
X224734852Y-67364861D01*
X224680431Y-67148202D01*
X224591354Y-66943340D01*
X224550313Y-66879901D01*
X224472822Y-66760117D01*
X224472820Y-66760114D01*
X224470014Y-66755777D01*
X224319670Y-66590551D01*
X224315619Y-66587352D01*
X224315615Y-66587348D01*
X224148414Y-66455300D01*
X224148410Y-66455298D01*
X224144359Y-66452098D01*
X224103053Y-66429296D01*
X224053084Y-66378864D01*
X224038312Y-66309421D01*
X224063428Y-66243016D01*
X224090780Y-66216409D01*
X224146063Y-66176976D01*
X224269860Y-66088673D01*
X224316991Y-66041707D01*
X224424435Y-65934637D01*
X224428096Y-65930989D01*
X224487594Y-65848189D01*
X224555435Y-65753777D01*
X224558453Y-65749577D01*
X224580379Y-65705214D01*
X224655136Y-65553953D01*
X224655137Y-65553951D01*
X224657430Y-65549311D01*
X224722370Y-65335569D01*
X224751529Y-65114090D01*
X224753156Y-65047500D01*
X224734852Y-64824861D01*
X224680431Y-64608202D01*
X224591354Y-64403340D01*
X224536330Y-64318286D01*
X224472822Y-64220117D01*
X224472820Y-64220114D01*
X224470014Y-64215777D01*
X224319670Y-64050551D01*
X224315619Y-64047352D01*
X224315615Y-64047348D01*
X224148414Y-63915300D01*
X224148410Y-63915298D01*
X224144359Y-63912098D01*
X224103053Y-63889296D01*
X224053084Y-63838864D01*
X224038312Y-63769421D01*
X224063428Y-63703016D01*
X224090780Y-63676409D01*
X224146063Y-63636976D01*
X224269860Y-63548673D01*
X224428096Y-63390989D01*
X224487594Y-63308189D01*
X224555435Y-63213777D01*
X224558453Y-63209577D01*
X224616506Y-63092116D01*
X224655136Y-63013953D01*
X224655137Y-63013951D01*
X224657430Y-63009311D01*
X224722370Y-62795569D01*
X224751529Y-62574090D01*
X224753156Y-62507500D01*
X224734852Y-62284861D01*
X224680431Y-62068202D01*
X224591354Y-61863340D01*
X224470014Y-61675777D01*
X224466532Y-61671950D01*
X224322798Y-61513988D01*
X224291746Y-61450142D01*
X224300141Y-61379643D01*
X224345317Y-61324875D01*
X224371761Y-61311206D01*
X224478297Y-61271267D01*
X224486705Y-61268115D01*
X224603261Y-61180761D01*
X224690615Y-61064205D01*
X224741745Y-60927816D01*
X224748500Y-60865634D01*
X224748500Y-59069366D01*
X224741745Y-59007184D01*
X224690615Y-58870795D01*
X224603261Y-58754239D01*
X224486705Y-58666885D01*
X224350316Y-58615755D01*
X224288134Y-58609000D01*
X222491866Y-58609000D01*
X222429684Y-58615755D01*
X222293295Y-58666885D01*
X222176739Y-58754239D01*
X222089385Y-58870795D01*
X222038255Y-59007184D01*
X222031500Y-59069366D01*
X222031500Y-60865634D01*
X222038255Y-60927816D01*
X222089385Y-61064205D01*
X222176739Y-61180761D01*
X222293295Y-61268115D01*
X222301704Y-61271267D01*
X222301705Y-61271268D01*
X222410451Y-61312035D01*
X222467216Y-61354676D01*
X222491916Y-61421238D01*
X222476709Y-61490587D01*
X222457316Y-61517068D01*
X222334319Y-61645777D01*
X222330629Y-61649638D01*
X222204743Y-61834180D01*
X222110688Y-62036805D01*
X222050989Y-62252070D01*
X222027251Y-62474195D01*
X222027548Y-62479348D01*
X222027548Y-62479351D01*
X222039812Y-62692047D01*
X222040110Y-62697215D01*
X222041247Y-62702261D01*
X222041248Y-62702267D01*
X222054358Y-62760439D01*
X222089222Y-62915139D01*
X222127461Y-63009311D01*
X222162873Y-63096520D01*
X222173266Y-63122116D01*
X222289987Y-63312588D01*
X222436250Y-63481438D01*
X222608126Y-63624132D01*
X222630106Y-63636976D01*
X222681445Y-63666976D01*
X222730169Y-63718614D01*
X222743240Y-63788397D01*
X222716509Y-63854169D01*
X222676055Y-63887527D01*
X222663607Y-63894007D01*
X222659474Y-63897110D01*
X222659471Y-63897112D01*
X222489100Y-64025030D01*
X222484965Y-64028135D01*
X222481393Y-64031873D01*
X222334319Y-64185777D01*
X222330629Y-64189638D01*
X222327715Y-64193910D01*
X222327714Y-64193911D01*
X222268510Y-64280701D01*
X222204743Y-64374180D01*
X222190098Y-64405730D01*
X222118547Y-64559875D01*
X222110688Y-64576805D01*
X222050989Y-64792070D01*
X222027251Y-65014195D01*
X222027548Y-65019348D01*
X222027548Y-65019351D01*
X222039812Y-65232047D01*
X222040110Y-65237215D01*
X222041247Y-65242261D01*
X222041248Y-65242267D01*
X222052388Y-65291698D01*
X222089222Y-65455139D01*
X222131777Y-65559940D01*
X222165248Y-65642369D01*
X222173266Y-65662116D01*
X222289987Y-65852588D01*
X222436250Y-66021438D01*
X222608126Y-66164132D01*
X222630106Y-66176976D01*
X222681445Y-66206976D01*
X222730169Y-66258614D01*
X222743240Y-66328397D01*
X222716509Y-66394169D01*
X222676055Y-66427527D01*
X222663607Y-66434007D01*
X222659474Y-66437110D01*
X222659471Y-66437112D01*
X222489100Y-66565030D01*
X222484965Y-66568135D01*
X222481393Y-66571873D01*
X222334319Y-66725777D01*
X222330629Y-66729638D01*
X222327715Y-66733910D01*
X222327714Y-66733911D01*
X222242556Y-66858749D01*
X222204743Y-66914180D01*
X222110688Y-67116805D01*
X222050989Y-67332070D01*
X222027251Y-67554195D01*
X222027548Y-67559348D01*
X222027548Y-67559351D01*
X222039812Y-67772047D01*
X222040110Y-67777215D01*
X222041247Y-67782261D01*
X222041248Y-67782267D01*
X222047271Y-67808990D01*
X222089222Y-67995139D01*
X222126951Y-68088054D01*
X222162873Y-68176520D01*
X222173266Y-68202116D01*
X222214359Y-68269174D01*
X222270976Y-68361564D01*
X222289987Y-68392588D01*
X222436250Y-68561438D01*
X222608126Y-68704132D01*
X222630106Y-68716976D01*
X222681445Y-68746976D01*
X222730169Y-68798614D01*
X222743240Y-68868397D01*
X222716509Y-68934169D01*
X222676055Y-68967527D01*
X222663607Y-68974007D01*
X222659474Y-68977110D01*
X222659471Y-68977112D01*
X222489100Y-69105030D01*
X222484965Y-69108135D01*
X222481393Y-69111873D01*
X222334319Y-69265777D01*
X222330629Y-69269638D01*
X222204743Y-69454180D01*
X222110688Y-69656805D01*
X222050989Y-69872070D01*
X222027251Y-70094195D01*
X222027548Y-70099348D01*
X222027548Y-70099351D01*
X222039812Y-70312047D01*
X222040110Y-70317215D01*
X222041247Y-70322261D01*
X222041248Y-70322267D01*
X222054358Y-70380439D01*
X222089222Y-70535139D01*
X222127461Y-70629311D01*
X222162873Y-70716520D01*
X222173266Y-70742116D01*
X222289987Y-70932588D01*
X222436250Y-71101438D01*
X222608126Y-71244132D01*
X222630106Y-71256976D01*
X222681445Y-71286976D01*
X222730169Y-71338614D01*
X222743240Y-71408397D01*
X222716509Y-71474169D01*
X222676055Y-71507527D01*
X222663607Y-71514007D01*
X222659474Y-71517110D01*
X222659471Y-71517112D01*
X222489100Y-71645030D01*
X222484965Y-71648135D01*
X222481393Y-71651873D01*
X222334319Y-71805777D01*
X222330629Y-71809638D01*
X222204743Y-71994180D01*
X222110688Y-72196805D01*
X222050989Y-72412070D01*
X222027251Y-72634195D01*
X222027548Y-72639348D01*
X222027548Y-72639351D01*
X222039812Y-72852047D01*
X222040110Y-72857215D01*
X222041247Y-72862261D01*
X222041248Y-72862267D01*
X222054358Y-72920439D01*
X222089222Y-73075139D01*
X222127461Y-73169311D01*
X222162873Y-73256520D01*
X222173266Y-73282116D01*
X222289987Y-73472588D01*
X222436250Y-73641438D01*
X222608126Y-73784132D01*
X222649649Y-73808396D01*
X222681445Y-73826976D01*
X222730169Y-73878614D01*
X222743240Y-73948397D01*
X222716509Y-74014169D01*
X222676055Y-74047527D01*
X222663607Y-74054007D01*
X222659474Y-74057110D01*
X222659471Y-74057112D01*
X222635247Y-74075300D01*
X222484965Y-74188135D01*
X222330629Y-74349638D01*
X222204743Y-74534180D01*
X222110688Y-74736805D01*
X222050989Y-74952070D01*
X222027251Y-75174195D01*
X61208500Y-75174195D01*
X61208500Y-72604195D01*
X191487251Y-72604195D01*
X191487548Y-72609348D01*
X191487548Y-72609351D01*
X191494932Y-72737408D01*
X191500110Y-72827215D01*
X191501247Y-72832261D01*
X191501248Y-72832267D01*
X191508009Y-72862267D01*
X191549222Y-73045139D01*
X191633266Y-73252116D01*
X191749987Y-73442588D01*
X191896250Y-73611438D01*
X192068126Y-73754132D01*
X192261000Y-73866838D01*
X192469692Y-73946530D01*
X192474760Y-73947561D01*
X192474763Y-73947562D01*
X192582017Y-73969383D01*
X192688597Y-73991067D01*
X192693772Y-73991257D01*
X192693774Y-73991257D01*
X192906673Y-73999064D01*
X192906677Y-73999064D01*
X192911837Y-73999253D01*
X192916957Y-73998597D01*
X192916959Y-73998597D01*
X193128288Y-73971525D01*
X193128289Y-73971525D01*
X193133416Y-73970868D01*
X193200116Y-73950857D01*
X193342429Y-73908161D01*
X193342434Y-73908159D01*
X193347384Y-73906674D01*
X193547994Y-73808396D01*
X193729860Y-73678673D01*
X193888096Y-73520989D01*
X193922876Y-73472588D01*
X194015435Y-73343777D01*
X194018453Y-73339577D01*
X194117430Y-73139311D01*
X194182370Y-72925569D01*
X194211529Y-72704090D01*
X194213156Y-72637500D01*
X194194852Y-72414861D01*
X194140431Y-72198202D01*
X194051354Y-71993340D01*
X193930014Y-71805777D01*
X193779670Y-71640551D01*
X193775619Y-71637352D01*
X193775615Y-71637348D01*
X193608414Y-71505300D01*
X193608410Y-71505298D01*
X193604359Y-71502098D01*
X193563053Y-71479296D01*
X193513084Y-71428864D01*
X193498312Y-71359421D01*
X193523428Y-71293016D01*
X193550780Y-71266409D01*
X193594603Y-71235150D01*
X193729860Y-71138673D01*
X193888096Y-70980989D01*
X193922876Y-70932588D01*
X194015435Y-70803777D01*
X194018453Y-70799577D01*
X194117430Y-70599311D01*
X194182370Y-70385569D01*
X194211529Y-70164090D01*
X194213156Y-70097500D01*
X194194852Y-69874861D01*
X194140431Y-69658202D01*
X194051354Y-69453340D01*
X193930014Y-69265777D01*
X193779670Y-69100551D01*
X193775619Y-69097352D01*
X193775615Y-69097348D01*
X193608414Y-68965300D01*
X193608410Y-68965298D01*
X193604359Y-68962098D01*
X193563053Y-68939296D01*
X193513084Y-68888864D01*
X193498312Y-68819421D01*
X193523428Y-68753016D01*
X193550780Y-68726409D01*
X193594603Y-68695150D01*
X193729860Y-68598673D01*
X193888096Y-68440989D01*
X193922876Y-68392588D01*
X194015435Y-68263777D01*
X194018453Y-68259577D01*
X194034687Y-68226731D01*
X194115136Y-68063953D01*
X194115137Y-68063951D01*
X194117430Y-68059311D01*
X194182370Y-67845569D01*
X194211529Y-67624090D01*
X194211653Y-67619020D01*
X194213074Y-67560865D01*
X194213074Y-67560861D01*
X194213156Y-67557500D01*
X194194852Y-67334861D01*
X194140431Y-67118202D01*
X194051354Y-66913340D01*
X193942016Y-66744329D01*
X193932822Y-66730117D01*
X193932820Y-66730114D01*
X193930014Y-66725777D01*
X193779670Y-66560551D01*
X193775619Y-66557352D01*
X193775615Y-66557348D01*
X193608414Y-66425300D01*
X193608410Y-66425298D01*
X193604359Y-66422098D01*
X193563053Y-66399296D01*
X193513084Y-66348864D01*
X193498312Y-66279421D01*
X193523428Y-66213016D01*
X193550780Y-66186409D01*
X193594603Y-66155150D01*
X193729860Y-66058673D01*
X193746886Y-66041707D01*
X193862203Y-65926792D01*
X193888096Y-65900989D01*
X193914246Y-65864598D01*
X194015435Y-65723777D01*
X194018453Y-65719577D01*
X194029772Y-65696676D01*
X194115136Y-65523953D01*
X194115137Y-65523951D01*
X194117430Y-65519311D01*
X194182370Y-65305569D01*
X194211529Y-65084090D01*
X194213156Y-65017500D01*
X194194852Y-64794861D01*
X194140431Y-64578202D01*
X194051354Y-64373340D01*
X193991423Y-64280701D01*
X193932822Y-64190117D01*
X193932820Y-64190114D01*
X193930014Y-64185777D01*
X193779670Y-64020551D01*
X193775619Y-64017352D01*
X193775615Y-64017348D01*
X193608414Y-63885300D01*
X193608410Y-63885298D01*
X193604359Y-63882098D01*
X193563053Y-63859296D01*
X193513084Y-63808864D01*
X193498312Y-63739421D01*
X193523428Y-63673016D01*
X193550780Y-63646409D01*
X193594603Y-63615150D01*
X193729860Y-63518673D01*
X193888096Y-63360989D01*
X193922876Y-63312588D01*
X194015435Y-63183777D01*
X194018453Y-63179577D01*
X194117430Y-62979311D01*
X194182370Y-62765569D01*
X194211529Y-62544090D01*
X194213156Y-62477500D01*
X194194852Y-62254861D01*
X194140431Y-62038202D01*
X194051354Y-61833340D01*
X193930014Y-61645777D01*
X193779670Y-61480551D01*
X193775619Y-61477352D01*
X193775615Y-61477348D01*
X193608414Y-61345300D01*
X193608410Y-61345298D01*
X193604359Y-61342098D01*
X193563053Y-61319296D01*
X193513084Y-61268864D01*
X193498312Y-61199421D01*
X193523428Y-61133016D01*
X193550780Y-61106409D01*
X193609948Y-61064205D01*
X193729860Y-60978673D01*
X193888096Y-60820989D01*
X193947594Y-60738189D01*
X194015435Y-60643777D01*
X194018453Y-60639577D01*
X194117430Y-60439311D01*
X194182370Y-60225569D01*
X194211529Y-60004090D01*
X194213156Y-59937500D01*
X194194852Y-59714861D01*
X194140431Y-59498202D01*
X194051354Y-59293340D01*
X193964827Y-59159590D01*
X193932822Y-59110117D01*
X193932820Y-59110114D01*
X193930014Y-59105777D01*
X193779670Y-58940551D01*
X193775619Y-58937352D01*
X193775615Y-58937348D01*
X193608414Y-58805300D01*
X193608410Y-58805298D01*
X193604359Y-58802098D01*
X193563053Y-58779296D01*
X193513084Y-58728864D01*
X193498312Y-58659421D01*
X193523428Y-58593016D01*
X193550780Y-58566409D01*
X193594603Y-58535150D01*
X193729860Y-58438673D01*
X193888096Y-58280989D01*
X193928764Y-58224394D01*
X194015435Y-58103777D01*
X194018453Y-58099577D01*
X194076597Y-57981932D01*
X194115136Y-57903953D01*
X194115137Y-57903951D01*
X194117430Y-57899311D01*
X194175471Y-57708276D01*
X194180865Y-57690523D01*
X194180865Y-57690521D01*
X194182370Y-57685569D01*
X194211529Y-57464090D01*
X194213156Y-57397500D01*
X194194852Y-57174861D01*
X194140431Y-56958202D01*
X194051354Y-56753340D01*
X193981025Y-56644628D01*
X193932822Y-56570117D01*
X193932820Y-56570114D01*
X193930014Y-56565777D01*
X193926532Y-56561950D01*
X193782798Y-56403988D01*
X193751746Y-56340142D01*
X193760141Y-56269643D01*
X193805317Y-56214875D01*
X193831761Y-56201206D01*
X193938297Y-56161267D01*
X193946705Y-56158115D01*
X194063261Y-56070761D01*
X194150615Y-55954205D01*
X194201745Y-55817816D01*
X194208500Y-55755634D01*
X194208500Y-53959366D01*
X194201745Y-53897184D01*
X194150615Y-53760795D01*
X194063261Y-53644239D01*
X193946705Y-53556885D01*
X193810316Y-53505755D01*
X193748134Y-53499000D01*
X191951866Y-53499000D01*
X191889684Y-53505755D01*
X191753295Y-53556885D01*
X191636739Y-53644239D01*
X191549385Y-53760795D01*
X191498255Y-53897184D01*
X191491500Y-53959366D01*
X191491500Y-55755634D01*
X191498255Y-55817816D01*
X191549385Y-55954205D01*
X191636739Y-56070761D01*
X191753295Y-56158115D01*
X191761704Y-56161267D01*
X191761705Y-56161268D01*
X191870451Y-56202035D01*
X191927216Y-56244676D01*
X191951916Y-56311238D01*
X191936709Y-56380587D01*
X191917316Y-56407068D01*
X191790629Y-56539638D01*
X191787715Y-56543910D01*
X191787714Y-56543911D01*
X191719010Y-56644628D01*
X191664743Y-56724180D01*
X191570688Y-56926805D01*
X191510989Y-57142070D01*
X191487251Y-57364195D01*
X191487548Y-57369348D01*
X191487548Y-57369351D01*
X191493011Y-57464090D01*
X191500110Y-57587215D01*
X191501247Y-57592261D01*
X191501248Y-57592267D01*
X191508650Y-57625110D01*
X191549222Y-57805139D01*
X191587461Y-57899311D01*
X191614281Y-57965360D01*
X191633266Y-58012116D01*
X191635965Y-58016520D01*
X191708349Y-58134640D01*
X191749987Y-58202588D01*
X191896250Y-58371438D01*
X192068126Y-58514132D01*
X192104941Y-58535645D01*
X192141445Y-58556976D01*
X192190169Y-58608614D01*
X192203240Y-58678397D01*
X192176509Y-58744169D01*
X192136055Y-58777527D01*
X192123607Y-58784007D01*
X192119474Y-58787110D01*
X192119471Y-58787112D01*
X191949100Y-58915030D01*
X191944965Y-58918135D01*
X191790629Y-59079638D01*
X191787715Y-59083910D01*
X191787714Y-59083911D01*
X191775404Y-59101957D01*
X191664743Y-59264180D01*
X191649003Y-59298090D01*
X191578526Y-59449920D01*
X191570688Y-59466805D01*
X191510989Y-59682070D01*
X191487251Y-59904195D01*
X191487548Y-59909348D01*
X191487548Y-59909351D01*
X191493011Y-60004090D01*
X191500110Y-60127215D01*
X191501247Y-60132261D01*
X191501248Y-60132267D01*
X191521119Y-60220439D01*
X191549222Y-60345139D01*
X191633266Y-60552116D01*
X191749987Y-60742588D01*
X191896250Y-60911438D01*
X192068126Y-61054132D01*
X192138595Y-61095311D01*
X192141445Y-61096976D01*
X192190169Y-61148614D01*
X192203240Y-61218397D01*
X192176509Y-61284169D01*
X192136055Y-61317527D01*
X192123607Y-61324007D01*
X192119474Y-61327110D01*
X192119471Y-61327112D01*
X191949100Y-61455030D01*
X191944965Y-61458135D01*
X191790629Y-61619638D01*
X191787715Y-61623910D01*
X191787714Y-61623911D01*
X191749373Y-61680117D01*
X191664743Y-61804180D01*
X191570688Y-62006805D01*
X191510989Y-62222070D01*
X191487251Y-62444195D01*
X191487548Y-62449348D01*
X191487548Y-62449351D01*
X191494932Y-62577408D01*
X191500110Y-62667215D01*
X191501247Y-62672261D01*
X191501248Y-62672267D01*
X191508009Y-62702267D01*
X191549222Y-62885139D01*
X191633266Y-63092116D01*
X191749987Y-63282588D01*
X191896250Y-63451438D01*
X192068126Y-63594132D01*
X192113809Y-63620827D01*
X192141445Y-63636976D01*
X192190169Y-63688614D01*
X192203240Y-63758397D01*
X192176509Y-63824169D01*
X192136055Y-63857527D01*
X192123607Y-63864007D01*
X192119474Y-63867110D01*
X192119471Y-63867112D01*
X192055291Y-63915300D01*
X191944965Y-63998135D01*
X191790629Y-64159638D01*
X191787715Y-64163910D01*
X191787714Y-64163911D01*
X191749581Y-64219812D01*
X191664743Y-64344180D01*
X191570688Y-64546805D01*
X191510989Y-64762070D01*
X191487251Y-64984195D01*
X191487548Y-64989348D01*
X191487548Y-64989351D01*
X191494932Y-65117408D01*
X191500110Y-65207215D01*
X191501247Y-65212261D01*
X191501248Y-65212267D01*
X191508009Y-65242267D01*
X191549222Y-65425139D01*
X191633266Y-65632116D01*
X191749987Y-65822588D01*
X191896250Y-65991438D01*
X192025219Y-66098510D01*
X192063724Y-66130477D01*
X192068126Y-66134132D01*
X192113809Y-66160827D01*
X192141445Y-66176976D01*
X192190169Y-66228614D01*
X192203240Y-66298397D01*
X192176509Y-66364169D01*
X192136055Y-66397527D01*
X192123607Y-66404007D01*
X192119474Y-66407110D01*
X192119471Y-66407112D01*
X192055291Y-66455300D01*
X191944965Y-66538135D01*
X191919894Y-66564370D01*
X191857633Y-66629523D01*
X191790629Y-66699638D01*
X191787715Y-66703910D01*
X191787714Y-66703911D01*
X191749373Y-66760117D01*
X191664743Y-66884180D01*
X191570688Y-67086805D01*
X191510989Y-67302070D01*
X191487251Y-67524195D01*
X191487548Y-67529348D01*
X191487548Y-67529351D01*
X191498776Y-67724085D01*
X191500110Y-67747215D01*
X191501247Y-67752261D01*
X191501248Y-67752267D01*
X191508009Y-67782267D01*
X191549222Y-67965139D01*
X191587461Y-68059311D01*
X191621834Y-68143961D01*
X191633266Y-68172116D01*
X191648807Y-68197476D01*
X191732484Y-68334025D01*
X191749987Y-68362588D01*
X191896250Y-68531438D01*
X192068126Y-68674132D01*
X192113809Y-68700827D01*
X192141445Y-68716976D01*
X192190169Y-68768614D01*
X192203240Y-68838397D01*
X192176509Y-68904169D01*
X192136055Y-68937527D01*
X192123607Y-68944007D01*
X192119474Y-68947110D01*
X192119471Y-68947112D01*
X192055291Y-68995300D01*
X191944965Y-69078135D01*
X191790629Y-69239638D01*
X191787715Y-69243910D01*
X191787714Y-69243911D01*
X191749373Y-69300117D01*
X191664743Y-69424180D01*
X191570688Y-69626805D01*
X191510989Y-69842070D01*
X191487251Y-70064195D01*
X191487548Y-70069348D01*
X191487548Y-70069351D01*
X191494932Y-70197408D01*
X191500110Y-70287215D01*
X191501247Y-70292261D01*
X191501248Y-70292267D01*
X191508009Y-70322267D01*
X191549222Y-70505139D01*
X191633266Y-70712116D01*
X191749987Y-70902588D01*
X191896250Y-71071438D01*
X192068126Y-71214132D01*
X192113809Y-71240827D01*
X192141445Y-71256976D01*
X192190169Y-71308614D01*
X192203240Y-71378397D01*
X192176509Y-71444169D01*
X192136055Y-71477527D01*
X192123607Y-71484007D01*
X192119474Y-71487110D01*
X192119471Y-71487112D01*
X192055291Y-71535300D01*
X191944965Y-71618135D01*
X191790629Y-71779638D01*
X191787715Y-71783910D01*
X191787714Y-71783911D01*
X191749373Y-71840117D01*
X191664743Y-71964180D01*
X191570688Y-72166805D01*
X191510989Y-72382070D01*
X191487251Y-72604195D01*
X61208500Y-72604195D01*
X61208500Y-66426880D01*
X63421992Y-66426880D01*
X63422355Y-66431028D01*
X63422355Y-66431032D01*
X63447487Y-66718293D01*
X63447488Y-66718301D01*
X63447852Y-66722459D01*
X63448766Y-66726548D01*
X63485051Y-66888875D01*
X63512577Y-67012021D01*
X63514019Y-67015941D01*
X63514021Y-67015947D01*
X63608272Y-67272115D01*
X63615029Y-67290480D01*
X63616980Y-67294180D01*
X63616982Y-67294185D01*
X63735547Y-67519062D01*
X63753410Y-67552942D01*
X63925288Y-67794797D01*
X64127642Y-68011796D01*
X64356918Y-68200125D01*
X64609088Y-68356477D01*
X64879722Y-68478105D01*
X65045518Y-68527531D01*
X65160065Y-68561679D01*
X65160067Y-68561679D01*
X65164064Y-68562871D01*
X65168184Y-68563524D01*
X65168186Y-68563524D01*
X65175864Y-68564740D01*
X65457119Y-68609286D01*
X65502146Y-68611331D01*
X65548497Y-68613436D01*
X65548516Y-68613436D01*
X65549916Y-68613500D01*
X65735264Y-68613500D01*
X65956056Y-68598835D01*
X66246910Y-68540188D01*
X66527453Y-68443590D01*
X66531196Y-68441716D01*
X66531200Y-68441714D01*
X66789012Y-68312611D01*
X66789014Y-68312610D01*
X66792756Y-68310736D01*
X66946105Y-68206520D01*
X67034699Y-68146312D01*
X67034702Y-68146310D01*
X67038158Y-68143961D01*
X67259346Y-67946196D01*
X67452436Y-67720914D01*
X67495832Y-67654090D01*
X67611763Y-67475572D01*
X67611765Y-67475569D01*
X67614035Y-67472073D01*
X67741304Y-67204046D01*
X67745905Y-67189715D01*
X67830726Y-66925530D01*
X67830727Y-66925524D01*
X67832006Y-66921542D01*
X67866028Y-66732452D01*
X67883809Y-66633632D01*
X67883810Y-66633627D01*
X67884548Y-66629523D01*
X67886145Y-66594370D01*
X67897819Y-66337290D01*
X67897819Y-66337285D01*
X67898008Y-66333120D01*
X67896567Y-66316644D01*
X67872513Y-66041707D01*
X67872512Y-66041699D01*
X67872148Y-66037541D01*
X67807423Y-65747979D01*
X67798519Y-65723777D01*
X67706418Y-65473452D01*
X67706416Y-65473448D01*
X67704971Y-65469520D01*
X67699913Y-65459925D01*
X67568543Y-65210762D01*
X67568542Y-65210761D01*
X67566590Y-65207058D01*
X67394712Y-64965203D01*
X67192358Y-64748204D01*
X66963082Y-64559875D01*
X66710912Y-64403523D01*
X66440278Y-64281895D01*
X66267610Y-64230420D01*
X66159935Y-64198321D01*
X66159933Y-64198321D01*
X66155936Y-64197129D01*
X66151816Y-64196476D01*
X66151814Y-64196476D01*
X65946204Y-64163911D01*
X65862881Y-64150714D01*
X65817854Y-64148669D01*
X65771503Y-64146564D01*
X65771484Y-64146564D01*
X65770084Y-64146500D01*
X65584736Y-64146500D01*
X65363944Y-64161165D01*
X65073090Y-64219812D01*
X64792547Y-64316410D01*
X64788804Y-64318284D01*
X64788800Y-64318286D01*
X64614179Y-64405730D01*
X64527244Y-64449264D01*
X64523779Y-64451619D01*
X64293374Y-64608202D01*
X64281842Y-64616039D01*
X64060654Y-64813804D01*
X63867564Y-65039086D01*
X63865290Y-65042588D01*
X63865289Y-65042589D01*
X63738898Y-65237215D01*
X63705965Y-65287927D01*
X63704177Y-65291693D01*
X63704174Y-65291698D01*
X63685779Y-65330439D01*
X63578696Y-65555954D01*
X63577417Y-65559937D01*
X63577416Y-65559940D01*
X63494502Y-65818189D01*
X63487994Y-65838458D01*
X63487253Y-65842577D01*
X63441204Y-66098510D01*
X63435452Y-66130477D01*
X63435263Y-66134644D01*
X63435262Y-66134651D01*
X63422322Y-66419604D01*
X63421992Y-66426880D01*
X61208500Y-66426880D01*
X61208500Y-57960583D01*
X79953828Y-57960583D01*
X79959935Y-58219689D01*
X79960769Y-58224394D01*
X80000110Y-58446376D01*
X80005163Y-58474890D01*
X80088473Y-58720313D01*
X80090674Y-58724549D01*
X80090676Y-58724555D01*
X80120318Y-58781618D01*
X80207947Y-58950311D01*
X80210762Y-58954165D01*
X80210765Y-58954169D01*
X80324694Y-59110117D01*
X80360837Y-59159590D01*
X80364209Y-59162980D01*
X80364211Y-59162982D01*
X80540248Y-59339945D01*
X80540253Y-59339949D01*
X80543622Y-59343336D01*
X80752099Y-59497319D01*
X80756337Y-59499549D01*
X80756339Y-59499550D01*
X80977232Y-59615768D01*
X80977239Y-59615771D01*
X80981468Y-59617996D01*
X80985984Y-59619555D01*
X80985990Y-59619558D01*
X81112565Y-59663264D01*
X81226451Y-59702590D01*
X81293641Y-59714861D01*
X81477441Y-59748429D01*
X81477445Y-59748429D01*
X81481412Y-59749154D01*
X81564342Y-59753500D01*
X81725903Y-59753500D01*
X81728282Y-59753319D01*
X81728283Y-59753319D01*
X81913664Y-59739218D01*
X81913669Y-59739217D01*
X81918431Y-59738855D01*
X81923084Y-59737776D01*
X81923087Y-59737776D01*
X82166251Y-59681413D01*
X82166250Y-59681413D01*
X82170915Y-59680332D01*
X82411642Y-59584292D01*
X82635072Y-59452944D01*
X82638783Y-59449923D01*
X82638787Y-59449920D01*
X82832351Y-59292334D01*
X82836063Y-59289312D01*
X82839272Y-59285767D01*
X82839277Y-59285762D01*
X83006774Y-59100713D01*
X83009990Y-59097160D01*
X83152851Y-58880910D01*
X83196093Y-58787112D01*
X83259352Y-58649892D01*
X83259353Y-58649889D01*
X83261358Y-58645540D01*
X83283552Y-58568396D01*
X83331694Y-58401058D01*
X83331695Y-58401053D01*
X83332350Y-58398777D01*
X86295777Y-58398777D01*
X86305074Y-58410793D01*
X86348069Y-58440898D01*
X86357555Y-58446376D01*
X86548993Y-58535645D01*
X86559285Y-58539391D01*
X86763309Y-58594059D01*
X86774104Y-58595962D01*
X86984525Y-58614372D01*
X86995475Y-58614372D01*
X87205896Y-58595962D01*
X87216691Y-58594059D01*
X87420715Y-58539391D01*
X87431007Y-58535645D01*
X87622445Y-58446376D01*
X87631931Y-58440898D01*
X87675764Y-58410207D01*
X87684139Y-58399729D01*
X87677071Y-58386281D01*
X87002812Y-57712022D01*
X86988868Y-57704408D01*
X86987035Y-57704539D01*
X86980420Y-57708790D01*
X86302207Y-58387003D01*
X86295777Y-58398777D01*
X83332350Y-58398777D01*
X83333015Y-58396465D01*
X83335818Y-58374740D01*
X83365561Y-58144154D01*
X83366172Y-58139417D01*
X83362460Y-57981932D01*
X83360178Y-57885091D01*
X83360178Y-57885087D01*
X83360065Y-57880311D01*
X83314837Y-57625110D01*
X83231527Y-57379687D01*
X83229326Y-57375451D01*
X83229324Y-57375445D01*
X83213756Y-57345475D01*
X85715628Y-57345475D01*
X85734038Y-57555896D01*
X85735941Y-57566691D01*
X85790609Y-57770715D01*
X85794355Y-57781007D01*
X85883623Y-57972441D01*
X85889103Y-57981932D01*
X85919794Y-58025765D01*
X85930271Y-58034140D01*
X85943718Y-58027072D01*
X86617978Y-57352812D01*
X86624356Y-57341132D01*
X87354408Y-57341132D01*
X87354539Y-57342965D01*
X87358790Y-57349580D01*
X88037003Y-58027793D01*
X88048777Y-58034223D01*
X88060793Y-58024926D01*
X88090897Y-57981932D01*
X88096377Y-57972441D01*
X88185645Y-57781007D01*
X88189391Y-57770715D01*
X88244059Y-57566691D01*
X88245962Y-57555896D01*
X88264372Y-57345475D01*
X88264372Y-57334525D01*
X88245962Y-57124104D01*
X88244059Y-57113309D01*
X88189391Y-56909285D01*
X88185645Y-56898993D01*
X88096377Y-56707559D01*
X88090897Y-56698068D01*
X88060206Y-56654235D01*
X88049729Y-56645860D01*
X88036282Y-56652928D01*
X87362022Y-57327188D01*
X87354408Y-57341132D01*
X86624356Y-57341132D01*
X86625592Y-57338868D01*
X86625461Y-57337035D01*
X86621210Y-57330420D01*
X85942997Y-56652207D01*
X85931223Y-56645777D01*
X85919207Y-56655074D01*
X85889103Y-56698068D01*
X85883623Y-56707559D01*
X85794355Y-56898993D01*
X85790609Y-56909285D01*
X85735941Y-57113309D01*
X85734038Y-57124104D01*
X85715628Y-57334525D01*
X85715628Y-57345475D01*
X83213756Y-57345475D01*
X83148104Y-57219090D01*
X83112053Y-57149689D01*
X83102848Y-57137088D01*
X82961986Y-56944274D01*
X82961985Y-56944273D01*
X82959163Y-56940410D01*
X82833651Y-56814238D01*
X82779752Y-56760055D01*
X82779747Y-56760051D01*
X82776378Y-56756664D01*
X82567901Y-56602681D01*
X82563661Y-56600450D01*
X82342768Y-56484232D01*
X82342761Y-56484229D01*
X82338532Y-56482004D01*
X82334016Y-56480445D01*
X82334010Y-56480442D01*
X82163148Y-56421443D01*
X82093549Y-56397410D01*
X81975807Y-56375907D01*
X81842559Y-56351571D01*
X81842555Y-56351571D01*
X81838588Y-56350846D01*
X81755658Y-56346500D01*
X81594097Y-56346500D01*
X81591718Y-56346681D01*
X81591717Y-56346681D01*
X81406336Y-56360782D01*
X81406331Y-56360783D01*
X81401569Y-56361145D01*
X81396916Y-56362224D01*
X81396913Y-56362224D01*
X81248822Y-56396550D01*
X81149085Y-56419668D01*
X80908358Y-56515708D01*
X80684928Y-56647056D01*
X80681217Y-56650077D01*
X80681213Y-56650080D01*
X80589279Y-56724926D01*
X80483937Y-56810688D01*
X80480728Y-56814233D01*
X80480723Y-56814238D01*
X80363021Y-56944274D01*
X80310010Y-57002840D01*
X80167149Y-57219090D01*
X80165148Y-57223430D01*
X80165146Y-57223434D01*
X80060648Y-57450108D01*
X80058642Y-57454460D01*
X80057318Y-57459062D01*
X79992154Y-57685569D01*
X79986985Y-57703535D01*
X79986374Y-57708270D01*
X79986373Y-57708276D01*
X79961133Y-57903953D01*
X79953828Y-57960583D01*
X61208500Y-57960583D01*
X61208500Y-54830000D01*
X85714647Y-54830000D01*
X85734022Y-55051463D01*
X85791560Y-55266196D01*
X85793882Y-55271177D01*
X85793883Y-55271178D01*
X85883186Y-55462689D01*
X85883189Y-55462694D01*
X85885512Y-55467676D01*
X86013023Y-55649781D01*
X86170219Y-55806977D01*
X86174727Y-55810134D01*
X86174730Y-55810136D01*
X86196265Y-55825215D01*
X86352323Y-55934488D01*
X86357305Y-55936811D01*
X86357310Y-55936814D01*
X86430797Y-55971081D01*
X86484082Y-56017998D01*
X86503543Y-56086276D01*
X86483001Y-56154235D01*
X86430797Y-56199471D01*
X86357559Y-56233623D01*
X86348068Y-56239103D01*
X86304235Y-56269794D01*
X86295860Y-56280271D01*
X86302928Y-56293718D01*
X86977188Y-56967978D01*
X86991132Y-56975592D01*
X86992965Y-56975461D01*
X86999580Y-56971210D01*
X87677793Y-56292997D01*
X87684223Y-56281223D01*
X87674926Y-56269207D01*
X87631931Y-56239102D01*
X87622445Y-56233624D01*
X87549203Y-56199471D01*
X87495918Y-56152554D01*
X87476457Y-56084276D01*
X87496999Y-56016316D01*
X87549203Y-55971081D01*
X87622690Y-55936814D01*
X87622695Y-55936811D01*
X87627677Y-55934488D01*
X87783735Y-55825215D01*
X87805270Y-55810136D01*
X87805273Y-55810134D01*
X87809781Y-55806977D01*
X87966977Y-55649781D01*
X88094488Y-55467676D01*
X88096811Y-55462694D01*
X88096814Y-55462689D01*
X88186117Y-55271178D01*
X88186118Y-55271177D01*
X88188440Y-55266196D01*
X88245978Y-55051463D01*
X88265353Y-54830000D01*
X88245978Y-54608537D01*
X88188440Y-54393804D01*
X88165808Y-54345270D01*
X88096814Y-54197311D01*
X88096811Y-54197306D01*
X88094488Y-54192324D01*
X88080387Y-54172185D01*
X87970136Y-54014730D01*
X87970134Y-54014727D01*
X87966977Y-54010219D01*
X87809781Y-53853023D01*
X87805273Y-53849866D01*
X87805270Y-53849864D01*
X87672326Y-53756776D01*
X87627677Y-53725512D01*
X87622695Y-53723189D01*
X87622690Y-53723186D01*
X87431178Y-53633883D01*
X87431177Y-53633882D01*
X87426196Y-53631560D01*
X87420888Y-53630138D01*
X87420886Y-53630137D01*
X87355051Y-53612497D01*
X87211463Y-53574022D01*
X86990000Y-53554647D01*
X86768537Y-53574022D01*
X86624949Y-53612497D01*
X86559114Y-53630137D01*
X86559112Y-53630138D01*
X86553804Y-53631560D01*
X86548823Y-53633882D01*
X86548822Y-53633883D01*
X86357311Y-53723186D01*
X86357306Y-53723189D01*
X86352324Y-53725512D01*
X86347817Y-53728668D01*
X86347815Y-53728669D01*
X86174730Y-53849864D01*
X86174727Y-53849866D01*
X86170219Y-53853023D01*
X86013023Y-54010219D01*
X86009866Y-54014727D01*
X86009864Y-54014730D01*
X85899613Y-54172185D01*
X85885512Y-54192324D01*
X85883189Y-54197306D01*
X85883186Y-54197311D01*
X85814192Y-54345270D01*
X85791560Y-54393804D01*
X85734022Y-54608537D01*
X85714647Y-54830000D01*
X61208500Y-54830000D01*
X61208500Y-51094669D01*
X62767001Y-51094669D01*
X62767371Y-51101490D01*
X62772895Y-51152352D01*
X62776521Y-51167604D01*
X62821676Y-51288054D01*
X62830214Y-51303649D01*
X62906715Y-51405724D01*
X62919276Y-51418285D01*
X63021351Y-51494786D01*
X63036946Y-51503324D01*
X63157394Y-51548478D01*
X63172649Y-51552105D01*
X63223514Y-51557631D01*
X63230328Y-51558000D01*
X63852885Y-51558000D01*
X63868124Y-51553525D01*
X63869329Y-51552135D01*
X63871000Y-51544452D01*
X63871000Y-51539884D01*
X64379000Y-51539884D01*
X64383475Y-51555123D01*
X64384865Y-51556328D01*
X64392548Y-51557999D01*
X65019669Y-51557999D01*
X65026490Y-51557629D01*
X65077352Y-51552105D01*
X65092604Y-51548479D01*
X65213054Y-51503324D01*
X65228649Y-51494786D01*
X65330724Y-51418285D01*
X65343285Y-51405724D01*
X65419786Y-51303649D01*
X65428324Y-51288054D01*
X65469225Y-51178952D01*
X65511867Y-51122188D01*
X65578428Y-51097488D01*
X65647777Y-51112696D01*
X65682444Y-51140684D01*
X65707865Y-51170031D01*
X65707869Y-51170035D01*
X65711250Y-51173938D01*
X65883126Y-51316632D01*
X66076000Y-51429338D01*
X66284692Y-51509030D01*
X66289760Y-51510061D01*
X66289763Y-51510062D01*
X66397017Y-51531883D01*
X66503597Y-51553567D01*
X66508772Y-51553757D01*
X66508774Y-51553757D01*
X66721673Y-51561564D01*
X66721677Y-51561564D01*
X66726837Y-51561753D01*
X66731957Y-51561097D01*
X66731959Y-51561097D01*
X66943288Y-51534025D01*
X66943289Y-51534025D01*
X66948416Y-51533368D01*
X66953366Y-51531883D01*
X67157429Y-51470661D01*
X67157434Y-51470659D01*
X67162384Y-51469174D01*
X67362994Y-51370896D01*
X67544860Y-51241173D01*
X67703096Y-51083489D01*
X67833453Y-50902077D01*
X67932430Y-50701811D01*
X67997370Y-50488069D01*
X68026529Y-50266590D01*
X68028156Y-50200000D01*
X68009852Y-49977361D01*
X67955431Y-49760702D01*
X67866354Y-49555840D01*
X67768616Y-49404760D01*
X67747822Y-49372617D01*
X67747820Y-49372614D01*
X67745014Y-49368277D01*
X67594670Y-49203051D01*
X67590619Y-49199852D01*
X67590615Y-49199848D01*
X67423414Y-49067800D01*
X67423410Y-49067798D01*
X67419359Y-49064598D01*
X67223789Y-48956638D01*
X67218920Y-48954914D01*
X67218916Y-48954912D01*
X67018087Y-48883795D01*
X67018083Y-48883794D01*
X67013212Y-48882069D01*
X67008119Y-48881162D01*
X67008116Y-48881161D01*
X66798373Y-48843800D01*
X66798367Y-48843799D01*
X66793284Y-48842894D01*
X66719452Y-48841992D01*
X66575081Y-48840228D01*
X66575079Y-48840228D01*
X66569911Y-48840165D01*
X66349091Y-48873955D01*
X66136756Y-48943357D01*
X65938607Y-49046507D01*
X65934474Y-49049610D01*
X65934471Y-49049612D01*
X65764100Y-49177530D01*
X65759965Y-49180635D01*
X65756393Y-49184373D01*
X65678898Y-49265466D01*
X65617374Y-49300895D01*
X65546462Y-49297438D01*
X65488676Y-49256192D01*
X65469823Y-49222644D01*
X65428324Y-49111946D01*
X65419786Y-49096351D01*
X65343285Y-48994276D01*
X65330724Y-48981715D01*
X65228649Y-48905214D01*
X65213054Y-48896676D01*
X65092606Y-48851522D01*
X65077351Y-48847895D01*
X65026486Y-48842369D01*
X65019672Y-48842000D01*
X64397115Y-48842000D01*
X64381876Y-48846475D01*
X64380671Y-48847865D01*
X64379000Y-48855548D01*
X64379000Y-51539884D01*
X63871000Y-51539884D01*
X63871000Y-50472115D01*
X63866525Y-50456876D01*
X63865135Y-50455671D01*
X63857452Y-50454000D01*
X62785116Y-50454000D01*
X62769877Y-50458475D01*
X62768672Y-50459865D01*
X62767001Y-50467548D01*
X62767001Y-51094669D01*
X61208500Y-51094669D01*
X61208500Y-49927885D01*
X62767000Y-49927885D01*
X62771475Y-49943124D01*
X62772865Y-49944329D01*
X62780548Y-49946000D01*
X63852885Y-49946000D01*
X63868124Y-49941525D01*
X63869329Y-49940135D01*
X63871000Y-49932452D01*
X63871000Y-48860116D01*
X63866525Y-48844877D01*
X63865135Y-48843672D01*
X63857452Y-48842001D01*
X63230331Y-48842001D01*
X63223510Y-48842371D01*
X63172648Y-48847895D01*
X63157396Y-48851521D01*
X63036946Y-48896676D01*
X63021351Y-48905214D01*
X62919276Y-48981715D01*
X62906715Y-48994276D01*
X62830214Y-49096351D01*
X62821676Y-49111946D01*
X62776522Y-49232394D01*
X62772895Y-49247649D01*
X62767369Y-49298514D01*
X62767000Y-49305328D01*
X62767000Y-49927885D01*
X61208500Y-49927885D01*
X61208500Y-45909733D01*
X86227822Y-45909733D01*
X86227975Y-45914121D01*
X86227975Y-45914127D01*
X86236454Y-46156920D01*
X86237625Y-46190458D01*
X86238387Y-46194781D01*
X86238388Y-46194788D01*
X86262164Y-46329624D01*
X86286402Y-46467087D01*
X86373203Y-46734235D01*
X86375131Y-46738188D01*
X86375133Y-46738193D01*
X86388433Y-46765461D01*
X86496340Y-46986702D01*
X86498795Y-46990341D01*
X86498798Y-46990347D01*
X86530422Y-47037231D01*
X86653415Y-47219576D01*
X86656360Y-47222847D01*
X86656361Y-47222848D01*
X86664924Y-47232358D01*
X86841371Y-47428322D01*
X86844733Y-47431143D01*
X86844734Y-47431144D01*
X86888337Y-47467731D01*
X87056550Y-47608879D01*
X87294764Y-47757731D01*
X87551375Y-47871982D01*
X87821390Y-47949407D01*
X87825740Y-47950018D01*
X87825743Y-47950019D01*
X87928690Y-47964487D01*
X88099552Y-47988500D01*
X88310146Y-47988500D01*
X88312332Y-47988347D01*
X88312336Y-47988347D01*
X88515827Y-47974118D01*
X88515832Y-47974117D01*
X88520212Y-47973811D01*
X88794970Y-47915409D01*
X88799099Y-47913906D01*
X88799103Y-47913905D01*
X89054781Y-47820846D01*
X89054785Y-47820844D01*
X89058926Y-47819337D01*
X89306942Y-47687464D01*
X89310503Y-47684877D01*
X89530629Y-47524947D01*
X89530632Y-47524944D01*
X89534192Y-47522358D01*
X89558598Y-47498790D01*
X89661384Y-47399530D01*
X89736252Y-47327231D01*
X89890345Y-47130000D01*
X91014647Y-47130000D01*
X91034022Y-47351463D01*
X91072324Y-47494408D01*
X91081684Y-47529337D01*
X91091560Y-47566196D01*
X91093882Y-47571177D01*
X91093883Y-47571178D01*
X91183186Y-47762689D01*
X91183189Y-47762694D01*
X91185512Y-47767676D01*
X91188668Y-47772183D01*
X91188669Y-47772185D01*
X91289595Y-47916322D01*
X91313023Y-47949781D01*
X91470219Y-48106977D01*
X91474727Y-48110134D01*
X91474730Y-48110136D01*
X91602771Y-48199791D01*
X91647099Y-48255248D01*
X91656500Y-48303004D01*
X91656500Y-49276233D01*
X91655973Y-49287416D01*
X91654298Y-49294909D01*
X91654547Y-49302835D01*
X91654547Y-49302836D01*
X91656438Y-49362986D01*
X91656500Y-49366945D01*
X91656500Y-49394856D01*
X91656997Y-49398790D01*
X91656997Y-49398791D01*
X91657005Y-49398856D01*
X91657938Y-49410693D01*
X91659327Y-49454889D01*
X91664978Y-49474339D01*
X91668987Y-49493700D01*
X91671526Y-49513797D01*
X91674445Y-49521168D01*
X91674445Y-49521170D01*
X91687804Y-49554912D01*
X91691649Y-49566142D01*
X91703982Y-49608593D01*
X91708015Y-49615412D01*
X91708017Y-49615417D01*
X91714293Y-49626028D01*
X91722988Y-49643776D01*
X91730448Y-49662617D01*
X91735110Y-49669033D01*
X91735110Y-49669034D01*
X91756436Y-49698387D01*
X91762952Y-49708307D01*
X91785458Y-49746362D01*
X91799779Y-49760683D01*
X91812619Y-49775716D01*
X91824528Y-49792107D01*
X91830634Y-49797158D01*
X91858605Y-49820298D01*
X91867384Y-49828288D01*
X108584778Y-66545682D01*
X108618804Y-66607994D01*
X108617100Y-66668448D01*
X108595989Y-66744570D01*
X108595441Y-66749700D01*
X108595440Y-66749704D01*
X108585654Y-66841281D01*
X108572251Y-66966695D01*
X108585110Y-67189715D01*
X108586247Y-67194761D01*
X108586248Y-67194767D01*
X108607275Y-67288069D01*
X108634222Y-67407639D01*
X108691719Y-67549238D01*
X108705894Y-67584146D01*
X108718266Y-67614616D01*
X108720965Y-67619020D01*
X108828681Y-67794797D01*
X108834987Y-67805088D01*
X108981250Y-67973938D01*
X109153126Y-68116632D01*
X109346000Y-68229338D01*
X109350825Y-68231180D01*
X109350826Y-68231181D01*
X109423612Y-68258975D01*
X109554692Y-68309030D01*
X109559760Y-68310061D01*
X109559763Y-68310062D01*
X109667017Y-68331883D01*
X109773597Y-68353567D01*
X109778772Y-68353757D01*
X109778774Y-68353757D01*
X109991673Y-68361564D01*
X109991677Y-68361564D01*
X109996837Y-68361753D01*
X110001957Y-68361097D01*
X110001959Y-68361097D01*
X110213288Y-68334025D01*
X110213289Y-68334025D01*
X110218416Y-68333368D01*
X110223366Y-68331883D01*
X110427429Y-68270661D01*
X110427434Y-68270659D01*
X110432384Y-68269174D01*
X110632994Y-68170896D01*
X110814860Y-68041173D01*
X110856253Y-67999925D01*
X110923479Y-67932933D01*
X110985851Y-67899017D01*
X111056658Y-67904205D01*
X111113419Y-67946851D01*
X111130401Y-67977954D01*
X111171676Y-68088054D01*
X111180214Y-68103649D01*
X111256715Y-68205724D01*
X111269276Y-68218285D01*
X111371351Y-68294786D01*
X111386946Y-68303324D01*
X111507394Y-68348478D01*
X111522649Y-68352105D01*
X111573514Y-68357631D01*
X111580328Y-68358000D01*
X112202885Y-68358000D01*
X112218124Y-68353525D01*
X112219329Y-68352135D01*
X112221000Y-68344452D01*
X112221000Y-68339884D01*
X112729000Y-68339884D01*
X112733475Y-68355123D01*
X112734865Y-68356328D01*
X112742548Y-68357999D01*
X113369669Y-68357999D01*
X113376490Y-68357629D01*
X113427352Y-68352105D01*
X113442604Y-68348479D01*
X113563054Y-68303324D01*
X113578649Y-68294786D01*
X113680724Y-68218285D01*
X113693285Y-68205724D01*
X113769786Y-68103649D01*
X113778324Y-68088054D01*
X113823478Y-67967606D01*
X113827105Y-67952351D01*
X113832631Y-67901486D01*
X113833000Y-67894672D01*
X113833000Y-67272115D01*
X113828525Y-67256876D01*
X113827135Y-67255671D01*
X113819452Y-67254000D01*
X112747115Y-67254000D01*
X112731876Y-67258475D01*
X112730671Y-67259865D01*
X112729000Y-67267548D01*
X112729000Y-68339884D01*
X112221000Y-68339884D01*
X112221000Y-66727885D01*
X112729000Y-66727885D01*
X112733475Y-66743124D01*
X112734865Y-66744329D01*
X112742548Y-66746000D01*
X113814884Y-66746000D01*
X113830123Y-66741525D01*
X113831328Y-66740135D01*
X113832999Y-66732452D01*
X113832999Y-66105331D01*
X113832629Y-66098510D01*
X113827105Y-66047648D01*
X113823479Y-66032396D01*
X113778324Y-65911946D01*
X113769786Y-65896351D01*
X113693285Y-65794276D01*
X113680724Y-65781715D01*
X113578649Y-65705214D01*
X113563054Y-65696676D01*
X113442606Y-65651522D01*
X113427351Y-65647895D01*
X113376486Y-65642369D01*
X113369672Y-65642000D01*
X112747115Y-65642000D01*
X112731876Y-65646475D01*
X112730671Y-65647865D01*
X112729000Y-65655548D01*
X112729000Y-66727885D01*
X112221000Y-66727885D01*
X112221000Y-65660116D01*
X112216525Y-65644877D01*
X112215135Y-65643672D01*
X112207452Y-65642001D01*
X111580331Y-65642001D01*
X111573510Y-65642371D01*
X111522648Y-65647895D01*
X111507396Y-65651521D01*
X111386946Y-65696676D01*
X111371351Y-65705214D01*
X111269276Y-65781715D01*
X111256715Y-65794276D01*
X111180214Y-65896351D01*
X111171676Y-65911946D01*
X111130297Y-66022322D01*
X111087655Y-66079087D01*
X111021093Y-66103786D01*
X110951744Y-66088578D01*
X110919121Y-66062891D01*
X110868151Y-66006876D01*
X110868148Y-66006873D01*
X110864670Y-66003051D01*
X110860619Y-65999852D01*
X110860615Y-65999848D01*
X110693414Y-65867800D01*
X110693410Y-65867798D01*
X110689359Y-65864598D01*
X110674672Y-65856490D01*
X110561970Y-65794276D01*
X110493789Y-65756638D01*
X110488920Y-65754914D01*
X110488916Y-65754912D01*
X110288087Y-65683795D01*
X110288083Y-65683794D01*
X110283212Y-65682069D01*
X110278119Y-65681162D01*
X110278116Y-65681161D01*
X110068373Y-65643800D01*
X110068367Y-65643799D01*
X110063284Y-65642894D01*
X109989452Y-65641992D01*
X109845081Y-65640228D01*
X109845079Y-65640228D01*
X109839911Y-65640165D01*
X109619091Y-65673955D01*
X109606532Y-65678060D01*
X109535568Y-65680210D01*
X109478294Y-65647389D01*
X100929682Y-57098777D01*
X109315777Y-57098777D01*
X109325074Y-57110793D01*
X109368069Y-57140898D01*
X109377555Y-57146376D01*
X109568993Y-57235645D01*
X109579285Y-57239391D01*
X109783309Y-57294059D01*
X109794104Y-57295962D01*
X110004525Y-57314372D01*
X110015475Y-57314372D01*
X110225896Y-57295962D01*
X110236691Y-57294059D01*
X110440715Y-57239391D01*
X110451007Y-57235645D01*
X110642445Y-57146376D01*
X110651931Y-57140898D01*
X110695764Y-57110207D01*
X110704139Y-57099729D01*
X110697071Y-57086281D01*
X110022812Y-56412022D01*
X110008868Y-56404408D01*
X110007035Y-56404539D01*
X110000420Y-56408790D01*
X109322207Y-57087003D01*
X109315777Y-57098777D01*
X100929682Y-57098777D01*
X99876380Y-56045475D01*
X108735628Y-56045475D01*
X108754038Y-56255896D01*
X108755941Y-56266691D01*
X108810609Y-56470715D01*
X108814355Y-56481007D01*
X108903623Y-56672441D01*
X108909103Y-56681932D01*
X108939794Y-56725765D01*
X108950271Y-56734140D01*
X108963718Y-56727072D01*
X109637978Y-56052812D01*
X109644356Y-56041132D01*
X110374408Y-56041132D01*
X110374539Y-56042965D01*
X110378790Y-56049580D01*
X111057003Y-56727793D01*
X111068777Y-56734223D01*
X111080793Y-56724926D01*
X111110897Y-56681932D01*
X111116377Y-56672441D01*
X111205645Y-56481007D01*
X111209391Y-56470715D01*
X111264059Y-56266691D01*
X111265962Y-56255896D01*
X111284372Y-56045475D01*
X111284372Y-56034525D01*
X111265962Y-55824104D01*
X111264059Y-55813309D01*
X111209391Y-55609285D01*
X111205645Y-55598993D01*
X111116377Y-55407559D01*
X111110897Y-55398068D01*
X111080206Y-55354235D01*
X111069729Y-55345860D01*
X111056282Y-55352928D01*
X110382022Y-56027188D01*
X110374408Y-56041132D01*
X109644356Y-56041132D01*
X109645592Y-56038868D01*
X109645461Y-56037035D01*
X109641210Y-56030420D01*
X108962997Y-55352207D01*
X108951223Y-55345777D01*
X108939207Y-55355074D01*
X108909103Y-55398068D01*
X108903623Y-55407559D01*
X108814355Y-55598993D01*
X108810609Y-55609285D01*
X108755941Y-55813309D01*
X108754038Y-55824104D01*
X108735628Y-56034525D01*
X108735628Y-56045475D01*
X99876380Y-56045475D01*
X97360905Y-53530000D01*
X108734647Y-53530000D01*
X108754022Y-53751463D01*
X108780389Y-53849864D01*
X108808820Y-53955969D01*
X108811560Y-53966196D01*
X108813882Y-53971177D01*
X108813883Y-53971178D01*
X108903186Y-54162689D01*
X108903189Y-54162694D01*
X108905512Y-54167676D01*
X108908668Y-54172183D01*
X108908669Y-54172185D01*
X108926263Y-54197311D01*
X109033023Y-54349781D01*
X109190219Y-54506977D01*
X109194727Y-54510134D01*
X109194730Y-54510136D01*
X109270495Y-54563187D01*
X109372323Y-54634488D01*
X109377305Y-54636811D01*
X109377310Y-54636814D01*
X109450797Y-54671081D01*
X109504082Y-54717998D01*
X109523543Y-54786276D01*
X109503001Y-54854235D01*
X109450797Y-54899471D01*
X109377559Y-54933623D01*
X109368068Y-54939103D01*
X109324235Y-54969794D01*
X109315860Y-54980271D01*
X109322928Y-54993718D01*
X109997188Y-55667978D01*
X110011132Y-55675592D01*
X110012965Y-55675461D01*
X110019580Y-55671210D01*
X110697793Y-54992997D01*
X110704223Y-54981223D01*
X110694926Y-54969207D01*
X110651931Y-54939102D01*
X110642445Y-54933624D01*
X110569203Y-54899471D01*
X110515918Y-54852554D01*
X110496457Y-54784276D01*
X110516999Y-54716316D01*
X110569203Y-54671081D01*
X110642690Y-54636814D01*
X110642695Y-54636811D01*
X110647677Y-54634488D01*
X110749505Y-54563187D01*
X110825270Y-54510136D01*
X110825273Y-54510134D01*
X110829781Y-54506977D01*
X110986977Y-54349781D01*
X111093738Y-54197311D01*
X111111331Y-54172185D01*
X111111332Y-54172183D01*
X111114488Y-54167676D01*
X111116811Y-54162694D01*
X111116814Y-54162689D01*
X111206117Y-53971178D01*
X111206118Y-53971177D01*
X111208440Y-53966196D01*
X111211181Y-53955969D01*
X111239611Y-53849864D01*
X111265978Y-53751463D01*
X111285353Y-53530000D01*
X111265978Y-53308537D01*
X111208440Y-53093804D01*
X111206117Y-53088822D01*
X111116814Y-52897311D01*
X111116811Y-52897306D01*
X111114488Y-52892324D01*
X110986977Y-52710219D01*
X110829781Y-52553023D01*
X110825273Y-52549866D01*
X110825270Y-52549864D01*
X110749505Y-52496813D01*
X110647677Y-52425512D01*
X110642695Y-52423189D01*
X110642690Y-52423186D01*
X110451178Y-52333883D01*
X110451177Y-52333882D01*
X110446196Y-52331560D01*
X110440888Y-52330138D01*
X110440886Y-52330137D01*
X110375051Y-52312497D01*
X110231463Y-52274022D01*
X110010000Y-52254647D01*
X109788537Y-52274022D01*
X109644949Y-52312497D01*
X109579114Y-52330137D01*
X109579112Y-52330138D01*
X109573804Y-52331560D01*
X109568823Y-52333882D01*
X109568822Y-52333883D01*
X109377311Y-52423186D01*
X109377306Y-52423189D01*
X109372324Y-52425512D01*
X109367817Y-52428668D01*
X109367815Y-52428669D01*
X109194730Y-52549864D01*
X109194727Y-52549866D01*
X109190219Y-52553023D01*
X109033023Y-52710219D01*
X108905512Y-52892324D01*
X108903189Y-52897306D01*
X108903186Y-52897311D01*
X108813883Y-53088822D01*
X108811560Y-53093804D01*
X108754022Y-53308537D01*
X108734647Y-53530000D01*
X97360905Y-53530000D01*
X92960405Y-49129500D01*
X92926379Y-49067188D01*
X92923500Y-49040405D01*
X92923500Y-48303004D01*
X92943502Y-48234883D01*
X92977229Y-48199791D01*
X92992959Y-48188777D01*
X94135777Y-48188777D01*
X94145074Y-48200793D01*
X94188069Y-48230898D01*
X94197555Y-48236376D01*
X94388993Y-48325645D01*
X94399285Y-48329391D01*
X94603309Y-48384059D01*
X94614104Y-48385962D01*
X94824525Y-48404372D01*
X94835475Y-48404372D01*
X95045896Y-48385962D01*
X95056691Y-48384059D01*
X95260715Y-48329391D01*
X95271007Y-48325645D01*
X95462445Y-48236376D01*
X95471931Y-48230898D01*
X95515764Y-48200207D01*
X95524139Y-48189729D01*
X95517071Y-48176281D01*
X94842812Y-47502022D01*
X94828868Y-47494408D01*
X94827035Y-47494539D01*
X94820420Y-47498790D01*
X94142207Y-48177003D01*
X94135777Y-48188777D01*
X92992959Y-48188777D01*
X93105270Y-48110136D01*
X93105273Y-48110134D01*
X93109781Y-48106977D01*
X93266977Y-47949781D01*
X93290406Y-47916322D01*
X93391331Y-47772185D01*
X93391332Y-47772183D01*
X93394488Y-47767676D01*
X93396811Y-47762694D01*
X93396814Y-47762689D01*
X93446081Y-47657035D01*
X93492999Y-47603750D01*
X93561276Y-47584289D01*
X93629236Y-47604831D01*
X93674471Y-47657035D01*
X93723623Y-47762441D01*
X93729103Y-47771932D01*
X93759794Y-47815765D01*
X93770271Y-47824140D01*
X93783718Y-47817072D01*
X94457978Y-47142812D01*
X94464356Y-47131132D01*
X95194408Y-47131132D01*
X95194539Y-47132965D01*
X95198790Y-47139580D01*
X95877003Y-47817793D01*
X95888777Y-47824223D01*
X95900793Y-47814926D01*
X95930897Y-47771932D01*
X95936377Y-47762441D01*
X95985529Y-47657035D01*
X96032447Y-47603750D01*
X96100724Y-47584289D01*
X96168684Y-47604831D01*
X96213919Y-47657035D01*
X96263186Y-47762689D01*
X96263189Y-47762694D01*
X96265512Y-47767676D01*
X96268668Y-47772183D01*
X96268669Y-47772185D01*
X96369595Y-47916322D01*
X96393023Y-47949781D01*
X96550219Y-48106977D01*
X96554727Y-48110134D01*
X96554730Y-48110136D01*
X96630495Y-48163187D01*
X96732323Y-48234488D01*
X96737305Y-48236811D01*
X96737310Y-48236814D01*
X96879256Y-48303004D01*
X96933804Y-48328440D01*
X96939112Y-48329862D01*
X96939114Y-48329863D01*
X97004949Y-48347503D01*
X97148537Y-48385978D01*
X97370000Y-48405353D01*
X97591463Y-48385978D01*
X97735051Y-48347503D01*
X97800886Y-48329863D01*
X97800888Y-48329862D01*
X97806196Y-48328440D01*
X97860744Y-48303004D01*
X98002690Y-48236814D01*
X98002695Y-48236811D01*
X98007677Y-48234488D01*
X98109505Y-48163187D01*
X98185270Y-48110136D01*
X98185273Y-48110134D01*
X98189781Y-48106977D01*
X98346977Y-47949781D01*
X98370406Y-47916322D01*
X98471331Y-47772185D01*
X98471332Y-47772183D01*
X98474488Y-47767676D01*
X98476811Y-47762694D01*
X98476814Y-47762689D01*
X98566117Y-47571178D01*
X98566118Y-47571177D01*
X98568440Y-47566196D01*
X98578317Y-47529337D01*
X98587676Y-47494408D01*
X98625978Y-47351463D01*
X98645353Y-47130000D01*
X98625978Y-46908537D01*
X98568440Y-46693804D01*
X98513708Y-46576431D01*
X98476814Y-46497311D01*
X98476811Y-46497306D01*
X98474488Y-46492324D01*
X98471331Y-46487815D01*
X98350136Y-46314730D01*
X98350134Y-46314727D01*
X98346977Y-46310219D01*
X98189781Y-46153023D01*
X98185273Y-46149866D01*
X98185270Y-46149864D01*
X98109505Y-46096813D01*
X98007677Y-46025512D01*
X98002695Y-46023189D01*
X98002690Y-46023186D01*
X97811178Y-45933883D01*
X97811177Y-45933882D01*
X97806196Y-45931560D01*
X97800888Y-45930138D01*
X97800886Y-45930137D01*
X97706282Y-45904788D01*
X97591463Y-45874022D01*
X97370000Y-45854647D01*
X97148537Y-45874022D01*
X97033718Y-45904788D01*
X96939114Y-45930137D01*
X96939112Y-45930138D01*
X96933804Y-45931560D01*
X96928823Y-45933882D01*
X96928822Y-45933883D01*
X96737311Y-46023186D01*
X96737306Y-46023189D01*
X96732324Y-46025512D01*
X96727817Y-46028668D01*
X96727815Y-46028669D01*
X96554730Y-46149864D01*
X96554727Y-46149866D01*
X96550219Y-46153023D01*
X96393023Y-46310219D01*
X96389866Y-46314727D01*
X96389864Y-46314730D01*
X96268669Y-46487815D01*
X96265512Y-46492324D01*
X96263189Y-46497306D01*
X96263186Y-46497311D01*
X96213919Y-46602965D01*
X96167001Y-46656250D01*
X96098724Y-46675711D01*
X96030764Y-46655169D01*
X95985529Y-46602965D01*
X95936377Y-46497559D01*
X95930897Y-46488068D01*
X95900206Y-46444235D01*
X95889729Y-46435860D01*
X95876282Y-46442928D01*
X95202022Y-47117188D01*
X95194408Y-47131132D01*
X94464356Y-47131132D01*
X94465592Y-47128868D01*
X94465461Y-47127035D01*
X94461210Y-47120420D01*
X93782997Y-46442207D01*
X93771223Y-46435777D01*
X93759207Y-46445074D01*
X93729103Y-46488068D01*
X93723623Y-46497559D01*
X93674471Y-46602965D01*
X93627553Y-46656250D01*
X93559276Y-46675711D01*
X93491316Y-46655169D01*
X93446081Y-46602965D01*
X93396814Y-46497311D01*
X93396811Y-46497306D01*
X93394488Y-46492324D01*
X93391331Y-46487815D01*
X93270136Y-46314730D01*
X93270134Y-46314727D01*
X93266977Y-46310219D01*
X93109781Y-46153023D01*
X93105273Y-46149866D01*
X93105270Y-46149864D01*
X93029505Y-46096813D01*
X92991599Y-46070271D01*
X94135860Y-46070271D01*
X94142928Y-46083718D01*
X94817188Y-46757978D01*
X94831132Y-46765592D01*
X94832965Y-46765461D01*
X94839580Y-46761210D01*
X95517793Y-46082997D01*
X95524223Y-46071223D01*
X95514926Y-46059207D01*
X95471931Y-46029102D01*
X95462445Y-46023624D01*
X95271007Y-45934355D01*
X95260715Y-45930609D01*
X95056691Y-45875941D01*
X95045896Y-45874038D01*
X94835475Y-45855628D01*
X94824525Y-45855628D01*
X94614104Y-45874038D01*
X94603309Y-45875941D01*
X94399285Y-45930609D01*
X94388993Y-45934355D01*
X94197559Y-46023623D01*
X94188068Y-46029103D01*
X94144235Y-46059794D01*
X94135860Y-46070271D01*
X92991599Y-46070271D01*
X92927677Y-46025512D01*
X92922695Y-46023189D01*
X92922690Y-46023186D01*
X92731178Y-45933883D01*
X92731177Y-45933882D01*
X92726196Y-45931560D01*
X92720888Y-45930138D01*
X92720886Y-45930137D01*
X92626282Y-45904788D01*
X92511463Y-45874022D01*
X92290000Y-45854647D01*
X92068537Y-45874022D01*
X91953718Y-45904788D01*
X91859114Y-45930137D01*
X91859112Y-45930138D01*
X91853804Y-45931560D01*
X91848823Y-45933882D01*
X91848822Y-45933883D01*
X91657311Y-46023186D01*
X91657306Y-46023189D01*
X91652324Y-46025512D01*
X91647817Y-46028668D01*
X91647815Y-46028669D01*
X91474730Y-46149864D01*
X91474727Y-46149866D01*
X91470219Y-46153023D01*
X91313023Y-46310219D01*
X91309866Y-46314727D01*
X91309864Y-46314730D01*
X91188669Y-46487815D01*
X91185512Y-46492324D01*
X91183189Y-46497306D01*
X91183186Y-46497311D01*
X91146292Y-46576431D01*
X91091560Y-46693804D01*
X91034022Y-46908537D01*
X91014647Y-47130000D01*
X89890345Y-47130000D01*
X89906481Y-47109347D01*
X89906482Y-47109346D01*
X89909188Y-47105882D01*
X89911384Y-47102078D01*
X89911389Y-47102071D01*
X90047435Y-46866431D01*
X90049636Y-46862619D01*
X90154862Y-46602176D01*
X90161281Y-46576431D01*
X90221753Y-46333893D01*
X90221754Y-46333888D01*
X90222817Y-46329624D01*
X90224383Y-46314730D01*
X90251719Y-46054636D01*
X90251719Y-46054633D01*
X90252178Y-46050267D01*
X90252025Y-46045873D01*
X90242529Y-45773939D01*
X90242528Y-45773933D01*
X90242375Y-45769542D01*
X90218608Y-45634749D01*
X90215960Y-45619733D01*
X113187822Y-45619733D01*
X113187975Y-45624121D01*
X113187975Y-45624127D01*
X113196769Y-45875941D01*
X113197625Y-45900458D01*
X113198387Y-45904781D01*
X113198388Y-45904788D01*
X113227735Y-46071223D01*
X113246402Y-46177087D01*
X113333203Y-46444235D01*
X113335131Y-46448188D01*
X113335133Y-46448193D01*
X113359090Y-46497311D01*
X113456340Y-46696702D01*
X113458795Y-46700341D01*
X113458798Y-46700347D01*
X113481656Y-46734235D01*
X113613415Y-46929576D01*
X113616360Y-46932847D01*
X113616361Y-46932848D01*
X113707226Y-47033764D01*
X113801371Y-47138322D01*
X114016550Y-47318879D01*
X114254764Y-47467731D01*
X114511375Y-47581982D01*
X114781390Y-47659407D01*
X114785740Y-47660018D01*
X114785743Y-47660019D01*
X114888690Y-47674487D01*
X115059552Y-47698500D01*
X115270146Y-47698500D01*
X115272332Y-47698347D01*
X115272336Y-47698347D01*
X115475827Y-47684118D01*
X115475832Y-47684117D01*
X115480212Y-47683811D01*
X115754970Y-47625409D01*
X115759099Y-47623906D01*
X115759103Y-47623905D01*
X116014781Y-47530846D01*
X116014785Y-47530844D01*
X116018926Y-47529337D01*
X116266942Y-47397464D01*
X116270503Y-47394877D01*
X116490629Y-47234947D01*
X116490632Y-47234944D01*
X116494192Y-47232358D01*
X116696252Y-47037231D01*
X116869188Y-46815882D01*
X116871384Y-46812078D01*
X116871389Y-46812071D01*
X117007435Y-46576431D01*
X117009636Y-46572619D01*
X117114862Y-46312176D01*
X117148544Y-46177087D01*
X117181753Y-46043893D01*
X117181754Y-46043888D01*
X117182817Y-46039624D01*
X117183969Y-46028669D01*
X117211719Y-45764636D01*
X117211719Y-45764633D01*
X117212178Y-45760267D01*
X117207795Y-45634749D01*
X117202529Y-45483939D01*
X117202528Y-45483933D01*
X117202375Y-45479542D01*
X117178608Y-45344749D01*
X117157627Y-45225765D01*
X117153598Y-45202913D01*
X117066797Y-44935765D01*
X117057660Y-44917030D01*
X116979032Y-44755822D01*
X116943660Y-44683298D01*
X116941205Y-44679659D01*
X116941202Y-44679653D01*
X116849315Y-44543425D01*
X116786585Y-44450424D01*
X116783571Y-44447076D01*
X116601566Y-44244940D01*
X116598629Y-44241678D01*
X116565885Y-44214202D01*
X116417634Y-44089805D01*
X116383450Y-44061121D01*
X116145236Y-43912269D01*
X115888625Y-43798018D01*
X115618610Y-43720593D01*
X115614260Y-43719982D01*
X115614257Y-43719981D01*
X115511310Y-43705513D01*
X115340448Y-43681500D01*
X115129854Y-43681500D01*
X115127668Y-43681653D01*
X115127664Y-43681653D01*
X114924173Y-43695882D01*
X114924168Y-43695883D01*
X114919788Y-43696189D01*
X114645030Y-43754591D01*
X114640901Y-43756094D01*
X114640897Y-43756095D01*
X114385219Y-43849154D01*
X114385215Y-43849156D01*
X114381074Y-43850663D01*
X114133058Y-43982536D01*
X114129499Y-43985122D01*
X114129497Y-43985123D01*
X113912565Y-44142733D01*
X113905808Y-44147642D01*
X113902644Y-44150698D01*
X113902641Y-44150700D01*
X113813865Y-44236431D01*
X113703748Y-44342769D01*
X113619639Y-44450424D01*
X113540855Y-44551264D01*
X113530812Y-44564118D01*
X113528616Y-44567922D01*
X113528611Y-44567929D01*
X113430911Y-44737152D01*
X113390364Y-44807381D01*
X113285138Y-45067824D01*
X113284073Y-45072097D01*
X113284072Y-45072099D01*
X113223261Y-45316000D01*
X113217183Y-45340376D01*
X113216724Y-45344744D01*
X113216723Y-45344749D01*
X113188281Y-45615364D01*
X113187822Y-45619733D01*
X90215960Y-45619733D01*
X90194360Y-45497236D01*
X90193598Y-45492913D01*
X90106797Y-45225765D01*
X90102035Y-45216000D01*
X90031849Y-45072099D01*
X89983660Y-44973298D01*
X89981205Y-44969659D01*
X89981202Y-44969653D01*
X89871748Y-44807381D01*
X89826585Y-44740424D01*
X89775149Y-44683298D01*
X89656264Y-44551264D01*
X89638629Y-44531678D01*
X89423450Y-44351121D01*
X89185236Y-44202269D01*
X88928625Y-44088018D01*
X88658610Y-44010593D01*
X88654260Y-44009982D01*
X88654257Y-44009981D01*
X88532703Y-43992898D01*
X88380448Y-43971500D01*
X88169854Y-43971500D01*
X88167668Y-43971653D01*
X88167664Y-43971653D01*
X87964173Y-43985882D01*
X87964168Y-43985883D01*
X87959788Y-43986189D01*
X87685030Y-44044591D01*
X87680901Y-44046094D01*
X87680897Y-44046095D01*
X87425219Y-44139154D01*
X87425215Y-44139156D01*
X87421074Y-44140663D01*
X87173058Y-44272536D01*
X87169499Y-44275122D01*
X87169497Y-44275123D01*
X86956917Y-44429571D01*
X86945808Y-44437642D01*
X86942644Y-44440698D01*
X86942641Y-44440700D01*
X86932572Y-44450424D01*
X86743748Y-44632769D01*
X86570812Y-44854118D01*
X86568616Y-44857922D01*
X86568611Y-44857929D01*
X86496457Y-44982904D01*
X86430364Y-45097381D01*
X86325138Y-45357824D01*
X86324073Y-45362097D01*
X86324072Y-45362099D01*
X86259837Y-45619733D01*
X86257183Y-45630376D01*
X86256724Y-45634744D01*
X86256723Y-45634749D01*
X86229259Y-45896061D01*
X86227822Y-45909733D01*
X61208500Y-45909733D01*
X61208500Y-41929733D01*
X64387822Y-41929733D01*
X64387975Y-41934121D01*
X64387975Y-41934127D01*
X64397426Y-42204750D01*
X64397625Y-42210458D01*
X64398387Y-42214781D01*
X64398388Y-42214788D01*
X64422164Y-42349624D01*
X64446402Y-42487087D01*
X64533203Y-42754235D01*
X64535131Y-42758188D01*
X64535133Y-42758193D01*
X64567589Y-42824736D01*
X64656340Y-43006702D01*
X64658795Y-43010341D01*
X64658798Y-43010347D01*
X64671543Y-43029242D01*
X64813415Y-43239576D01*
X64816360Y-43242847D01*
X64816361Y-43242848D01*
X64834144Y-43262598D01*
X65001371Y-43448322D01*
X65216550Y-43628879D01*
X65454764Y-43777731D01*
X65711375Y-43891982D01*
X65715603Y-43893194D01*
X65715602Y-43893194D01*
X65968438Y-43965693D01*
X65981390Y-43969407D01*
X65985740Y-43970018D01*
X65985743Y-43970019D01*
X66074808Y-43982536D01*
X66259552Y-44008500D01*
X66470146Y-44008500D01*
X66472332Y-44008347D01*
X66472336Y-44008347D01*
X66675827Y-43994118D01*
X66675832Y-43994117D01*
X66680212Y-43993811D01*
X66954970Y-43935409D01*
X66959099Y-43933906D01*
X66959103Y-43933905D01*
X67214781Y-43840846D01*
X67214785Y-43840844D01*
X67218926Y-43839337D01*
X67466942Y-43707464D01*
X67482461Y-43696189D01*
X67690629Y-43544947D01*
X67690632Y-43544944D01*
X67694192Y-43542358D01*
X67896252Y-43347231D01*
X68069188Y-43125882D01*
X68071384Y-43122078D01*
X68071389Y-43122071D01*
X68207435Y-42886431D01*
X68209636Y-42882619D01*
X68239730Y-42808134D01*
X76111500Y-42808134D01*
X76118255Y-42870316D01*
X76169385Y-43006705D01*
X76256739Y-43123261D01*
X76373295Y-43210615D01*
X76509684Y-43261745D01*
X76571866Y-43268500D01*
X78368134Y-43268500D01*
X78430316Y-43261745D01*
X78566705Y-43210615D01*
X78683261Y-43123261D01*
X78770615Y-43006705D01*
X78792799Y-42947529D01*
X78814598Y-42889382D01*
X78857240Y-42832618D01*
X78923802Y-42807918D01*
X78993150Y-42823126D01*
X79027817Y-42851114D01*
X79056250Y-42883938D01*
X79228126Y-43026632D01*
X79421000Y-43139338D01*
X79629692Y-43219030D01*
X79634760Y-43220061D01*
X79634763Y-43220062D01*
X79712733Y-43235925D01*
X79848597Y-43263567D01*
X79853772Y-43263757D01*
X79853774Y-43263757D01*
X80066673Y-43271564D01*
X80066677Y-43271564D01*
X80071837Y-43271753D01*
X80076957Y-43271097D01*
X80076959Y-43271097D01*
X80288288Y-43244025D01*
X80288289Y-43244025D01*
X80293416Y-43243368D01*
X80299219Y-43241627D01*
X80502429Y-43180661D01*
X80502434Y-43180659D01*
X80507384Y-43179174D01*
X80592996Y-43137233D01*
X191877822Y-43137233D01*
X191877975Y-43141621D01*
X191877975Y-43141627D01*
X191886222Y-43377767D01*
X191887625Y-43417958D01*
X191888387Y-43422281D01*
X191888388Y-43422288D01*
X191912164Y-43557124D01*
X191936402Y-43694587D01*
X192023203Y-43961735D01*
X192025131Y-43965688D01*
X192025133Y-43965693D01*
X192073056Y-44063949D01*
X192146340Y-44214202D01*
X192148795Y-44217841D01*
X192148798Y-44217847D01*
X192211125Y-44310250D01*
X192303415Y-44447076D01*
X192306360Y-44450347D01*
X192306361Y-44450348D01*
X192309717Y-44454075D01*
X192491371Y-44655822D01*
X192494733Y-44658643D01*
X192494734Y-44658644D01*
X192528825Y-44687250D01*
X192706550Y-44836379D01*
X192944764Y-44985231D01*
X193201375Y-45099482D01*
X193471390Y-45176907D01*
X193475740Y-45177518D01*
X193475743Y-45177519D01*
X193578690Y-45191987D01*
X193749552Y-45216000D01*
X193960146Y-45216000D01*
X193962332Y-45215847D01*
X193962336Y-45215847D01*
X194165827Y-45201618D01*
X194165832Y-45201617D01*
X194170212Y-45201311D01*
X194444970Y-45142909D01*
X194449099Y-45141406D01*
X194449103Y-45141405D01*
X194704781Y-45048346D01*
X194704785Y-45048344D01*
X194708926Y-45046837D01*
X194956942Y-44914964D01*
X194960503Y-44912377D01*
X195180629Y-44752447D01*
X195180632Y-44752444D01*
X195184192Y-44749858D01*
X195190181Y-44744075D01*
X195376531Y-44564118D01*
X195386252Y-44554731D01*
X195547151Y-44348789D01*
X195556481Y-44336847D01*
X195556482Y-44336846D01*
X195559188Y-44333382D01*
X195561384Y-44329578D01*
X195561389Y-44329571D01*
X195697435Y-44093931D01*
X195699636Y-44090119D01*
X195804862Y-43829676D01*
X195812755Y-43798018D01*
X195871753Y-43561393D01*
X195871754Y-43561388D01*
X195872817Y-43557124D01*
X195874691Y-43539300D01*
X195901719Y-43282136D01*
X195901719Y-43282133D01*
X195902178Y-43277767D01*
X195901968Y-43271753D01*
X195900763Y-43237233D01*
X220497822Y-43237233D01*
X220497975Y-43241621D01*
X220497975Y-43241627D01*
X220505292Y-43451144D01*
X220507625Y-43517958D01*
X220508387Y-43522281D01*
X220508388Y-43522288D01*
X220532164Y-43657124D01*
X220556402Y-43794587D01*
X220643203Y-44061735D01*
X220645131Y-44065688D01*
X220645133Y-44065693D01*
X220683840Y-44145053D01*
X220766340Y-44314202D01*
X220768795Y-44317841D01*
X220768798Y-44317847D01*
X220841890Y-44426210D01*
X220923415Y-44547076D01*
X220926360Y-44550347D01*
X220926361Y-44550348D01*
X220933059Y-44557787D01*
X221111371Y-44755822D01*
X221326550Y-44936379D01*
X221564764Y-45085231D01*
X221821375Y-45199482D01*
X222091390Y-45276907D01*
X222095740Y-45277518D01*
X222095743Y-45277519D01*
X222198690Y-45291987D01*
X222369552Y-45316000D01*
X222580146Y-45316000D01*
X222582332Y-45315847D01*
X222582336Y-45315847D01*
X222785827Y-45301618D01*
X222785832Y-45301617D01*
X222790212Y-45301311D01*
X223064970Y-45242909D01*
X223069099Y-45241406D01*
X223069103Y-45241405D01*
X223324781Y-45148346D01*
X223324785Y-45148344D01*
X223328926Y-45146837D01*
X223576942Y-45014964D01*
X223580503Y-45012377D01*
X223800629Y-44852447D01*
X223800632Y-44852444D01*
X223804192Y-44849858D01*
X223821079Y-44833551D01*
X223910912Y-44746800D01*
X224006252Y-44654731D01*
X224179188Y-44433382D01*
X224181384Y-44429578D01*
X224181389Y-44429571D01*
X224317435Y-44193931D01*
X224319636Y-44190119D01*
X224424862Y-43929676D01*
X224444562Y-43850663D01*
X224491753Y-43661393D01*
X224491754Y-43661388D01*
X224492817Y-43657124D01*
X224503328Y-43557124D01*
X224521719Y-43382136D01*
X224521719Y-43382133D01*
X224522178Y-43377767D01*
X224522025Y-43373373D01*
X224512529Y-43101439D01*
X224512528Y-43101433D01*
X224512375Y-43097042D01*
X224508999Y-43077892D01*
X224474799Y-42883938D01*
X224463598Y-42820413D01*
X224376797Y-42553265D01*
X224346558Y-42491265D01*
X224265406Y-42324881D01*
X224253660Y-42300798D01*
X224251205Y-42297159D01*
X224251202Y-42297153D01*
X224108392Y-42085429D01*
X224096585Y-42067924D01*
X223908629Y-41859178D01*
X223693450Y-41678621D01*
X223455236Y-41529769D01*
X223258520Y-41442185D01*
X223202639Y-41417305D01*
X223202637Y-41417304D01*
X223198625Y-41415518D01*
X222928610Y-41338093D01*
X222924260Y-41337482D01*
X222924257Y-41337481D01*
X222821310Y-41323013D01*
X222650448Y-41299000D01*
X222439854Y-41299000D01*
X222437668Y-41299153D01*
X222437664Y-41299153D01*
X222234173Y-41313382D01*
X222234168Y-41313383D01*
X222229788Y-41313689D01*
X221955030Y-41372091D01*
X221950901Y-41373594D01*
X221950897Y-41373595D01*
X221695219Y-41466654D01*
X221695215Y-41466656D01*
X221691074Y-41468163D01*
X221443058Y-41600036D01*
X221439499Y-41602622D01*
X221439497Y-41602623D01*
X221224017Y-41759178D01*
X221215808Y-41765142D01*
X221013748Y-41960269D01*
X220840812Y-42181618D01*
X220838616Y-42185422D01*
X220838611Y-42185429D01*
X220760300Y-42321069D01*
X220700364Y-42424881D01*
X220595138Y-42685324D01*
X220594073Y-42689597D01*
X220594072Y-42689599D01*
X220529763Y-42947529D01*
X220527183Y-42957876D01*
X220526724Y-42962244D01*
X220526723Y-42962249D01*
X220500288Y-43213767D01*
X220497822Y-43237233D01*
X195900763Y-43237233D01*
X195892529Y-43001439D01*
X195892528Y-43001433D01*
X195892375Y-42997042D01*
X195884717Y-42953607D01*
X195860494Y-42816235D01*
X195843598Y-42720413D01*
X195756797Y-42453265D01*
X195738843Y-42416453D01*
X195684361Y-42304750D01*
X195633660Y-42200798D01*
X195631205Y-42197159D01*
X195631202Y-42197153D01*
X195550935Y-42078153D01*
X195476585Y-41967924D01*
X195469693Y-41960269D01*
X195291566Y-41762440D01*
X195288629Y-41759178D01*
X195073450Y-41578621D01*
X194835236Y-41429769D01*
X194578625Y-41315518D01*
X194335366Y-41245765D01*
X194312837Y-41239305D01*
X194312836Y-41239305D01*
X194308610Y-41238093D01*
X194304260Y-41237482D01*
X194304257Y-41237481D01*
X194201310Y-41223013D01*
X194030448Y-41199000D01*
X193819854Y-41199000D01*
X193817668Y-41199153D01*
X193817664Y-41199153D01*
X193614173Y-41213382D01*
X193614168Y-41213383D01*
X193609788Y-41213689D01*
X193335030Y-41272091D01*
X193330901Y-41273594D01*
X193330897Y-41273595D01*
X193075219Y-41366654D01*
X193075215Y-41366656D01*
X193071074Y-41368163D01*
X192823058Y-41500036D01*
X192819499Y-41502622D01*
X192819497Y-41502623D01*
X192610113Y-41654749D01*
X192595808Y-41665142D01*
X192592644Y-41668198D01*
X192592641Y-41668200D01*
X192567455Y-41692522D01*
X192393748Y-41860269D01*
X192220812Y-42081618D01*
X192218616Y-42085422D01*
X192218611Y-42085429D01*
X192148965Y-42206061D01*
X192080364Y-42324881D01*
X191975138Y-42585324D01*
X191974073Y-42589597D01*
X191974072Y-42589599D01*
X191908869Y-42851115D01*
X191907183Y-42857876D01*
X191906724Y-42862244D01*
X191906723Y-42862249D01*
X191879290Y-43123261D01*
X191877822Y-43137233D01*
X80592996Y-43137233D01*
X80707994Y-43080896D01*
X80889860Y-42951173D01*
X81048096Y-42793489D01*
X81178453Y-42612077D01*
X81189563Y-42589599D01*
X81275136Y-42416453D01*
X81275137Y-42416451D01*
X81277430Y-42411811D01*
X81342370Y-42198069D01*
X81371529Y-41976590D01*
X81371928Y-41960269D01*
X81373074Y-41913365D01*
X81373074Y-41913361D01*
X81373156Y-41910000D01*
X81354852Y-41687361D01*
X81300431Y-41470702D01*
X81211354Y-41265840D01*
X81115312Y-41117381D01*
X81092822Y-41082617D01*
X81092820Y-41082614D01*
X81090014Y-41078277D01*
X80939670Y-40913051D01*
X80935619Y-40909852D01*
X80935615Y-40909848D01*
X80796524Y-40800000D01*
X110034647Y-40800000D01*
X110054022Y-41021463D01*
X110111560Y-41236196D01*
X110113882Y-41241177D01*
X110113883Y-41241178D01*
X110203186Y-41432689D01*
X110203189Y-41432694D01*
X110205512Y-41437676D01*
X110208668Y-41442183D01*
X110208669Y-41442185D01*
X110317751Y-41597970D01*
X110333023Y-41619781D01*
X110490219Y-41776977D01*
X110494727Y-41780134D01*
X110494730Y-41780136D01*
X110514443Y-41793939D01*
X110672323Y-41904488D01*
X110677305Y-41906811D01*
X110677310Y-41906814D01*
X110868822Y-41996117D01*
X110873804Y-41998440D01*
X110879112Y-41999862D01*
X110879114Y-41999863D01*
X110944949Y-42017503D01*
X111088537Y-42055978D01*
X111310000Y-42075353D01*
X111531463Y-42055978D01*
X111675051Y-42017503D01*
X111740886Y-41999863D01*
X111740888Y-41999862D01*
X111746196Y-41998440D01*
X111751178Y-41996117D01*
X111942690Y-41906814D01*
X111942695Y-41906811D01*
X111947677Y-41904488D01*
X112105557Y-41793939D01*
X112125270Y-41780136D01*
X112125273Y-41780134D01*
X112129781Y-41776977D01*
X112286977Y-41619781D01*
X112302250Y-41597970D01*
X112411331Y-41442185D01*
X112411332Y-41442183D01*
X112414488Y-41437676D01*
X112416811Y-41432694D01*
X112416814Y-41432689D01*
X112445805Y-41370517D01*
X112492723Y-41317232D01*
X112561000Y-41297771D01*
X112628960Y-41318313D01*
X112674195Y-41370517D01*
X112703186Y-41432689D01*
X112703189Y-41432694D01*
X112705512Y-41437676D01*
X112708668Y-41442183D01*
X112708669Y-41442185D01*
X112817751Y-41597970D01*
X112833023Y-41619781D01*
X112990219Y-41776977D01*
X112994727Y-41780134D01*
X112994730Y-41780136D01*
X113014443Y-41793939D01*
X113172323Y-41904488D01*
X113177305Y-41906811D01*
X113177310Y-41906814D01*
X113368822Y-41996117D01*
X113373804Y-41998440D01*
X113379112Y-41999862D01*
X113379114Y-41999863D01*
X113444949Y-42017503D01*
X113588537Y-42055978D01*
X113810000Y-42075353D01*
X114031463Y-42055978D01*
X114175051Y-42017503D01*
X114240886Y-41999863D01*
X114240888Y-41999862D01*
X114246196Y-41998440D01*
X114251178Y-41996117D01*
X114442690Y-41906814D01*
X114442695Y-41906811D01*
X114447677Y-41904488D01*
X114605557Y-41793939D01*
X114625270Y-41780136D01*
X114625273Y-41780134D01*
X114629781Y-41776977D01*
X114786977Y-41619781D01*
X114802250Y-41597970D01*
X114911331Y-41442185D01*
X114911332Y-41442183D01*
X114914488Y-41437676D01*
X114916811Y-41432694D01*
X114916814Y-41432689D01*
X115006117Y-41241178D01*
X115006118Y-41241177D01*
X115008440Y-41236196D01*
X115065978Y-41021463D01*
X115085353Y-40800000D01*
X115065978Y-40578537D01*
X115027503Y-40434949D01*
X115009863Y-40369114D01*
X115009862Y-40369112D01*
X115008440Y-40363804D01*
X114979727Y-40302229D01*
X114916814Y-40167311D01*
X114916811Y-40167306D01*
X114914488Y-40162324D01*
X114846055Y-40064591D01*
X114790136Y-39984730D01*
X114790134Y-39984727D01*
X114786977Y-39980219D01*
X114629781Y-39823023D01*
X114625273Y-39819866D01*
X114625270Y-39819864D01*
X114549505Y-39766813D01*
X114447677Y-39695512D01*
X114442695Y-39693189D01*
X114442690Y-39693186D01*
X114251178Y-39603883D01*
X114251177Y-39603882D01*
X114246196Y-39601560D01*
X114240888Y-39600138D01*
X114240886Y-39600137D01*
X114175051Y-39582497D01*
X114031463Y-39544022D01*
X113810000Y-39524647D01*
X113588537Y-39544022D01*
X113444949Y-39582497D01*
X113379114Y-39600137D01*
X113379112Y-39600138D01*
X113373804Y-39601560D01*
X113368823Y-39603882D01*
X113368822Y-39603883D01*
X113177311Y-39693186D01*
X113177306Y-39693189D01*
X113172324Y-39695512D01*
X113167817Y-39698668D01*
X113167815Y-39698669D01*
X112994730Y-39819864D01*
X112994727Y-39819866D01*
X112990219Y-39823023D01*
X112833023Y-39980219D01*
X112829866Y-39984727D01*
X112829864Y-39984730D01*
X112773945Y-40064591D01*
X112705512Y-40162324D01*
X112703189Y-40167306D01*
X112703186Y-40167311D01*
X112674195Y-40229483D01*
X112627277Y-40282768D01*
X112559000Y-40302229D01*
X112491040Y-40281687D01*
X112445805Y-40229483D01*
X112416814Y-40167311D01*
X112416811Y-40167306D01*
X112414488Y-40162324D01*
X112346055Y-40064591D01*
X112290136Y-39984730D01*
X112290134Y-39984727D01*
X112286977Y-39980219D01*
X112129781Y-39823023D01*
X112125273Y-39819866D01*
X112125270Y-39819864D01*
X112049505Y-39766813D01*
X111947677Y-39695512D01*
X111942695Y-39693189D01*
X111942690Y-39693186D01*
X111751178Y-39603883D01*
X111751177Y-39603882D01*
X111746196Y-39601560D01*
X111740888Y-39600138D01*
X111740886Y-39600137D01*
X111675051Y-39582497D01*
X111531463Y-39544022D01*
X111310000Y-39524647D01*
X111088537Y-39544022D01*
X110944949Y-39582497D01*
X110879114Y-39600137D01*
X110879112Y-39600138D01*
X110873804Y-39601560D01*
X110868823Y-39603882D01*
X110868822Y-39603883D01*
X110677311Y-39693186D01*
X110677306Y-39693189D01*
X110672324Y-39695512D01*
X110667817Y-39698668D01*
X110667815Y-39698669D01*
X110494730Y-39819864D01*
X110494727Y-39819866D01*
X110490219Y-39823023D01*
X110333023Y-39980219D01*
X110329866Y-39984727D01*
X110329864Y-39984730D01*
X110273945Y-40064591D01*
X110205512Y-40162324D01*
X110203189Y-40167306D01*
X110203186Y-40167311D01*
X110140273Y-40302229D01*
X110111560Y-40363804D01*
X110110138Y-40369112D01*
X110110137Y-40369114D01*
X110092497Y-40434949D01*
X110054022Y-40578537D01*
X110034647Y-40800000D01*
X80796524Y-40800000D01*
X80768414Y-40777800D01*
X80768410Y-40777798D01*
X80764359Y-40774598D01*
X80732756Y-40757152D01*
X80712136Y-40745769D01*
X80568789Y-40666638D01*
X80563920Y-40664914D01*
X80563916Y-40664912D01*
X80363087Y-40593795D01*
X80363083Y-40593794D01*
X80358212Y-40592069D01*
X80353119Y-40591162D01*
X80353116Y-40591161D01*
X80143373Y-40553800D01*
X80143367Y-40553799D01*
X80138284Y-40552894D01*
X80064452Y-40551992D01*
X79920081Y-40550228D01*
X79920079Y-40550228D01*
X79914911Y-40550165D01*
X79694091Y-40583955D01*
X79481756Y-40653357D01*
X79283607Y-40756507D01*
X79279474Y-40759610D01*
X79279471Y-40759612D01*
X79109100Y-40887530D01*
X79104965Y-40890635D01*
X79048537Y-40949684D01*
X79024283Y-40975064D01*
X78962759Y-41010494D01*
X78891846Y-41007037D01*
X78834060Y-40965791D01*
X78815207Y-40932243D01*
X78773767Y-40821703D01*
X78770615Y-40813295D01*
X78683261Y-40696739D01*
X78566705Y-40609385D01*
X78430316Y-40558255D01*
X78368134Y-40551500D01*
X76571866Y-40551500D01*
X76509684Y-40558255D01*
X76373295Y-40609385D01*
X76256739Y-40696739D01*
X76169385Y-40813295D01*
X76118255Y-40949684D01*
X76111500Y-41011866D01*
X76111500Y-42808134D01*
X68239730Y-42808134D01*
X68314862Y-42622176D01*
X68318537Y-42607438D01*
X68381753Y-42353893D01*
X68381754Y-42353888D01*
X68382817Y-42349624D01*
X68385819Y-42321069D01*
X68411719Y-42074636D01*
X68411719Y-42074633D01*
X68412178Y-42070267D01*
X68411679Y-42055978D01*
X68402529Y-41793939D01*
X68402528Y-41793933D01*
X68402375Y-41789542D01*
X68400717Y-41780136D01*
X68354360Y-41517236D01*
X68353598Y-41512913D01*
X68266797Y-41245765D01*
X68263647Y-41239305D01*
X68157397Y-41021463D01*
X68143660Y-40993298D01*
X68141205Y-40989659D01*
X68141202Y-40989653D01*
X68027918Y-40821703D01*
X67986585Y-40760424D01*
X67900586Y-40664912D01*
X67801566Y-40554940D01*
X67798629Y-40551678D01*
X67583450Y-40371121D01*
X67345236Y-40222269D01*
X67088625Y-40108018D01*
X66818610Y-40030593D01*
X66814260Y-40029982D01*
X66814257Y-40029981D01*
X66711310Y-40015513D01*
X66540448Y-39991500D01*
X66329854Y-39991500D01*
X66327668Y-39991653D01*
X66327664Y-39991653D01*
X66124173Y-40005882D01*
X66124168Y-40005883D01*
X66119788Y-40006189D01*
X65845030Y-40064591D01*
X65840901Y-40066094D01*
X65840897Y-40066095D01*
X65585219Y-40159154D01*
X65585215Y-40159156D01*
X65581074Y-40160663D01*
X65333058Y-40292536D01*
X65329499Y-40295122D01*
X65329497Y-40295123D01*
X65224895Y-40371121D01*
X65105808Y-40457642D01*
X64903748Y-40652769D01*
X64730812Y-40874118D01*
X64728616Y-40877922D01*
X64728611Y-40877929D01*
X64628032Y-41052138D01*
X64590364Y-41117381D01*
X64485138Y-41377824D01*
X64484073Y-41382097D01*
X64484072Y-41382099D01*
X64423840Y-41623678D01*
X64417183Y-41650376D01*
X64416724Y-41654744D01*
X64416723Y-41654749D01*
X64394758Y-41863736D01*
X64387822Y-41929733D01*
X61208500Y-41929733D01*
X61208500Y-37234500D01*
X61228502Y-37166379D01*
X61282158Y-37119886D01*
X61334500Y-37108500D01*
X228465500Y-37108500D01*
X228533621Y-37128502D01*
G37*
%TD.AperFunction*%
%TD*%
M02*
