%TF.GenerationSoftware,KiCad,Pcbnew,(6.0.9-0)*%
%TF.CreationDate,2022-11-09T23:01:56-06:00*%
%TF.ProjectId,CluePCB,436c7565-5043-4422-9e6b-696361645f70,1*%
%TF.SameCoordinates,Original*%
%TF.FileFunction,Drillmap*%
%TF.FilePolarity,Positive*%
%FSLAX45Y45*%
G04 Gerber Fmt 4.5, Leading zero omitted, Abs format (unit mm)*
G04 Created by KiCad (PCBNEW (6.0.9-0)) date 2022-11-09 23:01:56*
%MOMM*%
%LPD*%
G01*
G04 APERTURE LIST*
%ADD10C,0.100000*%
%ADD11C,0.200000*%
%ADD12C,0.040000*%
%ADD13C,0.076200*%
%ADD14C,0.080000*%
G04 APERTURE END LIST*
D10*
X6070000Y-3660000D02*
X22910000Y-3660000D01*
X22910000Y-3660000D02*
X22910000Y-14620000D01*
X22910000Y-14620000D02*
X6070000Y-14620000D01*
X6070000Y-14620000D02*
X6070000Y-3660000D01*
D11*
D12*
X11791000Y-13188000D02*
X11831000Y-13228000D01*
X11831000Y-13188000D02*
X11791000Y-13228000D01*
D13*
X8737100Y-5483000D02*
G75*
G03*
X8737100Y-5483000I-38100J0D01*
G01*
X8737100Y-5734000D02*
G75*
G03*
X8737100Y-5734000I-38100J0D01*
G01*
X9267100Y-4713000D02*
G75*
G03*
X9267100Y-4713000I-38100J0D01*
G01*
X9457100Y-10496000D02*
G75*
G03*
X9457100Y-10496000I-38100J0D01*
G01*
X9457100Y-10757000D02*
G75*
G03*
X9457100Y-10757000I-38100J0D01*
G01*
X9457100Y-11014000D02*
G75*
G03*
X9457100Y-11014000I-38100J0D01*
G01*
X9461100Y-9734000D02*
G75*
G03*
X9461100Y-9734000I-38100J0D01*
G01*
X9461100Y-10249000D02*
G75*
G03*
X9461100Y-10249000I-38100J0D01*
G01*
X9465100Y-9995000D02*
G75*
G03*
X9465100Y-9995000I-38100J0D01*
G01*
X9521100Y-4713000D02*
G75*
G03*
X9521100Y-4713000I-38100J0D01*
G01*
X9775100Y-4713000D02*
G75*
G03*
X9775100Y-4713000I-38100J0D01*
G01*
X10874100Y-10184000D02*
G75*
G03*
X10874100Y-10184000I-38100J0D01*
G01*
X10874100Y-10543000D02*
G75*
G03*
X10874100Y-10543000I-38100J0D01*
G01*
X11039100Y-5353000D02*
G75*
G03*
X11039100Y-5353000I-38100J0D01*
G01*
X11039100Y-5604000D02*
G75*
G03*
X11039100Y-5604000I-38100J0D01*
G01*
X11169100Y-4080000D02*
G75*
G03*
X11169100Y-4080000I-38100J0D01*
G01*
X11419100Y-4080000D02*
G75*
G03*
X11419100Y-4080000I-38100J0D01*
G01*
D14*
X10672000Y-12406000D02*
X10672000Y-12486000D01*
X10632000Y-12446000D02*
X10712000Y-12446000D01*
X11172000Y-12406000D02*
X11172000Y-12486000D01*
X11132000Y-12446000D02*
X11212000Y-12446000D01*
X13212000Y-12533000D02*
X13212000Y-12613000D01*
X13172000Y-12573000D02*
X13252000Y-12573000D01*
X13712000Y-12533000D02*
X13712000Y-12613000D01*
X13672000Y-12573000D02*
X13752000Y-12573000D01*
D10*
X6447856Y-5055356D02*
X6447856Y-4984644D01*
X6377144Y-4984644D01*
X6377144Y-5055356D01*
X6447856Y-5055356D01*
X6701856Y-5055356D02*
X6701856Y-4984644D01*
X6631144Y-4984644D01*
X6631144Y-5055356D01*
X6701856Y-5055356D01*
X7782356Y-4226356D02*
X7782356Y-4155644D01*
X7711644Y-4155644D01*
X7711644Y-4226356D01*
X7782356Y-4226356D01*
X8036356Y-4226356D02*
X8036356Y-4155644D01*
X7965644Y-4155644D01*
X7965644Y-4226356D01*
X8036356Y-4226356D01*
X11028856Y-6735356D02*
X11028856Y-6664644D01*
X10958144Y-6664644D01*
X10958144Y-6735356D01*
X11028856Y-6735356D01*
X11282856Y-6735356D02*
X11282856Y-6664644D01*
X11212144Y-6664644D01*
X11212144Y-6735356D01*
X11282856Y-6735356D01*
X12906356Y-11554356D02*
X12906356Y-11483644D01*
X12835644Y-11483644D01*
X12835644Y-11554356D01*
X12906356Y-11554356D01*
X13160356Y-11554356D02*
X13160356Y-11483644D01*
X13089644Y-11483644D01*
X13089644Y-11554356D01*
X13160356Y-11554356D01*
X13350856Y-13743356D02*
X13350856Y-13672644D01*
X13280144Y-13672644D01*
X13280144Y-13743356D01*
X13350856Y-13743356D01*
X13414356Y-11554356D02*
X13414356Y-11483644D01*
X13343644Y-11483644D01*
X13343644Y-11554356D01*
X13414356Y-11554356D01*
X13604856Y-13743356D02*
X13604856Y-13672644D01*
X13534144Y-13672644D01*
X13534144Y-13743356D01*
X13604856Y-13743356D01*
X13668356Y-11554356D02*
X13668356Y-11483644D01*
X13597644Y-11483644D01*
X13597644Y-11554356D01*
X13668356Y-11554356D01*
X13922356Y-11554356D02*
X13922356Y-11483644D01*
X13851644Y-11483644D01*
X13851644Y-11554356D01*
X13922356Y-11554356D01*
X14176356Y-11554356D02*
X14176356Y-11483644D01*
X14105644Y-11483644D01*
X14105644Y-11554356D01*
X14176356Y-11554356D01*
X14430356Y-11554356D02*
X14430356Y-11483644D01*
X14359644Y-11483644D01*
X14359644Y-11554356D01*
X14430356Y-11554356D01*
X14684356Y-11554356D02*
X14684356Y-11483644D01*
X14613644Y-11483644D01*
X14613644Y-11554356D01*
X14684356Y-11554356D01*
X14938356Y-11554356D02*
X14938356Y-11483644D01*
X14867644Y-11483644D01*
X14867644Y-11554356D01*
X14938356Y-11554356D01*
X15192356Y-11554356D02*
X15192356Y-11483644D01*
X15121644Y-11483644D01*
X15121644Y-11554356D01*
X15192356Y-11554356D01*
X15446356Y-11554356D02*
X15446356Y-11483644D01*
X15375644Y-11483644D01*
X15375644Y-11554356D01*
X15446356Y-11554356D01*
X15700356Y-11554356D02*
X15700356Y-11483644D01*
X15629644Y-11483644D01*
X15629644Y-11554356D01*
X15700356Y-11554356D01*
X15954356Y-11554356D02*
X15954356Y-11483644D01*
X15883644Y-11483644D01*
X15883644Y-11554356D01*
X15954356Y-11554356D01*
X16208356Y-11554356D02*
X16208356Y-11483644D01*
X16137644Y-11483644D01*
X16137644Y-11554356D01*
X16208356Y-11554356D01*
X16462356Y-11554356D02*
X16462356Y-11483644D01*
X16391644Y-11483644D01*
X16391644Y-11554356D01*
X16462356Y-11554356D01*
X16716356Y-11554356D02*
X16716356Y-11483644D01*
X16645644Y-11483644D01*
X16645644Y-11554356D01*
X16716356Y-11554356D01*
X16970356Y-11554356D02*
X16970356Y-11483644D01*
X16899644Y-11483644D01*
X16899644Y-11554356D01*
X16970356Y-11554356D01*
X17224356Y-11554356D02*
X17224356Y-11483644D01*
X17153644Y-11483644D01*
X17153644Y-11554356D01*
X17224356Y-11554356D01*
X17478356Y-11554356D02*
X17478356Y-11483644D01*
X17407644Y-11483644D01*
X17407644Y-11554356D01*
X17478356Y-11554356D01*
X17732356Y-11554356D02*
X17732356Y-11483644D01*
X17661644Y-11483644D01*
X17661644Y-11554356D01*
X17732356Y-11554356D01*
X17986356Y-11554356D02*
X17986356Y-11483644D01*
X17915644Y-11483644D01*
X17915644Y-11554356D01*
X17986356Y-11554356D01*
X18240356Y-11554356D02*
X18240356Y-11483644D01*
X18169644Y-11483644D01*
X18169644Y-11554356D01*
X18240356Y-11554356D01*
X19320356Y-5521106D02*
X19320356Y-5450394D01*
X19249644Y-5450394D01*
X19249644Y-5521106D01*
X19320356Y-5521106D01*
X19320356Y-5775106D02*
X19320356Y-5704394D01*
X19249644Y-5704394D01*
X19249644Y-5775106D01*
X19320356Y-5775106D01*
X19320356Y-6029106D02*
X19320356Y-5958394D01*
X19249644Y-5958394D01*
X19249644Y-6029106D01*
X19320356Y-6029106D01*
X19320356Y-6283106D02*
X19320356Y-6212394D01*
X19249644Y-6212394D01*
X19249644Y-6283106D01*
X19320356Y-6283106D01*
X19320356Y-6537106D02*
X19320356Y-6466394D01*
X19249644Y-6466394D01*
X19249644Y-6537106D01*
X19320356Y-6537106D01*
X19320356Y-6791106D02*
X19320356Y-6720394D01*
X19249644Y-6720394D01*
X19249644Y-6791106D01*
X19320356Y-6791106D01*
X19320356Y-7045106D02*
X19320356Y-6974394D01*
X19249644Y-6974394D01*
X19249644Y-7045106D01*
X19320356Y-7045106D01*
X19320356Y-7299106D02*
X19320356Y-7228394D01*
X19249644Y-7228394D01*
X19249644Y-7299106D01*
X19320356Y-7299106D01*
X20019356Y-9085356D02*
X20019356Y-9014644D01*
X19948644Y-9014644D01*
X19948644Y-9085356D01*
X20019356Y-9085356D01*
X20019356Y-9339356D02*
X20019356Y-9268644D01*
X19948644Y-9268644D01*
X19948644Y-9339356D01*
X20019356Y-9339356D01*
X20019356Y-9593356D02*
X20019356Y-9522644D01*
X19948644Y-9522644D01*
X19948644Y-9593356D01*
X20019356Y-9593356D01*
X20019356Y-9847356D02*
X20019356Y-9776644D01*
X19948644Y-9776644D01*
X19948644Y-9847356D01*
X20019356Y-9847356D01*
X20019356Y-10101356D02*
X20019356Y-10030644D01*
X19948644Y-10030644D01*
X19948644Y-10101356D01*
X20019356Y-10101356D01*
X20019356Y-10355356D02*
X20019356Y-10284644D01*
X19948644Y-10284644D01*
X19948644Y-10355356D01*
X20019356Y-10355356D01*
X20019356Y-10609356D02*
X20019356Y-10538644D01*
X19948644Y-10538644D01*
X19948644Y-10609356D01*
X20019356Y-10609356D01*
X20019356Y-10863356D02*
X20019356Y-10792644D01*
X19948644Y-10792644D01*
X19948644Y-10863356D01*
X20019356Y-10863356D01*
X20019356Y-11117356D02*
X20019356Y-11046644D01*
X19948644Y-11046644D01*
X19948644Y-11117356D01*
X20019356Y-11117356D01*
X22374356Y-6032106D02*
X22374356Y-5961394D01*
X22303644Y-5961394D01*
X22303644Y-6032106D01*
X22374356Y-6032106D01*
X22374356Y-6286106D02*
X22374356Y-6215394D01*
X22303644Y-6215394D01*
X22303644Y-6286106D01*
X22374356Y-6286106D01*
X22374356Y-6540106D02*
X22374356Y-6469394D01*
X22303644Y-6469394D01*
X22303644Y-6540106D01*
X22374356Y-6540106D01*
X22374356Y-6794106D02*
X22374356Y-6723394D01*
X22303644Y-6723394D01*
X22303644Y-6794106D01*
X22374356Y-6794106D01*
X22374356Y-7048106D02*
X22374356Y-6977394D01*
X22303644Y-6977394D01*
X22303644Y-7048106D01*
X22374356Y-7048106D01*
X22374356Y-7302106D02*
X22374356Y-7231394D01*
X22303644Y-7231394D01*
X22303644Y-7302106D01*
X22374356Y-7302106D01*
X22374356Y-7556106D02*
X22374356Y-7485394D01*
X22303644Y-7485394D01*
X22303644Y-7556106D01*
X22374356Y-7556106D01*
X22559356Y-9089356D02*
X22559356Y-9018644D01*
X22488644Y-9018644D01*
X22488644Y-9089356D01*
X22559356Y-9089356D01*
X22559356Y-9343356D02*
X22559356Y-9272644D01*
X22488644Y-9272644D01*
X22488644Y-9343356D01*
X22559356Y-9343356D01*
X22559356Y-9597356D02*
X22559356Y-9526644D01*
X22488644Y-9526644D01*
X22488644Y-9597356D01*
X22559356Y-9597356D01*
X22559356Y-9851356D02*
X22559356Y-9780644D01*
X22488644Y-9780644D01*
X22488644Y-9851356D01*
X22559356Y-9851356D01*
X22559356Y-10105356D02*
X22559356Y-10034644D01*
X22488644Y-10034644D01*
X22488644Y-10105356D01*
X22559356Y-10105356D01*
D11*
X6322619Y-14935476D02*
X6322619Y-14735476D01*
X6370238Y-14735476D01*
X6398809Y-14745000D01*
X6417857Y-14764048D01*
X6427381Y-14783095D01*
X6436905Y-14821190D01*
X6436905Y-14849762D01*
X6427381Y-14887857D01*
X6417857Y-14906905D01*
X6398809Y-14925952D01*
X6370238Y-14935476D01*
X6322619Y-14935476D01*
X6522619Y-14935476D02*
X6522619Y-14802143D01*
X6522619Y-14840238D02*
X6532143Y-14821190D01*
X6541667Y-14811667D01*
X6560714Y-14802143D01*
X6579762Y-14802143D01*
X6646428Y-14935476D02*
X6646428Y-14802143D01*
X6646428Y-14735476D02*
X6636905Y-14745000D01*
X6646428Y-14754524D01*
X6655952Y-14745000D01*
X6646428Y-14735476D01*
X6646428Y-14754524D01*
X6770238Y-14935476D02*
X6751190Y-14925952D01*
X6741667Y-14906905D01*
X6741667Y-14735476D01*
X6875000Y-14935476D02*
X6855952Y-14925952D01*
X6846428Y-14906905D01*
X6846428Y-14735476D01*
X7103571Y-14935476D02*
X7103571Y-14735476D01*
X7170238Y-14878333D01*
X7236905Y-14735476D01*
X7236905Y-14935476D01*
X7417857Y-14935476D02*
X7417857Y-14830714D01*
X7408333Y-14811667D01*
X7389286Y-14802143D01*
X7351190Y-14802143D01*
X7332143Y-14811667D01*
X7417857Y-14925952D02*
X7398809Y-14935476D01*
X7351190Y-14935476D01*
X7332143Y-14925952D01*
X7322619Y-14906905D01*
X7322619Y-14887857D01*
X7332143Y-14868809D01*
X7351190Y-14859286D01*
X7398809Y-14859286D01*
X7417857Y-14849762D01*
X7513095Y-14802143D02*
X7513095Y-15002143D01*
X7513095Y-14811667D02*
X7532143Y-14802143D01*
X7570238Y-14802143D01*
X7589286Y-14811667D01*
X7598809Y-14821190D01*
X7608333Y-14840238D01*
X7608333Y-14897381D01*
X7598809Y-14916428D01*
X7589286Y-14925952D01*
X7570238Y-14935476D01*
X7532143Y-14935476D01*
X7513095Y-14925952D01*
X7694048Y-14916428D02*
X7703571Y-14925952D01*
X7694048Y-14935476D01*
X7684524Y-14925952D01*
X7694048Y-14916428D01*
X7694048Y-14935476D01*
X7694048Y-14811667D02*
X7703571Y-14821190D01*
X7694048Y-14830714D01*
X7684524Y-14821190D01*
X7694048Y-14811667D01*
X7694048Y-14830714D01*
D12*
X6025000Y-15245000D02*
X6065000Y-15285000D01*
X6065000Y-15245000D02*
X6025000Y-15285000D01*
D11*
X6360714Y-15155476D02*
X6379762Y-15155476D01*
X6398809Y-15165000D01*
X6408333Y-15174524D01*
X6417857Y-15193571D01*
X6427381Y-15231667D01*
X6427381Y-15279286D01*
X6417857Y-15317381D01*
X6408333Y-15336428D01*
X6398809Y-15345952D01*
X6379762Y-15355476D01*
X6360714Y-15355476D01*
X6341667Y-15345952D01*
X6332143Y-15336428D01*
X6322619Y-15317381D01*
X6313095Y-15279286D01*
X6313095Y-15231667D01*
X6322619Y-15193571D01*
X6332143Y-15174524D01*
X6341667Y-15165000D01*
X6360714Y-15155476D01*
X6513095Y-15336428D02*
X6522619Y-15345952D01*
X6513095Y-15355476D01*
X6503571Y-15345952D01*
X6513095Y-15336428D01*
X6513095Y-15355476D01*
X6694048Y-15222143D02*
X6694048Y-15355476D01*
X6646428Y-15145952D02*
X6598809Y-15288809D01*
X6722619Y-15288809D01*
X6836905Y-15155476D02*
X6855952Y-15155476D01*
X6875000Y-15165000D01*
X6884524Y-15174524D01*
X6894048Y-15193571D01*
X6903571Y-15231667D01*
X6903571Y-15279286D01*
X6894048Y-15317381D01*
X6884524Y-15336428D01*
X6875000Y-15345952D01*
X6855952Y-15355476D01*
X6836905Y-15355476D01*
X6817857Y-15345952D01*
X6808333Y-15336428D01*
X6798809Y-15317381D01*
X6789286Y-15279286D01*
X6789286Y-15231667D01*
X6798809Y-15193571D01*
X6808333Y-15174524D01*
X6817857Y-15165000D01*
X6836905Y-15155476D01*
X7027381Y-15155476D02*
X7046428Y-15155476D01*
X7065476Y-15165000D01*
X7075000Y-15174524D01*
X7084524Y-15193571D01*
X7094048Y-15231667D01*
X7094048Y-15279286D01*
X7084524Y-15317381D01*
X7075000Y-15336428D01*
X7065476Y-15345952D01*
X7046428Y-15355476D01*
X7027381Y-15355476D01*
X7008333Y-15345952D01*
X6998809Y-15336428D01*
X6989286Y-15317381D01*
X6979762Y-15279286D01*
X6979762Y-15231667D01*
X6989286Y-15193571D01*
X6998809Y-15174524D01*
X7008333Y-15165000D01*
X7027381Y-15155476D01*
X7179762Y-15355476D02*
X7179762Y-15222143D01*
X7179762Y-15241190D02*
X7189286Y-15231667D01*
X7208333Y-15222143D01*
X7236905Y-15222143D01*
X7255952Y-15231667D01*
X7265476Y-15250714D01*
X7265476Y-15355476D01*
X7265476Y-15250714D02*
X7275000Y-15231667D01*
X7294048Y-15222143D01*
X7322619Y-15222143D01*
X7341667Y-15231667D01*
X7351190Y-15250714D01*
X7351190Y-15355476D01*
X7446428Y-15355476D02*
X7446428Y-15222143D01*
X7446428Y-15241190D02*
X7455952Y-15231667D01*
X7475000Y-15222143D01*
X7503571Y-15222143D01*
X7522619Y-15231667D01*
X7532143Y-15250714D01*
X7532143Y-15355476D01*
X7532143Y-15250714D02*
X7541667Y-15231667D01*
X7560714Y-15222143D01*
X7589286Y-15222143D01*
X7608333Y-15231667D01*
X7617857Y-15250714D01*
X7617857Y-15355476D01*
X8008333Y-15145952D02*
X7836905Y-15403095D01*
X8265476Y-15155476D02*
X8284524Y-15155476D01*
X8303571Y-15165000D01*
X8313095Y-15174524D01*
X8322619Y-15193571D01*
X8332143Y-15231667D01*
X8332143Y-15279286D01*
X8322619Y-15317381D01*
X8313095Y-15336428D01*
X8303571Y-15345952D01*
X8284524Y-15355476D01*
X8265476Y-15355476D01*
X8246428Y-15345952D01*
X8236905Y-15336428D01*
X8227381Y-15317381D01*
X8217857Y-15279286D01*
X8217857Y-15231667D01*
X8227381Y-15193571D01*
X8236905Y-15174524D01*
X8246428Y-15165000D01*
X8265476Y-15155476D01*
X8417857Y-15336428D02*
X8427381Y-15345952D01*
X8417857Y-15355476D01*
X8408333Y-15345952D01*
X8417857Y-15336428D01*
X8417857Y-15355476D01*
X8551190Y-15155476D02*
X8570238Y-15155476D01*
X8589286Y-15165000D01*
X8598810Y-15174524D01*
X8608333Y-15193571D01*
X8617857Y-15231667D01*
X8617857Y-15279286D01*
X8608333Y-15317381D01*
X8598810Y-15336428D01*
X8589286Y-15345952D01*
X8570238Y-15355476D01*
X8551190Y-15355476D01*
X8532143Y-15345952D01*
X8522619Y-15336428D01*
X8513095Y-15317381D01*
X8503571Y-15279286D01*
X8503571Y-15231667D01*
X8513095Y-15193571D01*
X8522619Y-15174524D01*
X8532143Y-15165000D01*
X8551190Y-15155476D01*
X8808333Y-15355476D02*
X8694048Y-15355476D01*
X8751190Y-15355476D02*
X8751190Y-15155476D01*
X8732143Y-15184048D01*
X8713095Y-15203095D01*
X8694048Y-15212619D01*
X8989286Y-15155476D02*
X8894048Y-15155476D01*
X8884524Y-15250714D01*
X8894048Y-15241190D01*
X8913095Y-15231667D01*
X8960714Y-15231667D01*
X8979762Y-15241190D01*
X8989286Y-15250714D01*
X8998810Y-15269762D01*
X8998810Y-15317381D01*
X8989286Y-15336428D01*
X8979762Y-15345952D01*
X8960714Y-15355476D01*
X8913095Y-15355476D01*
X8894048Y-15345952D01*
X8884524Y-15336428D01*
X9065476Y-15155476D02*
X9198810Y-15155476D01*
X9113095Y-15355476D01*
X9265476Y-15155476D02*
X9265476Y-15193571D01*
X9341667Y-15155476D02*
X9341667Y-15193571D01*
X9636905Y-15431667D02*
X9627381Y-15422143D01*
X9608333Y-15393571D01*
X9598810Y-15374524D01*
X9589286Y-15345952D01*
X9579762Y-15298333D01*
X9579762Y-15260238D01*
X9589286Y-15212619D01*
X9598810Y-15184048D01*
X9608333Y-15165000D01*
X9627381Y-15136428D01*
X9636905Y-15126905D01*
X9817857Y-15355476D02*
X9703571Y-15355476D01*
X9760714Y-15355476D02*
X9760714Y-15155476D01*
X9741667Y-15184048D01*
X9722619Y-15203095D01*
X9703571Y-15212619D01*
X10055952Y-15355476D02*
X10055952Y-15155476D01*
X10141667Y-15355476D02*
X10141667Y-15250714D01*
X10132143Y-15231667D01*
X10113095Y-15222143D01*
X10084524Y-15222143D01*
X10065476Y-15231667D01*
X10055952Y-15241190D01*
X10265476Y-15355476D02*
X10246429Y-15345952D01*
X10236905Y-15336428D01*
X10227381Y-15317381D01*
X10227381Y-15260238D01*
X10236905Y-15241190D01*
X10246429Y-15231667D01*
X10265476Y-15222143D01*
X10294048Y-15222143D01*
X10313095Y-15231667D01*
X10322619Y-15241190D01*
X10332143Y-15260238D01*
X10332143Y-15317381D01*
X10322619Y-15336428D01*
X10313095Y-15345952D01*
X10294048Y-15355476D01*
X10265476Y-15355476D01*
X10446429Y-15355476D02*
X10427381Y-15345952D01*
X10417857Y-15326905D01*
X10417857Y-15155476D01*
X10598810Y-15345952D02*
X10579762Y-15355476D01*
X10541667Y-15355476D01*
X10522619Y-15345952D01*
X10513095Y-15326905D01*
X10513095Y-15250714D01*
X10522619Y-15231667D01*
X10541667Y-15222143D01*
X10579762Y-15222143D01*
X10598810Y-15231667D01*
X10608333Y-15250714D01*
X10608333Y-15269762D01*
X10513095Y-15288809D01*
X10675000Y-15431667D02*
X10684524Y-15422143D01*
X10703571Y-15393571D01*
X10713095Y-15374524D01*
X10722619Y-15345952D01*
X10732143Y-15298333D01*
X10732143Y-15260238D01*
X10722619Y-15212619D01*
X10713095Y-15184048D01*
X10703571Y-15165000D01*
X10684524Y-15136428D01*
X10675000Y-15126905D01*
D13*
X6065000Y-15529000D02*
G75*
G03*
X6065000Y-15529000I-38100J0D01*
G01*
D11*
X6360714Y-15419476D02*
X6379762Y-15419476D01*
X6398809Y-15429000D01*
X6408333Y-15438524D01*
X6417857Y-15457571D01*
X6427381Y-15495667D01*
X6427381Y-15543286D01*
X6417857Y-15581381D01*
X6408333Y-15600428D01*
X6398809Y-15609952D01*
X6379762Y-15619476D01*
X6360714Y-15619476D01*
X6341667Y-15609952D01*
X6332143Y-15600428D01*
X6322619Y-15581381D01*
X6313095Y-15543286D01*
X6313095Y-15495667D01*
X6322619Y-15457571D01*
X6332143Y-15438524D01*
X6341667Y-15429000D01*
X6360714Y-15419476D01*
X6513095Y-15600428D02*
X6522619Y-15609952D01*
X6513095Y-15619476D01*
X6503571Y-15609952D01*
X6513095Y-15600428D01*
X6513095Y-15619476D01*
X6589286Y-15419476D02*
X6722619Y-15419476D01*
X6636905Y-15619476D01*
X6884524Y-15419476D02*
X6846428Y-15419476D01*
X6827381Y-15429000D01*
X6817857Y-15438524D01*
X6798809Y-15467095D01*
X6789286Y-15505190D01*
X6789286Y-15581381D01*
X6798809Y-15600428D01*
X6808333Y-15609952D01*
X6827381Y-15619476D01*
X6865476Y-15619476D01*
X6884524Y-15609952D01*
X6894048Y-15600428D01*
X6903571Y-15581381D01*
X6903571Y-15533762D01*
X6894048Y-15514714D01*
X6884524Y-15505190D01*
X6865476Y-15495667D01*
X6827381Y-15495667D01*
X6808333Y-15505190D01*
X6798809Y-15514714D01*
X6789286Y-15533762D01*
X6979762Y-15438524D02*
X6989286Y-15429000D01*
X7008333Y-15419476D01*
X7055952Y-15419476D01*
X7075000Y-15429000D01*
X7084524Y-15438524D01*
X7094048Y-15457571D01*
X7094048Y-15476619D01*
X7084524Y-15505190D01*
X6970238Y-15619476D01*
X7094048Y-15619476D01*
X7179762Y-15619476D02*
X7179762Y-15486143D01*
X7179762Y-15505190D02*
X7189286Y-15495667D01*
X7208333Y-15486143D01*
X7236905Y-15486143D01*
X7255952Y-15495667D01*
X7265476Y-15514714D01*
X7265476Y-15619476D01*
X7265476Y-15514714D02*
X7275000Y-15495667D01*
X7294048Y-15486143D01*
X7322619Y-15486143D01*
X7341667Y-15495667D01*
X7351190Y-15514714D01*
X7351190Y-15619476D01*
X7446428Y-15619476D02*
X7446428Y-15486143D01*
X7446428Y-15505190D02*
X7455952Y-15495667D01*
X7475000Y-15486143D01*
X7503571Y-15486143D01*
X7522619Y-15495667D01*
X7532143Y-15514714D01*
X7532143Y-15619476D01*
X7532143Y-15514714D02*
X7541667Y-15495667D01*
X7560714Y-15486143D01*
X7589286Y-15486143D01*
X7608333Y-15495667D01*
X7617857Y-15514714D01*
X7617857Y-15619476D01*
X8008333Y-15409952D02*
X7836905Y-15667095D01*
X8265476Y-15419476D02*
X8284524Y-15419476D01*
X8303571Y-15429000D01*
X8313095Y-15438524D01*
X8322619Y-15457571D01*
X8332143Y-15495667D01*
X8332143Y-15543286D01*
X8322619Y-15581381D01*
X8313095Y-15600428D01*
X8303571Y-15609952D01*
X8284524Y-15619476D01*
X8265476Y-15619476D01*
X8246428Y-15609952D01*
X8236905Y-15600428D01*
X8227381Y-15581381D01*
X8217857Y-15543286D01*
X8217857Y-15495667D01*
X8227381Y-15457571D01*
X8236905Y-15438524D01*
X8246428Y-15429000D01*
X8265476Y-15419476D01*
X8417857Y-15600428D02*
X8427381Y-15609952D01*
X8417857Y-15619476D01*
X8408333Y-15609952D01*
X8417857Y-15600428D01*
X8417857Y-15619476D01*
X8551190Y-15419476D02*
X8570238Y-15419476D01*
X8589286Y-15429000D01*
X8598810Y-15438524D01*
X8608333Y-15457571D01*
X8617857Y-15495667D01*
X8617857Y-15543286D01*
X8608333Y-15581381D01*
X8598810Y-15600428D01*
X8589286Y-15609952D01*
X8570238Y-15619476D01*
X8551190Y-15619476D01*
X8532143Y-15609952D01*
X8522619Y-15600428D01*
X8513095Y-15581381D01*
X8503571Y-15543286D01*
X8503571Y-15495667D01*
X8513095Y-15457571D01*
X8522619Y-15438524D01*
X8532143Y-15429000D01*
X8551190Y-15419476D01*
X8684524Y-15419476D02*
X8808333Y-15419476D01*
X8741667Y-15495667D01*
X8770238Y-15495667D01*
X8789286Y-15505190D01*
X8798810Y-15514714D01*
X8808333Y-15533762D01*
X8808333Y-15581381D01*
X8798810Y-15600428D01*
X8789286Y-15609952D01*
X8770238Y-15619476D01*
X8713095Y-15619476D01*
X8694048Y-15609952D01*
X8684524Y-15600428D01*
X8932143Y-15419476D02*
X8951190Y-15419476D01*
X8970238Y-15429000D01*
X8979762Y-15438524D01*
X8989286Y-15457571D01*
X8998810Y-15495667D01*
X8998810Y-15543286D01*
X8989286Y-15581381D01*
X8979762Y-15600428D01*
X8970238Y-15609952D01*
X8951190Y-15619476D01*
X8932143Y-15619476D01*
X8913095Y-15609952D01*
X8903571Y-15600428D01*
X8894048Y-15581381D01*
X8884524Y-15543286D01*
X8884524Y-15495667D01*
X8894048Y-15457571D01*
X8903571Y-15438524D01*
X8913095Y-15429000D01*
X8932143Y-15419476D01*
X9122619Y-15419476D02*
X9141667Y-15419476D01*
X9160714Y-15429000D01*
X9170238Y-15438524D01*
X9179762Y-15457571D01*
X9189286Y-15495667D01*
X9189286Y-15543286D01*
X9179762Y-15581381D01*
X9170238Y-15600428D01*
X9160714Y-15609952D01*
X9141667Y-15619476D01*
X9122619Y-15619476D01*
X9103571Y-15609952D01*
X9094048Y-15600428D01*
X9084524Y-15581381D01*
X9075000Y-15543286D01*
X9075000Y-15495667D01*
X9084524Y-15457571D01*
X9094048Y-15438524D01*
X9103571Y-15429000D01*
X9122619Y-15419476D01*
X9265476Y-15419476D02*
X9265476Y-15457571D01*
X9341667Y-15419476D02*
X9341667Y-15457571D01*
X9636905Y-15695667D02*
X9627381Y-15686143D01*
X9608333Y-15657571D01*
X9598810Y-15638524D01*
X9589286Y-15609952D01*
X9579762Y-15562333D01*
X9579762Y-15524238D01*
X9589286Y-15476619D01*
X9598810Y-15448048D01*
X9608333Y-15429000D01*
X9627381Y-15400428D01*
X9636905Y-15390905D01*
X9817857Y-15619476D02*
X9703571Y-15619476D01*
X9760714Y-15619476D02*
X9760714Y-15419476D01*
X9741667Y-15448048D01*
X9722619Y-15467095D01*
X9703571Y-15476619D01*
X9884524Y-15419476D02*
X10017857Y-15419476D01*
X9932143Y-15619476D01*
X10246429Y-15619476D02*
X10246429Y-15419476D01*
X10332143Y-15619476D02*
X10332143Y-15514714D01*
X10322619Y-15495667D01*
X10303571Y-15486143D01*
X10275000Y-15486143D01*
X10255952Y-15495667D01*
X10246429Y-15505190D01*
X10455952Y-15619476D02*
X10436905Y-15609952D01*
X10427381Y-15600428D01*
X10417857Y-15581381D01*
X10417857Y-15524238D01*
X10427381Y-15505190D01*
X10436905Y-15495667D01*
X10455952Y-15486143D01*
X10484524Y-15486143D01*
X10503571Y-15495667D01*
X10513095Y-15505190D01*
X10522619Y-15524238D01*
X10522619Y-15581381D01*
X10513095Y-15600428D01*
X10503571Y-15609952D01*
X10484524Y-15619476D01*
X10455952Y-15619476D01*
X10636905Y-15619476D02*
X10617857Y-15609952D01*
X10608333Y-15590905D01*
X10608333Y-15419476D01*
X10789286Y-15609952D02*
X10770238Y-15619476D01*
X10732143Y-15619476D01*
X10713095Y-15609952D01*
X10703571Y-15590905D01*
X10703571Y-15514714D01*
X10713095Y-15495667D01*
X10732143Y-15486143D01*
X10770238Y-15486143D01*
X10789286Y-15495667D01*
X10798810Y-15514714D01*
X10798810Y-15533762D01*
X10703571Y-15552809D01*
X10875000Y-15609952D02*
X10894048Y-15619476D01*
X10932143Y-15619476D01*
X10951190Y-15609952D01*
X10960714Y-15590905D01*
X10960714Y-15581381D01*
X10951190Y-15562333D01*
X10932143Y-15552809D01*
X10903571Y-15552809D01*
X10884524Y-15543286D01*
X10875000Y-15524238D01*
X10875000Y-15514714D01*
X10884524Y-15495667D01*
X10903571Y-15486143D01*
X10932143Y-15486143D01*
X10951190Y-15495667D01*
X11027381Y-15695667D02*
X11036905Y-15686143D01*
X11055952Y-15657571D01*
X11065476Y-15638524D01*
X11075000Y-15609952D01*
X11084524Y-15562333D01*
X11084524Y-15524238D01*
X11075000Y-15476619D01*
X11065476Y-15448048D01*
X11055952Y-15429000D01*
X11036905Y-15400428D01*
X11027381Y-15390905D01*
D14*
X6025000Y-15753000D02*
X6025000Y-15833000D01*
X5985000Y-15793000D02*
X6065000Y-15793000D01*
D11*
X6360714Y-15683476D02*
X6379762Y-15683476D01*
X6398809Y-15693000D01*
X6408333Y-15702524D01*
X6417857Y-15721571D01*
X6427381Y-15759667D01*
X6427381Y-15807286D01*
X6417857Y-15845381D01*
X6408333Y-15864428D01*
X6398809Y-15873952D01*
X6379762Y-15883476D01*
X6360714Y-15883476D01*
X6341667Y-15873952D01*
X6332143Y-15864428D01*
X6322619Y-15845381D01*
X6313095Y-15807286D01*
X6313095Y-15759667D01*
X6322619Y-15721571D01*
X6332143Y-15702524D01*
X6341667Y-15693000D01*
X6360714Y-15683476D01*
X6513095Y-15864428D02*
X6522619Y-15873952D01*
X6513095Y-15883476D01*
X6503571Y-15873952D01*
X6513095Y-15864428D01*
X6513095Y-15883476D01*
X6636905Y-15769190D02*
X6617857Y-15759667D01*
X6608333Y-15750143D01*
X6598809Y-15731095D01*
X6598809Y-15721571D01*
X6608333Y-15702524D01*
X6617857Y-15693000D01*
X6636905Y-15683476D01*
X6675000Y-15683476D01*
X6694048Y-15693000D01*
X6703571Y-15702524D01*
X6713095Y-15721571D01*
X6713095Y-15731095D01*
X6703571Y-15750143D01*
X6694048Y-15759667D01*
X6675000Y-15769190D01*
X6636905Y-15769190D01*
X6617857Y-15778714D01*
X6608333Y-15788238D01*
X6598809Y-15807286D01*
X6598809Y-15845381D01*
X6608333Y-15864428D01*
X6617857Y-15873952D01*
X6636905Y-15883476D01*
X6675000Y-15883476D01*
X6694048Y-15873952D01*
X6703571Y-15864428D01*
X6713095Y-15845381D01*
X6713095Y-15807286D01*
X6703571Y-15788238D01*
X6694048Y-15778714D01*
X6675000Y-15769190D01*
X6836905Y-15683476D02*
X6855952Y-15683476D01*
X6875000Y-15693000D01*
X6884524Y-15702524D01*
X6894048Y-15721571D01*
X6903571Y-15759667D01*
X6903571Y-15807286D01*
X6894048Y-15845381D01*
X6884524Y-15864428D01*
X6875000Y-15873952D01*
X6855952Y-15883476D01*
X6836905Y-15883476D01*
X6817857Y-15873952D01*
X6808333Y-15864428D01*
X6798809Y-15845381D01*
X6789286Y-15807286D01*
X6789286Y-15759667D01*
X6798809Y-15721571D01*
X6808333Y-15702524D01*
X6817857Y-15693000D01*
X6836905Y-15683476D01*
X7027381Y-15683476D02*
X7046428Y-15683476D01*
X7065476Y-15693000D01*
X7075000Y-15702524D01*
X7084524Y-15721571D01*
X7094048Y-15759667D01*
X7094048Y-15807286D01*
X7084524Y-15845381D01*
X7075000Y-15864428D01*
X7065476Y-15873952D01*
X7046428Y-15883476D01*
X7027381Y-15883476D01*
X7008333Y-15873952D01*
X6998809Y-15864428D01*
X6989286Y-15845381D01*
X6979762Y-15807286D01*
X6979762Y-15759667D01*
X6989286Y-15721571D01*
X6998809Y-15702524D01*
X7008333Y-15693000D01*
X7027381Y-15683476D01*
X7179762Y-15883476D02*
X7179762Y-15750143D01*
X7179762Y-15769190D02*
X7189286Y-15759667D01*
X7208333Y-15750143D01*
X7236905Y-15750143D01*
X7255952Y-15759667D01*
X7265476Y-15778714D01*
X7265476Y-15883476D01*
X7265476Y-15778714D02*
X7275000Y-15759667D01*
X7294048Y-15750143D01*
X7322619Y-15750143D01*
X7341667Y-15759667D01*
X7351190Y-15778714D01*
X7351190Y-15883476D01*
X7446428Y-15883476D02*
X7446428Y-15750143D01*
X7446428Y-15769190D02*
X7455952Y-15759667D01*
X7475000Y-15750143D01*
X7503571Y-15750143D01*
X7522619Y-15759667D01*
X7532143Y-15778714D01*
X7532143Y-15883476D01*
X7532143Y-15778714D02*
X7541667Y-15759667D01*
X7560714Y-15750143D01*
X7589286Y-15750143D01*
X7608333Y-15759667D01*
X7617857Y-15778714D01*
X7617857Y-15883476D01*
X8008333Y-15673952D02*
X7836905Y-15931095D01*
X8265476Y-15683476D02*
X8284524Y-15683476D01*
X8303571Y-15693000D01*
X8313095Y-15702524D01*
X8322619Y-15721571D01*
X8332143Y-15759667D01*
X8332143Y-15807286D01*
X8322619Y-15845381D01*
X8313095Y-15864428D01*
X8303571Y-15873952D01*
X8284524Y-15883476D01*
X8265476Y-15883476D01*
X8246428Y-15873952D01*
X8236905Y-15864428D01*
X8227381Y-15845381D01*
X8217857Y-15807286D01*
X8217857Y-15759667D01*
X8227381Y-15721571D01*
X8236905Y-15702524D01*
X8246428Y-15693000D01*
X8265476Y-15683476D01*
X8417857Y-15864428D02*
X8427381Y-15873952D01*
X8417857Y-15883476D01*
X8408333Y-15873952D01*
X8417857Y-15864428D01*
X8417857Y-15883476D01*
X8551190Y-15683476D02*
X8570238Y-15683476D01*
X8589286Y-15693000D01*
X8598810Y-15702524D01*
X8608333Y-15721571D01*
X8617857Y-15759667D01*
X8617857Y-15807286D01*
X8608333Y-15845381D01*
X8598810Y-15864428D01*
X8589286Y-15873952D01*
X8570238Y-15883476D01*
X8551190Y-15883476D01*
X8532143Y-15873952D01*
X8522619Y-15864428D01*
X8513095Y-15845381D01*
X8503571Y-15807286D01*
X8503571Y-15759667D01*
X8513095Y-15721571D01*
X8522619Y-15702524D01*
X8532143Y-15693000D01*
X8551190Y-15683476D01*
X8684524Y-15683476D02*
X8808333Y-15683476D01*
X8741667Y-15759667D01*
X8770238Y-15759667D01*
X8789286Y-15769190D01*
X8798810Y-15778714D01*
X8808333Y-15797762D01*
X8808333Y-15845381D01*
X8798810Y-15864428D01*
X8789286Y-15873952D01*
X8770238Y-15883476D01*
X8713095Y-15883476D01*
X8694048Y-15873952D01*
X8684524Y-15864428D01*
X8998810Y-15883476D02*
X8884524Y-15883476D01*
X8941667Y-15883476D02*
X8941667Y-15683476D01*
X8922619Y-15712048D01*
X8903571Y-15731095D01*
X8884524Y-15740619D01*
X9179762Y-15683476D02*
X9084524Y-15683476D01*
X9075000Y-15778714D01*
X9084524Y-15769190D01*
X9103571Y-15759667D01*
X9151190Y-15759667D01*
X9170238Y-15769190D01*
X9179762Y-15778714D01*
X9189286Y-15797762D01*
X9189286Y-15845381D01*
X9179762Y-15864428D01*
X9170238Y-15873952D01*
X9151190Y-15883476D01*
X9103571Y-15883476D01*
X9084524Y-15873952D01*
X9075000Y-15864428D01*
X9265476Y-15683476D02*
X9265476Y-15721571D01*
X9341667Y-15683476D02*
X9341667Y-15721571D01*
X9636905Y-15959667D02*
X9627381Y-15950143D01*
X9608333Y-15921571D01*
X9598810Y-15902524D01*
X9589286Y-15873952D01*
X9579762Y-15826333D01*
X9579762Y-15788238D01*
X9589286Y-15740619D01*
X9598810Y-15712048D01*
X9608333Y-15693000D01*
X9627381Y-15664428D01*
X9636905Y-15654905D01*
X9798810Y-15750143D02*
X9798810Y-15883476D01*
X9751190Y-15673952D02*
X9703571Y-15816809D01*
X9827381Y-15816809D01*
X10055952Y-15883476D02*
X10055952Y-15683476D01*
X10141667Y-15883476D02*
X10141667Y-15778714D01*
X10132143Y-15759667D01*
X10113095Y-15750143D01*
X10084524Y-15750143D01*
X10065476Y-15759667D01*
X10055952Y-15769190D01*
X10265476Y-15883476D02*
X10246429Y-15873952D01*
X10236905Y-15864428D01*
X10227381Y-15845381D01*
X10227381Y-15788238D01*
X10236905Y-15769190D01*
X10246429Y-15759667D01*
X10265476Y-15750143D01*
X10294048Y-15750143D01*
X10313095Y-15759667D01*
X10322619Y-15769190D01*
X10332143Y-15788238D01*
X10332143Y-15845381D01*
X10322619Y-15864428D01*
X10313095Y-15873952D01*
X10294048Y-15883476D01*
X10265476Y-15883476D01*
X10446429Y-15883476D02*
X10427381Y-15873952D01*
X10417857Y-15854905D01*
X10417857Y-15683476D01*
X10598810Y-15873952D02*
X10579762Y-15883476D01*
X10541667Y-15883476D01*
X10522619Y-15873952D01*
X10513095Y-15854905D01*
X10513095Y-15778714D01*
X10522619Y-15759667D01*
X10541667Y-15750143D01*
X10579762Y-15750143D01*
X10598810Y-15759667D01*
X10608333Y-15778714D01*
X10608333Y-15797762D01*
X10513095Y-15816809D01*
X10684524Y-15873952D02*
X10703571Y-15883476D01*
X10741667Y-15883476D01*
X10760714Y-15873952D01*
X10770238Y-15854905D01*
X10770238Y-15845381D01*
X10760714Y-15826333D01*
X10741667Y-15816809D01*
X10713095Y-15816809D01*
X10694048Y-15807286D01*
X10684524Y-15788238D01*
X10684524Y-15778714D01*
X10694048Y-15759667D01*
X10713095Y-15750143D01*
X10741667Y-15750143D01*
X10760714Y-15759667D01*
X10836905Y-15959667D02*
X10846429Y-15950143D01*
X10865476Y-15921571D01*
X10875000Y-15902524D01*
X10884524Y-15873952D01*
X10894048Y-15826333D01*
X10894048Y-15788238D01*
X10884524Y-15740619D01*
X10875000Y-15712048D01*
X10865476Y-15693000D01*
X10846429Y-15664428D01*
X10836905Y-15654905D01*
D10*
X6050356Y-16092356D02*
X6050356Y-16021644D01*
X5979644Y-16021644D01*
X5979644Y-16092356D01*
X6050356Y-16092356D01*
D11*
X6427381Y-16147476D02*
X6313095Y-16147476D01*
X6370238Y-16147476D02*
X6370238Y-15947476D01*
X6351190Y-15976048D01*
X6332143Y-15995095D01*
X6313095Y-16004619D01*
X6513095Y-16128428D02*
X6522619Y-16137952D01*
X6513095Y-16147476D01*
X6503571Y-16137952D01*
X6513095Y-16128428D01*
X6513095Y-16147476D01*
X6646428Y-15947476D02*
X6665476Y-15947476D01*
X6684524Y-15957000D01*
X6694048Y-15966524D01*
X6703571Y-15985571D01*
X6713095Y-16023667D01*
X6713095Y-16071286D01*
X6703571Y-16109381D01*
X6694048Y-16128428D01*
X6684524Y-16137952D01*
X6665476Y-16147476D01*
X6646428Y-16147476D01*
X6627381Y-16137952D01*
X6617857Y-16128428D01*
X6608333Y-16109381D01*
X6598809Y-16071286D01*
X6598809Y-16023667D01*
X6608333Y-15985571D01*
X6617857Y-15966524D01*
X6627381Y-15957000D01*
X6646428Y-15947476D01*
X6836905Y-15947476D02*
X6855952Y-15947476D01*
X6875000Y-15957000D01*
X6884524Y-15966524D01*
X6894048Y-15985571D01*
X6903571Y-16023667D01*
X6903571Y-16071286D01*
X6894048Y-16109381D01*
X6884524Y-16128428D01*
X6875000Y-16137952D01*
X6855952Y-16147476D01*
X6836905Y-16147476D01*
X6817857Y-16137952D01*
X6808333Y-16128428D01*
X6798809Y-16109381D01*
X6789286Y-16071286D01*
X6789286Y-16023667D01*
X6798809Y-15985571D01*
X6808333Y-15966524D01*
X6817857Y-15957000D01*
X6836905Y-15947476D01*
X7027381Y-15947476D02*
X7046428Y-15947476D01*
X7065476Y-15957000D01*
X7075000Y-15966524D01*
X7084524Y-15985571D01*
X7094048Y-16023667D01*
X7094048Y-16071286D01*
X7084524Y-16109381D01*
X7075000Y-16128428D01*
X7065476Y-16137952D01*
X7046428Y-16147476D01*
X7027381Y-16147476D01*
X7008333Y-16137952D01*
X6998809Y-16128428D01*
X6989286Y-16109381D01*
X6979762Y-16071286D01*
X6979762Y-16023667D01*
X6989286Y-15985571D01*
X6998809Y-15966524D01*
X7008333Y-15957000D01*
X7027381Y-15947476D01*
X7179762Y-16147476D02*
X7179762Y-16014143D01*
X7179762Y-16033190D02*
X7189286Y-16023667D01*
X7208333Y-16014143D01*
X7236905Y-16014143D01*
X7255952Y-16023667D01*
X7265476Y-16042714D01*
X7265476Y-16147476D01*
X7265476Y-16042714D02*
X7275000Y-16023667D01*
X7294048Y-16014143D01*
X7322619Y-16014143D01*
X7341667Y-16023667D01*
X7351190Y-16042714D01*
X7351190Y-16147476D01*
X7446428Y-16147476D02*
X7446428Y-16014143D01*
X7446428Y-16033190D02*
X7455952Y-16023667D01*
X7475000Y-16014143D01*
X7503571Y-16014143D01*
X7522619Y-16023667D01*
X7532143Y-16042714D01*
X7532143Y-16147476D01*
X7532143Y-16042714D02*
X7541667Y-16023667D01*
X7560714Y-16014143D01*
X7589286Y-16014143D01*
X7608333Y-16023667D01*
X7617857Y-16042714D01*
X7617857Y-16147476D01*
X8008333Y-15937952D02*
X7836905Y-16195095D01*
X8265476Y-15947476D02*
X8284524Y-15947476D01*
X8303571Y-15957000D01*
X8313095Y-15966524D01*
X8322619Y-15985571D01*
X8332143Y-16023667D01*
X8332143Y-16071286D01*
X8322619Y-16109381D01*
X8313095Y-16128428D01*
X8303571Y-16137952D01*
X8284524Y-16147476D01*
X8265476Y-16147476D01*
X8246428Y-16137952D01*
X8236905Y-16128428D01*
X8227381Y-16109381D01*
X8217857Y-16071286D01*
X8217857Y-16023667D01*
X8227381Y-15985571D01*
X8236905Y-15966524D01*
X8246428Y-15957000D01*
X8265476Y-15947476D01*
X8417857Y-16128428D02*
X8427381Y-16137952D01*
X8417857Y-16147476D01*
X8408333Y-16137952D01*
X8417857Y-16128428D01*
X8417857Y-16147476D01*
X8551190Y-15947476D02*
X8570238Y-15947476D01*
X8589286Y-15957000D01*
X8598810Y-15966524D01*
X8608333Y-15985571D01*
X8617857Y-16023667D01*
X8617857Y-16071286D01*
X8608333Y-16109381D01*
X8598810Y-16128428D01*
X8589286Y-16137952D01*
X8570238Y-16147476D01*
X8551190Y-16147476D01*
X8532143Y-16137952D01*
X8522619Y-16128428D01*
X8513095Y-16109381D01*
X8503571Y-16071286D01*
X8503571Y-16023667D01*
X8513095Y-15985571D01*
X8522619Y-15966524D01*
X8532143Y-15957000D01*
X8551190Y-15947476D01*
X8684524Y-15947476D02*
X8808333Y-15947476D01*
X8741667Y-16023667D01*
X8770238Y-16023667D01*
X8789286Y-16033190D01*
X8798810Y-16042714D01*
X8808333Y-16061762D01*
X8808333Y-16109381D01*
X8798810Y-16128428D01*
X8789286Y-16137952D01*
X8770238Y-16147476D01*
X8713095Y-16147476D01*
X8694048Y-16137952D01*
X8684524Y-16128428D01*
X8903571Y-16147476D02*
X8941667Y-16147476D01*
X8960714Y-16137952D01*
X8970238Y-16128428D01*
X8989286Y-16099857D01*
X8998810Y-16061762D01*
X8998810Y-15985571D01*
X8989286Y-15966524D01*
X8979762Y-15957000D01*
X8960714Y-15947476D01*
X8922619Y-15947476D01*
X8903571Y-15957000D01*
X8894048Y-15966524D01*
X8884524Y-15985571D01*
X8884524Y-16033190D01*
X8894048Y-16052238D01*
X8903571Y-16061762D01*
X8922619Y-16071286D01*
X8960714Y-16071286D01*
X8979762Y-16061762D01*
X8989286Y-16052238D01*
X8998810Y-16033190D01*
X9170238Y-16014143D02*
X9170238Y-16147476D01*
X9122619Y-15937952D02*
X9075000Y-16080809D01*
X9198810Y-16080809D01*
X9265476Y-15947476D02*
X9265476Y-15985571D01*
X9341667Y-15947476D02*
X9341667Y-15985571D01*
X9636905Y-16223667D02*
X9627381Y-16214143D01*
X9608333Y-16185571D01*
X9598810Y-16166524D01*
X9589286Y-16137952D01*
X9579762Y-16090333D01*
X9579762Y-16052238D01*
X9589286Y-16004619D01*
X9598810Y-15976048D01*
X9608333Y-15957000D01*
X9627381Y-15928428D01*
X9636905Y-15918905D01*
X9808333Y-15947476D02*
X9713095Y-15947476D01*
X9703571Y-16042714D01*
X9713095Y-16033190D01*
X9732143Y-16023667D01*
X9779762Y-16023667D01*
X9798810Y-16033190D01*
X9808333Y-16042714D01*
X9817857Y-16061762D01*
X9817857Y-16109381D01*
X9808333Y-16128428D01*
X9798810Y-16137952D01*
X9779762Y-16147476D01*
X9732143Y-16147476D01*
X9713095Y-16137952D01*
X9703571Y-16128428D01*
X9913095Y-16147476D02*
X9951190Y-16147476D01*
X9970238Y-16137952D01*
X9979762Y-16128428D01*
X9998810Y-16099857D01*
X10008333Y-16061762D01*
X10008333Y-15985571D01*
X9998810Y-15966524D01*
X9989286Y-15957000D01*
X9970238Y-15947476D01*
X9932143Y-15947476D01*
X9913095Y-15957000D01*
X9903571Y-15966524D01*
X9894048Y-15985571D01*
X9894048Y-16033190D01*
X9903571Y-16052238D01*
X9913095Y-16061762D01*
X9932143Y-16071286D01*
X9970238Y-16071286D01*
X9989286Y-16061762D01*
X9998810Y-16052238D01*
X10008333Y-16033190D01*
X10246429Y-16147476D02*
X10246429Y-15947476D01*
X10332143Y-16147476D02*
X10332143Y-16042714D01*
X10322619Y-16023667D01*
X10303571Y-16014143D01*
X10275000Y-16014143D01*
X10255952Y-16023667D01*
X10246429Y-16033190D01*
X10455952Y-16147476D02*
X10436905Y-16137952D01*
X10427381Y-16128428D01*
X10417857Y-16109381D01*
X10417857Y-16052238D01*
X10427381Y-16033190D01*
X10436905Y-16023667D01*
X10455952Y-16014143D01*
X10484524Y-16014143D01*
X10503571Y-16023667D01*
X10513095Y-16033190D01*
X10522619Y-16052238D01*
X10522619Y-16109381D01*
X10513095Y-16128428D01*
X10503571Y-16137952D01*
X10484524Y-16147476D01*
X10455952Y-16147476D01*
X10636905Y-16147476D02*
X10617857Y-16137952D01*
X10608333Y-16118905D01*
X10608333Y-15947476D01*
X10789286Y-16137952D02*
X10770238Y-16147476D01*
X10732143Y-16147476D01*
X10713095Y-16137952D01*
X10703571Y-16118905D01*
X10703571Y-16042714D01*
X10713095Y-16023667D01*
X10732143Y-16014143D01*
X10770238Y-16014143D01*
X10789286Y-16023667D01*
X10798810Y-16042714D01*
X10798810Y-16061762D01*
X10703571Y-16080809D01*
X10875000Y-16137952D02*
X10894048Y-16147476D01*
X10932143Y-16147476D01*
X10951190Y-16137952D01*
X10960714Y-16118905D01*
X10960714Y-16109381D01*
X10951190Y-16090333D01*
X10932143Y-16080809D01*
X10903571Y-16080809D01*
X10884524Y-16071286D01*
X10875000Y-16052238D01*
X10875000Y-16042714D01*
X10884524Y-16023667D01*
X10903571Y-16014143D01*
X10932143Y-16014143D01*
X10951190Y-16023667D01*
X11027381Y-16223667D02*
X11036905Y-16214143D01*
X11055952Y-16185571D01*
X11065476Y-16166524D01*
X11075000Y-16137952D01*
X11084524Y-16090333D01*
X11084524Y-16052238D01*
X11075000Y-16004619D01*
X11065476Y-15976048D01*
X11055952Y-15957000D01*
X11036905Y-15928428D01*
X11027381Y-15918905D01*
M02*
