M48
; DRILL file {KiCad (6.0.9-0)} date Wednesday, November 09, 2022 at 11:01:53 PM
; FORMAT={-:-/ absolute / metric / decimal}
; #@! TF.CreationDate,2022-11-09T23:01:53-06:00
; #@! TF.GenerationSoftware,Kicad,Pcbnew,(6.0.9-0)
; #@! TF.FileFunction,Plated,1,2,PTH
FMAT,2
METRIC
; #@! TA.AperFunction,Plated,PTH,ViaDrill
T1C0.400
; #@! TA.AperFunction,Plated,PTH,ComponentDrill
T2C0.762
; #@! TA.AperFunction,Plated,PTH,ComponentDrill
T3C0.800
; #@! TA.AperFunction,Plated,PTH,ComponentDrill
T4C1.000
%
G90
G05
T1
X118.11Y-132.08
T2
X86.99Y-54.83
X86.99Y-57.34
X92.29Y-47.13
X94.19Y-104.96
X94.19Y-107.57
X94.19Y-110.14
X94.23Y-97.34
X94.23Y-102.49
X94.27Y-99.95
X94.83Y-47.13
X97.37Y-47.13
X108.36Y-101.84
X108.36Y-105.43
X110.01Y-53.53
X110.01Y-56.04
X111.31Y-40.8
X113.81Y-40.8
T3
X106.72Y-124.46
X111.72Y-124.46
X132.12Y-125.73
X137.12Y-125.73
T4
X64.125Y-50.2
X66.665Y-50.2
X77.47Y-41.91
X80.01Y-41.91
X109.935Y-67.0
X112.475Y-67.0
X128.71Y-115.19
X131.25Y-115.19
X133.155Y-137.08
X133.79Y-115.19
X135.695Y-137.08
X136.33Y-115.19
X138.87Y-115.19
X141.41Y-115.19
X143.95Y-115.19
X146.49Y-115.19
X149.03Y-115.19
X151.57Y-115.19
X154.11Y-115.19
X156.65Y-115.19
X159.19Y-115.19
X161.73Y-115.19
X164.27Y-115.19
X166.81Y-115.19
X169.35Y-115.19
X171.89Y-115.19
X174.43Y-115.19
X176.97Y-115.19
X179.51Y-115.19
X182.05Y-115.19
X192.85Y-54.857
X192.85Y-57.398
X192.85Y-59.938
X192.85Y-62.477
X192.85Y-65.017
X192.85Y-67.557
X192.85Y-70.097
X192.85Y-72.638
X199.84Y-90.5
X199.84Y-93.04
X199.84Y-95.58
X199.84Y-98.12
X199.84Y-100.66
X199.84Y-103.2
X199.84Y-105.74
X199.84Y-108.28
X199.84Y-110.82
X223.39Y-59.967
X223.39Y-62.508
X223.39Y-65.047
X223.39Y-67.587
X223.39Y-70.127
X223.39Y-72.667
X223.39Y-75.207
X225.24Y-90.54
X225.24Y-93.08
X225.24Y-95.62
X225.24Y-98.16
X225.24Y-100.7
T0
M30
