G04 #@! TF.GenerationSoftware,KiCad,Pcbnew,(7.0.0)*
G04 #@! TF.CreationDate,2023-02-19T18:33:10-06:00*
G04 #@! TF.ProjectId,CluePCB,436c7565-5043-4422-9e6b-696361645f70,1*
G04 #@! TF.SameCoordinates,Original*
G04 #@! TF.FileFunction,Soldermask,Top*
G04 #@! TF.FilePolarity,Negative*
%FSLAX46Y46*%
G04 Gerber Fmt 4.6, Leading zero omitted, Abs format (unit mm)*
G04 Created by KiCad (PCBNEW (7.0.0)) date 2023-02-19 18:33:10*
%MOMM*%
%LPD*%
G01*
G04 APERTURE LIST*
%ADD10C,3.000000*%
%ADD11R,1.700000X1.700000*%
%ADD12O,1.700000X1.700000*%
%ADD13C,2.390000*%
%ADD14C,3.450000*%
%ADD15R,6.350000X7.340000*%
%ADD16C,1.524000*%
%ADD17C,1.600000*%
%ADD18R,1.200000X2.200000*%
%ADD19R,5.800000X6.400000*%
G04 APERTURE END LIST*
D10*
X193890000Y-43207500D03*
X194080000Y-78997500D03*
X222190000Y-79157500D03*
X222510000Y-43307500D03*
D11*
X192849999Y-54857499D03*
D12*
X192849999Y-57397499D03*
X192849999Y-59937499D03*
X192849999Y-62477499D03*
X192849999Y-65017499D03*
X192849999Y-67557499D03*
X192849999Y-70097499D03*
X192849999Y-72637499D03*
D11*
X223389999Y-59967499D03*
D12*
X223389999Y-62507499D03*
X223389999Y-65047499D03*
X223389999Y-67587499D03*
X223389999Y-70127499D03*
X223389999Y-72667499D03*
X223389999Y-75207499D03*
D11*
X128709999Y-115189999D03*
D12*
X131249999Y-115189999D03*
X133789999Y-115189999D03*
X136329999Y-115189999D03*
X138869999Y-115189999D03*
X141409999Y-115189999D03*
X143949999Y-115189999D03*
X146489999Y-115189999D03*
X149029999Y-115189999D03*
X151569999Y-115189999D03*
X154109999Y-115189999D03*
X156649999Y-115189999D03*
X159189999Y-115189999D03*
X161729999Y-115189999D03*
X164269999Y-115189999D03*
X166809999Y-115189999D03*
X169349999Y-115189999D03*
X171889999Y-115189999D03*
X174429999Y-115189999D03*
X176969999Y-115189999D03*
X179509999Y-115189999D03*
X182049999Y-115189999D03*
D11*
X133154999Y-137079999D03*
D12*
X135694999Y-137079999D03*
D10*
X66400000Y-42000000D03*
D13*
X81660000Y-58050000D03*
D14*
X65660000Y-66380000D03*
X81660000Y-121580000D03*
D15*
X73659999Y-54649999D03*
X73659999Y-133309999D03*
D11*
X199839999Y-90499999D03*
D12*
X199839999Y-93039999D03*
X199839999Y-95579999D03*
X199839999Y-98119999D03*
X199839999Y-100659999D03*
X199839999Y-103199999D03*
X199839999Y-105739999D03*
X199839999Y-108279999D03*
X199839999Y-110819999D03*
D11*
X225239999Y-90539999D03*
D12*
X225239999Y-93079999D03*
X225239999Y-95619999D03*
X225239999Y-98159999D03*
X225239999Y-100699999D03*
D10*
X109780000Y-93130000D03*
X93900000Y-93270000D03*
X93860000Y-114030000D03*
X109660000Y-114070000D03*
D16*
X108360000Y-101840000D03*
X108360000Y-105430000D03*
X94230000Y-97340000D03*
X94270000Y-99950000D03*
X94230000Y-102490000D03*
X94190000Y-104960000D03*
X94190000Y-107570000D03*
X94190000Y-110140000D03*
D11*
X64124999Y-50199999D03*
D12*
X66664999Y-50199999D03*
D17*
X106720000Y-124460000D03*
X111720000Y-124460000D03*
D10*
X66300000Y-140000000D03*
X115200000Y-45690000D03*
X88240000Y-45980000D03*
D16*
X113810000Y-40800000D03*
X111310000Y-40800000D03*
X97370000Y-47130000D03*
X94830000Y-47130000D03*
X92290000Y-47130000D03*
X86990000Y-54830000D03*
X86990000Y-57340000D03*
X110010000Y-53530000D03*
X110010000Y-56040000D03*
D11*
X112474999Y-66999999D03*
D12*
X109934999Y-66999999D03*
D17*
X137120000Y-125730000D03*
X132120000Y-125730000D03*
D18*
X121924999Y-132434999D03*
D19*
X124204999Y-126134999D03*
D18*
X126484999Y-132434999D03*
D10*
X221800000Y-138900000D03*
D11*
X77469999Y-41909999D03*
D12*
X80009999Y-41909999D03*
M02*
