G04 #@! TF.GenerationSoftware,KiCad,Pcbnew,(7.0.0)*
G04 #@! TF.CreationDate,2023-02-19T18:33:10-06:00*
G04 #@! TF.ProjectId,CluePCB,436c7565-5043-4422-9e6b-696361645f70,1*
G04 #@! TF.SameCoordinates,Original*
G04 #@! TF.FileFunction,Legend,Top*
G04 #@! TF.FilePolarity,Positive*
%FSLAX46Y46*%
G04 Gerber Fmt 4.6, Leading zero omitted, Abs format (unit mm)*
G04 Created by KiCad (PCBNEW (7.0.0)) date 2023-02-19 18:33:10*
%MOMM*%
%LPD*%
G01*
G04 APERTURE LIST*
%ADD10C,0.150000*%
%ADD11C,0.120000*%
%ADD12C,3.000000*%
%ADD13R,1.700000X1.700000*%
%ADD14O,1.700000X1.700000*%
%ADD15C,2.390000*%
%ADD16C,3.450000*%
%ADD17R,6.350000X7.340000*%
%ADD18C,1.524000*%
%ADD19C,1.600000*%
%ADD20R,1.200000X2.200000*%
%ADD21R,5.800000X6.400000*%
G04 APERTURE END LIST*
D10*
X130550000Y-64500000D02*
X182850000Y-64500000D01*
X182850000Y-64500000D02*
X182850000Y-91200000D01*
X182850000Y-91200000D02*
X130550000Y-91200000D01*
X130550000Y-91200000D02*
X130550000Y-64500000D01*
X74666666Y-45443571D02*
X74809523Y-45491190D01*
X74809523Y-45491190D02*
X74857142Y-45538809D01*
X74857142Y-45538809D02*
X74904761Y-45634047D01*
X74904761Y-45634047D02*
X74904761Y-45776904D01*
X74904761Y-45776904D02*
X74857142Y-45872142D01*
X74857142Y-45872142D02*
X74809523Y-45919761D01*
X74809523Y-45919761D02*
X74714285Y-45967380D01*
X74714285Y-45967380D02*
X74333333Y-45967380D01*
X74333333Y-45967380D02*
X74333333Y-44967380D01*
X74333333Y-44967380D02*
X74666666Y-44967380D01*
X74666666Y-44967380D02*
X74761904Y-45015000D01*
X74761904Y-45015000D02*
X74809523Y-45062619D01*
X74809523Y-45062619D02*
X74857142Y-45157857D01*
X74857142Y-45157857D02*
X74857142Y-45253095D01*
X74857142Y-45253095D02*
X74809523Y-45348333D01*
X74809523Y-45348333D02*
X74761904Y-45395952D01*
X74761904Y-45395952D02*
X74666666Y-45443571D01*
X74666666Y-45443571D02*
X74333333Y-45443571D01*
X75285714Y-45681666D02*
X75761904Y-45681666D01*
X75190476Y-45967380D02*
X75523809Y-44967380D01*
X75523809Y-44967380D02*
X75857142Y-45967380D01*
X76047619Y-44967380D02*
X76619047Y-44967380D01*
X76333333Y-45967380D02*
X76333333Y-44967380D01*
X76809524Y-44967380D02*
X77380952Y-44967380D01*
X77095238Y-45967380D02*
X77095238Y-44967380D01*
X78314286Y-45967380D02*
X78314286Y-44967380D01*
X78314286Y-44967380D02*
X78552381Y-44967380D01*
X78552381Y-44967380D02*
X78695238Y-45015000D01*
X78695238Y-45015000D02*
X78790476Y-45110238D01*
X78790476Y-45110238D02*
X78838095Y-45205476D01*
X78838095Y-45205476D02*
X78885714Y-45395952D01*
X78885714Y-45395952D02*
X78885714Y-45538809D01*
X78885714Y-45538809D02*
X78838095Y-45729285D01*
X78838095Y-45729285D02*
X78790476Y-45824523D01*
X78790476Y-45824523D02*
X78695238Y-45919761D01*
X78695238Y-45919761D02*
X78552381Y-45967380D01*
X78552381Y-45967380D02*
X78314286Y-45967380D01*
X79314286Y-45967380D02*
X79314286Y-44967380D01*
X79742857Y-45919761D02*
X79885714Y-45967380D01*
X79885714Y-45967380D02*
X80123809Y-45967380D01*
X80123809Y-45967380D02*
X80219047Y-45919761D01*
X80219047Y-45919761D02*
X80266666Y-45872142D01*
X80266666Y-45872142D02*
X80314285Y-45776904D01*
X80314285Y-45776904D02*
X80314285Y-45681666D01*
X80314285Y-45681666D02*
X80266666Y-45586428D01*
X80266666Y-45586428D02*
X80219047Y-45538809D01*
X80219047Y-45538809D02*
X80123809Y-45491190D01*
X80123809Y-45491190D02*
X79933333Y-45443571D01*
X79933333Y-45443571D02*
X79838095Y-45395952D01*
X79838095Y-45395952D02*
X79790476Y-45348333D01*
X79790476Y-45348333D02*
X79742857Y-45253095D01*
X79742857Y-45253095D02*
X79742857Y-45157857D01*
X79742857Y-45157857D02*
X79790476Y-45062619D01*
X79790476Y-45062619D02*
X79838095Y-45015000D01*
X79838095Y-45015000D02*
X79933333Y-44967380D01*
X79933333Y-44967380D02*
X80171428Y-44967380D01*
X80171428Y-44967380D02*
X80314285Y-45015000D01*
X81314285Y-45872142D02*
X81266666Y-45919761D01*
X81266666Y-45919761D02*
X81123809Y-45967380D01*
X81123809Y-45967380D02*
X81028571Y-45967380D01*
X81028571Y-45967380D02*
X80885714Y-45919761D01*
X80885714Y-45919761D02*
X80790476Y-45824523D01*
X80790476Y-45824523D02*
X80742857Y-45729285D01*
X80742857Y-45729285D02*
X80695238Y-45538809D01*
X80695238Y-45538809D02*
X80695238Y-45395952D01*
X80695238Y-45395952D02*
X80742857Y-45205476D01*
X80742857Y-45205476D02*
X80790476Y-45110238D01*
X80790476Y-45110238D02*
X80885714Y-45015000D01*
X80885714Y-45015000D02*
X81028571Y-44967380D01*
X81028571Y-44967380D02*
X81123809Y-44967380D01*
X81123809Y-44967380D02*
X81266666Y-45015000D01*
X81266666Y-45015000D02*
X81314285Y-45062619D01*
X151999999Y-78172142D02*
X151952380Y-78219761D01*
X151952380Y-78219761D02*
X151809523Y-78267380D01*
X151809523Y-78267380D02*
X151714285Y-78267380D01*
X151714285Y-78267380D02*
X151571428Y-78219761D01*
X151571428Y-78219761D02*
X151476190Y-78124523D01*
X151476190Y-78124523D02*
X151428571Y-78029285D01*
X151428571Y-78029285D02*
X151380952Y-77838809D01*
X151380952Y-77838809D02*
X151380952Y-77695952D01*
X151380952Y-77695952D02*
X151428571Y-77505476D01*
X151428571Y-77505476D02*
X151476190Y-77410238D01*
X151476190Y-77410238D02*
X151571428Y-77315000D01*
X151571428Y-77315000D02*
X151714285Y-77267380D01*
X151714285Y-77267380D02*
X151809523Y-77267380D01*
X151809523Y-77267380D02*
X151952380Y-77315000D01*
X151952380Y-77315000D02*
X151999999Y-77362619D01*
X152571428Y-78267380D02*
X152476190Y-78219761D01*
X152476190Y-78219761D02*
X152428571Y-78124523D01*
X152428571Y-78124523D02*
X152428571Y-77267380D01*
X153380952Y-77600714D02*
X153380952Y-78267380D01*
X152952381Y-77600714D02*
X152952381Y-78124523D01*
X152952381Y-78124523D02*
X153000000Y-78219761D01*
X153000000Y-78219761D02*
X153095238Y-78267380D01*
X153095238Y-78267380D02*
X153238095Y-78267380D01*
X153238095Y-78267380D02*
X153333333Y-78219761D01*
X153333333Y-78219761D02*
X153380952Y-78172142D01*
X154238095Y-78219761D02*
X154142857Y-78267380D01*
X154142857Y-78267380D02*
X153952381Y-78267380D01*
X153952381Y-78267380D02*
X153857143Y-78219761D01*
X153857143Y-78219761D02*
X153809524Y-78124523D01*
X153809524Y-78124523D02*
X153809524Y-77743571D01*
X153809524Y-77743571D02*
X153857143Y-77648333D01*
X153857143Y-77648333D02*
X153952381Y-77600714D01*
X153952381Y-77600714D02*
X154142857Y-77600714D01*
X154142857Y-77600714D02*
X154238095Y-77648333D01*
X154238095Y-77648333D02*
X154285714Y-77743571D01*
X154285714Y-77743571D02*
X154285714Y-77838809D01*
X154285714Y-77838809D02*
X153809524Y-77934047D01*
X155647619Y-77743571D02*
X155790476Y-77791190D01*
X155790476Y-77791190D02*
X155838095Y-77838809D01*
X155838095Y-77838809D02*
X155885714Y-77934047D01*
X155885714Y-77934047D02*
X155885714Y-78076904D01*
X155885714Y-78076904D02*
X155838095Y-78172142D01*
X155838095Y-78172142D02*
X155790476Y-78219761D01*
X155790476Y-78219761D02*
X155695238Y-78267380D01*
X155695238Y-78267380D02*
X155314286Y-78267380D01*
X155314286Y-78267380D02*
X155314286Y-77267380D01*
X155314286Y-77267380D02*
X155647619Y-77267380D01*
X155647619Y-77267380D02*
X155742857Y-77315000D01*
X155742857Y-77315000D02*
X155790476Y-77362619D01*
X155790476Y-77362619D02*
X155838095Y-77457857D01*
X155838095Y-77457857D02*
X155838095Y-77553095D01*
X155838095Y-77553095D02*
X155790476Y-77648333D01*
X155790476Y-77648333D02*
X155742857Y-77695952D01*
X155742857Y-77695952D02*
X155647619Y-77743571D01*
X155647619Y-77743571D02*
X155314286Y-77743571D01*
X156457143Y-78267380D02*
X156361905Y-78219761D01*
X156361905Y-78219761D02*
X156314286Y-78172142D01*
X156314286Y-78172142D02*
X156266667Y-78076904D01*
X156266667Y-78076904D02*
X156266667Y-77791190D01*
X156266667Y-77791190D02*
X156314286Y-77695952D01*
X156314286Y-77695952D02*
X156361905Y-77648333D01*
X156361905Y-77648333D02*
X156457143Y-77600714D01*
X156457143Y-77600714D02*
X156600000Y-77600714D01*
X156600000Y-77600714D02*
X156695238Y-77648333D01*
X156695238Y-77648333D02*
X156742857Y-77695952D01*
X156742857Y-77695952D02*
X156790476Y-77791190D01*
X156790476Y-77791190D02*
X156790476Y-78076904D01*
X156790476Y-78076904D02*
X156742857Y-78172142D01*
X156742857Y-78172142D02*
X156695238Y-78219761D01*
X156695238Y-78219761D02*
X156600000Y-78267380D01*
X156600000Y-78267380D02*
X156457143Y-78267380D01*
X157647619Y-78267380D02*
X157647619Y-77743571D01*
X157647619Y-77743571D02*
X157600000Y-77648333D01*
X157600000Y-77648333D02*
X157504762Y-77600714D01*
X157504762Y-77600714D02*
X157314286Y-77600714D01*
X157314286Y-77600714D02*
X157219048Y-77648333D01*
X157647619Y-78219761D02*
X157552381Y-78267380D01*
X157552381Y-78267380D02*
X157314286Y-78267380D01*
X157314286Y-78267380D02*
X157219048Y-78219761D01*
X157219048Y-78219761D02*
X157171429Y-78124523D01*
X157171429Y-78124523D02*
X157171429Y-78029285D01*
X157171429Y-78029285D02*
X157219048Y-77934047D01*
X157219048Y-77934047D02*
X157314286Y-77886428D01*
X157314286Y-77886428D02*
X157552381Y-77886428D01*
X157552381Y-77886428D02*
X157647619Y-77838809D01*
X158123810Y-78267380D02*
X158123810Y-77600714D01*
X158123810Y-77791190D02*
X158171429Y-77695952D01*
X158171429Y-77695952D02*
X158219048Y-77648333D01*
X158219048Y-77648333D02*
X158314286Y-77600714D01*
X158314286Y-77600714D02*
X158409524Y-77600714D01*
X159171429Y-78267380D02*
X159171429Y-77267380D01*
X159171429Y-78219761D02*
X159076191Y-78267380D01*
X159076191Y-78267380D02*
X158885715Y-78267380D01*
X158885715Y-78267380D02*
X158790477Y-78219761D01*
X158790477Y-78219761D02*
X158742858Y-78172142D01*
X158742858Y-78172142D02*
X158695239Y-78076904D01*
X158695239Y-78076904D02*
X158695239Y-77791190D01*
X158695239Y-77791190D02*
X158742858Y-77695952D01*
X158742858Y-77695952D02*
X158790477Y-77648333D01*
X158790477Y-77648333D02*
X158885715Y-77600714D01*
X158885715Y-77600714D02*
X159076191Y-77600714D01*
X159076191Y-77600714D02*
X159171429Y-77648333D01*
X204566666Y-56315000D02*
X204471428Y-56267380D01*
X204471428Y-56267380D02*
X204328571Y-56267380D01*
X204328571Y-56267380D02*
X204185714Y-56315000D01*
X204185714Y-56315000D02*
X204090476Y-56410238D01*
X204090476Y-56410238D02*
X204042857Y-56505476D01*
X204042857Y-56505476D02*
X203995238Y-56695952D01*
X203995238Y-56695952D02*
X203995238Y-56838809D01*
X203995238Y-56838809D02*
X204042857Y-57029285D01*
X204042857Y-57029285D02*
X204090476Y-57124523D01*
X204090476Y-57124523D02*
X204185714Y-57219761D01*
X204185714Y-57219761D02*
X204328571Y-57267380D01*
X204328571Y-57267380D02*
X204423809Y-57267380D01*
X204423809Y-57267380D02*
X204566666Y-57219761D01*
X204566666Y-57219761D02*
X204614285Y-57172142D01*
X204614285Y-57172142D02*
X204614285Y-56838809D01*
X204614285Y-56838809D02*
X204423809Y-56838809D01*
X205042857Y-57267380D02*
X205042857Y-56267380D01*
X205042857Y-56267380D02*
X205423809Y-56267380D01*
X205423809Y-56267380D02*
X205519047Y-56315000D01*
X205519047Y-56315000D02*
X205566666Y-56362619D01*
X205566666Y-56362619D02*
X205614285Y-56457857D01*
X205614285Y-56457857D02*
X205614285Y-56600714D01*
X205614285Y-56600714D02*
X205566666Y-56695952D01*
X205566666Y-56695952D02*
X205519047Y-56743571D01*
X205519047Y-56743571D02*
X205423809Y-56791190D01*
X205423809Y-56791190D02*
X205042857Y-56791190D01*
X205995238Y-57219761D02*
X206138095Y-57267380D01*
X206138095Y-57267380D02*
X206376190Y-57267380D01*
X206376190Y-57267380D02*
X206471428Y-57219761D01*
X206471428Y-57219761D02*
X206519047Y-57172142D01*
X206519047Y-57172142D02*
X206566666Y-57076904D01*
X206566666Y-57076904D02*
X206566666Y-56981666D01*
X206566666Y-56981666D02*
X206519047Y-56886428D01*
X206519047Y-56886428D02*
X206471428Y-56838809D01*
X206471428Y-56838809D02*
X206376190Y-56791190D01*
X206376190Y-56791190D02*
X206185714Y-56743571D01*
X206185714Y-56743571D02*
X206090476Y-56695952D01*
X206090476Y-56695952D02*
X206042857Y-56648333D01*
X206042857Y-56648333D02*
X205995238Y-56553095D01*
X205995238Y-56553095D02*
X205995238Y-56457857D01*
X205995238Y-56457857D02*
X206042857Y-56362619D01*
X206042857Y-56362619D02*
X206090476Y-56315000D01*
X206090476Y-56315000D02*
X206185714Y-56267380D01*
X206185714Y-56267380D02*
X206423809Y-56267380D01*
X206423809Y-56267380D02*
X206566666Y-56315000D01*
X207595238Y-57267380D02*
X207595238Y-56267380D01*
X207595238Y-56267380D02*
X207928571Y-56981666D01*
X207928571Y-56981666D02*
X208261904Y-56267380D01*
X208261904Y-56267380D02*
X208261904Y-57267380D01*
X208880952Y-57267380D02*
X208785714Y-57219761D01*
X208785714Y-57219761D02*
X208738095Y-57172142D01*
X208738095Y-57172142D02*
X208690476Y-57076904D01*
X208690476Y-57076904D02*
X208690476Y-56791190D01*
X208690476Y-56791190D02*
X208738095Y-56695952D01*
X208738095Y-56695952D02*
X208785714Y-56648333D01*
X208785714Y-56648333D02*
X208880952Y-56600714D01*
X208880952Y-56600714D02*
X209023809Y-56600714D01*
X209023809Y-56600714D02*
X209119047Y-56648333D01*
X209119047Y-56648333D02*
X209166666Y-56695952D01*
X209166666Y-56695952D02*
X209214285Y-56791190D01*
X209214285Y-56791190D02*
X209214285Y-57076904D01*
X209214285Y-57076904D02*
X209166666Y-57172142D01*
X209166666Y-57172142D02*
X209119047Y-57219761D01*
X209119047Y-57219761D02*
X209023809Y-57267380D01*
X209023809Y-57267380D02*
X208880952Y-57267380D01*
X210071428Y-57267380D02*
X210071428Y-56267380D01*
X210071428Y-57219761D02*
X209976190Y-57267380D01*
X209976190Y-57267380D02*
X209785714Y-57267380D01*
X209785714Y-57267380D02*
X209690476Y-57219761D01*
X209690476Y-57219761D02*
X209642857Y-57172142D01*
X209642857Y-57172142D02*
X209595238Y-57076904D01*
X209595238Y-57076904D02*
X209595238Y-56791190D01*
X209595238Y-56791190D02*
X209642857Y-56695952D01*
X209642857Y-56695952D02*
X209690476Y-56648333D01*
X209690476Y-56648333D02*
X209785714Y-56600714D01*
X209785714Y-56600714D02*
X209976190Y-56600714D01*
X209976190Y-56600714D02*
X210071428Y-56648333D01*
X210976190Y-56600714D02*
X210976190Y-57267380D01*
X210547619Y-56600714D02*
X210547619Y-57124523D01*
X210547619Y-57124523D02*
X210595238Y-57219761D01*
X210595238Y-57219761D02*
X210690476Y-57267380D01*
X210690476Y-57267380D02*
X210833333Y-57267380D01*
X210833333Y-57267380D02*
X210928571Y-57219761D01*
X210928571Y-57219761D02*
X210976190Y-57172142D01*
X211595238Y-57267380D02*
X211500000Y-57219761D01*
X211500000Y-57219761D02*
X211452381Y-57124523D01*
X211452381Y-57124523D02*
X211452381Y-56267380D01*
X212357143Y-57219761D02*
X212261905Y-57267380D01*
X212261905Y-57267380D02*
X212071429Y-57267380D01*
X212071429Y-57267380D02*
X211976191Y-57219761D01*
X211976191Y-57219761D02*
X211928572Y-57124523D01*
X211928572Y-57124523D02*
X211928572Y-56743571D01*
X211928572Y-56743571D02*
X211976191Y-56648333D01*
X211976191Y-56648333D02*
X212071429Y-56600714D01*
X212071429Y-56600714D02*
X212261905Y-56600714D01*
X212261905Y-56600714D02*
X212357143Y-56648333D01*
X212357143Y-56648333D02*
X212404762Y-56743571D01*
X212404762Y-56743571D02*
X212404762Y-56838809D01*
X212404762Y-56838809D02*
X211928572Y-56934047D01*
X62938095Y-46815000D02*
X62842857Y-46767380D01*
X62842857Y-46767380D02*
X62700000Y-46767380D01*
X62700000Y-46767380D02*
X62557143Y-46815000D01*
X62557143Y-46815000D02*
X62461905Y-46910238D01*
X62461905Y-46910238D02*
X62414286Y-47005476D01*
X62414286Y-47005476D02*
X62366667Y-47195952D01*
X62366667Y-47195952D02*
X62366667Y-47338809D01*
X62366667Y-47338809D02*
X62414286Y-47529285D01*
X62414286Y-47529285D02*
X62461905Y-47624523D01*
X62461905Y-47624523D02*
X62557143Y-47719761D01*
X62557143Y-47719761D02*
X62700000Y-47767380D01*
X62700000Y-47767380D02*
X62795238Y-47767380D01*
X62795238Y-47767380D02*
X62938095Y-47719761D01*
X62938095Y-47719761D02*
X62985714Y-47672142D01*
X62985714Y-47672142D02*
X62985714Y-47338809D01*
X62985714Y-47338809D02*
X62795238Y-47338809D01*
X63414286Y-47767380D02*
X63414286Y-46767380D01*
X63414286Y-46767380D02*
X63985714Y-47767380D01*
X63985714Y-47767380D02*
X63985714Y-46767380D01*
X64461905Y-47767380D02*
X64461905Y-46767380D01*
X64461905Y-46767380D02*
X64700000Y-46767380D01*
X64700000Y-46767380D02*
X64842857Y-46815000D01*
X64842857Y-46815000D02*
X64938095Y-46910238D01*
X64938095Y-46910238D02*
X64985714Y-47005476D01*
X64985714Y-47005476D02*
X65033333Y-47195952D01*
X65033333Y-47195952D02*
X65033333Y-47338809D01*
X65033333Y-47338809D02*
X64985714Y-47529285D01*
X64985714Y-47529285D02*
X64938095Y-47624523D01*
X64938095Y-47624523D02*
X64842857Y-47719761D01*
X64842857Y-47719761D02*
X64700000Y-47767380D01*
X64700000Y-47767380D02*
X64461905Y-47767380D01*
X131318095Y-134035000D02*
X131222857Y-133987380D01*
X131222857Y-133987380D02*
X131080000Y-133987380D01*
X131080000Y-133987380D02*
X130937143Y-134035000D01*
X130937143Y-134035000D02*
X130841905Y-134130238D01*
X130841905Y-134130238D02*
X130794286Y-134225476D01*
X130794286Y-134225476D02*
X130746667Y-134415952D01*
X130746667Y-134415952D02*
X130746667Y-134558809D01*
X130746667Y-134558809D02*
X130794286Y-134749285D01*
X130794286Y-134749285D02*
X130841905Y-134844523D01*
X130841905Y-134844523D02*
X130937143Y-134939761D01*
X130937143Y-134939761D02*
X131080000Y-134987380D01*
X131080000Y-134987380D02*
X131175238Y-134987380D01*
X131175238Y-134987380D02*
X131318095Y-134939761D01*
X131318095Y-134939761D02*
X131365714Y-134892142D01*
X131365714Y-134892142D02*
X131365714Y-134558809D01*
X131365714Y-134558809D02*
X131175238Y-134558809D01*
X131794286Y-134987380D02*
X131794286Y-133987380D01*
X131794286Y-133987380D02*
X132365714Y-134987380D01*
X132365714Y-134987380D02*
X132365714Y-133987380D01*
X132841905Y-134987380D02*
X132841905Y-133987380D01*
X132841905Y-133987380D02*
X133080000Y-133987380D01*
X133080000Y-133987380D02*
X133222857Y-134035000D01*
X133222857Y-134035000D02*
X133318095Y-134130238D01*
X133318095Y-134130238D02*
X133365714Y-134225476D01*
X133365714Y-134225476D02*
X133413333Y-134415952D01*
X133413333Y-134415952D02*
X133413333Y-134558809D01*
X133413333Y-134558809D02*
X133365714Y-134749285D01*
X133365714Y-134749285D02*
X133318095Y-134844523D01*
X133318095Y-134844523D02*
X133222857Y-134939761D01*
X133222857Y-134939761D02*
X133080000Y-134987380D01*
X133080000Y-134987380D02*
X132841905Y-134987380D01*
X131653333Y-139067380D02*
X132272380Y-139067380D01*
X132272380Y-139067380D02*
X131939047Y-139448333D01*
X131939047Y-139448333D02*
X132081904Y-139448333D01*
X132081904Y-139448333D02*
X132177142Y-139495952D01*
X132177142Y-139495952D02*
X132224761Y-139543571D01*
X132224761Y-139543571D02*
X132272380Y-139638809D01*
X132272380Y-139638809D02*
X132272380Y-139876904D01*
X132272380Y-139876904D02*
X132224761Y-139972142D01*
X132224761Y-139972142D02*
X132177142Y-140019761D01*
X132177142Y-140019761D02*
X132081904Y-140067380D01*
X132081904Y-140067380D02*
X131796190Y-140067380D01*
X131796190Y-140067380D02*
X131700952Y-140019761D01*
X131700952Y-140019761D02*
X131653333Y-139972142D01*
X132558095Y-139067380D02*
X132891428Y-140067380D01*
X132891428Y-140067380D02*
X133224761Y-139067380D01*
X133462857Y-139067380D02*
X134081904Y-139067380D01*
X134081904Y-139067380D02*
X133748571Y-139448333D01*
X133748571Y-139448333D02*
X133891428Y-139448333D01*
X133891428Y-139448333D02*
X133986666Y-139495952D01*
X133986666Y-139495952D02*
X134034285Y-139543571D01*
X134034285Y-139543571D02*
X134081904Y-139638809D01*
X134081904Y-139638809D02*
X134081904Y-139876904D01*
X134081904Y-139876904D02*
X134034285Y-139972142D01*
X134034285Y-139972142D02*
X133986666Y-140019761D01*
X133986666Y-140019761D02*
X133891428Y-140067380D01*
X133891428Y-140067380D02*
X133605714Y-140067380D01*
X133605714Y-140067380D02*
X133510476Y-140019761D01*
X133510476Y-140019761D02*
X133462857Y-139972142D01*
X135300952Y-139067380D02*
X135491428Y-139067380D01*
X135491428Y-139067380D02*
X135586666Y-139115000D01*
X135586666Y-139115000D02*
X135681904Y-139210238D01*
X135681904Y-139210238D02*
X135729523Y-139400714D01*
X135729523Y-139400714D02*
X135729523Y-139734047D01*
X135729523Y-139734047D02*
X135681904Y-139924523D01*
X135681904Y-139924523D02*
X135586666Y-140019761D01*
X135586666Y-140019761D02*
X135491428Y-140067380D01*
X135491428Y-140067380D02*
X135300952Y-140067380D01*
X135300952Y-140067380D02*
X135205714Y-140019761D01*
X135205714Y-140019761D02*
X135110476Y-139924523D01*
X135110476Y-139924523D02*
X135062857Y-139734047D01*
X135062857Y-139734047D02*
X135062857Y-139400714D01*
X135062857Y-139400714D02*
X135110476Y-139210238D01*
X135110476Y-139210238D02*
X135205714Y-139115000D01*
X135205714Y-139115000D02*
X135300952Y-139067380D01*
X136158095Y-139067380D02*
X136158095Y-139876904D01*
X136158095Y-139876904D02*
X136205714Y-139972142D01*
X136205714Y-139972142D02*
X136253333Y-140019761D01*
X136253333Y-140019761D02*
X136348571Y-140067380D01*
X136348571Y-140067380D02*
X136539047Y-140067380D01*
X136539047Y-140067380D02*
X136634285Y-140019761D01*
X136634285Y-140019761D02*
X136681904Y-139972142D01*
X136681904Y-139972142D02*
X136729523Y-139876904D01*
X136729523Y-139876904D02*
X136729523Y-139067380D01*
X137062857Y-139067380D02*
X137634285Y-139067380D01*
X137348571Y-140067380D02*
X137348571Y-139067380D01*
X134651905Y-133987380D02*
X135270952Y-133987380D01*
X135270952Y-133987380D02*
X134937619Y-134368333D01*
X134937619Y-134368333D02*
X135080476Y-134368333D01*
X135080476Y-134368333D02*
X135175714Y-134415952D01*
X135175714Y-134415952D02*
X135223333Y-134463571D01*
X135223333Y-134463571D02*
X135270952Y-134558809D01*
X135270952Y-134558809D02*
X135270952Y-134796904D01*
X135270952Y-134796904D02*
X135223333Y-134892142D01*
X135223333Y-134892142D02*
X135175714Y-134939761D01*
X135175714Y-134939761D02*
X135080476Y-134987380D01*
X135080476Y-134987380D02*
X134794762Y-134987380D01*
X134794762Y-134987380D02*
X134699524Y-134939761D01*
X134699524Y-134939761D02*
X134651905Y-134892142D01*
X135556667Y-133987380D02*
X135890000Y-134987380D01*
X135890000Y-134987380D02*
X136223333Y-133987380D01*
X136461429Y-133987380D02*
X137080476Y-133987380D01*
X137080476Y-133987380D02*
X136747143Y-134368333D01*
X136747143Y-134368333D02*
X136890000Y-134368333D01*
X136890000Y-134368333D02*
X136985238Y-134415952D01*
X136985238Y-134415952D02*
X137032857Y-134463571D01*
X137032857Y-134463571D02*
X137080476Y-134558809D01*
X137080476Y-134558809D02*
X137080476Y-134796904D01*
X137080476Y-134796904D02*
X137032857Y-134892142D01*
X137032857Y-134892142D02*
X136985238Y-134939761D01*
X136985238Y-134939761D02*
X136890000Y-134987380D01*
X136890000Y-134987380D02*
X136604286Y-134987380D01*
X136604286Y-134987380D02*
X136509048Y-134939761D01*
X136509048Y-134939761D02*
X136461429Y-134892142D01*
X65742857Y-47286428D02*
X66504762Y-47286428D01*
X66123809Y-47667380D02*
X66123809Y-46905476D01*
X67457142Y-46667380D02*
X66980952Y-46667380D01*
X66980952Y-46667380D02*
X66933333Y-47143571D01*
X66933333Y-47143571D02*
X66980952Y-47095952D01*
X66980952Y-47095952D02*
X67076190Y-47048333D01*
X67076190Y-47048333D02*
X67314285Y-47048333D01*
X67314285Y-47048333D02*
X67409523Y-47095952D01*
X67409523Y-47095952D02*
X67457142Y-47143571D01*
X67457142Y-47143571D02*
X67504761Y-47238809D01*
X67504761Y-47238809D02*
X67504761Y-47476904D01*
X67504761Y-47476904D02*
X67457142Y-47572142D01*
X67457142Y-47572142D02*
X67409523Y-47619761D01*
X67409523Y-47619761D02*
X67314285Y-47667380D01*
X67314285Y-47667380D02*
X67076190Y-47667380D01*
X67076190Y-47667380D02*
X66980952Y-47619761D01*
X66980952Y-47619761D02*
X66933333Y-47572142D01*
X105532619Y-44147619D02*
X106532619Y-44147619D01*
X106532619Y-44147619D02*
X106532619Y-44528571D01*
X106532619Y-44528571D02*
X106485000Y-44623809D01*
X106485000Y-44623809D02*
X106437380Y-44671428D01*
X106437380Y-44671428D02*
X106342142Y-44719047D01*
X106342142Y-44719047D02*
X106199285Y-44719047D01*
X106199285Y-44719047D02*
X106104047Y-44671428D01*
X106104047Y-44671428D02*
X106056428Y-44623809D01*
X106056428Y-44623809D02*
X106008809Y-44528571D01*
X106008809Y-44528571D02*
X106008809Y-44147619D01*
X106532619Y-45052381D02*
X105532619Y-45290476D01*
X105532619Y-45290476D02*
X106246904Y-45480952D01*
X106246904Y-45480952D02*
X105532619Y-45671428D01*
X105532619Y-45671428D02*
X106532619Y-45909524D01*
X105532619Y-46861904D02*
X106008809Y-46528571D01*
X105532619Y-46290476D02*
X106532619Y-46290476D01*
X106532619Y-46290476D02*
X106532619Y-46671428D01*
X106532619Y-46671428D02*
X106485000Y-46766666D01*
X106485000Y-46766666D02*
X106437380Y-46814285D01*
X106437380Y-46814285D02*
X106342142Y-46861904D01*
X106342142Y-46861904D02*
X106199285Y-46861904D01*
X106199285Y-46861904D02*
X106104047Y-46814285D01*
X106104047Y-46814285D02*
X106056428Y-46766666D01*
X106056428Y-46766666D02*
X106008809Y-46671428D01*
X106008809Y-46671428D02*
X106008809Y-46290476D01*
X105532619Y-47890476D02*
X106532619Y-47890476D01*
X106532619Y-47890476D02*
X105818333Y-48223809D01*
X105818333Y-48223809D02*
X106532619Y-48557142D01*
X106532619Y-48557142D02*
X105532619Y-48557142D01*
X105532619Y-49176190D02*
X105580238Y-49080952D01*
X105580238Y-49080952D02*
X105627857Y-49033333D01*
X105627857Y-49033333D02*
X105723095Y-48985714D01*
X105723095Y-48985714D02*
X106008809Y-48985714D01*
X106008809Y-48985714D02*
X106104047Y-49033333D01*
X106104047Y-49033333D02*
X106151666Y-49080952D01*
X106151666Y-49080952D02*
X106199285Y-49176190D01*
X106199285Y-49176190D02*
X106199285Y-49319047D01*
X106199285Y-49319047D02*
X106151666Y-49414285D01*
X106151666Y-49414285D02*
X106104047Y-49461904D01*
X106104047Y-49461904D02*
X106008809Y-49509523D01*
X106008809Y-49509523D02*
X105723095Y-49509523D01*
X105723095Y-49509523D02*
X105627857Y-49461904D01*
X105627857Y-49461904D02*
X105580238Y-49414285D01*
X105580238Y-49414285D02*
X105532619Y-49319047D01*
X105532619Y-49319047D02*
X105532619Y-49176190D01*
X105532619Y-50366666D02*
X106532619Y-50366666D01*
X105580238Y-50366666D02*
X105532619Y-50271428D01*
X105532619Y-50271428D02*
X105532619Y-50080952D01*
X105532619Y-50080952D02*
X105580238Y-49985714D01*
X105580238Y-49985714D02*
X105627857Y-49938095D01*
X105627857Y-49938095D02*
X105723095Y-49890476D01*
X105723095Y-49890476D02*
X106008809Y-49890476D01*
X106008809Y-49890476D02*
X106104047Y-49938095D01*
X106104047Y-49938095D02*
X106151666Y-49985714D01*
X106151666Y-49985714D02*
X106199285Y-50080952D01*
X106199285Y-50080952D02*
X106199285Y-50271428D01*
X106199285Y-50271428D02*
X106151666Y-50366666D01*
X106199285Y-51271428D02*
X105532619Y-51271428D01*
X106199285Y-50842857D02*
X105675476Y-50842857D01*
X105675476Y-50842857D02*
X105580238Y-50890476D01*
X105580238Y-50890476D02*
X105532619Y-50985714D01*
X105532619Y-50985714D02*
X105532619Y-51128571D01*
X105532619Y-51128571D02*
X105580238Y-51223809D01*
X105580238Y-51223809D02*
X105627857Y-51271428D01*
X105532619Y-51890476D02*
X105580238Y-51795238D01*
X105580238Y-51795238D02*
X105675476Y-51747619D01*
X105675476Y-51747619D02*
X106532619Y-51747619D01*
X105580238Y-52652381D02*
X105532619Y-52557143D01*
X105532619Y-52557143D02*
X105532619Y-52366667D01*
X105532619Y-52366667D02*
X105580238Y-52271429D01*
X105580238Y-52271429D02*
X105675476Y-52223810D01*
X105675476Y-52223810D02*
X106056428Y-52223810D01*
X106056428Y-52223810D02*
X106151666Y-52271429D01*
X106151666Y-52271429D02*
X106199285Y-52366667D01*
X106199285Y-52366667D02*
X106199285Y-52557143D01*
X106199285Y-52557143D02*
X106151666Y-52652381D01*
X106151666Y-52652381D02*
X106056428Y-52700000D01*
X106056428Y-52700000D02*
X105961190Y-52700000D01*
X105961190Y-52700000D02*
X105865952Y-52223810D01*
X103532619Y-100747619D02*
X104532619Y-100747619D01*
X104532619Y-100747619D02*
X104532619Y-101128571D01*
X104532619Y-101128571D02*
X104485000Y-101223809D01*
X104485000Y-101223809D02*
X104437380Y-101271428D01*
X104437380Y-101271428D02*
X104342142Y-101319047D01*
X104342142Y-101319047D02*
X104199285Y-101319047D01*
X104199285Y-101319047D02*
X104104047Y-101271428D01*
X104104047Y-101271428D02*
X104056428Y-101223809D01*
X104056428Y-101223809D02*
X104008809Y-101128571D01*
X104008809Y-101128571D02*
X104008809Y-100747619D01*
X104532619Y-101652381D02*
X103532619Y-101890476D01*
X103532619Y-101890476D02*
X104246904Y-102080952D01*
X104246904Y-102080952D02*
X103532619Y-102271428D01*
X103532619Y-102271428D02*
X104532619Y-102509524D01*
X103532619Y-103461904D02*
X104008809Y-103128571D01*
X103532619Y-102890476D02*
X104532619Y-102890476D01*
X104532619Y-102890476D02*
X104532619Y-103271428D01*
X104532619Y-103271428D02*
X104485000Y-103366666D01*
X104485000Y-103366666D02*
X104437380Y-103414285D01*
X104437380Y-103414285D02*
X104342142Y-103461904D01*
X104342142Y-103461904D02*
X104199285Y-103461904D01*
X104199285Y-103461904D02*
X104104047Y-103414285D01*
X104104047Y-103414285D02*
X104056428Y-103366666D01*
X104056428Y-103366666D02*
X104008809Y-103271428D01*
X104008809Y-103271428D02*
X104008809Y-102890476D01*
X103532619Y-104490476D02*
X104532619Y-104490476D01*
X104532619Y-104490476D02*
X103818333Y-104823809D01*
X103818333Y-104823809D02*
X104532619Y-105157142D01*
X104532619Y-105157142D02*
X103532619Y-105157142D01*
X104532619Y-105823809D02*
X104532619Y-106014285D01*
X104532619Y-106014285D02*
X104485000Y-106109523D01*
X104485000Y-106109523D02*
X104389761Y-106204761D01*
X104389761Y-106204761D02*
X104199285Y-106252380D01*
X104199285Y-106252380D02*
X103865952Y-106252380D01*
X103865952Y-106252380D02*
X103675476Y-106204761D01*
X103675476Y-106204761D02*
X103580238Y-106109523D01*
X103580238Y-106109523D02*
X103532619Y-106014285D01*
X103532619Y-106014285D02*
X103532619Y-105823809D01*
X103532619Y-105823809D02*
X103580238Y-105728571D01*
X103580238Y-105728571D02*
X103675476Y-105633333D01*
X103675476Y-105633333D02*
X103865952Y-105585714D01*
X103865952Y-105585714D02*
X104199285Y-105585714D01*
X104199285Y-105585714D02*
X104389761Y-105633333D01*
X104389761Y-105633333D02*
X104485000Y-105728571D01*
X104485000Y-105728571D02*
X104532619Y-105823809D01*
X103532619Y-106680952D02*
X104532619Y-106680952D01*
X104532619Y-106680952D02*
X103532619Y-107252380D01*
X103532619Y-107252380D02*
X104532619Y-107252380D01*
X64247619Y-52267380D02*
X63771429Y-52267380D01*
X63771429Y-52267380D02*
X63723810Y-52743571D01*
X63723810Y-52743571D02*
X63771429Y-52695952D01*
X63771429Y-52695952D02*
X63866667Y-52648333D01*
X63866667Y-52648333D02*
X64104762Y-52648333D01*
X64104762Y-52648333D02*
X64200000Y-52695952D01*
X64200000Y-52695952D02*
X64247619Y-52743571D01*
X64247619Y-52743571D02*
X64295238Y-52838809D01*
X64295238Y-52838809D02*
X64295238Y-53076904D01*
X64295238Y-53076904D02*
X64247619Y-53172142D01*
X64247619Y-53172142D02*
X64200000Y-53219761D01*
X64200000Y-53219761D02*
X64104762Y-53267380D01*
X64104762Y-53267380D02*
X63866667Y-53267380D01*
X63866667Y-53267380D02*
X63771429Y-53219761D01*
X63771429Y-53219761D02*
X63723810Y-53172142D01*
X64580953Y-52267380D02*
X64914286Y-53267380D01*
X64914286Y-53267380D02*
X65247619Y-52267380D01*
X66180953Y-53267380D02*
X66180953Y-52267380D01*
X66657143Y-53267380D02*
X66657143Y-52267380D01*
X66657143Y-52267380D02*
X67228571Y-53267380D01*
X67228571Y-53267380D02*
X67228571Y-52267380D01*
X187672379Y-135907380D02*
X187672379Y-134907380D01*
X187672379Y-135383571D02*
X188243807Y-135383571D01*
X188243807Y-135907380D02*
X188243807Y-134907380D01*
X188719998Y-135907380D02*
X188719998Y-135240714D01*
X188719998Y-134907380D02*
X188672379Y-134955000D01*
X188672379Y-134955000D02*
X188719998Y-135002619D01*
X188719998Y-135002619D02*
X188767617Y-134955000D01*
X188767617Y-134955000D02*
X188719998Y-134907380D01*
X188719998Y-134907380D02*
X188719998Y-135002619D01*
X189624759Y-135240714D02*
X189624759Y-136050238D01*
X189624759Y-136050238D02*
X189577140Y-136145476D01*
X189577140Y-136145476D02*
X189529521Y-136193095D01*
X189529521Y-136193095D02*
X189434283Y-136240714D01*
X189434283Y-136240714D02*
X189291426Y-136240714D01*
X189291426Y-136240714D02*
X189196188Y-136193095D01*
X189624759Y-135859761D02*
X189529521Y-135907380D01*
X189529521Y-135907380D02*
X189339045Y-135907380D01*
X189339045Y-135907380D02*
X189243807Y-135859761D01*
X189243807Y-135859761D02*
X189196188Y-135812142D01*
X189196188Y-135812142D02*
X189148569Y-135716904D01*
X189148569Y-135716904D02*
X189148569Y-135431190D01*
X189148569Y-135431190D02*
X189196188Y-135335952D01*
X189196188Y-135335952D02*
X189243807Y-135288333D01*
X189243807Y-135288333D02*
X189339045Y-135240714D01*
X189339045Y-135240714D02*
X189529521Y-135240714D01*
X189529521Y-135240714D02*
X189624759Y-135288333D01*
X190100950Y-135907380D02*
X190100950Y-134907380D01*
X190529521Y-135907380D02*
X190529521Y-135383571D01*
X190529521Y-135383571D02*
X190481902Y-135288333D01*
X190481902Y-135288333D02*
X190386664Y-135240714D01*
X190386664Y-135240714D02*
X190243807Y-135240714D01*
X190243807Y-135240714D02*
X190148569Y-135288333D01*
X190148569Y-135288333D02*
X190100950Y-135335952D01*
X191558093Y-135621666D02*
X192034283Y-135621666D01*
X191462855Y-135907380D02*
X191796188Y-134907380D01*
X191796188Y-134907380D02*
X192129521Y-135907380D01*
X192605712Y-135907380D02*
X192510474Y-135859761D01*
X192510474Y-135859761D02*
X192462855Y-135764523D01*
X192462855Y-135764523D02*
X192462855Y-134907380D01*
X192843808Y-135240714D02*
X193224760Y-135240714D01*
X192986665Y-134907380D02*
X192986665Y-135764523D01*
X192986665Y-135764523D02*
X193034284Y-135859761D01*
X193034284Y-135859761D02*
X193129522Y-135907380D01*
X193129522Y-135907380D02*
X193224760Y-135907380D01*
X193558094Y-135907380D02*
X193558094Y-135240714D01*
X193558094Y-134907380D02*
X193510475Y-134955000D01*
X193510475Y-134955000D02*
X193558094Y-135002619D01*
X193558094Y-135002619D02*
X193605713Y-134955000D01*
X193605713Y-134955000D02*
X193558094Y-134907380D01*
X193558094Y-134907380D02*
X193558094Y-135002619D01*
X193891427Y-135240714D02*
X194272379Y-135240714D01*
X194034284Y-134907380D02*
X194034284Y-135764523D01*
X194034284Y-135764523D02*
X194081903Y-135859761D01*
X194081903Y-135859761D02*
X194177141Y-135907380D01*
X194177141Y-135907380D02*
X194272379Y-135907380D01*
X195034284Y-135240714D02*
X195034284Y-135907380D01*
X194605713Y-135240714D02*
X194605713Y-135764523D01*
X194605713Y-135764523D02*
X194653332Y-135859761D01*
X194653332Y-135859761D02*
X194748570Y-135907380D01*
X194748570Y-135907380D02*
X194891427Y-135907380D01*
X194891427Y-135907380D02*
X194986665Y-135859761D01*
X194986665Y-135859761D02*
X195034284Y-135812142D01*
X195939046Y-135907380D02*
X195939046Y-134907380D01*
X195939046Y-135859761D02*
X195843808Y-135907380D01*
X195843808Y-135907380D02*
X195653332Y-135907380D01*
X195653332Y-135907380D02*
X195558094Y-135859761D01*
X195558094Y-135859761D02*
X195510475Y-135812142D01*
X195510475Y-135812142D02*
X195462856Y-135716904D01*
X195462856Y-135716904D02*
X195462856Y-135431190D01*
X195462856Y-135431190D02*
X195510475Y-135335952D01*
X195510475Y-135335952D02*
X195558094Y-135288333D01*
X195558094Y-135288333D02*
X195653332Y-135240714D01*
X195653332Y-135240714D02*
X195843808Y-135240714D01*
X195843808Y-135240714D02*
X195939046Y-135288333D01*
X196796189Y-135859761D02*
X196700951Y-135907380D01*
X196700951Y-135907380D02*
X196510475Y-135907380D01*
X196510475Y-135907380D02*
X196415237Y-135859761D01*
X196415237Y-135859761D02*
X196367618Y-135764523D01*
X196367618Y-135764523D02*
X196367618Y-135383571D01*
X196367618Y-135383571D02*
X196415237Y-135288333D01*
X196415237Y-135288333D02*
X196510475Y-135240714D01*
X196510475Y-135240714D02*
X196700951Y-135240714D01*
X196700951Y-135240714D02*
X196796189Y-135288333D01*
X196796189Y-135288333D02*
X196843808Y-135383571D01*
X196843808Y-135383571D02*
X196843808Y-135478809D01*
X196843808Y-135478809D02*
X196367618Y-135574047D01*
X198443808Y-135907380D02*
X198110475Y-135431190D01*
X197872380Y-135907380D02*
X197872380Y-134907380D01*
X197872380Y-134907380D02*
X198253332Y-134907380D01*
X198253332Y-134907380D02*
X198348570Y-134955000D01*
X198348570Y-134955000D02*
X198396189Y-135002619D01*
X198396189Y-135002619D02*
X198443808Y-135097857D01*
X198443808Y-135097857D02*
X198443808Y-135240714D01*
X198443808Y-135240714D02*
X198396189Y-135335952D01*
X198396189Y-135335952D02*
X198348570Y-135383571D01*
X198348570Y-135383571D02*
X198253332Y-135431190D01*
X198253332Y-135431190D02*
X197872380Y-135431190D01*
X199253332Y-135859761D02*
X199158094Y-135907380D01*
X199158094Y-135907380D02*
X198967618Y-135907380D01*
X198967618Y-135907380D02*
X198872380Y-135859761D01*
X198872380Y-135859761D02*
X198824761Y-135764523D01*
X198824761Y-135764523D02*
X198824761Y-135383571D01*
X198824761Y-135383571D02*
X198872380Y-135288333D01*
X198872380Y-135288333D02*
X198967618Y-135240714D01*
X198967618Y-135240714D02*
X199158094Y-135240714D01*
X199158094Y-135240714D02*
X199253332Y-135288333D01*
X199253332Y-135288333D02*
X199300951Y-135383571D01*
X199300951Y-135383571D02*
X199300951Y-135478809D01*
X199300951Y-135478809D02*
X198824761Y-135574047D01*
X199729523Y-135240714D02*
X199729523Y-136240714D01*
X199729523Y-135288333D02*
X199824761Y-135240714D01*
X199824761Y-135240714D02*
X200015237Y-135240714D01*
X200015237Y-135240714D02*
X200110475Y-135288333D01*
X200110475Y-135288333D02*
X200158094Y-135335952D01*
X200158094Y-135335952D02*
X200205713Y-135431190D01*
X200205713Y-135431190D02*
X200205713Y-135716904D01*
X200205713Y-135716904D02*
X200158094Y-135812142D01*
X200158094Y-135812142D02*
X200110475Y-135859761D01*
X200110475Y-135859761D02*
X200015237Y-135907380D01*
X200015237Y-135907380D02*
X199824761Y-135907380D01*
X199824761Y-135907380D02*
X199729523Y-135859761D01*
X200777142Y-135907380D02*
X200681904Y-135859761D01*
X200681904Y-135859761D02*
X200634285Y-135812142D01*
X200634285Y-135812142D02*
X200586666Y-135716904D01*
X200586666Y-135716904D02*
X200586666Y-135431190D01*
X200586666Y-135431190D02*
X200634285Y-135335952D01*
X200634285Y-135335952D02*
X200681904Y-135288333D01*
X200681904Y-135288333D02*
X200777142Y-135240714D01*
X200777142Y-135240714D02*
X200919999Y-135240714D01*
X200919999Y-135240714D02*
X201015237Y-135288333D01*
X201015237Y-135288333D02*
X201062856Y-135335952D01*
X201062856Y-135335952D02*
X201110475Y-135431190D01*
X201110475Y-135431190D02*
X201110475Y-135716904D01*
X201110475Y-135716904D02*
X201062856Y-135812142D01*
X201062856Y-135812142D02*
X201015237Y-135859761D01*
X201015237Y-135859761D02*
X200919999Y-135907380D01*
X200919999Y-135907380D02*
X200777142Y-135907380D01*
X201539047Y-135907380D02*
X201539047Y-135240714D01*
X201539047Y-135431190D02*
X201586666Y-135335952D01*
X201586666Y-135335952D02*
X201634285Y-135288333D01*
X201634285Y-135288333D02*
X201729523Y-135240714D01*
X201729523Y-135240714D02*
X201824761Y-135240714D01*
X202015238Y-135240714D02*
X202396190Y-135240714D01*
X202158095Y-134907380D02*
X202158095Y-135764523D01*
X202158095Y-135764523D02*
X202205714Y-135859761D01*
X202205714Y-135859761D02*
X202300952Y-135907380D01*
X202300952Y-135907380D02*
X202396190Y-135907380D01*
X203110476Y-135859761D02*
X203015238Y-135907380D01*
X203015238Y-135907380D02*
X202824762Y-135907380D01*
X202824762Y-135907380D02*
X202729524Y-135859761D01*
X202729524Y-135859761D02*
X202681905Y-135764523D01*
X202681905Y-135764523D02*
X202681905Y-135383571D01*
X202681905Y-135383571D02*
X202729524Y-135288333D01*
X202729524Y-135288333D02*
X202824762Y-135240714D01*
X202824762Y-135240714D02*
X203015238Y-135240714D01*
X203015238Y-135240714D02*
X203110476Y-135288333D01*
X203110476Y-135288333D02*
X203158095Y-135383571D01*
X203158095Y-135383571D02*
X203158095Y-135478809D01*
X203158095Y-135478809D02*
X202681905Y-135574047D01*
X203586667Y-135907380D02*
X203586667Y-135240714D01*
X203586667Y-135431190D02*
X203634286Y-135335952D01*
X203634286Y-135335952D02*
X203681905Y-135288333D01*
X203681905Y-135288333D02*
X203777143Y-135240714D01*
X203777143Y-135240714D02*
X203872381Y-135240714D01*
X205091429Y-136288333D02*
X205043810Y-136240714D01*
X205043810Y-136240714D02*
X204948572Y-136097857D01*
X204948572Y-136097857D02*
X204900953Y-136002619D01*
X204900953Y-136002619D02*
X204853334Y-135859761D01*
X204853334Y-135859761D02*
X204805715Y-135621666D01*
X204805715Y-135621666D02*
X204805715Y-135431190D01*
X204805715Y-135431190D02*
X204853334Y-135193095D01*
X204853334Y-135193095D02*
X204900953Y-135050238D01*
X204900953Y-135050238D02*
X204948572Y-134955000D01*
X204948572Y-134955000D02*
X205043810Y-134812142D01*
X205043810Y-134812142D02*
X205091429Y-134764523D01*
X205472382Y-135907380D02*
X205472382Y-134907380D01*
X205472382Y-135383571D02*
X206043810Y-135383571D01*
X206043810Y-135907380D02*
X206043810Y-134907380D01*
X206472382Y-135621666D02*
X206948572Y-135621666D01*
X206377144Y-135907380D02*
X206710477Y-134907380D01*
X206710477Y-134907380D02*
X207043810Y-135907380D01*
X207948572Y-135907380D02*
X207615239Y-135431190D01*
X207377144Y-135907380D02*
X207377144Y-134907380D01*
X207377144Y-134907380D02*
X207758096Y-134907380D01*
X207758096Y-134907380D02*
X207853334Y-134955000D01*
X207853334Y-134955000D02*
X207900953Y-135002619D01*
X207900953Y-135002619D02*
X207948572Y-135097857D01*
X207948572Y-135097857D02*
X207948572Y-135240714D01*
X207948572Y-135240714D02*
X207900953Y-135335952D01*
X207900953Y-135335952D02*
X207853334Y-135383571D01*
X207853334Y-135383571D02*
X207758096Y-135431190D01*
X207758096Y-135431190D02*
X207377144Y-135431190D01*
X208281906Y-136288333D02*
X208329525Y-136240714D01*
X208329525Y-136240714D02*
X208424763Y-136097857D01*
X208424763Y-136097857D02*
X208472382Y-136002619D01*
X208472382Y-136002619D02*
X208520001Y-135859761D01*
X208520001Y-135859761D02*
X208567620Y-135621666D01*
X208567620Y-135621666D02*
X208567620Y-135431190D01*
X208567620Y-135431190D02*
X208520001Y-135193095D01*
X208520001Y-135193095D02*
X208472382Y-135050238D01*
X208472382Y-135050238D02*
X208424763Y-134955000D01*
X208424763Y-134955000D02*
X208329525Y-134812142D01*
X208329525Y-134812142D02*
X208281906Y-134764523D01*
X193924761Y-136575000D02*
X193829523Y-136527380D01*
X193829523Y-136527380D02*
X193686666Y-136527380D01*
X193686666Y-136527380D02*
X193543809Y-136575000D01*
X193543809Y-136575000D02*
X193448571Y-136670238D01*
X193448571Y-136670238D02*
X193400952Y-136765476D01*
X193400952Y-136765476D02*
X193353333Y-136955952D01*
X193353333Y-136955952D02*
X193353333Y-137098809D01*
X193353333Y-137098809D02*
X193400952Y-137289285D01*
X193400952Y-137289285D02*
X193448571Y-137384523D01*
X193448571Y-137384523D02*
X193543809Y-137479761D01*
X193543809Y-137479761D02*
X193686666Y-137527380D01*
X193686666Y-137527380D02*
X193781904Y-137527380D01*
X193781904Y-137527380D02*
X193924761Y-137479761D01*
X193924761Y-137479761D02*
X193972380Y-137432142D01*
X193972380Y-137432142D02*
X193972380Y-137098809D01*
X193972380Y-137098809D02*
X193781904Y-137098809D01*
X194781904Y-137479761D02*
X194686666Y-137527380D01*
X194686666Y-137527380D02*
X194496190Y-137527380D01*
X194496190Y-137527380D02*
X194400952Y-137479761D01*
X194400952Y-137479761D02*
X194353333Y-137384523D01*
X194353333Y-137384523D02*
X194353333Y-137003571D01*
X194353333Y-137003571D02*
X194400952Y-136908333D01*
X194400952Y-136908333D02*
X194496190Y-136860714D01*
X194496190Y-136860714D02*
X194686666Y-136860714D01*
X194686666Y-136860714D02*
X194781904Y-136908333D01*
X194781904Y-136908333D02*
X194829523Y-137003571D01*
X194829523Y-137003571D02*
X194829523Y-137098809D01*
X194829523Y-137098809D02*
X194353333Y-137194047D01*
X195258095Y-136860714D02*
X195258095Y-137527380D01*
X195258095Y-136955952D02*
X195305714Y-136908333D01*
X195305714Y-136908333D02*
X195400952Y-136860714D01*
X195400952Y-136860714D02*
X195543809Y-136860714D01*
X195543809Y-136860714D02*
X195639047Y-136908333D01*
X195639047Y-136908333D02*
X195686666Y-137003571D01*
X195686666Y-137003571D02*
X195686666Y-137527380D01*
X196067619Y-136527380D02*
X196686666Y-136527380D01*
X196686666Y-136527380D02*
X196353333Y-136908333D01*
X196353333Y-136908333D02*
X196496190Y-136908333D01*
X196496190Y-136908333D02*
X196591428Y-136955952D01*
X196591428Y-136955952D02*
X196639047Y-137003571D01*
X196639047Y-137003571D02*
X196686666Y-137098809D01*
X196686666Y-137098809D02*
X196686666Y-137336904D01*
X196686666Y-137336904D02*
X196639047Y-137432142D01*
X196639047Y-137432142D02*
X196591428Y-137479761D01*
X196591428Y-137479761D02*
X196496190Y-137527380D01*
X196496190Y-137527380D02*
X196210476Y-137527380D01*
X196210476Y-137527380D02*
X196115238Y-137479761D01*
X196115238Y-137479761D02*
X196067619Y-137432142D01*
X198286666Y-137527380D02*
X197953333Y-137051190D01*
X197715238Y-137527380D02*
X197715238Y-136527380D01*
X197715238Y-136527380D02*
X198096190Y-136527380D01*
X198096190Y-136527380D02*
X198191428Y-136575000D01*
X198191428Y-136575000D02*
X198239047Y-136622619D01*
X198239047Y-136622619D02*
X198286666Y-136717857D01*
X198286666Y-136717857D02*
X198286666Y-136860714D01*
X198286666Y-136860714D02*
X198239047Y-136955952D01*
X198239047Y-136955952D02*
X198191428Y-137003571D01*
X198191428Y-137003571D02*
X198096190Y-137051190D01*
X198096190Y-137051190D02*
X197715238Y-137051190D01*
X199096190Y-137479761D02*
X199000952Y-137527380D01*
X199000952Y-137527380D02*
X198810476Y-137527380D01*
X198810476Y-137527380D02*
X198715238Y-137479761D01*
X198715238Y-137479761D02*
X198667619Y-137384523D01*
X198667619Y-137384523D02*
X198667619Y-137003571D01*
X198667619Y-137003571D02*
X198715238Y-136908333D01*
X198715238Y-136908333D02*
X198810476Y-136860714D01*
X198810476Y-136860714D02*
X199000952Y-136860714D01*
X199000952Y-136860714D02*
X199096190Y-136908333D01*
X199096190Y-136908333D02*
X199143809Y-137003571D01*
X199143809Y-137003571D02*
X199143809Y-137098809D01*
X199143809Y-137098809D02*
X198667619Y-137194047D01*
X199477143Y-136860714D02*
X199715238Y-137527380D01*
X199715238Y-137527380D02*
X199953333Y-136860714D01*
X201458095Y-137527380D02*
X200886667Y-137527380D01*
X201172381Y-137527380D02*
X201172381Y-136527380D01*
X201172381Y-136527380D02*
X201077143Y-136670238D01*
X201077143Y-136670238D02*
X200981905Y-136765476D01*
X200981905Y-136765476D02*
X200886667Y-136813095D01*
X201886667Y-137432142D02*
X201934286Y-137479761D01*
X201934286Y-137479761D02*
X201886667Y-137527380D01*
X201886667Y-137527380D02*
X201839048Y-137479761D01*
X201839048Y-137479761D02*
X201886667Y-137432142D01*
X201886667Y-137432142D02*
X201886667Y-137527380D01*
X202553333Y-136527380D02*
X202648571Y-136527380D01*
X202648571Y-136527380D02*
X202743809Y-136575000D01*
X202743809Y-136575000D02*
X202791428Y-136622619D01*
X202791428Y-136622619D02*
X202839047Y-136717857D01*
X202839047Y-136717857D02*
X202886666Y-136908333D01*
X202886666Y-136908333D02*
X202886666Y-137146428D01*
X202886666Y-137146428D02*
X202839047Y-137336904D01*
X202839047Y-137336904D02*
X202791428Y-137432142D01*
X202791428Y-137432142D02*
X202743809Y-137479761D01*
X202743809Y-137479761D02*
X202648571Y-137527380D01*
X202648571Y-137527380D02*
X202553333Y-137527380D01*
X202553333Y-137527380D02*
X202458095Y-137479761D01*
X202458095Y-137479761D02*
X202410476Y-137432142D01*
X202410476Y-137432142D02*
X202362857Y-137336904D01*
X202362857Y-137336904D02*
X202315238Y-137146428D01*
X202315238Y-137146428D02*
X202315238Y-136908333D01*
X202315238Y-136908333D02*
X202362857Y-136717857D01*
X202362857Y-136717857D02*
X202410476Y-136622619D01*
X202410476Y-136622619D02*
X202458095Y-136575000D01*
X202458095Y-136575000D02*
X202553333Y-136527380D01*
X192534285Y-139147380D02*
X192534285Y-138147380D01*
X192534285Y-138147380D02*
X192867618Y-138861666D01*
X192867618Y-138861666D02*
X193200951Y-138147380D01*
X193200951Y-138147380D02*
X193200951Y-139147380D01*
X194105713Y-139147380D02*
X194105713Y-138623571D01*
X194105713Y-138623571D02*
X194058094Y-138528333D01*
X194058094Y-138528333D02*
X193962856Y-138480714D01*
X193962856Y-138480714D02*
X193772380Y-138480714D01*
X193772380Y-138480714D02*
X193677142Y-138528333D01*
X194105713Y-139099761D02*
X194010475Y-139147380D01*
X194010475Y-139147380D02*
X193772380Y-139147380D01*
X193772380Y-139147380D02*
X193677142Y-139099761D01*
X193677142Y-139099761D02*
X193629523Y-139004523D01*
X193629523Y-139004523D02*
X193629523Y-138909285D01*
X193629523Y-138909285D02*
X193677142Y-138814047D01*
X193677142Y-138814047D02*
X193772380Y-138766428D01*
X193772380Y-138766428D02*
X194010475Y-138766428D01*
X194010475Y-138766428D02*
X194105713Y-138718809D01*
X194439047Y-138480714D02*
X194819999Y-138480714D01*
X194581904Y-138147380D02*
X194581904Y-139004523D01*
X194581904Y-139004523D02*
X194629523Y-139099761D01*
X194629523Y-139099761D02*
X194724761Y-139147380D01*
X194724761Y-139147380D02*
X194819999Y-139147380D01*
X195010476Y-138480714D02*
X195391428Y-138480714D01*
X195153333Y-138147380D02*
X195153333Y-139004523D01*
X195153333Y-139004523D02*
X195200952Y-139099761D01*
X195200952Y-139099761D02*
X195296190Y-139147380D01*
X195296190Y-139147380D02*
X195391428Y-139147380D01*
X195724762Y-139147380D02*
X195724762Y-138147380D01*
X196153333Y-139147380D02*
X196153333Y-138623571D01*
X196153333Y-138623571D02*
X196105714Y-138528333D01*
X196105714Y-138528333D02*
X196010476Y-138480714D01*
X196010476Y-138480714D02*
X195867619Y-138480714D01*
X195867619Y-138480714D02*
X195772381Y-138528333D01*
X195772381Y-138528333D02*
X195724762Y-138575952D01*
X197010476Y-139099761D02*
X196915238Y-139147380D01*
X196915238Y-139147380D02*
X196724762Y-139147380D01*
X196724762Y-139147380D02*
X196629524Y-139099761D01*
X196629524Y-139099761D02*
X196581905Y-139004523D01*
X196581905Y-139004523D02*
X196581905Y-138623571D01*
X196581905Y-138623571D02*
X196629524Y-138528333D01*
X196629524Y-138528333D02*
X196724762Y-138480714D01*
X196724762Y-138480714D02*
X196915238Y-138480714D01*
X196915238Y-138480714D02*
X197010476Y-138528333D01*
X197010476Y-138528333D02*
X197058095Y-138623571D01*
X197058095Y-138623571D02*
X197058095Y-138718809D01*
X197058095Y-138718809D02*
X196581905Y-138814047D01*
X197391429Y-138480714D02*
X197581905Y-139147380D01*
X197581905Y-139147380D02*
X197772381Y-138671190D01*
X197772381Y-138671190D02*
X197962857Y-139147380D01*
X197962857Y-139147380D02*
X198153333Y-138480714D01*
X199134286Y-139147380D02*
X199134286Y-138147380D01*
X199134286Y-138147380D02*
X199705714Y-139147380D01*
X199705714Y-139147380D02*
X199705714Y-138147380D01*
X200562857Y-139099761D02*
X200467619Y-139147380D01*
X200467619Y-139147380D02*
X200277143Y-139147380D01*
X200277143Y-139147380D02*
X200181905Y-139099761D01*
X200181905Y-139099761D02*
X200134286Y-139004523D01*
X200134286Y-139004523D02*
X200134286Y-138623571D01*
X200134286Y-138623571D02*
X200181905Y-138528333D01*
X200181905Y-138528333D02*
X200277143Y-138480714D01*
X200277143Y-138480714D02*
X200467619Y-138480714D01*
X200467619Y-138480714D02*
X200562857Y-138528333D01*
X200562857Y-138528333D02*
X200610476Y-138623571D01*
X200610476Y-138623571D02*
X200610476Y-138718809D01*
X200610476Y-138718809D02*
X200134286Y-138814047D01*
X201181905Y-139147380D02*
X201086667Y-139099761D01*
X201086667Y-139099761D02*
X201039048Y-139004523D01*
X201039048Y-139004523D02*
X201039048Y-138147380D01*
X201515239Y-139099761D02*
X201610477Y-139147380D01*
X201610477Y-139147380D02*
X201800953Y-139147380D01*
X201800953Y-139147380D02*
X201896191Y-139099761D01*
X201896191Y-139099761D02*
X201943810Y-139004523D01*
X201943810Y-139004523D02*
X201943810Y-138956904D01*
X201943810Y-138956904D02*
X201896191Y-138861666D01*
X201896191Y-138861666D02*
X201800953Y-138814047D01*
X201800953Y-138814047D02*
X201658096Y-138814047D01*
X201658096Y-138814047D02*
X201562858Y-138766428D01*
X201562858Y-138766428D02*
X201515239Y-138671190D01*
X201515239Y-138671190D02*
X201515239Y-138623571D01*
X201515239Y-138623571D02*
X201562858Y-138528333D01*
X201562858Y-138528333D02*
X201658096Y-138480714D01*
X201658096Y-138480714D02*
X201800953Y-138480714D01*
X201800953Y-138480714D02*
X201896191Y-138528333D01*
X202515239Y-139147380D02*
X202420001Y-139099761D01*
X202420001Y-139099761D02*
X202372382Y-139052142D01*
X202372382Y-139052142D02*
X202324763Y-138956904D01*
X202324763Y-138956904D02*
X202324763Y-138671190D01*
X202324763Y-138671190D02*
X202372382Y-138575952D01*
X202372382Y-138575952D02*
X202420001Y-138528333D01*
X202420001Y-138528333D02*
X202515239Y-138480714D01*
X202515239Y-138480714D02*
X202658096Y-138480714D01*
X202658096Y-138480714D02*
X202753334Y-138528333D01*
X202753334Y-138528333D02*
X202800953Y-138575952D01*
X202800953Y-138575952D02*
X202848572Y-138671190D01*
X202848572Y-138671190D02*
X202848572Y-138956904D01*
X202848572Y-138956904D02*
X202800953Y-139052142D01*
X202800953Y-139052142D02*
X202753334Y-139099761D01*
X202753334Y-139099761D02*
X202658096Y-139147380D01*
X202658096Y-139147380D02*
X202515239Y-139147380D01*
X203277144Y-138480714D02*
X203277144Y-139147380D01*
X203277144Y-138575952D02*
X203324763Y-138528333D01*
X203324763Y-138528333D02*
X203420001Y-138480714D01*
X203420001Y-138480714D02*
X203562858Y-138480714D01*
X203562858Y-138480714D02*
X203658096Y-138528333D01*
X203658096Y-138528333D02*
X203705715Y-138623571D01*
X203705715Y-138623571D02*
X203705715Y-139147380D01*
X108490476Y-71367380D02*
X108490476Y-70367380D01*
X108490476Y-70367380D02*
X108871428Y-70367380D01*
X108871428Y-70367380D02*
X108966666Y-70415000D01*
X108966666Y-70415000D02*
X109014285Y-70462619D01*
X109014285Y-70462619D02*
X109061904Y-70557857D01*
X109061904Y-70557857D02*
X109061904Y-70700714D01*
X109061904Y-70700714D02*
X109014285Y-70795952D01*
X109014285Y-70795952D02*
X108966666Y-70843571D01*
X108966666Y-70843571D02*
X108871428Y-70891190D01*
X108871428Y-70891190D02*
X108490476Y-70891190D01*
X109395238Y-70367380D02*
X109633333Y-71367380D01*
X109633333Y-71367380D02*
X109823809Y-70653095D01*
X109823809Y-70653095D02*
X110014285Y-71367380D01*
X110014285Y-71367380D02*
X110252381Y-70367380D01*
X111204761Y-71367380D02*
X110871428Y-70891190D01*
X110633333Y-71367380D02*
X110633333Y-70367380D01*
X110633333Y-70367380D02*
X111014285Y-70367380D01*
X111014285Y-70367380D02*
X111109523Y-70415000D01*
X111109523Y-70415000D02*
X111157142Y-70462619D01*
X111157142Y-70462619D02*
X111204761Y-70557857D01*
X111204761Y-70557857D02*
X111204761Y-70700714D01*
X111204761Y-70700714D02*
X111157142Y-70795952D01*
X111157142Y-70795952D02*
X111109523Y-70843571D01*
X111109523Y-70843571D02*
X111014285Y-70891190D01*
X111014285Y-70891190D02*
X110633333Y-70891190D01*
X112233333Y-70843571D02*
X112566666Y-70843571D01*
X112709523Y-71367380D02*
X112233333Y-71367380D01*
X112233333Y-71367380D02*
X112233333Y-70367380D01*
X112233333Y-70367380D02*
X112709523Y-70367380D01*
X113138095Y-71367380D02*
X113138095Y-70367380D01*
X113138095Y-70367380D02*
X113709523Y-71367380D01*
X113709523Y-71367380D02*
X113709523Y-70367380D01*
X214732619Y-97085713D02*
X214732619Y-96609523D01*
X214732619Y-96609523D02*
X215732619Y-96609523D01*
X214732619Y-97561904D02*
X214780238Y-97466666D01*
X214780238Y-97466666D02*
X214827857Y-97419047D01*
X214827857Y-97419047D02*
X214923095Y-97371428D01*
X214923095Y-97371428D02*
X215208809Y-97371428D01*
X215208809Y-97371428D02*
X215304047Y-97419047D01*
X215304047Y-97419047D02*
X215351666Y-97466666D01*
X215351666Y-97466666D02*
X215399285Y-97561904D01*
X215399285Y-97561904D02*
X215399285Y-97704761D01*
X215399285Y-97704761D02*
X215351666Y-97799999D01*
X215351666Y-97799999D02*
X215304047Y-97847618D01*
X215304047Y-97847618D02*
X215208809Y-97895237D01*
X215208809Y-97895237D02*
X214923095Y-97895237D01*
X214923095Y-97895237D02*
X214827857Y-97847618D01*
X214827857Y-97847618D02*
X214780238Y-97799999D01*
X214780238Y-97799999D02*
X214732619Y-97704761D01*
X214732619Y-97704761D02*
X214732619Y-97561904D01*
X214732619Y-98895237D02*
X215208809Y-98561904D01*
X214732619Y-98323809D02*
X215732619Y-98323809D01*
X215732619Y-98323809D02*
X215732619Y-98704761D01*
X215732619Y-98704761D02*
X215685000Y-98799999D01*
X215685000Y-98799999D02*
X215637380Y-98847618D01*
X215637380Y-98847618D02*
X215542142Y-98895237D01*
X215542142Y-98895237D02*
X215399285Y-98895237D01*
X215399285Y-98895237D02*
X215304047Y-98847618D01*
X215304047Y-98847618D02*
X215256428Y-98799999D01*
X215256428Y-98799999D02*
X215208809Y-98704761D01*
X215208809Y-98704761D02*
X215208809Y-98323809D01*
X214732619Y-99752380D02*
X215256428Y-99752380D01*
X215256428Y-99752380D02*
X215351666Y-99704761D01*
X215351666Y-99704761D02*
X215399285Y-99609523D01*
X215399285Y-99609523D02*
X215399285Y-99419047D01*
X215399285Y-99419047D02*
X215351666Y-99323809D01*
X214780238Y-99752380D02*
X214732619Y-99657142D01*
X214732619Y-99657142D02*
X214732619Y-99419047D01*
X214732619Y-99419047D02*
X214780238Y-99323809D01*
X214780238Y-99323809D02*
X214875476Y-99276190D01*
X214875476Y-99276190D02*
X214970714Y-99276190D01*
X214970714Y-99276190D02*
X215065952Y-99323809D01*
X215065952Y-99323809D02*
X215113571Y-99419047D01*
X215113571Y-99419047D02*
X215113571Y-99657142D01*
X215113571Y-99657142D02*
X215161190Y-99752380D01*
X214732619Y-100828571D02*
X215732619Y-100828571D01*
X215732619Y-100828571D02*
X215018333Y-101161904D01*
X215018333Y-101161904D02*
X215732619Y-101495237D01*
X215732619Y-101495237D02*
X214732619Y-101495237D01*
X214732619Y-102114285D02*
X214780238Y-102019047D01*
X214780238Y-102019047D02*
X214827857Y-101971428D01*
X214827857Y-101971428D02*
X214923095Y-101923809D01*
X214923095Y-101923809D02*
X215208809Y-101923809D01*
X215208809Y-101923809D02*
X215304047Y-101971428D01*
X215304047Y-101971428D02*
X215351666Y-102019047D01*
X215351666Y-102019047D02*
X215399285Y-102114285D01*
X215399285Y-102114285D02*
X215399285Y-102257142D01*
X215399285Y-102257142D02*
X215351666Y-102352380D01*
X215351666Y-102352380D02*
X215304047Y-102399999D01*
X215304047Y-102399999D02*
X215208809Y-102447618D01*
X215208809Y-102447618D02*
X214923095Y-102447618D01*
X214923095Y-102447618D02*
X214827857Y-102399999D01*
X214827857Y-102399999D02*
X214780238Y-102352380D01*
X214780238Y-102352380D02*
X214732619Y-102257142D01*
X214732619Y-102257142D02*
X214732619Y-102114285D01*
X214732619Y-103304761D02*
X215732619Y-103304761D01*
X214780238Y-103304761D02*
X214732619Y-103209523D01*
X214732619Y-103209523D02*
X214732619Y-103019047D01*
X214732619Y-103019047D02*
X214780238Y-102923809D01*
X214780238Y-102923809D02*
X214827857Y-102876190D01*
X214827857Y-102876190D02*
X214923095Y-102828571D01*
X214923095Y-102828571D02*
X215208809Y-102828571D01*
X215208809Y-102828571D02*
X215304047Y-102876190D01*
X215304047Y-102876190D02*
X215351666Y-102923809D01*
X215351666Y-102923809D02*
X215399285Y-103019047D01*
X215399285Y-103019047D02*
X215399285Y-103209523D01*
X215399285Y-103209523D02*
X215351666Y-103304761D01*
X215399285Y-104209523D02*
X214732619Y-104209523D01*
X215399285Y-103780952D02*
X214875476Y-103780952D01*
X214875476Y-103780952D02*
X214780238Y-103828571D01*
X214780238Y-103828571D02*
X214732619Y-103923809D01*
X214732619Y-103923809D02*
X214732619Y-104066666D01*
X214732619Y-104066666D02*
X214780238Y-104161904D01*
X214780238Y-104161904D02*
X214827857Y-104209523D01*
X214732619Y-104828571D02*
X214780238Y-104733333D01*
X214780238Y-104733333D02*
X214875476Y-104685714D01*
X214875476Y-104685714D02*
X215732619Y-104685714D01*
X214780238Y-105590476D02*
X214732619Y-105495238D01*
X214732619Y-105495238D02*
X214732619Y-105304762D01*
X214732619Y-105304762D02*
X214780238Y-105209524D01*
X214780238Y-105209524D02*
X214875476Y-105161905D01*
X214875476Y-105161905D02*
X215256428Y-105161905D01*
X215256428Y-105161905D02*
X215351666Y-105209524D01*
X215351666Y-105209524D02*
X215399285Y-105304762D01*
X215399285Y-105304762D02*
X215399285Y-105495238D01*
X215399285Y-105495238D02*
X215351666Y-105590476D01*
X215351666Y-105590476D02*
X215256428Y-105638095D01*
X215256428Y-105638095D02*
X215161190Y-105638095D01*
X215161190Y-105638095D02*
X215065952Y-105161905D01*
X207338095Y-59244880D02*
X207338095Y-60054404D01*
X207338095Y-60054404D02*
X207385714Y-60149642D01*
X207385714Y-60149642D02*
X207433333Y-60197261D01*
X207433333Y-60197261D02*
X207528571Y-60244880D01*
X207528571Y-60244880D02*
X207719047Y-60244880D01*
X207719047Y-60244880D02*
X207814285Y-60197261D01*
X207814285Y-60197261D02*
X207861904Y-60149642D01*
X207861904Y-60149642D02*
X207909523Y-60054404D01*
X207909523Y-60054404D02*
X207909523Y-59244880D01*
X208814285Y-59244880D02*
X208623809Y-59244880D01*
X208623809Y-59244880D02*
X208528571Y-59292500D01*
X208528571Y-59292500D02*
X208480952Y-59340119D01*
X208480952Y-59340119D02*
X208385714Y-59482976D01*
X208385714Y-59482976D02*
X208338095Y-59673452D01*
X208338095Y-59673452D02*
X208338095Y-60054404D01*
X208338095Y-60054404D02*
X208385714Y-60149642D01*
X208385714Y-60149642D02*
X208433333Y-60197261D01*
X208433333Y-60197261D02*
X208528571Y-60244880D01*
X208528571Y-60244880D02*
X208719047Y-60244880D01*
X208719047Y-60244880D02*
X208814285Y-60197261D01*
X208814285Y-60197261D02*
X208861904Y-60149642D01*
X208861904Y-60149642D02*
X208909523Y-60054404D01*
X208909523Y-60054404D02*
X208909523Y-59816309D01*
X208909523Y-59816309D02*
X208861904Y-59721071D01*
X208861904Y-59721071D02*
X208814285Y-59673452D01*
X208814285Y-59673452D02*
X208719047Y-59625833D01*
X208719047Y-59625833D02*
X208528571Y-59625833D01*
X208528571Y-59625833D02*
X208433333Y-59673452D01*
X208433333Y-59673452D02*
X208385714Y-59721071D01*
X208385714Y-59721071D02*
X208338095Y-59816309D01*
X154638095Y-103467380D02*
X154638095Y-104276904D01*
X154638095Y-104276904D02*
X154685714Y-104372142D01*
X154685714Y-104372142D02*
X154733333Y-104419761D01*
X154733333Y-104419761D02*
X154828571Y-104467380D01*
X154828571Y-104467380D02*
X155019047Y-104467380D01*
X155019047Y-104467380D02*
X155114285Y-104419761D01*
X155114285Y-104419761D02*
X155161904Y-104372142D01*
X155161904Y-104372142D02*
X155209523Y-104276904D01*
X155209523Y-104276904D02*
X155209523Y-103467380D01*
X156114285Y-103800714D02*
X156114285Y-104467380D01*
X155876190Y-103419761D02*
X155638095Y-104134047D01*
X155638095Y-104134047D02*
X156257142Y-104134047D01*
X130192380Y-137413333D02*
X130906666Y-137413333D01*
X130906666Y-137413333D02*
X131049523Y-137460952D01*
X131049523Y-137460952D02*
X131144761Y-137556190D01*
X131144761Y-137556190D02*
X131192380Y-137699047D01*
X131192380Y-137699047D02*
X131192380Y-137794285D01*
X130192380Y-137032380D02*
X130192380Y-136413333D01*
X130192380Y-136413333D02*
X130573333Y-136746666D01*
X130573333Y-136746666D02*
X130573333Y-136603809D01*
X130573333Y-136603809D02*
X130620952Y-136508571D01*
X130620952Y-136508571D02*
X130668571Y-136460952D01*
X130668571Y-136460952D02*
X130763809Y-136413333D01*
X130763809Y-136413333D02*
X131001904Y-136413333D01*
X131001904Y-136413333D02*
X131097142Y-136460952D01*
X131097142Y-136460952D02*
X131144761Y-136508571D01*
X131144761Y-136508571D02*
X131192380Y-136603809D01*
X131192380Y-136603809D02*
X131192380Y-136889523D01*
X131192380Y-136889523D02*
X131144761Y-136984761D01*
X131144761Y-136984761D02*
X131097142Y-137032380D01*
X65638095Y-38367380D02*
X65638095Y-37367380D01*
X65638095Y-37843571D02*
X66209523Y-37843571D01*
X66209523Y-38367380D02*
X66209523Y-37367380D01*
X66638095Y-37462619D02*
X66685714Y-37415000D01*
X66685714Y-37415000D02*
X66780952Y-37367380D01*
X66780952Y-37367380D02*
X67019047Y-37367380D01*
X67019047Y-37367380D02*
X67114285Y-37415000D01*
X67114285Y-37415000D02*
X67161904Y-37462619D01*
X67161904Y-37462619D02*
X67209523Y-37557857D01*
X67209523Y-37557857D02*
X67209523Y-37653095D01*
X67209523Y-37653095D02*
X67161904Y-37795952D01*
X67161904Y-37795952D02*
X66590476Y-38367380D01*
X66590476Y-38367380D02*
X67209523Y-38367380D01*
X85003571Y-94765714D02*
X85051190Y-94622857D01*
X85051190Y-94622857D02*
X85098809Y-94575238D01*
X85098809Y-94575238D02*
X85194047Y-94527619D01*
X85194047Y-94527619D02*
X85336904Y-94527619D01*
X85336904Y-94527619D02*
X85432142Y-94575238D01*
X85432142Y-94575238D02*
X85479761Y-94622857D01*
X85479761Y-94622857D02*
X85527380Y-94718095D01*
X85527380Y-94718095D02*
X85527380Y-95099047D01*
X85527380Y-95099047D02*
X84527380Y-95099047D01*
X84527380Y-95099047D02*
X84527380Y-94765714D01*
X84527380Y-94765714D02*
X84575000Y-94670476D01*
X84575000Y-94670476D02*
X84622619Y-94622857D01*
X84622619Y-94622857D02*
X84717857Y-94575238D01*
X84717857Y-94575238D02*
X84813095Y-94575238D01*
X84813095Y-94575238D02*
X84908333Y-94622857D01*
X84908333Y-94622857D02*
X84955952Y-94670476D01*
X84955952Y-94670476D02*
X85003571Y-94765714D01*
X85003571Y-94765714D02*
X85003571Y-95099047D01*
X84527380Y-94241904D02*
X84527380Y-93670476D01*
X85527380Y-93956190D02*
X84527380Y-93956190D01*
X85527380Y-92813333D02*
X85527380Y-93384761D01*
X85527380Y-93099047D02*
X84527380Y-93099047D01*
X84527380Y-93099047D02*
X84670238Y-93194285D01*
X84670238Y-93194285D02*
X84765476Y-93289523D01*
X84765476Y-93289523D02*
X84813095Y-93384761D01*
X212932619Y-99938095D02*
X212123095Y-99938095D01*
X212123095Y-99938095D02*
X212027857Y-99985714D01*
X212027857Y-99985714D02*
X211980238Y-100033333D01*
X211980238Y-100033333D02*
X211932619Y-100128571D01*
X211932619Y-100128571D02*
X211932619Y-100319047D01*
X211932619Y-100319047D02*
X211980238Y-100414285D01*
X211980238Y-100414285D02*
X212027857Y-100461904D01*
X212027857Y-100461904D02*
X212123095Y-100509523D01*
X212123095Y-100509523D02*
X212932619Y-100509523D01*
X212932619Y-101461904D02*
X212932619Y-100985714D01*
X212932619Y-100985714D02*
X212456428Y-100938095D01*
X212456428Y-100938095D02*
X212504047Y-100985714D01*
X212504047Y-100985714D02*
X212551666Y-101080952D01*
X212551666Y-101080952D02*
X212551666Y-101319047D01*
X212551666Y-101319047D02*
X212504047Y-101414285D01*
X212504047Y-101414285D02*
X212456428Y-101461904D01*
X212456428Y-101461904D02*
X212361190Y-101509523D01*
X212361190Y-101509523D02*
X212123095Y-101509523D01*
X212123095Y-101509523D02*
X212027857Y-101461904D01*
X212027857Y-101461904D02*
X211980238Y-101414285D01*
X211980238Y-101414285D02*
X211932619Y-101319047D01*
X211932619Y-101319047D02*
X211932619Y-101080952D01*
X211932619Y-101080952D02*
X211980238Y-100985714D01*
X211980238Y-100985714D02*
X212027857Y-100938095D01*
X102892619Y-103238095D02*
X102083095Y-103238095D01*
X102083095Y-103238095D02*
X101987857Y-103285714D01*
X101987857Y-103285714D02*
X101940238Y-103333333D01*
X101940238Y-103333333D02*
X101892619Y-103428571D01*
X101892619Y-103428571D02*
X101892619Y-103619047D01*
X101892619Y-103619047D02*
X101940238Y-103714285D01*
X101940238Y-103714285D02*
X101987857Y-103761904D01*
X101987857Y-103761904D02*
X102083095Y-103809523D01*
X102083095Y-103809523D02*
X102892619Y-103809523D01*
X102797380Y-104238095D02*
X102845000Y-104285714D01*
X102845000Y-104285714D02*
X102892619Y-104380952D01*
X102892619Y-104380952D02*
X102892619Y-104619047D01*
X102892619Y-104619047D02*
X102845000Y-104714285D01*
X102845000Y-104714285D02*
X102797380Y-104761904D01*
X102797380Y-104761904D02*
X102702142Y-104809523D01*
X102702142Y-104809523D02*
X102606904Y-104809523D01*
X102606904Y-104809523D02*
X102464047Y-104761904D01*
X102464047Y-104761904D02*
X101892619Y-104190476D01*
X101892619Y-104190476D02*
X101892619Y-104809523D01*
X61162380Y-50533333D02*
X61876666Y-50533333D01*
X61876666Y-50533333D02*
X62019523Y-50580952D01*
X62019523Y-50580952D02*
X62114761Y-50676190D01*
X62114761Y-50676190D02*
X62162380Y-50819047D01*
X62162380Y-50819047D02*
X62162380Y-50914285D01*
X62162380Y-49533333D02*
X62162380Y-50104761D01*
X62162380Y-49819047D02*
X61162380Y-49819047D01*
X61162380Y-49819047D02*
X61305238Y-49914285D01*
X61305238Y-49914285D02*
X61400476Y-50009523D01*
X61400476Y-50009523D02*
X61448095Y-50104761D01*
X109053333Y-121232142D02*
X109005714Y-121279761D01*
X109005714Y-121279761D02*
X108862857Y-121327380D01*
X108862857Y-121327380D02*
X108767619Y-121327380D01*
X108767619Y-121327380D02*
X108624762Y-121279761D01*
X108624762Y-121279761D02*
X108529524Y-121184523D01*
X108529524Y-121184523D02*
X108481905Y-121089285D01*
X108481905Y-121089285D02*
X108434286Y-120898809D01*
X108434286Y-120898809D02*
X108434286Y-120755952D01*
X108434286Y-120755952D02*
X108481905Y-120565476D01*
X108481905Y-120565476D02*
X108529524Y-120470238D01*
X108529524Y-120470238D02*
X108624762Y-120375000D01*
X108624762Y-120375000D02*
X108767619Y-120327380D01*
X108767619Y-120327380D02*
X108862857Y-120327380D01*
X108862857Y-120327380D02*
X109005714Y-120375000D01*
X109005714Y-120375000D02*
X109053333Y-120422619D01*
X110005714Y-121327380D02*
X109434286Y-121327380D01*
X109720000Y-121327380D02*
X109720000Y-120327380D01*
X109720000Y-120327380D02*
X109624762Y-120470238D01*
X109624762Y-120470238D02*
X109529524Y-120565476D01*
X109529524Y-120565476D02*
X109434286Y-120613095D01*
X65538095Y-136367380D02*
X65538095Y-135367380D01*
X65538095Y-135843571D02*
X66109523Y-135843571D01*
X66109523Y-136367380D02*
X66109523Y-135367380D01*
X67109523Y-136367380D02*
X66538095Y-136367380D01*
X66823809Y-136367380D02*
X66823809Y-135367380D01*
X66823809Y-135367380D02*
X66728571Y-135510238D01*
X66728571Y-135510238D02*
X66633333Y-135605476D01*
X66633333Y-135605476D02*
X66538095Y-135653095D01*
X104002619Y-48768095D02*
X103193095Y-48768095D01*
X103193095Y-48768095D02*
X103097857Y-48815714D01*
X103097857Y-48815714D02*
X103050238Y-48863333D01*
X103050238Y-48863333D02*
X103002619Y-48958571D01*
X103002619Y-48958571D02*
X103002619Y-49149047D01*
X103002619Y-49149047D02*
X103050238Y-49244285D01*
X103050238Y-49244285D02*
X103097857Y-49291904D01*
X103097857Y-49291904D02*
X103193095Y-49339523D01*
X103193095Y-49339523D02*
X104002619Y-49339523D01*
X103002619Y-50339523D02*
X103002619Y-49768095D01*
X103002619Y-50053809D02*
X104002619Y-50053809D01*
X104002619Y-50053809D02*
X103859761Y-49958571D01*
X103859761Y-49958571D02*
X103764523Y-49863333D01*
X103764523Y-49863333D02*
X103716904Y-49768095D01*
X114172380Y-67333333D02*
X114886666Y-67333333D01*
X114886666Y-67333333D02*
X115029523Y-67380952D01*
X115029523Y-67380952D02*
X115124761Y-67476190D01*
X115124761Y-67476190D02*
X115172380Y-67619047D01*
X115172380Y-67619047D02*
X115172380Y-67714285D01*
X114267619Y-66904761D02*
X114220000Y-66857142D01*
X114220000Y-66857142D02*
X114172380Y-66761904D01*
X114172380Y-66761904D02*
X114172380Y-66523809D01*
X114172380Y-66523809D02*
X114220000Y-66428571D01*
X114220000Y-66428571D02*
X114267619Y-66380952D01*
X114267619Y-66380952D02*
X114362857Y-66333333D01*
X114362857Y-66333333D02*
X114458095Y-66333333D01*
X114458095Y-66333333D02*
X114600952Y-66380952D01*
X114600952Y-66380952D02*
X115172380Y-66952380D01*
X115172380Y-66952380D02*
X115172380Y-66333333D01*
X134453333Y-129502142D02*
X134405714Y-129549761D01*
X134405714Y-129549761D02*
X134262857Y-129597380D01*
X134262857Y-129597380D02*
X134167619Y-129597380D01*
X134167619Y-129597380D02*
X134024762Y-129549761D01*
X134024762Y-129549761D02*
X133929524Y-129454523D01*
X133929524Y-129454523D02*
X133881905Y-129359285D01*
X133881905Y-129359285D02*
X133834286Y-129168809D01*
X133834286Y-129168809D02*
X133834286Y-129025952D01*
X133834286Y-129025952D02*
X133881905Y-128835476D01*
X133881905Y-128835476D02*
X133929524Y-128740238D01*
X133929524Y-128740238D02*
X134024762Y-128645000D01*
X134024762Y-128645000D02*
X134167619Y-128597380D01*
X134167619Y-128597380D02*
X134262857Y-128597380D01*
X134262857Y-128597380D02*
X134405714Y-128645000D01*
X134405714Y-128645000D02*
X134453333Y-128692619D01*
X134834286Y-128692619D02*
X134881905Y-128645000D01*
X134881905Y-128645000D02*
X134977143Y-128597380D01*
X134977143Y-128597380D02*
X135215238Y-128597380D01*
X135215238Y-128597380D02*
X135310476Y-128645000D01*
X135310476Y-128645000D02*
X135358095Y-128692619D01*
X135358095Y-128692619D02*
X135405714Y-128787857D01*
X135405714Y-128787857D02*
X135405714Y-128883095D01*
X135405714Y-128883095D02*
X135358095Y-129025952D01*
X135358095Y-129025952D02*
X134786667Y-129597380D01*
X134786667Y-129597380D02*
X135405714Y-129597380D01*
X119072380Y-128996904D02*
X119881904Y-128996904D01*
X119881904Y-128996904D02*
X119977142Y-128949285D01*
X119977142Y-128949285D02*
X120024761Y-128901666D01*
X120024761Y-128901666D02*
X120072380Y-128806428D01*
X120072380Y-128806428D02*
X120072380Y-128615952D01*
X120072380Y-128615952D02*
X120024761Y-128520714D01*
X120024761Y-128520714D02*
X119977142Y-128473095D01*
X119977142Y-128473095D02*
X119881904Y-128425476D01*
X119881904Y-128425476D02*
X119072380Y-128425476D01*
X119072380Y-128044523D02*
X119072380Y-127425476D01*
X119072380Y-127425476D02*
X119453333Y-127758809D01*
X119453333Y-127758809D02*
X119453333Y-127615952D01*
X119453333Y-127615952D02*
X119500952Y-127520714D01*
X119500952Y-127520714D02*
X119548571Y-127473095D01*
X119548571Y-127473095D02*
X119643809Y-127425476D01*
X119643809Y-127425476D02*
X119881904Y-127425476D01*
X119881904Y-127425476D02*
X119977142Y-127473095D01*
X119977142Y-127473095D02*
X120024761Y-127520714D01*
X120024761Y-127520714D02*
X120072380Y-127615952D01*
X120072380Y-127615952D02*
X120072380Y-127901666D01*
X120072380Y-127901666D02*
X120024761Y-127996904D01*
X120024761Y-127996904D02*
X119977142Y-128044523D01*
X221038095Y-135267380D02*
X221038095Y-134267380D01*
X221038095Y-134743571D02*
X221609523Y-134743571D01*
X221609523Y-135267380D02*
X221609523Y-134267380D01*
X221990476Y-134267380D02*
X222609523Y-134267380D01*
X222609523Y-134267380D02*
X222276190Y-134648333D01*
X222276190Y-134648333D02*
X222419047Y-134648333D01*
X222419047Y-134648333D02*
X222514285Y-134695952D01*
X222514285Y-134695952D02*
X222561904Y-134743571D01*
X222561904Y-134743571D02*
X222609523Y-134838809D01*
X222609523Y-134838809D02*
X222609523Y-135076904D01*
X222609523Y-135076904D02*
X222561904Y-135172142D01*
X222561904Y-135172142D02*
X222514285Y-135219761D01*
X222514285Y-135219761D02*
X222419047Y-135267380D01*
X222419047Y-135267380D02*
X222133333Y-135267380D01*
X222133333Y-135267380D02*
X222038095Y-135219761D01*
X222038095Y-135219761D02*
X221990476Y-135172142D01*
X75459761Y-43243332D02*
X75507380Y-43100475D01*
X75507380Y-43100475D02*
X75507380Y-42862380D01*
X75507380Y-42862380D02*
X75459761Y-42767142D01*
X75459761Y-42767142D02*
X75412142Y-42719523D01*
X75412142Y-42719523D02*
X75316904Y-42671904D01*
X75316904Y-42671904D02*
X75221666Y-42671904D01*
X75221666Y-42671904D02*
X75126428Y-42719523D01*
X75126428Y-42719523D02*
X75078809Y-42767142D01*
X75078809Y-42767142D02*
X75031190Y-42862380D01*
X75031190Y-42862380D02*
X74983571Y-43052856D01*
X74983571Y-43052856D02*
X74935952Y-43148094D01*
X74935952Y-43148094D02*
X74888333Y-43195713D01*
X74888333Y-43195713D02*
X74793095Y-43243332D01*
X74793095Y-43243332D02*
X74697857Y-43243332D01*
X74697857Y-43243332D02*
X74602619Y-43195713D01*
X74602619Y-43195713D02*
X74555000Y-43148094D01*
X74555000Y-43148094D02*
X74507380Y-43052856D01*
X74507380Y-43052856D02*
X74507380Y-42814761D01*
X74507380Y-42814761D02*
X74555000Y-42671904D01*
X74507380Y-42338570D02*
X75507380Y-42100475D01*
X75507380Y-42100475D02*
X74793095Y-41909999D01*
X74793095Y-41909999D02*
X75507380Y-41719523D01*
X75507380Y-41719523D02*
X74507380Y-41481428D01*
X75507380Y-40576666D02*
X75507380Y-41148094D01*
X75507380Y-40862380D02*
X74507380Y-40862380D01*
X74507380Y-40862380D02*
X74650238Y-40957618D01*
X74650238Y-40957618D02*
X74745476Y-41052856D01*
X74745476Y-41052856D02*
X74793095Y-41148094D01*
D11*
X191520000Y-53527500D02*
X192850000Y-53527500D01*
X191520000Y-54857500D02*
X191520000Y-53527500D01*
X191520000Y-56127500D02*
X191520000Y-73967500D01*
X191520000Y-56127500D02*
X194180000Y-56127500D01*
X191520000Y-73967500D02*
X194180000Y-73967500D01*
X194180000Y-56127500D02*
X194180000Y-73967500D01*
X222060000Y-58637500D02*
X223390000Y-58637500D01*
X222060000Y-59967500D02*
X222060000Y-58637500D01*
X222060000Y-61237500D02*
X222060000Y-76537500D01*
X222060000Y-61237500D02*
X224720000Y-61237500D01*
X222070000Y-76527500D02*
X224730000Y-76527500D01*
X224720000Y-61237500D02*
X224720000Y-76537500D01*
X190560000Y-40077500D02*
X225840000Y-40077500D01*
X225840000Y-40077500D02*
X225840000Y-82407500D01*
X225840000Y-82407500D02*
X190560000Y-82407500D01*
X190560000Y-82407500D02*
X190560000Y-40077500D01*
X127380000Y-116520000D02*
X127380000Y-115190000D01*
X128710000Y-116520000D02*
X127380000Y-116520000D01*
X129980000Y-113860000D02*
X183380000Y-113860000D01*
X129980000Y-116520000D02*
X129980000Y-113860000D01*
X129980000Y-116520000D02*
X183380000Y-116520000D01*
X183380000Y-116520000D02*
X183380000Y-113860000D01*
X119840000Y-91900000D02*
X190960000Y-91900000D01*
X190960000Y-91900000D02*
X190960000Y-117300000D01*
X190960000Y-117300000D02*
X119840000Y-117300000D01*
X119840000Y-117300000D02*
X119840000Y-91900000D01*
X131825000Y-138410000D02*
X131825000Y-137080000D01*
X133155000Y-138410000D02*
X131825000Y-138410000D01*
X134425000Y-138410000D02*
X137025000Y-138410000D01*
X134425000Y-138410000D02*
X134425000Y-135750000D01*
X137025000Y-138410000D02*
X137025000Y-135750000D01*
X134425000Y-135750000D02*
X137025000Y-135750000D01*
X79660000Y-50230000D02*
X79660000Y-52730000D01*
X78410000Y-51480000D02*
X80910000Y-51480000D01*
X84100000Y-55340000D02*
X77100000Y-55340000D01*
X77100000Y-55340000D02*
X77100000Y-50980000D01*
X63220000Y-55340000D02*
X70220000Y-55340000D01*
X84100000Y-132620000D02*
X84100000Y-55340000D01*
X77100000Y-132620000D02*
X84080000Y-132620000D01*
X70220000Y-132620000D02*
X63220000Y-132620000D01*
X63220000Y-132620000D02*
X63220000Y-55340000D01*
X79660000Y-137730000D02*
X79660000Y-135230000D01*
X198510000Y-89170000D02*
X199840000Y-89170000D01*
X223910000Y-89210000D02*
X225240000Y-89210000D01*
X198510000Y-90500000D02*
X198510000Y-89170000D01*
X223910000Y-90540000D02*
X223910000Y-89210000D01*
X201170000Y-91770000D02*
X201170000Y-112150000D01*
X198510000Y-91770000D02*
X201170000Y-91770000D01*
X198510000Y-91770000D02*
X198510000Y-112150000D01*
X226570000Y-91810000D02*
X226570000Y-102030000D01*
X223910000Y-91810000D02*
X226570000Y-91810000D01*
X223910000Y-91810000D02*
X223910000Y-102030000D01*
X223910000Y-102030000D02*
X226570000Y-102030000D01*
X198510000Y-112150000D02*
X201170000Y-112150000D01*
X227040000Y-88000000D02*
X196560000Y-88000000D01*
X196560000Y-88000000D02*
X196560000Y-113400000D01*
X196560000Y-113400000D02*
X227040000Y-113400000D01*
X227040000Y-113400000D02*
X227040000Y-88000000D01*
X112410000Y-90760000D02*
X91160000Y-90760000D01*
X91160000Y-90760000D02*
X91160000Y-116590000D01*
X91160000Y-116590000D02*
X112410000Y-116590000D01*
X112410000Y-116590000D02*
X112410000Y-90760000D01*
X62795000Y-51530000D02*
X62795000Y-50200000D01*
X64125000Y-51530000D02*
X62795000Y-51530000D01*
X65395000Y-51530000D02*
X67995000Y-51530000D01*
X65395000Y-51530000D02*
X65395000Y-48870000D01*
X67995000Y-51530000D02*
X67995000Y-48870000D01*
X65395000Y-48870000D02*
X67995000Y-48870000D01*
X105600000Y-122090000D02*
X105600000Y-126830000D01*
X105600000Y-122090000D02*
X112840000Y-122090000D01*
X105600000Y-126830000D02*
X112840000Y-126830000D01*
X112840000Y-122090000D02*
X112840000Y-126830000D01*
X118110000Y-38100000D02*
X85090000Y-38100000D01*
X85090000Y-38100000D02*
X85090000Y-60960000D01*
X85090000Y-60960000D02*
X118110000Y-60960000D01*
X118110000Y-60960000D02*
X118110000Y-38100000D01*
X113805000Y-65670000D02*
X113805000Y-67000000D01*
X112475000Y-65670000D02*
X113805000Y-65670000D01*
X111205000Y-65670000D02*
X108605000Y-65670000D01*
X111205000Y-65670000D02*
X111205000Y-68330000D01*
X108605000Y-65670000D02*
X108605000Y-68330000D01*
X111205000Y-68330000D02*
X108605000Y-68330000D01*
X138240000Y-128100000D02*
X138240000Y-123360000D01*
X138240000Y-128100000D02*
X131000000Y-128100000D01*
X138240000Y-123360000D02*
X131000000Y-123360000D01*
X131000000Y-128100000D02*
X131000000Y-123360000D01*
X120755000Y-130705000D02*
X121025000Y-130705000D01*
X121025000Y-130705000D02*
X121025000Y-133535000D01*
X127385000Y-130705000D02*
X127385000Y-131805000D01*
X127655000Y-130705000D02*
X127385000Y-130705000D01*
X120755000Y-129205000D02*
X120755000Y-130705000D01*
X127655000Y-129205000D02*
X127655000Y-130705000D01*
X76140000Y-43240000D02*
X76140000Y-41910000D01*
X77470000Y-43240000D02*
X76140000Y-43240000D01*
X78740000Y-43240000D02*
X81340000Y-43240000D01*
X78740000Y-43240000D02*
X78740000Y-40580000D01*
X81340000Y-43240000D02*
X81340000Y-40580000D01*
X78740000Y-40580000D02*
X81340000Y-40580000D01*
%LPC*%
D12*
X193890000Y-43207500D03*
X194080000Y-78997500D03*
X222190000Y-79157500D03*
X222510000Y-43307500D03*
D13*
X192849999Y-54857499D03*
D14*
X192849999Y-57397499D03*
X192849999Y-59937499D03*
X192849999Y-62477499D03*
X192849999Y-65017499D03*
X192849999Y-67557499D03*
X192849999Y-70097499D03*
X192849999Y-72637499D03*
D13*
X223389999Y-59967499D03*
D14*
X223389999Y-62507499D03*
X223389999Y-65047499D03*
X223389999Y-67587499D03*
X223389999Y-70127499D03*
X223389999Y-72667499D03*
X223389999Y-75207499D03*
D13*
X128709999Y-115189999D03*
D14*
X131249999Y-115189999D03*
X133789999Y-115189999D03*
X136329999Y-115189999D03*
X138869999Y-115189999D03*
X141409999Y-115189999D03*
X143949999Y-115189999D03*
X146489999Y-115189999D03*
X149029999Y-115189999D03*
X151569999Y-115189999D03*
X154109999Y-115189999D03*
X156649999Y-115189999D03*
X159189999Y-115189999D03*
X161729999Y-115189999D03*
X164269999Y-115189999D03*
X166809999Y-115189999D03*
X169349999Y-115189999D03*
X171889999Y-115189999D03*
X174429999Y-115189999D03*
X176969999Y-115189999D03*
X179509999Y-115189999D03*
X182049999Y-115189999D03*
D13*
X133154999Y-137079999D03*
D14*
X135694999Y-137079999D03*
D12*
X66400000Y-42000000D03*
D15*
X81660000Y-58050000D03*
D16*
X65660000Y-66380000D03*
X81660000Y-121580000D03*
D17*
X73659999Y-54649999D03*
X73659999Y-133309999D03*
D13*
X199839999Y-90499999D03*
D14*
X199839999Y-93039999D03*
X199839999Y-95579999D03*
X199839999Y-98119999D03*
X199839999Y-100659999D03*
X199839999Y-103199999D03*
X199839999Y-105739999D03*
X199839999Y-108279999D03*
X199839999Y-110819999D03*
D13*
X225239999Y-90539999D03*
D14*
X225239999Y-93079999D03*
X225239999Y-95619999D03*
X225239999Y-98159999D03*
X225239999Y-100699999D03*
D12*
X109780000Y-93130000D03*
X93900000Y-93270000D03*
X93860000Y-114030000D03*
X109660000Y-114070000D03*
D18*
X108360000Y-101840000D03*
X108360000Y-105430000D03*
X94230000Y-97340000D03*
X94270000Y-99950000D03*
X94230000Y-102490000D03*
X94190000Y-104960000D03*
X94190000Y-107570000D03*
X94190000Y-110140000D03*
D13*
X64124999Y-50199999D03*
D14*
X66664999Y-50199999D03*
D19*
X106720000Y-124460000D03*
X111720000Y-124460000D03*
D12*
X66300000Y-140000000D03*
X115200000Y-45690000D03*
X88240000Y-45980000D03*
D18*
X113810000Y-40800000D03*
X111310000Y-40800000D03*
X97370000Y-47130000D03*
X94830000Y-47130000D03*
X92290000Y-47130000D03*
X86990000Y-54830000D03*
X86990000Y-57340000D03*
X110010000Y-53530000D03*
X110010000Y-56040000D03*
D13*
X112474999Y-66999999D03*
D14*
X109934999Y-66999999D03*
D19*
X137120000Y-125730000D03*
X132120000Y-125730000D03*
D20*
X121924999Y-132434999D03*
D21*
X124204999Y-126134999D03*
D20*
X126484999Y-132434999D03*
D12*
X221800000Y-138900000D03*
D13*
X77469999Y-41909999D03*
D14*
X80009999Y-41909999D03*
M02*
