%TF.GenerationSoftware,KiCad,Pcbnew,(6.0.9-0)*%
%TF.CreationDate,2022-11-09T23:01:03-06:00*%
%TF.ProjectId,CluePCB,436c7565-5043-4422-9e6b-696361645f70,1*%
%TF.SameCoordinates,Original*%
%TF.FileFunction,Copper,L1,Top*%
%TF.FilePolarity,Positive*%
%FSLAX46Y46*%
G04 Gerber Fmt 4.6, Leading zero omitted, Abs format (unit mm)*
G04 Created by KiCad (PCBNEW (6.0.9-0)) date 2022-11-09 23:01:03*
%MOMM*%
%LPD*%
G01*
G04 APERTURE LIST*
%TA.AperFunction,ComponentPad*%
%ADD10R,1.700000X1.700000*%
%TD*%
%TA.AperFunction,ComponentPad*%
%ADD11O,1.700000X1.700000*%
%TD*%
%TA.AperFunction,SMDPad,CuDef*%
%ADD12R,6.350000X7.340000*%
%TD*%
%TA.AperFunction,ComponentPad*%
%ADD13C,1.524000*%
%TD*%
%TA.AperFunction,ComponentPad*%
%ADD14C,1.600000*%
%TD*%
%TA.AperFunction,SMDPad,CuDef*%
%ADD15R,1.200000X2.200000*%
%TD*%
%TA.AperFunction,SMDPad,CuDef*%
%ADD16R,5.800000X6.400000*%
%TD*%
%TA.AperFunction,ViaPad*%
%ADD17C,0.800000*%
%TD*%
%TA.AperFunction,Conductor*%
%ADD18C,0.250000*%
%TD*%
%TA.AperFunction,Conductor*%
%ADD19C,0.500000*%
%TD*%
G04 APERTURE END LIST*
D10*
%TO.P,U4,1,GND*%
%TO.N,GND*%
X128710000Y-115190000D03*
D11*
%TO.P,U4,2,GND*%
X131250000Y-115190000D03*
%TO.P,U4,3,3V3*%
%TO.N,+3V3*%
X133790000Y-115190000D03*
%TO.P,U4,4,AIN0*%
%TO.N,unconnected-(U4-Pad4)*%
X136330000Y-115190000D03*
%TO.P,U4,5,AIN1*%
%TO.N,unconnected-(U4-Pad5)*%
X138870000Y-115190000D03*
%TO.P,U4,6,AIN2*%
%TO.N,RST*%
X141410000Y-115190000D03*
%TO.P,U4,7,AIN3*%
%TO.N,unconnected-(U4-Pad7)*%
X143950000Y-115190000D03*
%TO.P,U4,8,AIN4*%
%TO.N,unconnected-(U4-Pad8)*%
X146490000Y-115190000D03*
%TO.P,U4,9,DTA*%
%TO.N,unconnected-(U4-Pad9)*%
X149030000Y-115190000D03*
%TO.P,U4,10,LC9*%
%TO.N,unconnected-(U4-Pad10)*%
X151570000Y-115190000D03*
%TO.P,U4,11,LC8*%
%TO.N,unconnected-(U4-Pad11)*%
X154110000Y-115190000D03*
%TO.P,U4,12,GP*%
%TO.N,G0*%
X156650000Y-115190000D03*
%TO.P,U4,13,LC7*%
%TO.N,unconnected-(U4-Pad13)*%
X159190000Y-115190000D03*
%TO.P,U4,14,AIN10*%
%TO.N,unconnected-(U4-Pad14)*%
X161730000Y-115190000D03*
%TO.P,U4,15,DTD*%
%TO.N,unconnected-(U4-Pad15)*%
X164270000Y-115190000D03*
%TO.P,U4,16,GP12*%
%TO.N,unconnected-(U4-Pad16)*%
X166810000Y-115190000D03*
%TO.P,U4,17,SCK*%
%TO.N,SCK*%
X169350000Y-115190000D03*
%TO.P,U4,18,MISO*%
%TO.N,MISO*%
X171890000Y-115190000D03*
%TO.P,U4,19,MOSI*%
%TO.N,MOSI*%
X174430000Y-115190000D03*
%TO.P,U4,20,GP16*%
%TO.N,CS*%
X176970000Y-115190000D03*
%TO.P,U4,21,SCL*%
%TO.N,unconnected-(U4-Pad21)*%
X179510000Y-115190000D03*
%TO.P,U4,22,SDA*%
%TO.N,unconnected-(U4-Pad22)*%
X182050000Y-115190000D03*
%TD*%
D10*
%TO.P,J3,1,Pin_1*%
%TO.N,GND*%
X133155000Y-137080000D03*
D11*
%TO.P,J3,2,Pin_2*%
%TO.N,+3V3*%
X135695000Y-137080000D03*
%TD*%
D12*
%TO.P,BT1,1,+*%
%TO.N,+BATT*%
X73660000Y-54650000D03*
%TO.P,BT1,2,-*%
%TO.N,GND*%
X73660000Y-133310000D03*
%TD*%
D10*
%TO.P,U5,1,VIN*%
%TO.N,+3V3*%
X199840000Y-90500000D03*
D11*
%TO.P,U5,2,GND*%
%TO.N,GND*%
X199840000Y-93040000D03*
%TO.P,U5,3,EN*%
%TO.N,unconnected-(U5-Pad3)*%
X199840000Y-95580000D03*
%TO.P,U5,4,G0*%
%TO.N,G0*%
X199840000Y-98120000D03*
%TO.P,U5,5,SCK*%
%TO.N,SCK*%
X199840000Y-100660000D03*
%TO.P,U5,6,MISO*%
%TO.N,MISO*%
X199840000Y-103200000D03*
%TO.P,U5,7,MOSI*%
%TO.N,MOSI*%
X199840000Y-105740000D03*
%TO.P,U5,8,CS*%
%TO.N,CS*%
X199840000Y-108280000D03*
%TO.P,U5,9,RST*%
%TO.N,RST*%
X199840000Y-110820000D03*
D10*
%TO.P,U5,10,G1*%
%TO.N,unconnected-(U5-Pad10)*%
X225240000Y-90540000D03*
D11*
%TO.P,U5,11,G2*%
%TO.N,unconnected-(U5-Pad11)*%
X225240000Y-93080000D03*
%TO.P,U5,12,G3*%
%TO.N,unconnected-(U5-Pad12)*%
X225240000Y-95620000D03*
%TO.P,U5,13,G4*%
%TO.N,unconnected-(U5-Pad13)*%
X225240000Y-98160000D03*
%TO.P,U5,14,G5*%
%TO.N,unconnected-(U5-Pad14)*%
X225240000Y-100700000D03*
%TD*%
D10*
%TO.P,U6,1,PPS*%
%TO.N,unconnected-(U6-Pad1)*%
X192850000Y-54857500D03*
D11*
%TO.P,U6,2,RST*%
%TO.N,unconnected-(U6-Pad2)*%
X192850000Y-57397500D03*
%TO.P,U6,3,SAFE*%
%TO.N,unconnected-(U6-Pad3)*%
X192850000Y-59937500D03*
%TO.P,U6,4,INT*%
%TO.N,unconnected-(U6-Pad4)*%
X192850000Y-62477500D03*
%TO.P,U6,5,GND*%
%TO.N,unconnected-(U6-Pad5)*%
X192850000Y-65017500D03*
%TO.P,U6,6,3V3*%
%TO.N,unconnected-(U6-Pad6)*%
X192850000Y-67557500D03*
%TO.P,U6,7,SDA*%
%TO.N,unconnected-(U6-Pad7)*%
X192850000Y-70097500D03*
%TO.P,U6,8,SCL*%
%TO.N,unconnected-(U6-Pad8)*%
X192850000Y-72637500D03*
D10*
%TO.P,U6,9,GND*%
%TO.N,unconnected-(U6-Pad9)*%
X223390000Y-59967500D03*
D11*
%TO.P,U6,10,5V*%
%TO.N,unconnected-(U6-Pad10)*%
X223390000Y-62507500D03*
%TO.P,U6,11,3V3*%
%TO.N,unconnected-(U6-Pad11)*%
X223390000Y-65047500D03*
%TO.P,U6,12,CS*%
%TO.N,unconnected-(U6-Pad12)*%
X223390000Y-67587500D03*
%TO.P,U6,13,RX/MOSI*%
%TO.N,unconnected-(U6-Pad13)*%
X223390000Y-70127500D03*
%TO.P,U6,14,TX/MISO*%
%TO.N,unconnected-(U6-Pad14)*%
X223390000Y-72667500D03*
%TO.P,U6,15,SCK*%
%TO.N,unconnected-(U6-Pad15)*%
X223390000Y-75207500D03*
%TD*%
D13*
%TO.P,U2,1,V+*%
%TO.N,Net-(C1-Pad1)*%
X108360000Y-101840000D03*
%TO.P,U2,2,V-*%
%TO.N,Net-(U2-Pad2)*%
X108360000Y-105430000D03*
%TO.P,U2,3,VIN*%
%TO.N,unconnected-(U2-Pad3)*%
X94230000Y-97340000D03*
%TO.P,U2,4,GND*%
%TO.N,unconnected-(U2-Pad4)*%
X94270000Y-99950000D03*
%TO.P,U2,5,SCL*%
%TO.N,unconnected-(U2-Pad5)*%
X94230000Y-102490000D03*
%TO.P,U2,6,SDA*%
%TO.N,unconnected-(U2-Pad6)*%
X94190000Y-104960000D03*
%TO.P,U2,7*%
%TO.N,N/C*%
X94190000Y-107570000D03*
%TO.P,U2,8*%
X94190000Y-110140000D03*
%TD*%
D10*
%TO.P,J1,1,Pin_1*%
%TO.N,GND*%
X64125000Y-50200000D03*
D11*
%TO.P,J1,2,Pin_2*%
%TO.N,+5V*%
X66665000Y-50200000D03*
%TD*%
D14*
%TO.P,C1,1*%
%TO.N,Net-(C1-Pad1)*%
X106720000Y-124460000D03*
%TO.P,C1,2*%
%TO.N,GND*%
X111720000Y-124460000D03*
%TD*%
D13*
%TO.P,U1,1,EXT_SW+*%
%TO.N,Net-(SW1-Pad1)*%
X113810000Y-40800000D03*
%TO.P,U1,2,EXT_SW-*%
%TO.N,Net-(SW1-Pad2)*%
X111310000Y-40800000D03*
%TO.P,U1,3,5VIN+*%
%TO.N,+5V*%
X97370000Y-47130000D03*
%TO.P,U1,4,5VIN-*%
%TO.N,GND*%
X94830000Y-47130000D03*
%TO.P,U1,5,EN*%
%TO.N,Net-(J2-Pad2)*%
X92290000Y-47130000D03*
%TO.P,U1,6,5VOUT+*%
%TO.N,Net-(C1-Pad1)*%
X86990000Y-54830000D03*
%TO.P,U1,7,5VOUT-*%
%TO.N,GND*%
X86990000Y-57340000D03*
%TO.P,U1,8,BATT+*%
%TO.N,+BATT*%
X110010000Y-53530000D03*
%TO.P,U1,9,BATT-*%
%TO.N,GND*%
X110010000Y-56040000D03*
%TD*%
D10*
%TO.P,J2,1,Pin_1*%
%TO.N,GND*%
X112475000Y-67000000D03*
D11*
%TO.P,J2,2,Pin_2*%
%TO.N,Net-(J2-Pad2)*%
X109935000Y-67000000D03*
%TD*%
D14*
%TO.P,C2,1*%
%TO.N,+3V3*%
X137120000Y-125730000D03*
%TO.P,C2,2*%
%TO.N,GND*%
X132120000Y-125730000D03*
%TD*%
D15*
%TO.P,U3,1,GND*%
%TO.N,GND*%
X121925000Y-132435000D03*
D16*
%TO.P,U3,2,VO*%
%TO.N,+3V3*%
X124205000Y-126135000D03*
D15*
%TO.P,U3,3,VI*%
%TO.N,Net-(U2-Pad2)*%
X126485000Y-132435000D03*
%TD*%
D10*
%TO.P,SW1,1,A*%
%TO.N,Net-(SW1-Pad1)*%
X77470000Y-41910000D03*
D11*
%TO.P,SW1,2,B*%
%TO.N,Net-(SW1-Pad2)*%
X80010000Y-41910000D03*
%TD*%
D17*
%TO.N,GND*%
X118110000Y-132080000D03*
%TD*%
D18*
%TO.N,GND*%
X73660000Y-133310000D02*
X102870000Y-133310000D01*
X102870000Y-133310000D02*
X111720000Y-124460000D01*
%TO.N,+5V*%
X66665000Y-50200000D02*
X94300000Y-50200000D01*
X94300000Y-50200000D02*
X97370000Y-47130000D01*
D19*
%TO.N,+BATT*%
X74780000Y-53530000D02*
X110010000Y-53530000D01*
D18*
X73660000Y-54650000D02*
X74780000Y-53530000D01*
D19*
%TO.N,GND*%
X118465000Y-132435000D02*
X118110000Y-132080000D01*
X121925000Y-132435000D02*
X118465000Y-132435000D01*
%TO.N,Net-(C1-Pad1)*%
X106720000Y-103480000D02*
X106720000Y-124460000D01*
X86990000Y-54830000D02*
X85778000Y-56042000D01*
X108360000Y-101840000D02*
X106720000Y-103480000D01*
X85778000Y-56042000D02*
X85778000Y-79258000D01*
X85778000Y-79258000D02*
X108360000Y-101840000D01*
%TO.N,Net-(U2-Pad2)*%
X108360000Y-105430000D02*
X110510000Y-105430000D01*
X121760000Y-137160000D02*
X126485000Y-132435000D01*
X115570000Y-110490000D02*
X115570000Y-137160000D01*
X110510000Y-105430000D02*
X115570000Y-110490000D01*
X115570000Y-137160000D02*
X121760000Y-137160000D01*
D18*
%TO.N,Net-(SW1-Pad1)*%
X77470000Y-41910000D02*
X79667000Y-39713000D01*
X79667000Y-39713000D02*
X112723000Y-39713000D01*
X112723000Y-39713000D02*
X113810000Y-40800000D01*
%TO.N,Net-(SW1-Pad2)*%
X80010000Y-41910000D02*
X110200000Y-41910000D01*
X110200000Y-41910000D02*
X111310000Y-40800000D01*
%TD*%
%TA.AperFunction,Conductor*%
%TO.N,+3V3*%
G36*
X228533621Y-37128502D02*
G01*
X228580114Y-37182158D01*
X228591500Y-37234500D01*
X228591500Y-145565500D01*
X228571498Y-145633621D01*
X228517842Y-145680114D01*
X228465500Y-145691500D01*
X119506000Y-145691500D01*
X119437879Y-145671498D01*
X119391386Y-145617842D01*
X119380000Y-145565500D01*
X119380000Y-138829733D01*
X219787822Y-138829733D01*
X219797625Y-139110458D01*
X219798387Y-139114781D01*
X219798388Y-139114788D01*
X219822164Y-139249624D01*
X219846402Y-139387087D01*
X219933203Y-139654235D01*
X220056340Y-139906702D01*
X220058795Y-139910341D01*
X220058798Y-139910347D01*
X220131890Y-140018710D01*
X220213415Y-140139576D01*
X220401371Y-140348322D01*
X220616550Y-140528879D01*
X220854764Y-140677731D01*
X221111375Y-140791982D01*
X221381390Y-140869407D01*
X221385740Y-140870018D01*
X221385743Y-140870019D01*
X221488690Y-140884487D01*
X221659552Y-140908500D01*
X221870146Y-140908500D01*
X221872332Y-140908347D01*
X221872336Y-140908347D01*
X222075827Y-140894118D01*
X222075832Y-140894117D01*
X222080212Y-140893811D01*
X222354970Y-140835409D01*
X222359099Y-140833906D01*
X222359103Y-140833905D01*
X222614781Y-140740846D01*
X222614785Y-140740844D01*
X222618926Y-140739337D01*
X222866942Y-140607464D01*
X222971896Y-140531211D01*
X223090629Y-140444947D01*
X223090632Y-140444944D01*
X223094192Y-140442358D01*
X223296252Y-140247231D01*
X223469188Y-140025882D01*
X223471384Y-140022078D01*
X223471389Y-140022071D01*
X223607435Y-139786431D01*
X223609636Y-139782619D01*
X223714862Y-139522176D01*
X223748544Y-139387087D01*
X223781753Y-139253893D01*
X223781754Y-139253888D01*
X223782817Y-139249624D01*
X223812178Y-138970267D01*
X223802375Y-138689542D01*
X223778608Y-138554749D01*
X223770630Y-138509506D01*
X223753598Y-138412913D01*
X223666797Y-138145765D01*
X223543660Y-137893298D01*
X223541205Y-137889659D01*
X223541202Y-137889653D01*
X223448739Y-137752571D01*
X223386585Y-137660424D01*
X223198629Y-137451678D01*
X222983450Y-137271121D01*
X222745236Y-137122269D01*
X222488625Y-137008018D01*
X222218610Y-136930593D01*
X222214260Y-136929982D01*
X222214257Y-136929981D01*
X222111310Y-136915513D01*
X221940448Y-136891500D01*
X221729854Y-136891500D01*
X221727668Y-136891653D01*
X221727664Y-136891653D01*
X221524173Y-136905882D01*
X221524168Y-136905883D01*
X221519788Y-136906189D01*
X221245030Y-136964591D01*
X221240901Y-136966094D01*
X221240897Y-136966095D01*
X220985219Y-137059154D01*
X220985215Y-137059156D01*
X220981074Y-137060663D01*
X220733058Y-137192536D01*
X220729499Y-137195122D01*
X220729497Y-137195123D01*
X220513626Y-137351962D01*
X220505808Y-137357642D01*
X220502644Y-137360698D01*
X220502641Y-137360700D01*
X220487197Y-137375614D01*
X220303748Y-137552769D01*
X220196831Y-137689617D01*
X220145574Y-137755224D01*
X220130812Y-137774118D01*
X220128616Y-137777922D01*
X220128611Y-137777929D01*
X220019560Y-137966812D01*
X219990364Y-138017381D01*
X219885138Y-138277824D01*
X219884073Y-138282097D01*
X219884072Y-138282099D01*
X219847453Y-138428971D01*
X219817183Y-138550376D01*
X219787822Y-138829733D01*
X119380000Y-138829733D01*
X119380000Y-138044500D01*
X119399487Y-137978134D01*
X131796500Y-137978134D01*
X131803255Y-138040316D01*
X131854385Y-138176705D01*
X131941739Y-138293261D01*
X132058295Y-138380615D01*
X132194684Y-138431745D01*
X132256866Y-138438500D01*
X134053134Y-138438500D01*
X134115316Y-138431745D01*
X134251705Y-138380615D01*
X134368261Y-138293261D01*
X134455615Y-138176705D01*
X134499798Y-138058848D01*
X134542440Y-138002084D01*
X134609001Y-137977384D01*
X134678350Y-137992592D01*
X134713017Y-138020580D01*
X134738218Y-138049673D01*
X134745580Y-138056883D01*
X134909434Y-138192916D01*
X134917881Y-138198831D01*
X135101756Y-138306279D01*
X135111042Y-138310729D01*
X135310001Y-138386703D01*
X135319899Y-138389579D01*
X135423250Y-138410606D01*
X135437299Y-138409410D01*
X135441000Y-138399065D01*
X135441000Y-138398517D01*
X135949000Y-138398517D01*
X135953064Y-138412359D01*
X135966478Y-138414393D01*
X135973184Y-138413534D01*
X135983262Y-138411392D01*
X136187255Y-138350191D01*
X136196842Y-138346433D01*
X136388095Y-138252739D01*
X136396945Y-138247464D01*
X136570328Y-138123792D01*
X136578200Y-138117139D01*
X136729052Y-137966812D01*
X136735730Y-137958965D01*
X136860003Y-137786020D01*
X136865313Y-137777183D01*
X136959670Y-137586267D01*
X136963469Y-137576672D01*
X137025377Y-137372910D01*
X137027555Y-137362837D01*
X137028986Y-137351962D01*
X137026775Y-137337778D01*
X137013617Y-137334000D01*
X135967115Y-137334000D01*
X135951876Y-137338475D01*
X135950671Y-137339865D01*
X135949000Y-137347548D01*
X135949000Y-138398517D01*
X135441000Y-138398517D01*
X135441000Y-136807885D01*
X135949000Y-136807885D01*
X135953475Y-136823124D01*
X135954865Y-136824329D01*
X135962548Y-136826000D01*
X137013344Y-136826000D01*
X137026875Y-136822027D01*
X137028180Y-136812947D01*
X136986214Y-136645875D01*
X136982894Y-136636124D01*
X136897972Y-136440814D01*
X136893105Y-136431739D01*
X136777426Y-136252926D01*
X136771136Y-136244757D01*
X136627806Y-136087240D01*
X136620273Y-136080215D01*
X136453139Y-135948222D01*
X136444552Y-135942517D01*
X136258117Y-135839599D01*
X136248705Y-135835369D01*
X136047959Y-135764280D01*
X136037988Y-135761646D01*
X135966837Y-135748972D01*
X135953540Y-135750432D01*
X135949000Y-135764989D01*
X135949000Y-136807885D01*
X135441000Y-136807885D01*
X135441000Y-135763102D01*
X135437082Y-135749758D01*
X135422806Y-135747771D01*
X135384324Y-135753660D01*
X135374288Y-135756051D01*
X135171868Y-135822212D01*
X135162359Y-135826209D01*
X134973463Y-135924542D01*
X134964738Y-135930036D01*
X134794433Y-136057905D01*
X134786726Y-136064748D01*
X134709478Y-136145584D01*
X134647954Y-136181014D01*
X134577042Y-136177557D01*
X134519255Y-136136311D01*
X134500402Y-136102763D01*
X134458767Y-135991703D01*
X134455615Y-135983295D01*
X134368261Y-135866739D01*
X134251705Y-135779385D01*
X134115316Y-135728255D01*
X134053134Y-135721500D01*
X132256866Y-135721500D01*
X132194684Y-135728255D01*
X132058295Y-135779385D01*
X131941739Y-135866739D01*
X131854385Y-135983295D01*
X131803255Y-136119684D01*
X131796500Y-136181866D01*
X131796500Y-137978134D01*
X119399487Y-137978134D01*
X119400002Y-137976379D01*
X119453658Y-137929886D01*
X119506000Y-137918500D01*
X121692930Y-137918500D01*
X121711880Y-137919933D01*
X121726115Y-137922099D01*
X121726119Y-137922099D01*
X121733349Y-137923199D01*
X121740641Y-137922606D01*
X121740644Y-137922606D01*
X121786018Y-137918915D01*
X121796233Y-137918500D01*
X121804293Y-137918500D01*
X121817583Y-137916951D01*
X121832507Y-137915211D01*
X121836882Y-137914778D01*
X121902339Y-137909454D01*
X121902342Y-137909453D01*
X121909637Y-137908860D01*
X121916601Y-137906604D01*
X121922560Y-137905413D01*
X121928415Y-137904029D01*
X121935681Y-137903182D01*
X122004327Y-137878265D01*
X122008455Y-137876848D01*
X122070936Y-137856607D01*
X122070938Y-137856606D01*
X122077899Y-137854351D01*
X122084154Y-137850555D01*
X122089628Y-137848049D01*
X122095058Y-137845330D01*
X122101937Y-137842833D01*
X122162976Y-137802814D01*
X122166680Y-137800477D01*
X122229107Y-137762595D01*
X122237484Y-137755197D01*
X122237508Y-137755224D01*
X122240500Y-137752571D01*
X122243733Y-137749868D01*
X122249852Y-137745856D01*
X122303128Y-137689617D01*
X122305506Y-137687175D01*
X125912276Y-134080405D01*
X125974588Y-134046379D01*
X126001371Y-134043500D01*
X127133134Y-134043500D01*
X127195316Y-134036745D01*
X127331705Y-133985615D01*
X127448261Y-133898261D01*
X127535615Y-133781705D01*
X127586745Y-133645316D01*
X127593500Y-133583134D01*
X127593500Y-131286866D01*
X127586745Y-131224684D01*
X127535615Y-131088295D01*
X127448261Y-130971739D01*
X127331705Y-130884385D01*
X127195316Y-130833255D01*
X127133134Y-130826500D01*
X125836866Y-130826500D01*
X125774684Y-130833255D01*
X125638295Y-130884385D01*
X125521739Y-130971739D01*
X125434385Y-131088295D01*
X125383255Y-131224684D01*
X125376500Y-131286866D01*
X125376500Y-132418629D01*
X125356498Y-132486750D01*
X125339595Y-132507724D01*
X121482724Y-136364595D01*
X121420412Y-136398621D01*
X121393629Y-136401500D01*
X119506000Y-136401500D01*
X119437879Y-136381498D01*
X119391386Y-136327842D01*
X119380000Y-136275500D01*
X119380000Y-133319500D01*
X119400002Y-133251379D01*
X119453658Y-133204886D01*
X119506000Y-133193500D01*
X120690500Y-133193500D01*
X120758621Y-133213502D01*
X120805114Y-133267158D01*
X120816500Y-133319500D01*
X120816500Y-133583134D01*
X120823255Y-133645316D01*
X120874385Y-133781705D01*
X120961739Y-133898261D01*
X121078295Y-133985615D01*
X121214684Y-134036745D01*
X121276866Y-134043500D01*
X122573134Y-134043500D01*
X122635316Y-134036745D01*
X122771705Y-133985615D01*
X122888261Y-133898261D01*
X122975615Y-133781705D01*
X123026745Y-133645316D01*
X123033500Y-133583134D01*
X123033500Y-131286866D01*
X123026745Y-131224684D01*
X122975615Y-131088295D01*
X122888261Y-130971739D01*
X122771705Y-130884385D01*
X122635316Y-130833255D01*
X122573134Y-130826500D01*
X121276866Y-130826500D01*
X121214684Y-130833255D01*
X121078295Y-130884385D01*
X120961739Y-130971739D01*
X120874385Y-131088295D01*
X120823255Y-131224684D01*
X120816500Y-131286866D01*
X120816500Y-131550500D01*
X120796498Y-131618621D01*
X120742842Y-131665114D01*
X120690500Y-131676500D01*
X119506000Y-131676500D01*
X119437879Y-131656498D01*
X119391386Y-131602842D01*
X119380000Y-131550500D01*
X119380000Y-129379669D01*
X120797001Y-129379669D01*
X120797371Y-129386490D01*
X120802895Y-129437352D01*
X120806521Y-129452604D01*
X120851676Y-129573054D01*
X120860214Y-129588649D01*
X120936715Y-129690724D01*
X120949276Y-129703285D01*
X121051351Y-129779786D01*
X121066946Y-129788324D01*
X121187394Y-129833478D01*
X121202649Y-129837105D01*
X121253514Y-129842631D01*
X121260328Y-129843000D01*
X123932885Y-129843000D01*
X123948124Y-129838525D01*
X123949329Y-129837135D01*
X123951000Y-129829452D01*
X123951000Y-129824884D01*
X124459000Y-129824884D01*
X124463475Y-129840123D01*
X124464865Y-129841328D01*
X124472548Y-129842999D01*
X127149669Y-129842999D01*
X127156490Y-129842629D01*
X127207352Y-129837105D01*
X127222604Y-129833479D01*
X127343054Y-129788324D01*
X127358649Y-129779786D01*
X127460724Y-129703285D01*
X127473285Y-129690724D01*
X127549786Y-129588649D01*
X127558324Y-129573054D01*
X127603478Y-129452606D01*
X127607105Y-129437351D01*
X127612631Y-129386486D01*
X127613000Y-129379672D01*
X127613000Y-126407115D01*
X127608525Y-126391876D01*
X127607135Y-126390671D01*
X127599452Y-126389000D01*
X124477115Y-126389000D01*
X124461876Y-126393475D01*
X124460671Y-126394865D01*
X124459000Y-126402548D01*
X124459000Y-129824884D01*
X123951000Y-129824884D01*
X123951000Y-126407115D01*
X123946525Y-126391876D01*
X123945135Y-126390671D01*
X123937452Y-126389000D01*
X120815116Y-126389000D01*
X120799877Y-126393475D01*
X120798672Y-126394865D01*
X120797001Y-126402548D01*
X120797001Y-129379669D01*
X119380000Y-129379669D01*
X119380000Y-125862885D01*
X120797000Y-125862885D01*
X120801475Y-125878124D01*
X120802865Y-125879329D01*
X120810548Y-125881000D01*
X123932885Y-125881000D01*
X123948124Y-125876525D01*
X123949329Y-125875135D01*
X123951000Y-125867452D01*
X123951000Y-125862885D01*
X124459000Y-125862885D01*
X124463475Y-125878124D01*
X124464865Y-125879329D01*
X124472548Y-125881000D01*
X127594884Y-125881000D01*
X127610123Y-125876525D01*
X127611328Y-125875135D01*
X127612999Y-125867452D01*
X127612999Y-125730000D01*
X130806502Y-125730000D01*
X130826457Y-125958087D01*
X130827881Y-125963400D01*
X130827881Y-125963402D01*
X130865025Y-126102022D01*
X130885716Y-126179243D01*
X130888039Y-126184224D01*
X130888039Y-126184225D01*
X130980151Y-126381762D01*
X130980154Y-126381767D01*
X130982477Y-126386749D01*
X131113802Y-126574300D01*
X131275700Y-126736198D01*
X131280208Y-126739355D01*
X131280211Y-126739357D01*
X131358389Y-126794098D01*
X131463251Y-126867523D01*
X131468233Y-126869846D01*
X131468238Y-126869849D01*
X131664765Y-126961490D01*
X131670757Y-126964284D01*
X131676065Y-126965706D01*
X131676067Y-126965707D01*
X131886598Y-127022119D01*
X131886600Y-127022119D01*
X131891913Y-127023543D01*
X132120000Y-127043498D01*
X132348087Y-127023543D01*
X132353400Y-127022119D01*
X132353402Y-127022119D01*
X132563933Y-126965707D01*
X132563935Y-126965706D01*
X132569243Y-126964284D01*
X132575235Y-126961490D01*
X132771762Y-126869849D01*
X132771767Y-126869846D01*
X132776749Y-126867523D01*
X132850243Y-126816062D01*
X136398493Y-126816062D01*
X136407789Y-126828077D01*
X136458994Y-126863931D01*
X136468489Y-126869414D01*
X136665947Y-126961490D01*
X136676239Y-126965236D01*
X136886688Y-127021625D01*
X136897481Y-127023528D01*
X137114525Y-127042517D01*
X137125475Y-127042517D01*
X137342519Y-127023528D01*
X137353312Y-127021625D01*
X137563761Y-126965236D01*
X137574053Y-126961490D01*
X137771511Y-126869414D01*
X137781006Y-126863931D01*
X137833048Y-126827491D01*
X137841424Y-126817012D01*
X137834356Y-126803566D01*
X137132812Y-126102022D01*
X137118868Y-126094408D01*
X137117035Y-126094539D01*
X137110420Y-126098790D01*
X136404923Y-126804287D01*
X136398493Y-126816062D01*
X132850243Y-126816062D01*
X132881611Y-126794098D01*
X132959789Y-126739357D01*
X132959792Y-126739355D01*
X132964300Y-126736198D01*
X133126198Y-126574300D01*
X133257523Y-126386749D01*
X133259846Y-126381767D01*
X133259849Y-126381762D01*
X133351961Y-126184225D01*
X133351961Y-126184224D01*
X133354284Y-126179243D01*
X133374976Y-126102022D01*
X133412119Y-125963402D01*
X133412119Y-125963400D01*
X133413543Y-125958087D01*
X133433019Y-125735475D01*
X135807483Y-125735475D01*
X135826472Y-125952519D01*
X135828375Y-125963312D01*
X135884764Y-126173761D01*
X135888510Y-126184053D01*
X135980586Y-126381511D01*
X135986069Y-126391006D01*
X136022509Y-126443048D01*
X136032988Y-126451424D01*
X136046434Y-126444356D01*
X136747978Y-125742812D01*
X136754356Y-125731132D01*
X137484408Y-125731132D01*
X137484539Y-125732965D01*
X137488790Y-125739580D01*
X138194287Y-126445077D01*
X138206062Y-126451507D01*
X138218077Y-126442211D01*
X138253931Y-126391006D01*
X138259414Y-126381511D01*
X138351490Y-126184053D01*
X138355236Y-126173761D01*
X138411625Y-125963312D01*
X138413528Y-125952519D01*
X138432517Y-125735475D01*
X138432517Y-125724525D01*
X138413528Y-125507481D01*
X138411625Y-125496688D01*
X138355236Y-125286239D01*
X138351490Y-125275947D01*
X138259414Y-125078489D01*
X138253931Y-125068994D01*
X138217491Y-125016952D01*
X138207012Y-125008576D01*
X138193566Y-125015644D01*
X137492022Y-125717188D01*
X137484408Y-125731132D01*
X136754356Y-125731132D01*
X136755592Y-125728868D01*
X136755461Y-125727035D01*
X136751210Y-125720420D01*
X136045713Y-125014923D01*
X136033938Y-125008493D01*
X136021923Y-125017789D01*
X135986069Y-125068994D01*
X135980586Y-125078489D01*
X135888510Y-125275947D01*
X135884764Y-125286239D01*
X135828375Y-125496688D01*
X135826472Y-125507481D01*
X135807483Y-125724525D01*
X135807483Y-125735475D01*
X133433019Y-125735475D01*
X133433498Y-125730000D01*
X133413543Y-125501913D01*
X133376981Y-125365461D01*
X133355707Y-125286067D01*
X133355706Y-125286065D01*
X133354284Y-125280757D01*
X133259966Y-125078489D01*
X133259849Y-125078238D01*
X133259846Y-125078233D01*
X133257523Y-125073251D01*
X133126198Y-124885700D01*
X132964300Y-124723802D01*
X132959792Y-124720645D01*
X132959789Y-124720643D01*
X132848886Y-124642988D01*
X136398576Y-124642988D01*
X136405644Y-124656434D01*
X137107188Y-125357978D01*
X137121132Y-125365592D01*
X137122965Y-125365461D01*
X137129580Y-125361210D01*
X137835077Y-124655713D01*
X137841507Y-124643938D01*
X137832211Y-124631923D01*
X137781006Y-124596069D01*
X137771511Y-124590586D01*
X137574053Y-124498510D01*
X137563761Y-124494764D01*
X137353312Y-124438375D01*
X137342519Y-124436472D01*
X137125475Y-124417483D01*
X137114525Y-124417483D01*
X136897481Y-124436472D01*
X136886688Y-124438375D01*
X136676239Y-124494764D01*
X136665947Y-124498510D01*
X136468489Y-124590586D01*
X136458994Y-124596069D01*
X136406952Y-124632509D01*
X136398576Y-124642988D01*
X132848886Y-124642988D01*
X132833920Y-124632509D01*
X132776749Y-124592477D01*
X132771767Y-124590154D01*
X132771762Y-124590151D01*
X132574225Y-124498039D01*
X132574224Y-124498039D01*
X132569243Y-124495716D01*
X132563935Y-124494294D01*
X132563933Y-124494293D01*
X132353402Y-124437881D01*
X132353400Y-124437881D01*
X132348087Y-124436457D01*
X132120000Y-124416502D01*
X131891913Y-124436457D01*
X131886600Y-124437881D01*
X131886598Y-124437881D01*
X131676067Y-124494293D01*
X131676065Y-124494294D01*
X131670757Y-124495716D01*
X131665776Y-124498039D01*
X131665775Y-124498039D01*
X131468238Y-124590151D01*
X131468233Y-124590154D01*
X131463251Y-124592477D01*
X131406080Y-124632509D01*
X131280211Y-124720643D01*
X131280208Y-124720645D01*
X131275700Y-124723802D01*
X131113802Y-124885700D01*
X130982477Y-125073251D01*
X130980154Y-125078233D01*
X130980151Y-125078238D01*
X130980034Y-125078489D01*
X130885716Y-125280757D01*
X130884294Y-125286065D01*
X130884293Y-125286067D01*
X130863019Y-125365461D01*
X130826457Y-125501913D01*
X130806502Y-125730000D01*
X127612999Y-125730000D01*
X127612999Y-122890331D01*
X127612629Y-122883510D01*
X127607105Y-122832648D01*
X127603479Y-122817396D01*
X127558324Y-122696946D01*
X127549786Y-122681351D01*
X127473285Y-122579276D01*
X127460724Y-122566715D01*
X127358649Y-122490214D01*
X127343054Y-122481676D01*
X127222606Y-122436522D01*
X127207351Y-122432895D01*
X127156486Y-122427369D01*
X127149672Y-122427000D01*
X124477115Y-122427000D01*
X124461876Y-122431475D01*
X124460671Y-122432865D01*
X124459000Y-122440548D01*
X124459000Y-125862885D01*
X123951000Y-125862885D01*
X123951000Y-122445116D01*
X123946525Y-122429877D01*
X123945135Y-122428672D01*
X123937452Y-122427001D01*
X121260331Y-122427001D01*
X121253510Y-122427371D01*
X121202648Y-122432895D01*
X121187396Y-122436521D01*
X121066946Y-122481676D01*
X121051351Y-122490214D01*
X120949276Y-122566715D01*
X120936715Y-122579276D01*
X120860214Y-122681351D01*
X120851676Y-122696946D01*
X120806522Y-122817394D01*
X120802895Y-122832649D01*
X120797369Y-122883514D01*
X120797000Y-122890328D01*
X120797000Y-125862885D01*
X119380000Y-125862885D01*
X119380000Y-116088134D01*
X127351500Y-116088134D01*
X127358255Y-116150316D01*
X127409385Y-116286705D01*
X127496739Y-116403261D01*
X127613295Y-116490615D01*
X127749684Y-116541745D01*
X127811866Y-116548500D01*
X129608134Y-116548500D01*
X129670316Y-116541745D01*
X129806705Y-116490615D01*
X129923261Y-116403261D01*
X130010615Y-116286705D01*
X130032799Y-116227529D01*
X130054598Y-116169382D01*
X130097240Y-116112618D01*
X130163802Y-116087918D01*
X130233150Y-116103126D01*
X130267817Y-116131114D01*
X130296250Y-116163938D01*
X130468126Y-116306632D01*
X130661000Y-116419338D01*
X130869692Y-116499030D01*
X130874760Y-116500061D01*
X130874763Y-116500062D01*
X130969862Y-116519410D01*
X131088597Y-116543567D01*
X131093772Y-116543757D01*
X131093774Y-116543757D01*
X131306673Y-116551564D01*
X131306677Y-116551564D01*
X131311837Y-116551753D01*
X131316957Y-116551097D01*
X131316959Y-116551097D01*
X131528288Y-116524025D01*
X131528289Y-116524025D01*
X131533416Y-116523368D01*
X131538366Y-116521883D01*
X131742429Y-116460661D01*
X131742434Y-116460659D01*
X131747384Y-116459174D01*
X131947994Y-116360896D01*
X132129860Y-116231173D01*
X132288096Y-116073489D01*
X132418453Y-115892077D01*
X132419640Y-115892930D01*
X132466960Y-115849362D01*
X132536897Y-115837145D01*
X132602338Y-115864678D01*
X132630166Y-115896511D01*
X132687694Y-115990388D01*
X132693777Y-115998699D01*
X132833213Y-116159667D01*
X132840580Y-116166883D01*
X133004434Y-116302916D01*
X133012881Y-116308831D01*
X133196756Y-116416279D01*
X133206042Y-116420729D01*
X133405001Y-116496703D01*
X133414899Y-116499579D01*
X133518250Y-116520606D01*
X133532299Y-116519410D01*
X133536000Y-116509065D01*
X133536000Y-116508517D01*
X134044000Y-116508517D01*
X134048064Y-116522359D01*
X134061478Y-116524393D01*
X134068184Y-116523534D01*
X134078262Y-116521392D01*
X134282255Y-116460191D01*
X134291842Y-116456433D01*
X134483095Y-116362739D01*
X134491945Y-116357464D01*
X134665328Y-116233792D01*
X134673200Y-116227139D01*
X134824052Y-116076812D01*
X134830730Y-116068965D01*
X134958022Y-115891819D01*
X134959279Y-115892722D01*
X135006373Y-115849362D01*
X135076311Y-115837145D01*
X135141751Y-115864678D01*
X135169579Y-115896511D01*
X135229987Y-115995088D01*
X135376250Y-116163938D01*
X135548126Y-116306632D01*
X135741000Y-116419338D01*
X135949692Y-116499030D01*
X135954760Y-116500061D01*
X135954763Y-116500062D01*
X136049862Y-116519410D01*
X136168597Y-116543567D01*
X136173772Y-116543757D01*
X136173774Y-116543757D01*
X136386673Y-116551564D01*
X136386677Y-116551564D01*
X136391837Y-116551753D01*
X136396957Y-116551097D01*
X136396959Y-116551097D01*
X136608288Y-116524025D01*
X136608289Y-116524025D01*
X136613416Y-116523368D01*
X136618366Y-116521883D01*
X136822429Y-116460661D01*
X136822434Y-116460659D01*
X136827384Y-116459174D01*
X137027994Y-116360896D01*
X137209860Y-116231173D01*
X137368096Y-116073489D01*
X137498453Y-115892077D01*
X137499776Y-115893028D01*
X137546645Y-115849857D01*
X137616580Y-115837625D01*
X137682026Y-115865144D01*
X137709875Y-115896994D01*
X137769987Y-115995088D01*
X137916250Y-116163938D01*
X138088126Y-116306632D01*
X138281000Y-116419338D01*
X138489692Y-116499030D01*
X138494760Y-116500061D01*
X138494763Y-116500062D01*
X138589862Y-116519410D01*
X138708597Y-116543567D01*
X138713772Y-116543757D01*
X138713774Y-116543757D01*
X138926673Y-116551564D01*
X138926677Y-116551564D01*
X138931837Y-116551753D01*
X138936957Y-116551097D01*
X138936959Y-116551097D01*
X139148288Y-116524025D01*
X139148289Y-116524025D01*
X139153416Y-116523368D01*
X139158366Y-116521883D01*
X139362429Y-116460661D01*
X139362434Y-116460659D01*
X139367384Y-116459174D01*
X139567994Y-116360896D01*
X139749860Y-116231173D01*
X139908096Y-116073489D01*
X140038453Y-115892077D01*
X140039776Y-115893028D01*
X140086645Y-115849857D01*
X140156580Y-115837625D01*
X140222026Y-115865144D01*
X140249875Y-115896994D01*
X140309987Y-115995088D01*
X140456250Y-116163938D01*
X140628126Y-116306632D01*
X140821000Y-116419338D01*
X141029692Y-116499030D01*
X141034760Y-116500061D01*
X141034763Y-116500062D01*
X141129862Y-116519410D01*
X141248597Y-116543567D01*
X141253772Y-116543757D01*
X141253774Y-116543757D01*
X141466673Y-116551564D01*
X141466677Y-116551564D01*
X141471837Y-116551753D01*
X141476957Y-116551097D01*
X141476959Y-116551097D01*
X141688288Y-116524025D01*
X141688289Y-116524025D01*
X141693416Y-116523368D01*
X141698366Y-116521883D01*
X141902429Y-116460661D01*
X141902434Y-116460659D01*
X141907384Y-116459174D01*
X142107994Y-116360896D01*
X142289860Y-116231173D01*
X142448096Y-116073489D01*
X142578453Y-115892077D01*
X142579776Y-115893028D01*
X142626645Y-115849857D01*
X142696580Y-115837625D01*
X142762026Y-115865144D01*
X142789875Y-115896994D01*
X142849987Y-115995088D01*
X142996250Y-116163938D01*
X143168126Y-116306632D01*
X143361000Y-116419338D01*
X143569692Y-116499030D01*
X143574760Y-116500061D01*
X143574763Y-116500062D01*
X143669862Y-116519410D01*
X143788597Y-116543567D01*
X143793772Y-116543757D01*
X143793774Y-116543757D01*
X144006673Y-116551564D01*
X144006677Y-116551564D01*
X144011837Y-116551753D01*
X144016957Y-116551097D01*
X144016959Y-116551097D01*
X144228288Y-116524025D01*
X144228289Y-116524025D01*
X144233416Y-116523368D01*
X144238366Y-116521883D01*
X144442429Y-116460661D01*
X144442434Y-116460659D01*
X144447384Y-116459174D01*
X144647994Y-116360896D01*
X144829860Y-116231173D01*
X144988096Y-116073489D01*
X145118453Y-115892077D01*
X145119776Y-115893028D01*
X145166645Y-115849857D01*
X145236580Y-115837625D01*
X145302026Y-115865144D01*
X145329875Y-115896994D01*
X145389987Y-115995088D01*
X145536250Y-116163938D01*
X145708126Y-116306632D01*
X145901000Y-116419338D01*
X146109692Y-116499030D01*
X146114760Y-116500061D01*
X146114763Y-116500062D01*
X146209862Y-116519410D01*
X146328597Y-116543567D01*
X146333772Y-116543757D01*
X146333774Y-116543757D01*
X146546673Y-116551564D01*
X146546677Y-116551564D01*
X146551837Y-116551753D01*
X146556957Y-116551097D01*
X146556959Y-116551097D01*
X146768288Y-116524025D01*
X146768289Y-116524025D01*
X146773416Y-116523368D01*
X146778366Y-116521883D01*
X146982429Y-116460661D01*
X146982434Y-116460659D01*
X146987384Y-116459174D01*
X147187994Y-116360896D01*
X147369860Y-116231173D01*
X147528096Y-116073489D01*
X147658453Y-115892077D01*
X147659776Y-115893028D01*
X147706645Y-115849857D01*
X147776580Y-115837625D01*
X147842026Y-115865144D01*
X147869875Y-115896994D01*
X147929987Y-115995088D01*
X148076250Y-116163938D01*
X148248126Y-116306632D01*
X148441000Y-116419338D01*
X148649692Y-116499030D01*
X148654760Y-116500061D01*
X148654763Y-116500062D01*
X148749862Y-116519410D01*
X148868597Y-116543567D01*
X148873772Y-116543757D01*
X148873774Y-116543757D01*
X149086673Y-116551564D01*
X149086677Y-116551564D01*
X149091837Y-116551753D01*
X149096957Y-116551097D01*
X149096959Y-116551097D01*
X149308288Y-116524025D01*
X149308289Y-116524025D01*
X149313416Y-116523368D01*
X149318366Y-116521883D01*
X149522429Y-116460661D01*
X149522434Y-116460659D01*
X149527384Y-116459174D01*
X149727994Y-116360896D01*
X149909860Y-116231173D01*
X150068096Y-116073489D01*
X150198453Y-115892077D01*
X150199776Y-115893028D01*
X150246645Y-115849857D01*
X150316580Y-115837625D01*
X150382026Y-115865144D01*
X150409875Y-115896994D01*
X150469987Y-115995088D01*
X150616250Y-116163938D01*
X150788126Y-116306632D01*
X150981000Y-116419338D01*
X151189692Y-116499030D01*
X151194760Y-116500061D01*
X151194763Y-116500062D01*
X151289862Y-116519410D01*
X151408597Y-116543567D01*
X151413772Y-116543757D01*
X151413774Y-116543757D01*
X151626673Y-116551564D01*
X151626677Y-116551564D01*
X151631837Y-116551753D01*
X151636957Y-116551097D01*
X151636959Y-116551097D01*
X151848288Y-116524025D01*
X151848289Y-116524025D01*
X151853416Y-116523368D01*
X151858366Y-116521883D01*
X152062429Y-116460661D01*
X152062434Y-116460659D01*
X152067384Y-116459174D01*
X152267994Y-116360896D01*
X152449860Y-116231173D01*
X152608096Y-116073489D01*
X152738453Y-115892077D01*
X152739776Y-115893028D01*
X152786645Y-115849857D01*
X152856580Y-115837625D01*
X152922026Y-115865144D01*
X152949875Y-115896994D01*
X153009987Y-115995088D01*
X153156250Y-116163938D01*
X153328126Y-116306632D01*
X153521000Y-116419338D01*
X153729692Y-116499030D01*
X153734760Y-116500061D01*
X153734763Y-116500062D01*
X153829862Y-116519410D01*
X153948597Y-116543567D01*
X153953772Y-116543757D01*
X153953774Y-116543757D01*
X154166673Y-116551564D01*
X154166677Y-116551564D01*
X154171837Y-116551753D01*
X154176957Y-116551097D01*
X154176959Y-116551097D01*
X154388288Y-116524025D01*
X154388289Y-116524025D01*
X154393416Y-116523368D01*
X154398366Y-116521883D01*
X154602429Y-116460661D01*
X154602434Y-116460659D01*
X154607384Y-116459174D01*
X154807994Y-116360896D01*
X154989860Y-116231173D01*
X155148096Y-116073489D01*
X155278453Y-115892077D01*
X155279776Y-115893028D01*
X155326645Y-115849857D01*
X155396580Y-115837625D01*
X155462026Y-115865144D01*
X155489875Y-115896994D01*
X155549987Y-115995088D01*
X155696250Y-116163938D01*
X155868126Y-116306632D01*
X156061000Y-116419338D01*
X156269692Y-116499030D01*
X156274760Y-116500061D01*
X156274763Y-116500062D01*
X156369862Y-116519410D01*
X156488597Y-116543567D01*
X156493772Y-116543757D01*
X156493774Y-116543757D01*
X156706673Y-116551564D01*
X156706677Y-116551564D01*
X156711837Y-116551753D01*
X156716957Y-116551097D01*
X156716959Y-116551097D01*
X156928288Y-116524025D01*
X156928289Y-116524025D01*
X156933416Y-116523368D01*
X156938366Y-116521883D01*
X157142429Y-116460661D01*
X157142434Y-116460659D01*
X157147384Y-116459174D01*
X157347994Y-116360896D01*
X157529860Y-116231173D01*
X157688096Y-116073489D01*
X157818453Y-115892077D01*
X157819776Y-115893028D01*
X157866645Y-115849857D01*
X157936580Y-115837625D01*
X158002026Y-115865144D01*
X158029875Y-115896994D01*
X158089987Y-115995088D01*
X158236250Y-116163938D01*
X158408126Y-116306632D01*
X158601000Y-116419338D01*
X158809692Y-116499030D01*
X158814760Y-116500061D01*
X158814763Y-116500062D01*
X158909862Y-116519410D01*
X159028597Y-116543567D01*
X159033772Y-116543757D01*
X159033774Y-116543757D01*
X159246673Y-116551564D01*
X159246677Y-116551564D01*
X159251837Y-116551753D01*
X159256957Y-116551097D01*
X159256959Y-116551097D01*
X159468288Y-116524025D01*
X159468289Y-116524025D01*
X159473416Y-116523368D01*
X159478366Y-116521883D01*
X159682429Y-116460661D01*
X159682434Y-116460659D01*
X159687384Y-116459174D01*
X159887994Y-116360896D01*
X160069860Y-116231173D01*
X160228096Y-116073489D01*
X160358453Y-115892077D01*
X160359776Y-115893028D01*
X160406645Y-115849857D01*
X160476580Y-115837625D01*
X160542026Y-115865144D01*
X160569875Y-115896994D01*
X160629987Y-115995088D01*
X160776250Y-116163938D01*
X160948126Y-116306632D01*
X161141000Y-116419338D01*
X161349692Y-116499030D01*
X161354760Y-116500061D01*
X161354763Y-116500062D01*
X161449862Y-116519410D01*
X161568597Y-116543567D01*
X161573772Y-116543757D01*
X161573774Y-116543757D01*
X161786673Y-116551564D01*
X161786677Y-116551564D01*
X161791837Y-116551753D01*
X161796957Y-116551097D01*
X161796959Y-116551097D01*
X162008288Y-116524025D01*
X162008289Y-116524025D01*
X162013416Y-116523368D01*
X162018366Y-116521883D01*
X162222429Y-116460661D01*
X162222434Y-116460659D01*
X162227384Y-116459174D01*
X162427994Y-116360896D01*
X162609860Y-116231173D01*
X162768096Y-116073489D01*
X162898453Y-115892077D01*
X162899776Y-115893028D01*
X162946645Y-115849857D01*
X163016580Y-115837625D01*
X163082026Y-115865144D01*
X163109875Y-115896994D01*
X163169987Y-115995088D01*
X163316250Y-116163938D01*
X163488126Y-116306632D01*
X163681000Y-116419338D01*
X163889692Y-116499030D01*
X163894760Y-116500061D01*
X163894763Y-116500062D01*
X163989862Y-116519410D01*
X164108597Y-116543567D01*
X164113772Y-116543757D01*
X164113774Y-116543757D01*
X164326673Y-116551564D01*
X164326677Y-116551564D01*
X164331837Y-116551753D01*
X164336957Y-116551097D01*
X164336959Y-116551097D01*
X164548288Y-116524025D01*
X164548289Y-116524025D01*
X164553416Y-116523368D01*
X164558366Y-116521883D01*
X164762429Y-116460661D01*
X164762434Y-116460659D01*
X164767384Y-116459174D01*
X164967994Y-116360896D01*
X165149860Y-116231173D01*
X165308096Y-116073489D01*
X165438453Y-115892077D01*
X165439776Y-115893028D01*
X165486645Y-115849857D01*
X165556580Y-115837625D01*
X165622026Y-115865144D01*
X165649875Y-115896994D01*
X165709987Y-115995088D01*
X165856250Y-116163938D01*
X166028126Y-116306632D01*
X166221000Y-116419338D01*
X166429692Y-116499030D01*
X166434760Y-116500061D01*
X166434763Y-116500062D01*
X166529862Y-116519410D01*
X166648597Y-116543567D01*
X166653772Y-116543757D01*
X166653774Y-116543757D01*
X166866673Y-116551564D01*
X166866677Y-116551564D01*
X166871837Y-116551753D01*
X166876957Y-116551097D01*
X166876959Y-116551097D01*
X167088288Y-116524025D01*
X167088289Y-116524025D01*
X167093416Y-116523368D01*
X167098366Y-116521883D01*
X167302429Y-116460661D01*
X167302434Y-116460659D01*
X167307384Y-116459174D01*
X167507994Y-116360896D01*
X167689860Y-116231173D01*
X167848096Y-116073489D01*
X167978453Y-115892077D01*
X167979776Y-115893028D01*
X168026645Y-115849857D01*
X168096580Y-115837625D01*
X168162026Y-115865144D01*
X168189875Y-115896994D01*
X168249987Y-115995088D01*
X168396250Y-116163938D01*
X168568126Y-116306632D01*
X168761000Y-116419338D01*
X168969692Y-116499030D01*
X168974760Y-116500061D01*
X168974763Y-116500062D01*
X169069862Y-116519410D01*
X169188597Y-116543567D01*
X169193772Y-116543757D01*
X169193774Y-116543757D01*
X169406673Y-116551564D01*
X169406677Y-116551564D01*
X169411837Y-116551753D01*
X169416957Y-116551097D01*
X169416959Y-116551097D01*
X169628288Y-116524025D01*
X169628289Y-116524025D01*
X169633416Y-116523368D01*
X169638366Y-116521883D01*
X169842429Y-116460661D01*
X169842434Y-116460659D01*
X169847384Y-116459174D01*
X170047994Y-116360896D01*
X170229860Y-116231173D01*
X170388096Y-116073489D01*
X170518453Y-115892077D01*
X170519776Y-115893028D01*
X170566645Y-115849857D01*
X170636580Y-115837625D01*
X170702026Y-115865144D01*
X170729875Y-115896994D01*
X170789987Y-115995088D01*
X170936250Y-116163938D01*
X171108126Y-116306632D01*
X171301000Y-116419338D01*
X171509692Y-116499030D01*
X171514760Y-116500061D01*
X171514763Y-116500062D01*
X171609862Y-116519410D01*
X171728597Y-116543567D01*
X171733772Y-116543757D01*
X171733774Y-116543757D01*
X171946673Y-116551564D01*
X171946677Y-116551564D01*
X171951837Y-116551753D01*
X171956957Y-116551097D01*
X171956959Y-116551097D01*
X172168288Y-116524025D01*
X172168289Y-116524025D01*
X172173416Y-116523368D01*
X172178366Y-116521883D01*
X172382429Y-116460661D01*
X172382434Y-116460659D01*
X172387384Y-116459174D01*
X172587994Y-116360896D01*
X172769860Y-116231173D01*
X172928096Y-116073489D01*
X173058453Y-115892077D01*
X173059776Y-115893028D01*
X173106645Y-115849857D01*
X173176580Y-115837625D01*
X173242026Y-115865144D01*
X173269875Y-115896994D01*
X173329987Y-115995088D01*
X173476250Y-116163938D01*
X173648126Y-116306632D01*
X173841000Y-116419338D01*
X174049692Y-116499030D01*
X174054760Y-116500061D01*
X174054763Y-116500062D01*
X174149862Y-116519410D01*
X174268597Y-116543567D01*
X174273772Y-116543757D01*
X174273774Y-116543757D01*
X174486673Y-116551564D01*
X174486677Y-116551564D01*
X174491837Y-116551753D01*
X174496957Y-116551097D01*
X174496959Y-116551097D01*
X174708288Y-116524025D01*
X174708289Y-116524025D01*
X174713416Y-116523368D01*
X174718366Y-116521883D01*
X174922429Y-116460661D01*
X174922434Y-116460659D01*
X174927384Y-116459174D01*
X175127994Y-116360896D01*
X175309860Y-116231173D01*
X175468096Y-116073489D01*
X175598453Y-115892077D01*
X175599776Y-115893028D01*
X175646645Y-115849857D01*
X175716580Y-115837625D01*
X175782026Y-115865144D01*
X175809875Y-115896994D01*
X175869987Y-115995088D01*
X176016250Y-116163938D01*
X176188126Y-116306632D01*
X176381000Y-116419338D01*
X176589692Y-116499030D01*
X176594760Y-116500061D01*
X176594763Y-116500062D01*
X176689862Y-116519410D01*
X176808597Y-116543567D01*
X176813772Y-116543757D01*
X176813774Y-116543757D01*
X177026673Y-116551564D01*
X177026677Y-116551564D01*
X177031837Y-116551753D01*
X177036957Y-116551097D01*
X177036959Y-116551097D01*
X177248288Y-116524025D01*
X177248289Y-116524025D01*
X177253416Y-116523368D01*
X177258366Y-116521883D01*
X177462429Y-116460661D01*
X177462434Y-116460659D01*
X177467384Y-116459174D01*
X177667994Y-116360896D01*
X177849860Y-116231173D01*
X178008096Y-116073489D01*
X178138453Y-115892077D01*
X178139776Y-115893028D01*
X178186645Y-115849857D01*
X178256580Y-115837625D01*
X178322026Y-115865144D01*
X178349875Y-115896994D01*
X178409987Y-115995088D01*
X178556250Y-116163938D01*
X178728126Y-116306632D01*
X178921000Y-116419338D01*
X179129692Y-116499030D01*
X179134760Y-116500061D01*
X179134763Y-116500062D01*
X179229862Y-116519410D01*
X179348597Y-116543567D01*
X179353772Y-116543757D01*
X179353774Y-116543757D01*
X179566673Y-116551564D01*
X179566677Y-116551564D01*
X179571837Y-116551753D01*
X179576957Y-116551097D01*
X179576959Y-116551097D01*
X179788288Y-116524025D01*
X179788289Y-116524025D01*
X179793416Y-116523368D01*
X179798366Y-116521883D01*
X180002429Y-116460661D01*
X180002434Y-116460659D01*
X180007384Y-116459174D01*
X180207994Y-116360896D01*
X180389860Y-116231173D01*
X180548096Y-116073489D01*
X180678453Y-115892077D01*
X180679776Y-115893028D01*
X180726645Y-115849857D01*
X180796580Y-115837625D01*
X180862026Y-115865144D01*
X180889875Y-115896994D01*
X180949987Y-115995088D01*
X181096250Y-116163938D01*
X181268126Y-116306632D01*
X181461000Y-116419338D01*
X181669692Y-116499030D01*
X181674760Y-116500061D01*
X181674763Y-116500062D01*
X181769862Y-116519410D01*
X181888597Y-116543567D01*
X181893772Y-116543757D01*
X181893774Y-116543757D01*
X182106673Y-116551564D01*
X182106677Y-116551564D01*
X182111837Y-116551753D01*
X182116957Y-116551097D01*
X182116959Y-116551097D01*
X182328288Y-116524025D01*
X182328289Y-116524025D01*
X182333416Y-116523368D01*
X182338366Y-116521883D01*
X182542429Y-116460661D01*
X182542434Y-116460659D01*
X182547384Y-116459174D01*
X182747994Y-116360896D01*
X182929860Y-116231173D01*
X183088096Y-116073489D01*
X183218453Y-115892077D01*
X183231995Y-115864678D01*
X183315136Y-115696453D01*
X183315137Y-115696451D01*
X183317430Y-115691811D01*
X183382370Y-115478069D01*
X183411529Y-115256590D01*
X183413156Y-115190000D01*
X183394852Y-114967361D01*
X183340431Y-114750702D01*
X183251354Y-114545840D01*
X183130014Y-114358277D01*
X182979670Y-114193051D01*
X182975619Y-114189852D01*
X182975615Y-114189848D01*
X182808414Y-114057800D01*
X182808410Y-114057798D01*
X182804359Y-114054598D01*
X182768028Y-114034542D01*
X182752136Y-114025769D01*
X182608789Y-113946638D01*
X182603920Y-113944914D01*
X182603916Y-113944912D01*
X182403087Y-113873795D01*
X182403083Y-113873794D01*
X182398212Y-113872069D01*
X182393119Y-113871162D01*
X182393116Y-113871161D01*
X182183373Y-113833800D01*
X182183367Y-113833799D01*
X182178284Y-113832894D01*
X182104452Y-113831992D01*
X181960081Y-113830228D01*
X181960079Y-113830228D01*
X181954911Y-113830165D01*
X181734091Y-113863955D01*
X181521756Y-113933357D01*
X181323607Y-114036507D01*
X181319474Y-114039610D01*
X181319471Y-114039612D01*
X181149100Y-114167530D01*
X181144965Y-114170635D01*
X181141393Y-114174373D01*
X181033729Y-114287037D01*
X180990629Y-114332138D01*
X180883201Y-114489621D01*
X180828293Y-114534621D01*
X180757768Y-114542792D01*
X180694021Y-114511538D01*
X180673324Y-114487054D01*
X180592822Y-114362617D01*
X180592820Y-114362614D01*
X180590014Y-114358277D01*
X180439670Y-114193051D01*
X180435619Y-114189852D01*
X180435615Y-114189848D01*
X180268414Y-114057800D01*
X180268410Y-114057798D01*
X180264359Y-114054598D01*
X180228028Y-114034542D01*
X180212136Y-114025769D01*
X180068789Y-113946638D01*
X180063920Y-113944914D01*
X180063916Y-113944912D01*
X179863087Y-113873795D01*
X179863083Y-113873794D01*
X179858212Y-113872069D01*
X179853119Y-113871162D01*
X179853116Y-113871161D01*
X179643373Y-113833800D01*
X179643367Y-113833799D01*
X179638284Y-113832894D01*
X179564452Y-113831992D01*
X179420081Y-113830228D01*
X179420079Y-113830228D01*
X179414911Y-113830165D01*
X179194091Y-113863955D01*
X178981756Y-113933357D01*
X178783607Y-114036507D01*
X178779474Y-114039610D01*
X178779471Y-114039612D01*
X178609100Y-114167530D01*
X178604965Y-114170635D01*
X178601393Y-114174373D01*
X178493729Y-114287037D01*
X178450629Y-114332138D01*
X178343201Y-114489621D01*
X178288293Y-114534621D01*
X178217768Y-114542792D01*
X178154021Y-114511538D01*
X178133324Y-114487054D01*
X178052822Y-114362617D01*
X178052820Y-114362614D01*
X178050014Y-114358277D01*
X177899670Y-114193051D01*
X177895619Y-114189852D01*
X177895615Y-114189848D01*
X177728414Y-114057800D01*
X177728410Y-114057798D01*
X177724359Y-114054598D01*
X177688028Y-114034542D01*
X177672136Y-114025769D01*
X177528789Y-113946638D01*
X177523920Y-113944914D01*
X177523916Y-113944912D01*
X177323087Y-113873795D01*
X177323083Y-113873794D01*
X177318212Y-113872069D01*
X177313119Y-113871162D01*
X177313116Y-113871161D01*
X177103373Y-113833800D01*
X177103367Y-113833799D01*
X177098284Y-113832894D01*
X177024452Y-113831992D01*
X176880081Y-113830228D01*
X176880079Y-113830228D01*
X176874911Y-113830165D01*
X176654091Y-113863955D01*
X176441756Y-113933357D01*
X176243607Y-114036507D01*
X176239474Y-114039610D01*
X176239471Y-114039612D01*
X176069100Y-114167530D01*
X176064965Y-114170635D01*
X176061393Y-114174373D01*
X175953729Y-114287037D01*
X175910629Y-114332138D01*
X175803201Y-114489621D01*
X175748293Y-114534621D01*
X175677768Y-114542792D01*
X175614021Y-114511538D01*
X175593324Y-114487054D01*
X175512822Y-114362617D01*
X175512820Y-114362614D01*
X175510014Y-114358277D01*
X175359670Y-114193051D01*
X175355619Y-114189852D01*
X175355615Y-114189848D01*
X175188414Y-114057800D01*
X175188410Y-114057798D01*
X175184359Y-114054598D01*
X175148028Y-114034542D01*
X175132136Y-114025769D01*
X174988789Y-113946638D01*
X174983920Y-113944914D01*
X174983916Y-113944912D01*
X174783087Y-113873795D01*
X174783083Y-113873794D01*
X174778212Y-113872069D01*
X174773119Y-113871162D01*
X174773116Y-113871161D01*
X174563373Y-113833800D01*
X174563367Y-113833799D01*
X174558284Y-113832894D01*
X174484452Y-113831992D01*
X174340081Y-113830228D01*
X174340079Y-113830228D01*
X174334911Y-113830165D01*
X174114091Y-113863955D01*
X173901756Y-113933357D01*
X173703607Y-114036507D01*
X173699474Y-114039610D01*
X173699471Y-114039612D01*
X173529100Y-114167530D01*
X173524965Y-114170635D01*
X173521393Y-114174373D01*
X173413729Y-114287037D01*
X173370629Y-114332138D01*
X173263201Y-114489621D01*
X173208293Y-114534621D01*
X173137768Y-114542792D01*
X173074021Y-114511538D01*
X173053324Y-114487054D01*
X172972822Y-114362617D01*
X172972820Y-114362614D01*
X172970014Y-114358277D01*
X172819670Y-114193051D01*
X172815619Y-114189852D01*
X172815615Y-114189848D01*
X172648414Y-114057800D01*
X172648410Y-114057798D01*
X172644359Y-114054598D01*
X172608028Y-114034542D01*
X172592136Y-114025769D01*
X172448789Y-113946638D01*
X172443920Y-113944914D01*
X172443916Y-113944912D01*
X172243087Y-113873795D01*
X172243083Y-113873794D01*
X172238212Y-113872069D01*
X172233119Y-113871162D01*
X172233116Y-113871161D01*
X172023373Y-113833800D01*
X172023367Y-113833799D01*
X172018284Y-113832894D01*
X171944452Y-113831992D01*
X171800081Y-113830228D01*
X171800079Y-113830228D01*
X171794911Y-113830165D01*
X171574091Y-113863955D01*
X171361756Y-113933357D01*
X171163607Y-114036507D01*
X171159474Y-114039610D01*
X171159471Y-114039612D01*
X170989100Y-114167530D01*
X170984965Y-114170635D01*
X170981393Y-114174373D01*
X170873729Y-114287037D01*
X170830629Y-114332138D01*
X170723201Y-114489621D01*
X170668293Y-114534621D01*
X170597768Y-114542792D01*
X170534021Y-114511538D01*
X170513324Y-114487054D01*
X170432822Y-114362617D01*
X170432820Y-114362614D01*
X170430014Y-114358277D01*
X170279670Y-114193051D01*
X170275619Y-114189852D01*
X170275615Y-114189848D01*
X170108414Y-114057800D01*
X170108410Y-114057798D01*
X170104359Y-114054598D01*
X170068028Y-114034542D01*
X170052136Y-114025769D01*
X169908789Y-113946638D01*
X169903920Y-113944914D01*
X169903916Y-113944912D01*
X169703087Y-113873795D01*
X169703083Y-113873794D01*
X169698212Y-113872069D01*
X169693119Y-113871162D01*
X169693116Y-113871161D01*
X169483373Y-113833800D01*
X169483367Y-113833799D01*
X169478284Y-113832894D01*
X169404452Y-113831992D01*
X169260081Y-113830228D01*
X169260079Y-113830228D01*
X169254911Y-113830165D01*
X169034091Y-113863955D01*
X168821756Y-113933357D01*
X168623607Y-114036507D01*
X168619474Y-114039610D01*
X168619471Y-114039612D01*
X168449100Y-114167530D01*
X168444965Y-114170635D01*
X168441393Y-114174373D01*
X168333729Y-114287037D01*
X168290629Y-114332138D01*
X168183201Y-114489621D01*
X168128293Y-114534621D01*
X168057768Y-114542792D01*
X167994021Y-114511538D01*
X167973324Y-114487054D01*
X167892822Y-114362617D01*
X167892820Y-114362614D01*
X167890014Y-114358277D01*
X167739670Y-114193051D01*
X167735619Y-114189852D01*
X167735615Y-114189848D01*
X167568414Y-114057800D01*
X167568410Y-114057798D01*
X167564359Y-114054598D01*
X167528028Y-114034542D01*
X167512136Y-114025769D01*
X167368789Y-113946638D01*
X167363920Y-113944914D01*
X167363916Y-113944912D01*
X167163087Y-113873795D01*
X167163083Y-113873794D01*
X167158212Y-113872069D01*
X167153119Y-113871162D01*
X167153116Y-113871161D01*
X166943373Y-113833800D01*
X166943367Y-113833799D01*
X166938284Y-113832894D01*
X166864452Y-113831992D01*
X166720081Y-113830228D01*
X166720079Y-113830228D01*
X166714911Y-113830165D01*
X166494091Y-113863955D01*
X166281756Y-113933357D01*
X166083607Y-114036507D01*
X166079474Y-114039610D01*
X166079471Y-114039612D01*
X165909100Y-114167530D01*
X165904965Y-114170635D01*
X165901393Y-114174373D01*
X165793729Y-114287037D01*
X165750629Y-114332138D01*
X165643201Y-114489621D01*
X165588293Y-114534621D01*
X165517768Y-114542792D01*
X165454021Y-114511538D01*
X165433324Y-114487054D01*
X165352822Y-114362617D01*
X165352820Y-114362614D01*
X165350014Y-114358277D01*
X165199670Y-114193051D01*
X165195619Y-114189852D01*
X165195615Y-114189848D01*
X165028414Y-114057800D01*
X165028410Y-114057798D01*
X165024359Y-114054598D01*
X164988028Y-114034542D01*
X164972136Y-114025769D01*
X164828789Y-113946638D01*
X164823920Y-113944914D01*
X164823916Y-113944912D01*
X164623087Y-113873795D01*
X164623083Y-113873794D01*
X164618212Y-113872069D01*
X164613119Y-113871162D01*
X164613116Y-113871161D01*
X164403373Y-113833800D01*
X164403367Y-113833799D01*
X164398284Y-113832894D01*
X164324452Y-113831992D01*
X164180081Y-113830228D01*
X164180079Y-113830228D01*
X164174911Y-113830165D01*
X163954091Y-113863955D01*
X163741756Y-113933357D01*
X163543607Y-114036507D01*
X163539474Y-114039610D01*
X163539471Y-114039612D01*
X163369100Y-114167530D01*
X163364965Y-114170635D01*
X163361393Y-114174373D01*
X163253729Y-114287037D01*
X163210629Y-114332138D01*
X163103201Y-114489621D01*
X163048293Y-114534621D01*
X162977768Y-114542792D01*
X162914021Y-114511538D01*
X162893324Y-114487054D01*
X162812822Y-114362617D01*
X162812820Y-114362614D01*
X162810014Y-114358277D01*
X162659670Y-114193051D01*
X162655619Y-114189852D01*
X162655615Y-114189848D01*
X162488414Y-114057800D01*
X162488410Y-114057798D01*
X162484359Y-114054598D01*
X162448028Y-114034542D01*
X162432136Y-114025769D01*
X162288789Y-113946638D01*
X162283920Y-113944914D01*
X162283916Y-113944912D01*
X162083087Y-113873795D01*
X162083083Y-113873794D01*
X162078212Y-113872069D01*
X162073119Y-113871162D01*
X162073116Y-113871161D01*
X161863373Y-113833800D01*
X161863367Y-113833799D01*
X161858284Y-113832894D01*
X161784452Y-113831992D01*
X161640081Y-113830228D01*
X161640079Y-113830228D01*
X161634911Y-113830165D01*
X161414091Y-113863955D01*
X161201756Y-113933357D01*
X161003607Y-114036507D01*
X160999474Y-114039610D01*
X160999471Y-114039612D01*
X160829100Y-114167530D01*
X160824965Y-114170635D01*
X160821393Y-114174373D01*
X160713729Y-114287037D01*
X160670629Y-114332138D01*
X160563201Y-114489621D01*
X160508293Y-114534621D01*
X160437768Y-114542792D01*
X160374021Y-114511538D01*
X160353324Y-114487054D01*
X160272822Y-114362617D01*
X160272820Y-114362614D01*
X160270014Y-114358277D01*
X160119670Y-114193051D01*
X160115619Y-114189852D01*
X160115615Y-114189848D01*
X159948414Y-114057800D01*
X159948410Y-114057798D01*
X159944359Y-114054598D01*
X159908028Y-114034542D01*
X159892136Y-114025769D01*
X159748789Y-113946638D01*
X159743920Y-113944914D01*
X159743916Y-113944912D01*
X159543087Y-113873795D01*
X159543083Y-113873794D01*
X159538212Y-113872069D01*
X159533119Y-113871162D01*
X159533116Y-113871161D01*
X159323373Y-113833800D01*
X159323367Y-113833799D01*
X159318284Y-113832894D01*
X159244452Y-113831992D01*
X159100081Y-113830228D01*
X159100079Y-113830228D01*
X159094911Y-113830165D01*
X158874091Y-113863955D01*
X158661756Y-113933357D01*
X158463607Y-114036507D01*
X158459474Y-114039610D01*
X158459471Y-114039612D01*
X158289100Y-114167530D01*
X158284965Y-114170635D01*
X158281393Y-114174373D01*
X158173729Y-114287037D01*
X158130629Y-114332138D01*
X158023201Y-114489621D01*
X157968293Y-114534621D01*
X157897768Y-114542792D01*
X157834021Y-114511538D01*
X157813324Y-114487054D01*
X157732822Y-114362617D01*
X157732820Y-114362614D01*
X157730014Y-114358277D01*
X157579670Y-114193051D01*
X157575619Y-114189852D01*
X157575615Y-114189848D01*
X157408414Y-114057800D01*
X157408410Y-114057798D01*
X157404359Y-114054598D01*
X157368028Y-114034542D01*
X157352136Y-114025769D01*
X157208789Y-113946638D01*
X157203920Y-113944914D01*
X157203916Y-113944912D01*
X157003087Y-113873795D01*
X157003083Y-113873794D01*
X156998212Y-113872069D01*
X156993119Y-113871162D01*
X156993116Y-113871161D01*
X156783373Y-113833800D01*
X156783367Y-113833799D01*
X156778284Y-113832894D01*
X156704452Y-113831992D01*
X156560081Y-113830228D01*
X156560079Y-113830228D01*
X156554911Y-113830165D01*
X156334091Y-113863955D01*
X156121756Y-113933357D01*
X155923607Y-114036507D01*
X155919474Y-114039610D01*
X155919471Y-114039612D01*
X155749100Y-114167530D01*
X155744965Y-114170635D01*
X155741393Y-114174373D01*
X155633729Y-114287037D01*
X155590629Y-114332138D01*
X155483201Y-114489621D01*
X155428293Y-114534621D01*
X155357768Y-114542792D01*
X155294021Y-114511538D01*
X155273324Y-114487054D01*
X155192822Y-114362617D01*
X155192820Y-114362614D01*
X155190014Y-114358277D01*
X155039670Y-114193051D01*
X155035619Y-114189852D01*
X155035615Y-114189848D01*
X154868414Y-114057800D01*
X154868410Y-114057798D01*
X154864359Y-114054598D01*
X154828028Y-114034542D01*
X154812136Y-114025769D01*
X154668789Y-113946638D01*
X154663920Y-113944914D01*
X154663916Y-113944912D01*
X154463087Y-113873795D01*
X154463083Y-113873794D01*
X154458212Y-113872069D01*
X154453119Y-113871162D01*
X154453116Y-113871161D01*
X154243373Y-113833800D01*
X154243367Y-113833799D01*
X154238284Y-113832894D01*
X154164452Y-113831992D01*
X154020081Y-113830228D01*
X154020079Y-113830228D01*
X154014911Y-113830165D01*
X153794091Y-113863955D01*
X153581756Y-113933357D01*
X153383607Y-114036507D01*
X153379474Y-114039610D01*
X153379471Y-114039612D01*
X153209100Y-114167530D01*
X153204965Y-114170635D01*
X153201393Y-114174373D01*
X153093729Y-114287037D01*
X153050629Y-114332138D01*
X152943201Y-114489621D01*
X152888293Y-114534621D01*
X152817768Y-114542792D01*
X152754021Y-114511538D01*
X152733324Y-114487054D01*
X152652822Y-114362617D01*
X152652820Y-114362614D01*
X152650014Y-114358277D01*
X152499670Y-114193051D01*
X152495619Y-114189852D01*
X152495615Y-114189848D01*
X152328414Y-114057800D01*
X152328410Y-114057798D01*
X152324359Y-114054598D01*
X152288028Y-114034542D01*
X152272136Y-114025769D01*
X152128789Y-113946638D01*
X152123920Y-113944914D01*
X152123916Y-113944912D01*
X151923087Y-113873795D01*
X151923083Y-113873794D01*
X151918212Y-113872069D01*
X151913119Y-113871162D01*
X151913116Y-113871161D01*
X151703373Y-113833800D01*
X151703367Y-113833799D01*
X151698284Y-113832894D01*
X151624452Y-113831992D01*
X151480081Y-113830228D01*
X151480079Y-113830228D01*
X151474911Y-113830165D01*
X151254091Y-113863955D01*
X151041756Y-113933357D01*
X150843607Y-114036507D01*
X150839474Y-114039610D01*
X150839471Y-114039612D01*
X150669100Y-114167530D01*
X150664965Y-114170635D01*
X150661393Y-114174373D01*
X150553729Y-114287037D01*
X150510629Y-114332138D01*
X150403201Y-114489621D01*
X150348293Y-114534621D01*
X150277768Y-114542792D01*
X150214021Y-114511538D01*
X150193324Y-114487054D01*
X150112822Y-114362617D01*
X150112820Y-114362614D01*
X150110014Y-114358277D01*
X149959670Y-114193051D01*
X149955619Y-114189852D01*
X149955615Y-114189848D01*
X149788414Y-114057800D01*
X149788410Y-114057798D01*
X149784359Y-114054598D01*
X149748028Y-114034542D01*
X149732136Y-114025769D01*
X149588789Y-113946638D01*
X149583920Y-113944914D01*
X149583916Y-113944912D01*
X149383087Y-113873795D01*
X149383083Y-113873794D01*
X149378212Y-113872069D01*
X149373119Y-113871162D01*
X149373116Y-113871161D01*
X149163373Y-113833800D01*
X149163367Y-113833799D01*
X149158284Y-113832894D01*
X149084452Y-113831992D01*
X148940081Y-113830228D01*
X148940079Y-113830228D01*
X148934911Y-113830165D01*
X148714091Y-113863955D01*
X148501756Y-113933357D01*
X148303607Y-114036507D01*
X148299474Y-114039610D01*
X148299471Y-114039612D01*
X148129100Y-114167530D01*
X148124965Y-114170635D01*
X148121393Y-114174373D01*
X148013729Y-114287037D01*
X147970629Y-114332138D01*
X147863201Y-114489621D01*
X147808293Y-114534621D01*
X147737768Y-114542792D01*
X147674021Y-114511538D01*
X147653324Y-114487054D01*
X147572822Y-114362617D01*
X147572820Y-114362614D01*
X147570014Y-114358277D01*
X147419670Y-114193051D01*
X147415619Y-114189852D01*
X147415615Y-114189848D01*
X147248414Y-114057800D01*
X147248410Y-114057798D01*
X147244359Y-114054598D01*
X147208028Y-114034542D01*
X147192136Y-114025769D01*
X147048789Y-113946638D01*
X147043920Y-113944914D01*
X147043916Y-113944912D01*
X146843087Y-113873795D01*
X146843083Y-113873794D01*
X146838212Y-113872069D01*
X146833119Y-113871162D01*
X146833116Y-113871161D01*
X146623373Y-113833800D01*
X146623367Y-113833799D01*
X146618284Y-113832894D01*
X146544452Y-113831992D01*
X146400081Y-113830228D01*
X146400079Y-113830228D01*
X146394911Y-113830165D01*
X146174091Y-113863955D01*
X145961756Y-113933357D01*
X145763607Y-114036507D01*
X145759474Y-114039610D01*
X145759471Y-114039612D01*
X145589100Y-114167530D01*
X145584965Y-114170635D01*
X145581393Y-114174373D01*
X145473729Y-114287037D01*
X145430629Y-114332138D01*
X145323201Y-114489621D01*
X145268293Y-114534621D01*
X145197768Y-114542792D01*
X145134021Y-114511538D01*
X145113324Y-114487054D01*
X145032822Y-114362617D01*
X145032820Y-114362614D01*
X145030014Y-114358277D01*
X144879670Y-114193051D01*
X144875619Y-114189852D01*
X144875615Y-114189848D01*
X144708414Y-114057800D01*
X144708410Y-114057798D01*
X144704359Y-114054598D01*
X144668028Y-114034542D01*
X144652136Y-114025769D01*
X144508789Y-113946638D01*
X144503920Y-113944914D01*
X144503916Y-113944912D01*
X144303087Y-113873795D01*
X144303083Y-113873794D01*
X144298212Y-113872069D01*
X144293119Y-113871162D01*
X144293116Y-113871161D01*
X144083373Y-113833800D01*
X144083367Y-113833799D01*
X144078284Y-113832894D01*
X144004452Y-113831992D01*
X143860081Y-113830228D01*
X143860079Y-113830228D01*
X143854911Y-113830165D01*
X143634091Y-113863955D01*
X143421756Y-113933357D01*
X143223607Y-114036507D01*
X143219474Y-114039610D01*
X143219471Y-114039612D01*
X143049100Y-114167530D01*
X143044965Y-114170635D01*
X143041393Y-114174373D01*
X142933729Y-114287037D01*
X142890629Y-114332138D01*
X142783201Y-114489621D01*
X142728293Y-114534621D01*
X142657768Y-114542792D01*
X142594021Y-114511538D01*
X142573324Y-114487054D01*
X142492822Y-114362617D01*
X142492820Y-114362614D01*
X142490014Y-114358277D01*
X142339670Y-114193051D01*
X142335619Y-114189852D01*
X142335615Y-114189848D01*
X142168414Y-114057800D01*
X142168410Y-114057798D01*
X142164359Y-114054598D01*
X142128028Y-114034542D01*
X142112136Y-114025769D01*
X141968789Y-113946638D01*
X141963920Y-113944914D01*
X141963916Y-113944912D01*
X141763087Y-113873795D01*
X141763083Y-113873794D01*
X141758212Y-113872069D01*
X141753119Y-113871162D01*
X141753116Y-113871161D01*
X141543373Y-113833800D01*
X141543367Y-113833799D01*
X141538284Y-113832894D01*
X141464452Y-113831992D01*
X141320081Y-113830228D01*
X141320079Y-113830228D01*
X141314911Y-113830165D01*
X141094091Y-113863955D01*
X140881756Y-113933357D01*
X140683607Y-114036507D01*
X140679474Y-114039610D01*
X140679471Y-114039612D01*
X140509100Y-114167530D01*
X140504965Y-114170635D01*
X140501393Y-114174373D01*
X140393729Y-114287037D01*
X140350629Y-114332138D01*
X140243201Y-114489621D01*
X140188293Y-114534621D01*
X140117768Y-114542792D01*
X140054021Y-114511538D01*
X140033324Y-114487054D01*
X139952822Y-114362617D01*
X139952820Y-114362614D01*
X139950014Y-114358277D01*
X139799670Y-114193051D01*
X139795619Y-114189852D01*
X139795615Y-114189848D01*
X139628414Y-114057800D01*
X139628410Y-114057798D01*
X139624359Y-114054598D01*
X139588028Y-114034542D01*
X139572136Y-114025769D01*
X139428789Y-113946638D01*
X139423920Y-113944914D01*
X139423916Y-113944912D01*
X139223087Y-113873795D01*
X139223083Y-113873794D01*
X139218212Y-113872069D01*
X139213119Y-113871162D01*
X139213116Y-113871161D01*
X139003373Y-113833800D01*
X139003367Y-113833799D01*
X138998284Y-113832894D01*
X138924452Y-113831992D01*
X138780081Y-113830228D01*
X138780079Y-113830228D01*
X138774911Y-113830165D01*
X138554091Y-113863955D01*
X138341756Y-113933357D01*
X138143607Y-114036507D01*
X138139474Y-114039610D01*
X138139471Y-114039612D01*
X137969100Y-114167530D01*
X137964965Y-114170635D01*
X137961393Y-114174373D01*
X137853729Y-114287037D01*
X137810629Y-114332138D01*
X137703201Y-114489621D01*
X137648293Y-114534621D01*
X137577768Y-114542792D01*
X137514021Y-114511538D01*
X137493324Y-114487054D01*
X137412822Y-114362617D01*
X137412820Y-114362614D01*
X137410014Y-114358277D01*
X137259670Y-114193051D01*
X137255619Y-114189852D01*
X137255615Y-114189848D01*
X137088414Y-114057800D01*
X137088410Y-114057798D01*
X137084359Y-114054598D01*
X137048028Y-114034542D01*
X137032136Y-114025769D01*
X136888789Y-113946638D01*
X136883920Y-113944914D01*
X136883916Y-113944912D01*
X136683087Y-113873795D01*
X136683083Y-113873794D01*
X136678212Y-113872069D01*
X136673119Y-113871162D01*
X136673116Y-113871161D01*
X136463373Y-113833800D01*
X136463367Y-113833799D01*
X136458284Y-113832894D01*
X136384452Y-113831992D01*
X136240081Y-113830228D01*
X136240079Y-113830228D01*
X136234911Y-113830165D01*
X136014091Y-113863955D01*
X135801756Y-113933357D01*
X135603607Y-114036507D01*
X135599474Y-114039610D01*
X135599471Y-114039612D01*
X135429100Y-114167530D01*
X135424965Y-114170635D01*
X135421393Y-114174373D01*
X135313729Y-114287037D01*
X135270629Y-114332138D01*
X135163204Y-114489618D01*
X135162898Y-114490066D01*
X135107987Y-114535069D01*
X135037462Y-114543240D01*
X134973715Y-114511986D01*
X134953018Y-114487502D01*
X134872426Y-114362926D01*
X134866136Y-114354757D01*
X134722806Y-114197240D01*
X134715273Y-114190215D01*
X134548139Y-114058222D01*
X134539552Y-114052517D01*
X134353117Y-113949599D01*
X134343705Y-113945369D01*
X134142959Y-113874280D01*
X134132988Y-113871646D01*
X134061837Y-113858972D01*
X134048540Y-113860432D01*
X134044000Y-113874989D01*
X134044000Y-116508517D01*
X133536000Y-116508517D01*
X133536000Y-113873102D01*
X133532082Y-113859758D01*
X133517806Y-113857771D01*
X133479324Y-113863660D01*
X133469288Y-113866051D01*
X133266868Y-113932212D01*
X133257359Y-113936209D01*
X133068463Y-114034542D01*
X133059738Y-114040036D01*
X132889433Y-114167905D01*
X132881726Y-114174748D01*
X132734590Y-114328717D01*
X132728109Y-114336722D01*
X132623498Y-114490074D01*
X132568587Y-114535076D01*
X132498062Y-114543247D01*
X132434315Y-114511993D01*
X132413618Y-114487509D01*
X132332822Y-114362617D01*
X132332820Y-114362614D01*
X132330014Y-114358277D01*
X132179670Y-114193051D01*
X132175619Y-114189852D01*
X132175615Y-114189848D01*
X132008414Y-114057800D01*
X132008410Y-114057798D01*
X132004359Y-114054598D01*
X131968028Y-114034542D01*
X131952136Y-114025769D01*
X131808789Y-113946638D01*
X131803920Y-113944914D01*
X131803916Y-113944912D01*
X131603087Y-113873795D01*
X131603083Y-113873794D01*
X131598212Y-113872069D01*
X131593119Y-113871162D01*
X131593116Y-113871161D01*
X131383373Y-113833800D01*
X131383367Y-113833799D01*
X131378284Y-113832894D01*
X131304452Y-113831992D01*
X131160081Y-113830228D01*
X131160079Y-113830228D01*
X131154911Y-113830165D01*
X130934091Y-113863955D01*
X130721756Y-113933357D01*
X130523607Y-114036507D01*
X130519474Y-114039610D01*
X130519471Y-114039612D01*
X130349100Y-114167530D01*
X130344965Y-114170635D01*
X130288537Y-114229684D01*
X130264283Y-114255064D01*
X130202759Y-114290494D01*
X130131846Y-114287037D01*
X130074060Y-114245791D01*
X130055207Y-114212243D01*
X130013767Y-114101703D01*
X130010615Y-114093295D01*
X129923261Y-113976739D01*
X129806705Y-113889385D01*
X129670316Y-113838255D01*
X129608134Y-113831500D01*
X127811866Y-113831500D01*
X127749684Y-113838255D01*
X127613295Y-113889385D01*
X127496739Y-113976739D01*
X127409385Y-114093295D01*
X127358255Y-114229684D01*
X127351500Y-114291866D01*
X127351500Y-116088134D01*
X119380000Y-116088134D01*
X119380000Y-110786695D01*
X198477251Y-110786695D01*
X198477548Y-110791848D01*
X198477548Y-110791851D01*
X198483011Y-110886590D01*
X198490110Y-111009715D01*
X198491247Y-111014761D01*
X198491248Y-111014767D01*
X198511119Y-111102939D01*
X198539222Y-111227639D01*
X198623266Y-111434616D01*
X198739987Y-111625088D01*
X198886250Y-111793938D01*
X199058126Y-111936632D01*
X199251000Y-112049338D01*
X199459692Y-112129030D01*
X199464760Y-112130061D01*
X199464763Y-112130062D01*
X199572017Y-112151883D01*
X199678597Y-112173567D01*
X199683772Y-112173757D01*
X199683774Y-112173757D01*
X199896673Y-112181564D01*
X199896677Y-112181564D01*
X199901837Y-112181753D01*
X199906957Y-112181097D01*
X199906959Y-112181097D01*
X200118288Y-112154025D01*
X200118289Y-112154025D01*
X200123416Y-112153368D01*
X200128366Y-112151883D01*
X200332429Y-112090661D01*
X200332434Y-112090659D01*
X200337384Y-112089174D01*
X200537994Y-111990896D01*
X200719860Y-111861173D01*
X200878096Y-111703489D01*
X200937594Y-111620689D01*
X201005435Y-111526277D01*
X201008453Y-111522077D01*
X201107430Y-111321811D01*
X201172370Y-111108069D01*
X201201529Y-110886590D01*
X201203156Y-110820000D01*
X201184852Y-110597361D01*
X201130431Y-110380702D01*
X201041354Y-110175840D01*
X200920014Y-109988277D01*
X200769670Y-109823051D01*
X200765619Y-109819852D01*
X200765615Y-109819848D01*
X200598414Y-109687800D01*
X200598410Y-109687798D01*
X200594359Y-109684598D01*
X200553053Y-109661796D01*
X200503084Y-109611364D01*
X200488312Y-109541921D01*
X200513428Y-109475516D01*
X200540780Y-109448909D01*
X200584603Y-109417650D01*
X200719860Y-109321173D01*
X200878096Y-109163489D01*
X200937594Y-109080689D01*
X201005435Y-108986277D01*
X201008453Y-108982077D01*
X201107430Y-108781811D01*
X201172370Y-108568069D01*
X201201529Y-108346590D01*
X201203156Y-108280000D01*
X201184852Y-108057361D01*
X201130431Y-107840702D01*
X201041354Y-107635840D01*
X200920014Y-107448277D01*
X200769670Y-107283051D01*
X200765619Y-107279852D01*
X200765615Y-107279848D01*
X200598414Y-107147800D01*
X200598410Y-107147798D01*
X200594359Y-107144598D01*
X200553053Y-107121796D01*
X200503084Y-107071364D01*
X200488312Y-107001921D01*
X200513428Y-106935516D01*
X200540780Y-106908909D01*
X200584603Y-106877650D01*
X200719860Y-106781173D01*
X200878096Y-106623489D01*
X200937594Y-106540689D01*
X201005435Y-106446277D01*
X201008453Y-106442077D01*
X201107430Y-106241811D01*
X201172370Y-106028069D01*
X201201529Y-105806590D01*
X201203156Y-105740000D01*
X201184852Y-105517361D01*
X201130431Y-105300702D01*
X201041354Y-105095840D01*
X200920014Y-104908277D01*
X200769670Y-104743051D01*
X200765619Y-104739852D01*
X200765615Y-104739848D01*
X200598414Y-104607800D01*
X200598410Y-104607798D01*
X200594359Y-104604598D01*
X200553053Y-104581796D01*
X200503084Y-104531364D01*
X200488312Y-104461921D01*
X200513428Y-104395516D01*
X200540780Y-104368909D01*
X200584603Y-104337650D01*
X200719860Y-104241173D01*
X200878096Y-104083489D01*
X200937594Y-104000689D01*
X201005435Y-103906277D01*
X201008453Y-103902077D01*
X201107430Y-103701811D01*
X201172370Y-103488069D01*
X201201529Y-103266590D01*
X201203156Y-103200000D01*
X201184852Y-102977361D01*
X201130431Y-102760702D01*
X201041354Y-102555840D01*
X200920014Y-102368277D01*
X200769670Y-102203051D01*
X200765619Y-102199852D01*
X200765615Y-102199848D01*
X200598414Y-102067800D01*
X200598410Y-102067798D01*
X200594359Y-102064598D01*
X200553053Y-102041796D01*
X200503084Y-101991364D01*
X200488312Y-101921921D01*
X200513428Y-101855516D01*
X200540780Y-101828909D01*
X200584603Y-101797650D01*
X200719860Y-101701173D01*
X200747191Y-101673938D01*
X200874435Y-101547137D01*
X200878096Y-101543489D01*
X200937594Y-101460689D01*
X201005435Y-101366277D01*
X201008453Y-101362077D01*
X201034276Y-101309829D01*
X201105136Y-101166453D01*
X201105137Y-101166451D01*
X201107430Y-101161811D01*
X201172370Y-100948069D01*
X201201529Y-100726590D01*
X201201611Y-100723240D01*
X201202993Y-100666695D01*
X223877251Y-100666695D01*
X223877548Y-100671848D01*
X223877548Y-100671851D01*
X223883011Y-100766590D01*
X223890110Y-100889715D01*
X223891247Y-100894761D01*
X223891248Y-100894767D01*
X223903261Y-100948069D01*
X223939222Y-101107639D01*
X224023266Y-101314616D01*
X224139987Y-101505088D01*
X224286250Y-101673938D01*
X224458126Y-101816632D01*
X224651000Y-101929338D01*
X224859692Y-102009030D01*
X224864760Y-102010061D01*
X224864763Y-102010062D01*
X224972017Y-102031883D01*
X225078597Y-102053567D01*
X225083772Y-102053757D01*
X225083774Y-102053757D01*
X225296673Y-102061564D01*
X225296677Y-102061564D01*
X225301837Y-102061753D01*
X225306957Y-102061097D01*
X225306959Y-102061097D01*
X225518288Y-102034025D01*
X225518289Y-102034025D01*
X225523416Y-102033368D01*
X225528366Y-102031883D01*
X225732429Y-101970661D01*
X225732434Y-101970659D01*
X225737384Y-101969174D01*
X225937994Y-101870896D01*
X226119860Y-101741173D01*
X226278096Y-101583489D01*
X226304218Y-101547137D01*
X226405435Y-101406277D01*
X226408453Y-101402077D01*
X226426147Y-101366277D01*
X226505136Y-101206453D01*
X226505137Y-101206451D01*
X226507430Y-101201811D01*
X226572370Y-100988069D01*
X226601529Y-100766590D01*
X226602425Y-100729908D01*
X226603074Y-100703365D01*
X226603074Y-100703361D01*
X226603156Y-100700000D01*
X226584852Y-100477361D01*
X226530431Y-100260702D01*
X226441354Y-100055840D01*
X226320014Y-99868277D01*
X226169670Y-99703051D01*
X226165619Y-99699852D01*
X226165615Y-99699848D01*
X225998414Y-99567800D01*
X225998410Y-99567798D01*
X225994359Y-99564598D01*
X225953053Y-99541796D01*
X225903084Y-99491364D01*
X225888312Y-99421921D01*
X225913428Y-99355516D01*
X225940780Y-99328909D01*
X225996858Y-99288909D01*
X226119860Y-99201173D01*
X226278096Y-99043489D01*
X226304218Y-99007137D01*
X226405435Y-98866277D01*
X226408453Y-98862077D01*
X226426147Y-98826277D01*
X226505136Y-98666453D01*
X226505137Y-98666451D01*
X226507430Y-98661811D01*
X226572370Y-98448069D01*
X226601529Y-98226590D01*
X226602425Y-98189908D01*
X226603074Y-98163365D01*
X226603074Y-98163361D01*
X226603156Y-98160000D01*
X226584852Y-97937361D01*
X226530431Y-97720702D01*
X226441354Y-97515840D01*
X226320014Y-97328277D01*
X226169670Y-97163051D01*
X226165619Y-97159852D01*
X226165615Y-97159848D01*
X225998414Y-97027800D01*
X225998410Y-97027798D01*
X225994359Y-97024598D01*
X225953053Y-97001796D01*
X225903084Y-96951364D01*
X225888312Y-96881921D01*
X225913428Y-96815516D01*
X225940780Y-96788909D01*
X225996858Y-96748909D01*
X226119860Y-96661173D01*
X226278096Y-96503489D01*
X226304218Y-96467137D01*
X226405435Y-96326277D01*
X226408453Y-96322077D01*
X226426147Y-96286277D01*
X226505136Y-96126453D01*
X226505137Y-96126451D01*
X226507430Y-96121811D01*
X226572370Y-95908069D01*
X226601529Y-95686590D01*
X226602425Y-95649908D01*
X226603074Y-95623365D01*
X226603074Y-95623361D01*
X226603156Y-95620000D01*
X226584852Y-95397361D01*
X226530431Y-95180702D01*
X226441354Y-94975840D01*
X226320014Y-94788277D01*
X226169670Y-94623051D01*
X226165619Y-94619852D01*
X226165615Y-94619848D01*
X225998414Y-94487800D01*
X225998410Y-94487798D01*
X225994359Y-94484598D01*
X225953053Y-94461796D01*
X225903084Y-94411364D01*
X225888312Y-94341921D01*
X225913428Y-94275516D01*
X225940780Y-94248909D01*
X225996858Y-94208909D01*
X226119860Y-94121173D01*
X226278096Y-93963489D01*
X226304218Y-93927137D01*
X226405435Y-93786277D01*
X226408453Y-93782077D01*
X226426147Y-93746277D01*
X226505136Y-93586453D01*
X226505137Y-93586451D01*
X226507430Y-93581811D01*
X226572370Y-93368069D01*
X226601529Y-93146590D01*
X226602425Y-93109908D01*
X226603074Y-93083365D01*
X226603074Y-93083361D01*
X226603156Y-93080000D01*
X226584852Y-92857361D01*
X226530431Y-92640702D01*
X226441354Y-92435840D01*
X226320014Y-92248277D01*
X226316532Y-92244450D01*
X226172798Y-92086488D01*
X226141746Y-92022642D01*
X226150141Y-91952143D01*
X226195317Y-91897375D01*
X226221761Y-91883706D01*
X226328297Y-91843767D01*
X226336705Y-91840615D01*
X226453261Y-91753261D01*
X226540615Y-91636705D01*
X226591745Y-91500316D01*
X226598500Y-91438134D01*
X226598500Y-89641866D01*
X226591745Y-89579684D01*
X226540615Y-89443295D01*
X226453261Y-89326739D01*
X226336705Y-89239385D01*
X226200316Y-89188255D01*
X226138134Y-89181500D01*
X224341866Y-89181500D01*
X224279684Y-89188255D01*
X224143295Y-89239385D01*
X224026739Y-89326739D01*
X223939385Y-89443295D01*
X223888255Y-89579684D01*
X223881500Y-89641866D01*
X223881500Y-91438134D01*
X223888255Y-91500316D01*
X223939385Y-91636705D01*
X224026739Y-91753261D01*
X224143295Y-91840615D01*
X224151704Y-91843767D01*
X224151705Y-91843768D01*
X224260451Y-91884535D01*
X224317216Y-91927176D01*
X224341916Y-91993738D01*
X224326709Y-92063087D01*
X224307316Y-92089568D01*
X224214771Y-92186411D01*
X224180629Y-92222138D01*
X224054743Y-92406680D01*
X224039003Y-92440590D01*
X223981435Y-92564610D01*
X223960688Y-92609305D01*
X223900989Y-92824570D01*
X223877251Y-93046695D01*
X223877548Y-93051848D01*
X223877548Y-93051851D01*
X223883011Y-93146590D01*
X223890110Y-93269715D01*
X223891247Y-93274761D01*
X223891248Y-93274767D01*
X223903261Y-93328069D01*
X223939222Y-93487639D01*
X224023266Y-93694616D01*
X224139987Y-93885088D01*
X224286250Y-94053938D01*
X224458126Y-94196632D01*
X224462993Y-94199476D01*
X224531445Y-94239476D01*
X224580169Y-94291114D01*
X224593240Y-94360897D01*
X224566509Y-94426669D01*
X224526055Y-94460027D01*
X224513607Y-94466507D01*
X224509474Y-94469610D01*
X224509471Y-94469612D01*
X224353298Y-94586870D01*
X224334965Y-94600635D01*
X224331393Y-94604373D01*
X224214771Y-94726411D01*
X224180629Y-94762138D01*
X224054743Y-94946680D01*
X224039003Y-94980590D01*
X223981435Y-95104610D01*
X223960688Y-95149305D01*
X223900989Y-95364570D01*
X223877251Y-95586695D01*
X223877548Y-95591848D01*
X223877548Y-95591851D01*
X223883011Y-95686590D01*
X223890110Y-95809715D01*
X223891247Y-95814761D01*
X223891248Y-95814767D01*
X223903261Y-95868069D01*
X223939222Y-96027639D01*
X224023266Y-96234616D01*
X224139987Y-96425088D01*
X224286250Y-96593938D01*
X224458126Y-96736632D01*
X224462993Y-96739476D01*
X224531445Y-96779476D01*
X224580169Y-96831114D01*
X224593240Y-96900897D01*
X224566509Y-96966669D01*
X224526055Y-97000027D01*
X224513607Y-97006507D01*
X224509474Y-97009610D01*
X224509471Y-97009612D01*
X224353298Y-97126870D01*
X224334965Y-97140635D01*
X224331393Y-97144373D01*
X224214771Y-97266411D01*
X224180629Y-97302138D01*
X224054743Y-97486680D01*
X224039003Y-97520590D01*
X223981435Y-97644610D01*
X223960688Y-97689305D01*
X223900989Y-97904570D01*
X223877251Y-98126695D01*
X223877548Y-98131848D01*
X223877548Y-98131851D01*
X223883011Y-98226590D01*
X223890110Y-98349715D01*
X223891247Y-98354761D01*
X223891248Y-98354767D01*
X223903261Y-98408069D01*
X223939222Y-98567639D01*
X224023266Y-98774616D01*
X224139987Y-98965088D01*
X224286250Y-99133938D01*
X224458126Y-99276632D01*
X224462993Y-99279476D01*
X224531445Y-99319476D01*
X224580169Y-99371114D01*
X224593240Y-99440897D01*
X224566509Y-99506669D01*
X224526055Y-99540027D01*
X224513607Y-99546507D01*
X224509474Y-99549610D01*
X224509471Y-99549612D01*
X224353298Y-99666870D01*
X224334965Y-99680635D01*
X224331393Y-99684373D01*
X224214771Y-99806411D01*
X224180629Y-99842138D01*
X224054743Y-100026680D01*
X224039003Y-100060590D01*
X223981435Y-100184610D01*
X223960688Y-100229305D01*
X223900989Y-100444570D01*
X223877251Y-100666695D01*
X201202993Y-100666695D01*
X201203074Y-100663365D01*
X201203074Y-100663361D01*
X201203156Y-100660000D01*
X201184852Y-100437361D01*
X201130431Y-100220702D01*
X201041354Y-100015840D01*
X200943420Y-99864457D01*
X200922822Y-99832617D01*
X200922820Y-99832614D01*
X200920014Y-99828277D01*
X200769670Y-99663051D01*
X200765619Y-99659852D01*
X200765615Y-99659848D01*
X200598414Y-99527800D01*
X200598410Y-99527798D01*
X200594359Y-99524598D01*
X200553053Y-99501796D01*
X200503084Y-99451364D01*
X200488312Y-99381921D01*
X200513428Y-99315516D01*
X200540780Y-99288909D01*
X200584603Y-99257650D01*
X200719860Y-99161173D01*
X200747191Y-99133938D01*
X200874435Y-99007137D01*
X200878096Y-99003489D01*
X200937594Y-98920689D01*
X201005435Y-98826277D01*
X201008453Y-98822077D01*
X201034276Y-98769829D01*
X201105136Y-98626453D01*
X201105137Y-98626451D01*
X201107430Y-98621811D01*
X201172370Y-98408069D01*
X201201529Y-98186590D01*
X201201611Y-98183240D01*
X201203074Y-98123365D01*
X201203074Y-98123361D01*
X201203156Y-98120000D01*
X201184852Y-97897361D01*
X201130431Y-97680702D01*
X201041354Y-97475840D01*
X200943420Y-97324457D01*
X200922822Y-97292617D01*
X200922820Y-97292614D01*
X200920014Y-97288277D01*
X200769670Y-97123051D01*
X200765619Y-97119852D01*
X200765615Y-97119848D01*
X200598414Y-96987800D01*
X200598410Y-96987798D01*
X200594359Y-96984598D01*
X200553053Y-96961796D01*
X200503084Y-96911364D01*
X200488312Y-96841921D01*
X200513428Y-96775516D01*
X200540780Y-96748909D01*
X200584603Y-96717650D01*
X200719860Y-96621173D01*
X200747191Y-96593938D01*
X200874435Y-96467137D01*
X200878096Y-96463489D01*
X200937594Y-96380689D01*
X201005435Y-96286277D01*
X201008453Y-96282077D01*
X201034276Y-96229829D01*
X201105136Y-96086453D01*
X201105137Y-96086451D01*
X201107430Y-96081811D01*
X201172370Y-95868069D01*
X201201529Y-95646590D01*
X201201611Y-95643240D01*
X201203074Y-95583365D01*
X201203074Y-95583361D01*
X201203156Y-95580000D01*
X201184852Y-95357361D01*
X201130431Y-95140702D01*
X201041354Y-94935840D01*
X200943420Y-94784457D01*
X200922822Y-94752617D01*
X200922820Y-94752614D01*
X200920014Y-94748277D01*
X200769670Y-94583051D01*
X200765619Y-94579852D01*
X200765615Y-94579848D01*
X200598414Y-94447800D01*
X200598410Y-94447798D01*
X200594359Y-94444598D01*
X200553053Y-94421796D01*
X200503084Y-94371364D01*
X200488312Y-94301921D01*
X200513428Y-94235516D01*
X200540780Y-94208909D01*
X200584603Y-94177650D01*
X200719860Y-94081173D01*
X200747191Y-94053938D01*
X200874435Y-93927137D01*
X200878096Y-93923489D01*
X200937594Y-93840689D01*
X201005435Y-93746277D01*
X201008453Y-93742077D01*
X201034276Y-93689829D01*
X201105136Y-93546453D01*
X201105137Y-93546451D01*
X201107430Y-93541811D01*
X201172370Y-93328069D01*
X201201529Y-93106590D01*
X201201611Y-93103240D01*
X201203074Y-93043365D01*
X201203074Y-93043361D01*
X201203156Y-93040000D01*
X201184852Y-92817361D01*
X201130431Y-92600702D01*
X201041354Y-92395840D01*
X200945891Y-92248277D01*
X200922822Y-92212617D01*
X200922820Y-92212614D01*
X200920014Y-92208277D01*
X200916540Y-92204459D01*
X200916533Y-92204450D01*
X200772435Y-92046088D01*
X200741383Y-91982242D01*
X200749779Y-91911744D01*
X200794956Y-91856976D01*
X200821400Y-91843307D01*
X200928052Y-91803325D01*
X200943649Y-91794786D01*
X201045724Y-91718285D01*
X201058285Y-91705724D01*
X201134786Y-91603649D01*
X201143324Y-91588054D01*
X201188478Y-91467606D01*
X201192105Y-91452351D01*
X201197631Y-91401486D01*
X201198000Y-91394672D01*
X201198000Y-90772115D01*
X201193525Y-90756876D01*
X201192135Y-90755671D01*
X201184452Y-90754000D01*
X198500116Y-90754000D01*
X198484877Y-90758475D01*
X198483672Y-90759865D01*
X198482001Y-90767548D01*
X198482001Y-91394669D01*
X198482371Y-91401490D01*
X198487895Y-91452352D01*
X198491521Y-91467604D01*
X198536676Y-91588054D01*
X198545214Y-91603649D01*
X198621715Y-91705724D01*
X198634276Y-91718285D01*
X198736351Y-91794786D01*
X198751946Y-91803324D01*
X198860827Y-91844142D01*
X198917591Y-91886784D01*
X198942291Y-91953345D01*
X198927083Y-92022694D01*
X198907691Y-92049175D01*
X198872034Y-92086488D01*
X198780629Y-92182138D01*
X198654743Y-92366680D01*
X198560688Y-92569305D01*
X198500989Y-92784570D01*
X198477251Y-93006695D01*
X198477548Y-93011848D01*
X198477548Y-93011851D01*
X198483011Y-93106590D01*
X198490110Y-93229715D01*
X198491247Y-93234761D01*
X198491248Y-93234767D01*
X198500263Y-93274767D01*
X198539222Y-93447639D01*
X198623266Y-93654616D01*
X198739987Y-93845088D01*
X198886250Y-94013938D01*
X199058126Y-94156632D01*
X199120922Y-94193327D01*
X199131445Y-94199476D01*
X199180169Y-94251114D01*
X199193240Y-94320897D01*
X199166509Y-94386669D01*
X199126055Y-94420027D01*
X199113607Y-94426507D01*
X199109474Y-94429610D01*
X199109471Y-94429612D01*
X199031972Y-94487800D01*
X198934965Y-94560635D01*
X198780629Y-94722138D01*
X198654743Y-94906680D01*
X198560688Y-95109305D01*
X198500989Y-95324570D01*
X198477251Y-95546695D01*
X198477548Y-95551848D01*
X198477548Y-95551851D01*
X198483011Y-95646590D01*
X198490110Y-95769715D01*
X198491247Y-95774761D01*
X198491248Y-95774767D01*
X198500263Y-95814767D01*
X198539222Y-95987639D01*
X198623266Y-96194616D01*
X198739987Y-96385088D01*
X198886250Y-96553938D01*
X199058126Y-96696632D01*
X199120922Y-96733327D01*
X199131445Y-96739476D01*
X199180169Y-96791114D01*
X199193240Y-96860897D01*
X199166509Y-96926669D01*
X199126055Y-96960027D01*
X199113607Y-96966507D01*
X199109474Y-96969610D01*
X199109471Y-96969612D01*
X199031972Y-97027800D01*
X198934965Y-97100635D01*
X198780629Y-97262138D01*
X198654743Y-97446680D01*
X198560688Y-97649305D01*
X198500989Y-97864570D01*
X198477251Y-98086695D01*
X198477548Y-98091848D01*
X198477548Y-98091851D01*
X198483011Y-98186590D01*
X198490110Y-98309715D01*
X198491247Y-98314761D01*
X198491248Y-98314767D01*
X198500263Y-98354767D01*
X198539222Y-98527639D01*
X198623266Y-98734616D01*
X198739987Y-98925088D01*
X198886250Y-99093938D01*
X199058126Y-99236632D01*
X199120922Y-99273327D01*
X199131445Y-99279476D01*
X199180169Y-99331114D01*
X199193240Y-99400897D01*
X199166509Y-99466669D01*
X199126055Y-99500027D01*
X199113607Y-99506507D01*
X199109474Y-99509610D01*
X199109471Y-99509612D01*
X199031972Y-99567800D01*
X198934965Y-99640635D01*
X198780629Y-99802138D01*
X198654743Y-99986680D01*
X198560688Y-100189305D01*
X198500989Y-100404570D01*
X198477251Y-100626695D01*
X198477548Y-100631848D01*
X198477548Y-100631851D01*
X198483011Y-100726590D01*
X198490110Y-100849715D01*
X198491247Y-100854761D01*
X198491248Y-100854767D01*
X198500263Y-100894767D01*
X198539222Y-101067639D01*
X198623266Y-101274616D01*
X198739987Y-101465088D01*
X198886250Y-101633938D01*
X199058126Y-101776632D01*
X199120922Y-101813327D01*
X199131445Y-101819476D01*
X199180169Y-101871114D01*
X199193240Y-101940897D01*
X199166509Y-102006669D01*
X199126055Y-102040027D01*
X199113607Y-102046507D01*
X199109474Y-102049610D01*
X199109471Y-102049612D01*
X199085247Y-102067800D01*
X198934965Y-102180635D01*
X198780629Y-102342138D01*
X198654743Y-102526680D01*
X198560688Y-102729305D01*
X198500989Y-102944570D01*
X198477251Y-103166695D01*
X198477548Y-103171848D01*
X198477548Y-103171851D01*
X198483011Y-103266590D01*
X198490110Y-103389715D01*
X198491247Y-103394761D01*
X198491248Y-103394767D01*
X198511119Y-103482939D01*
X198539222Y-103607639D01*
X198623266Y-103814616D01*
X198739987Y-104005088D01*
X198886250Y-104173938D01*
X199058126Y-104316632D01*
X199128595Y-104357811D01*
X199131445Y-104359476D01*
X199180169Y-104411114D01*
X199193240Y-104480897D01*
X199166509Y-104546669D01*
X199126055Y-104580027D01*
X199113607Y-104586507D01*
X199109474Y-104589610D01*
X199109471Y-104589612D01*
X199085247Y-104607800D01*
X198934965Y-104720635D01*
X198780629Y-104882138D01*
X198654743Y-105066680D01*
X198560688Y-105269305D01*
X198500989Y-105484570D01*
X198477251Y-105706695D01*
X198477548Y-105711848D01*
X198477548Y-105711851D01*
X198483011Y-105806590D01*
X198490110Y-105929715D01*
X198491247Y-105934761D01*
X198491248Y-105934767D01*
X198511119Y-106022939D01*
X198539222Y-106147639D01*
X198623266Y-106354616D01*
X198739987Y-106545088D01*
X198886250Y-106713938D01*
X199058126Y-106856632D01*
X199128595Y-106897811D01*
X199131445Y-106899476D01*
X199180169Y-106951114D01*
X199193240Y-107020897D01*
X199166509Y-107086669D01*
X199126055Y-107120027D01*
X199113607Y-107126507D01*
X199109474Y-107129610D01*
X199109471Y-107129612D01*
X199085247Y-107147800D01*
X198934965Y-107260635D01*
X198780629Y-107422138D01*
X198654743Y-107606680D01*
X198560688Y-107809305D01*
X198500989Y-108024570D01*
X198477251Y-108246695D01*
X198477548Y-108251848D01*
X198477548Y-108251851D01*
X198483011Y-108346590D01*
X198490110Y-108469715D01*
X198491247Y-108474761D01*
X198491248Y-108474767D01*
X198511119Y-108562939D01*
X198539222Y-108687639D01*
X198623266Y-108894616D01*
X198739987Y-109085088D01*
X198886250Y-109253938D01*
X199058126Y-109396632D01*
X199128595Y-109437811D01*
X199131445Y-109439476D01*
X199180169Y-109491114D01*
X199193240Y-109560897D01*
X199166509Y-109626669D01*
X199126055Y-109660027D01*
X199113607Y-109666507D01*
X199109474Y-109669610D01*
X199109471Y-109669612D01*
X199085247Y-109687800D01*
X198934965Y-109800635D01*
X198780629Y-109962138D01*
X198654743Y-110146680D01*
X198560688Y-110349305D01*
X198500989Y-110564570D01*
X198477251Y-110786695D01*
X119380000Y-110786695D01*
X119380000Y-90227885D01*
X198482000Y-90227885D01*
X198486475Y-90243124D01*
X198487865Y-90244329D01*
X198495548Y-90246000D01*
X199567885Y-90246000D01*
X199583124Y-90241525D01*
X199584329Y-90240135D01*
X199586000Y-90232452D01*
X199586000Y-90227885D01*
X200094000Y-90227885D01*
X200098475Y-90243124D01*
X200099865Y-90244329D01*
X200107548Y-90246000D01*
X201179884Y-90246000D01*
X201195123Y-90241525D01*
X201196328Y-90240135D01*
X201197999Y-90232452D01*
X201197999Y-89605331D01*
X201197629Y-89598510D01*
X201192105Y-89547648D01*
X201188479Y-89532396D01*
X201143324Y-89411946D01*
X201134786Y-89396351D01*
X201058285Y-89294276D01*
X201045724Y-89281715D01*
X200943649Y-89205214D01*
X200928054Y-89196676D01*
X200807606Y-89151522D01*
X200792351Y-89147895D01*
X200741486Y-89142369D01*
X200734672Y-89142000D01*
X200112115Y-89142000D01*
X200096876Y-89146475D01*
X200095671Y-89147865D01*
X200094000Y-89155548D01*
X200094000Y-90227885D01*
X199586000Y-90227885D01*
X199586000Y-89160116D01*
X199581525Y-89144877D01*
X199580135Y-89143672D01*
X199572452Y-89142001D01*
X198945331Y-89142001D01*
X198938510Y-89142371D01*
X198887648Y-89147895D01*
X198872396Y-89151521D01*
X198751946Y-89196676D01*
X198736351Y-89205214D01*
X198634276Y-89281715D01*
X198621715Y-89294276D01*
X198545214Y-89396351D01*
X198536676Y-89411946D01*
X198491522Y-89532394D01*
X198487895Y-89547649D01*
X198482369Y-89598514D01*
X198482000Y-89605328D01*
X198482000Y-90227885D01*
X119380000Y-90227885D01*
X119380000Y-78927233D01*
X192067822Y-78927233D01*
X192067975Y-78931621D01*
X192067975Y-78931627D01*
X192073563Y-79091627D01*
X192077625Y-79207958D01*
X192078387Y-79212281D01*
X192078388Y-79212288D01*
X192102164Y-79347124D01*
X192126402Y-79484587D01*
X192213203Y-79751735D01*
X192215131Y-79755688D01*
X192215133Y-79755693D01*
X192228822Y-79783759D01*
X192336340Y-80004202D01*
X192338795Y-80007841D01*
X192338798Y-80007847D01*
X192357814Y-80036039D01*
X192493415Y-80237076D01*
X192681371Y-80445822D01*
X192896550Y-80626379D01*
X193134764Y-80775231D01*
X193391375Y-80889482D01*
X193661390Y-80966907D01*
X193665740Y-80967518D01*
X193665743Y-80967519D01*
X193768690Y-80981987D01*
X193939552Y-81006000D01*
X194150146Y-81006000D01*
X194152332Y-81005847D01*
X194152336Y-81005847D01*
X194355827Y-80991618D01*
X194355832Y-80991617D01*
X194360212Y-80991311D01*
X194634970Y-80932909D01*
X194639099Y-80931406D01*
X194639103Y-80931405D01*
X194894781Y-80838346D01*
X194894785Y-80838344D01*
X194898926Y-80836837D01*
X195146942Y-80704964D01*
X195251896Y-80628711D01*
X195370629Y-80542447D01*
X195370632Y-80542444D01*
X195374192Y-80539858D01*
X195576252Y-80344731D01*
X195749188Y-80123382D01*
X195751384Y-80119578D01*
X195751389Y-80119571D01*
X195887435Y-79883931D01*
X195889636Y-79880119D01*
X195994862Y-79619676D01*
X196021860Y-79511393D01*
X196061753Y-79351393D01*
X196061754Y-79351388D01*
X196062817Y-79347124D01*
X196074903Y-79232136D01*
X196090132Y-79087233D01*
X220177822Y-79087233D01*
X220177975Y-79091621D01*
X220177975Y-79091627D01*
X220187047Y-79351393D01*
X220187625Y-79367958D01*
X220188387Y-79372281D01*
X220188388Y-79372288D01*
X220212164Y-79507124D01*
X220236402Y-79644587D01*
X220323203Y-79911735D01*
X220446340Y-80164202D01*
X220448795Y-80167841D01*
X220448798Y-80167847D01*
X220493031Y-80233425D01*
X220603415Y-80397076D01*
X220791371Y-80605822D01*
X220794733Y-80608643D01*
X220794734Y-80608644D01*
X220815870Y-80626379D01*
X221006550Y-80786379D01*
X221244764Y-80935231D01*
X221501375Y-81049482D01*
X221771390Y-81126907D01*
X221775740Y-81127518D01*
X221775743Y-81127519D01*
X221878690Y-81141987D01*
X222049552Y-81166000D01*
X222260146Y-81166000D01*
X222262332Y-81165847D01*
X222262336Y-81165847D01*
X222465827Y-81151618D01*
X222465832Y-81151617D01*
X222470212Y-81151311D01*
X222744970Y-81092909D01*
X222749099Y-81091406D01*
X222749103Y-81091405D01*
X223004781Y-80998346D01*
X223004785Y-80998344D01*
X223008926Y-80996837D01*
X223256942Y-80864964D01*
X223361896Y-80788711D01*
X223480629Y-80702447D01*
X223480632Y-80702444D01*
X223484192Y-80699858D01*
X223686252Y-80504731D01*
X223859188Y-80283382D01*
X223861384Y-80279578D01*
X223861389Y-80279571D01*
X223997435Y-80043931D01*
X223999636Y-80040119D01*
X224104862Y-79779676D01*
X224110842Y-79755693D01*
X224171753Y-79511393D01*
X224171754Y-79511388D01*
X224172817Y-79507124D01*
X224189634Y-79347124D01*
X224201719Y-79232136D01*
X224201719Y-79232133D01*
X224202178Y-79227767D01*
X224202025Y-79223373D01*
X224192529Y-78951439D01*
X224192528Y-78951433D01*
X224192375Y-78947042D01*
X224188883Y-78927233D01*
X224144360Y-78674736D01*
X224143598Y-78670413D01*
X224056797Y-78403265D01*
X224045255Y-78379599D01*
X223992320Y-78271069D01*
X223933660Y-78150798D01*
X223931205Y-78147159D01*
X223931202Y-78147153D01*
X223850935Y-78028153D01*
X223776585Y-77917924D01*
X223588629Y-77709178D01*
X223373450Y-77528621D01*
X223135236Y-77379769D01*
X222878625Y-77265518D01*
X222608610Y-77188093D01*
X222604260Y-77187482D01*
X222604257Y-77187481D01*
X222501310Y-77173013D01*
X222330448Y-77149000D01*
X222119854Y-77149000D01*
X222117668Y-77149153D01*
X222117664Y-77149153D01*
X221914173Y-77163382D01*
X221914168Y-77163383D01*
X221909788Y-77163689D01*
X221635030Y-77222091D01*
X221630901Y-77223594D01*
X221630897Y-77223595D01*
X221375219Y-77316654D01*
X221375215Y-77316656D01*
X221371074Y-77318163D01*
X221123058Y-77450036D01*
X221119499Y-77452622D01*
X221119497Y-77452623D01*
X221014895Y-77528621D01*
X220895808Y-77615142D01*
X220693748Y-77810269D01*
X220520812Y-78031618D01*
X220518616Y-78035422D01*
X220518611Y-78035429D01*
X220404794Y-78232567D01*
X220380364Y-78274881D01*
X220275138Y-78535324D01*
X220274073Y-78539597D01*
X220274072Y-78539599D01*
X220212378Y-78787042D01*
X220207183Y-78807876D01*
X220206724Y-78812244D01*
X220206723Y-78812249D01*
X220193011Y-78942712D01*
X220177822Y-79087233D01*
X196090132Y-79087233D01*
X196091719Y-79072136D01*
X196091719Y-79072133D01*
X196092178Y-79067767D01*
X196088116Y-78951439D01*
X196082529Y-78791439D01*
X196082528Y-78791433D01*
X196082375Y-78787042D01*
X196062573Y-78674736D01*
X196037990Y-78535324D01*
X196033598Y-78510413D01*
X195946797Y-78243265D01*
X195823660Y-77990798D01*
X195821205Y-77987159D01*
X195821202Y-77987153D01*
X195740935Y-77868153D01*
X195666585Y-77757924D01*
X195478629Y-77549178D01*
X195457501Y-77531449D01*
X195279509Y-77382096D01*
X195263450Y-77368621D01*
X195025236Y-77219769D01*
X194768625Y-77105518D01*
X194498610Y-77028093D01*
X194494260Y-77027482D01*
X194494257Y-77027481D01*
X194391310Y-77013013D01*
X194220448Y-76989000D01*
X194009854Y-76989000D01*
X194007668Y-76989153D01*
X194007664Y-76989153D01*
X193804173Y-77003382D01*
X193804168Y-77003383D01*
X193799788Y-77003689D01*
X193525030Y-77062091D01*
X193520901Y-77063594D01*
X193520897Y-77063595D01*
X193265219Y-77156654D01*
X193265215Y-77156656D01*
X193261074Y-77158163D01*
X193013058Y-77290036D01*
X193009499Y-77292622D01*
X193009497Y-77292623D01*
X192792836Y-77450036D01*
X192785808Y-77455142D01*
X192583748Y-77650269D01*
X192410812Y-77871618D01*
X192408616Y-77875422D01*
X192408611Y-77875429D01*
X192320436Y-78028153D01*
X192270364Y-78114881D01*
X192165138Y-78375324D01*
X192164073Y-78379597D01*
X192164072Y-78379599D01*
X192124180Y-78539599D01*
X192097183Y-78647876D01*
X192096724Y-78652244D01*
X192096723Y-78652249D01*
X192079907Y-78812249D01*
X192067822Y-78927233D01*
X119380000Y-78927233D01*
X119380000Y-75174195D01*
X222027251Y-75174195D01*
X222027548Y-75179348D01*
X222027548Y-75179351D01*
X222033011Y-75274090D01*
X222040110Y-75397215D01*
X222041247Y-75402261D01*
X222041248Y-75402267D01*
X222061119Y-75490439D01*
X222089222Y-75615139D01*
X222173266Y-75822116D01*
X222289987Y-76012588D01*
X222436250Y-76181438D01*
X222608126Y-76324132D01*
X222801000Y-76436838D01*
X223009692Y-76516530D01*
X223014760Y-76517561D01*
X223014763Y-76517562D01*
X223122017Y-76539383D01*
X223228597Y-76561067D01*
X223233772Y-76561257D01*
X223233774Y-76561257D01*
X223446673Y-76569064D01*
X223446677Y-76569064D01*
X223451837Y-76569253D01*
X223456957Y-76568597D01*
X223456959Y-76568597D01*
X223668288Y-76541525D01*
X223668289Y-76541525D01*
X223673416Y-76540868D01*
X223678366Y-76539383D01*
X223882429Y-76478161D01*
X223882434Y-76478159D01*
X223887384Y-76476674D01*
X224087994Y-76378396D01*
X224269860Y-76248673D01*
X224428096Y-76090989D01*
X224487594Y-76008189D01*
X224555435Y-75913777D01*
X224558453Y-75909577D01*
X224657430Y-75709311D01*
X224722370Y-75495569D01*
X224751529Y-75274090D01*
X224753156Y-75207500D01*
X224734852Y-74984861D01*
X224680431Y-74768202D01*
X224591354Y-74563340D01*
X224470014Y-74375777D01*
X224319670Y-74210551D01*
X224315619Y-74207352D01*
X224315615Y-74207348D01*
X224148414Y-74075300D01*
X224148410Y-74075298D01*
X224144359Y-74072098D01*
X224103053Y-74049296D01*
X224053084Y-73998864D01*
X224038312Y-73929421D01*
X224063428Y-73863016D01*
X224090780Y-73836409D01*
X224134603Y-73805150D01*
X224269860Y-73708673D01*
X224428096Y-73550989D01*
X224487594Y-73468189D01*
X224555435Y-73373777D01*
X224558453Y-73369577D01*
X224616506Y-73252116D01*
X224655136Y-73173953D01*
X224655137Y-73173951D01*
X224657430Y-73169311D01*
X224722370Y-72955569D01*
X224751529Y-72734090D01*
X224753156Y-72667500D01*
X224734852Y-72444861D01*
X224680431Y-72228202D01*
X224591354Y-72023340D01*
X224470014Y-71835777D01*
X224319670Y-71670551D01*
X224315619Y-71667352D01*
X224315615Y-71667348D01*
X224148414Y-71535300D01*
X224148410Y-71535298D01*
X224144359Y-71532098D01*
X224103053Y-71509296D01*
X224053084Y-71458864D01*
X224038312Y-71389421D01*
X224063428Y-71323016D01*
X224090780Y-71296409D01*
X224146063Y-71256976D01*
X224269860Y-71168673D01*
X224428096Y-71010989D01*
X224487594Y-70928189D01*
X224555435Y-70833777D01*
X224558453Y-70829577D01*
X224616506Y-70712116D01*
X224655136Y-70633953D01*
X224655137Y-70633951D01*
X224657430Y-70629311D01*
X224722370Y-70415569D01*
X224751529Y-70194090D01*
X224753156Y-70127500D01*
X224734852Y-69904861D01*
X224680431Y-69688202D01*
X224591354Y-69483340D01*
X224470014Y-69295777D01*
X224319670Y-69130551D01*
X224315619Y-69127352D01*
X224315615Y-69127348D01*
X224148414Y-68995300D01*
X224148410Y-68995298D01*
X224144359Y-68992098D01*
X224103053Y-68969296D01*
X224053084Y-68918864D01*
X224038312Y-68849421D01*
X224063428Y-68783016D01*
X224090780Y-68756409D01*
X224146063Y-68716976D01*
X224269860Y-68628673D01*
X224428096Y-68470989D01*
X224487594Y-68388189D01*
X224555435Y-68293777D01*
X224558453Y-68289577D01*
X224616506Y-68172116D01*
X224655136Y-68093953D01*
X224655137Y-68093951D01*
X224657430Y-68089311D01*
X224722370Y-67875569D01*
X224751529Y-67654090D01*
X224753156Y-67587500D01*
X224734852Y-67364861D01*
X224680431Y-67148202D01*
X224591354Y-66943340D01*
X224470014Y-66755777D01*
X224319670Y-66590551D01*
X224315619Y-66587352D01*
X224315615Y-66587348D01*
X224148414Y-66455300D01*
X224148410Y-66455298D01*
X224144359Y-66452098D01*
X224103053Y-66429296D01*
X224053084Y-66378864D01*
X224038312Y-66309421D01*
X224063428Y-66243016D01*
X224090780Y-66216409D01*
X224146063Y-66176976D01*
X224269860Y-66088673D01*
X224428096Y-65930989D01*
X224487594Y-65848189D01*
X224555435Y-65753777D01*
X224558453Y-65749577D01*
X224616506Y-65632116D01*
X224655136Y-65553953D01*
X224655137Y-65553951D01*
X224657430Y-65549311D01*
X224722370Y-65335569D01*
X224751529Y-65114090D01*
X224753156Y-65047500D01*
X224734852Y-64824861D01*
X224680431Y-64608202D01*
X224591354Y-64403340D01*
X224470014Y-64215777D01*
X224319670Y-64050551D01*
X224315619Y-64047352D01*
X224315615Y-64047348D01*
X224148414Y-63915300D01*
X224148410Y-63915298D01*
X224144359Y-63912098D01*
X224103053Y-63889296D01*
X224053084Y-63838864D01*
X224038312Y-63769421D01*
X224063428Y-63703016D01*
X224090780Y-63676409D01*
X224146063Y-63636976D01*
X224269860Y-63548673D01*
X224428096Y-63390989D01*
X224487594Y-63308189D01*
X224555435Y-63213777D01*
X224558453Y-63209577D01*
X224616506Y-63092116D01*
X224655136Y-63013953D01*
X224655137Y-63013951D01*
X224657430Y-63009311D01*
X224722370Y-62795569D01*
X224751529Y-62574090D01*
X224753156Y-62507500D01*
X224734852Y-62284861D01*
X224680431Y-62068202D01*
X224591354Y-61863340D01*
X224470014Y-61675777D01*
X224466532Y-61671950D01*
X224322798Y-61513988D01*
X224291746Y-61450142D01*
X224300141Y-61379643D01*
X224345317Y-61324875D01*
X224371761Y-61311206D01*
X224478297Y-61271267D01*
X224486705Y-61268115D01*
X224603261Y-61180761D01*
X224690615Y-61064205D01*
X224741745Y-60927816D01*
X224748500Y-60865634D01*
X224748500Y-59069366D01*
X224741745Y-59007184D01*
X224690615Y-58870795D01*
X224603261Y-58754239D01*
X224486705Y-58666885D01*
X224350316Y-58615755D01*
X224288134Y-58609000D01*
X222491866Y-58609000D01*
X222429684Y-58615755D01*
X222293295Y-58666885D01*
X222176739Y-58754239D01*
X222089385Y-58870795D01*
X222038255Y-59007184D01*
X222031500Y-59069366D01*
X222031500Y-60865634D01*
X222038255Y-60927816D01*
X222089385Y-61064205D01*
X222176739Y-61180761D01*
X222293295Y-61268115D01*
X222301704Y-61271267D01*
X222301705Y-61271268D01*
X222410451Y-61312035D01*
X222467216Y-61354676D01*
X222491916Y-61421238D01*
X222476709Y-61490587D01*
X222457316Y-61517068D01*
X222334319Y-61645777D01*
X222330629Y-61649638D01*
X222204743Y-61834180D01*
X222110688Y-62036805D01*
X222050989Y-62252070D01*
X222027251Y-62474195D01*
X222027548Y-62479348D01*
X222027548Y-62479351D01*
X222039812Y-62692047D01*
X222040110Y-62697215D01*
X222041247Y-62702261D01*
X222041248Y-62702267D01*
X222054358Y-62760439D01*
X222089222Y-62915139D01*
X222127461Y-63009311D01*
X222162873Y-63096520D01*
X222173266Y-63122116D01*
X222289987Y-63312588D01*
X222436250Y-63481438D01*
X222608126Y-63624132D01*
X222630106Y-63636976D01*
X222681445Y-63666976D01*
X222730169Y-63718614D01*
X222743240Y-63788397D01*
X222716509Y-63854169D01*
X222676055Y-63887527D01*
X222663607Y-63894007D01*
X222659474Y-63897110D01*
X222659471Y-63897112D01*
X222489100Y-64025030D01*
X222484965Y-64028135D01*
X222481393Y-64031873D01*
X222334319Y-64185777D01*
X222330629Y-64189638D01*
X222204743Y-64374180D01*
X222110688Y-64576805D01*
X222050989Y-64792070D01*
X222027251Y-65014195D01*
X222027548Y-65019348D01*
X222027548Y-65019351D01*
X222039812Y-65232047D01*
X222040110Y-65237215D01*
X222041247Y-65242261D01*
X222041248Y-65242267D01*
X222054358Y-65300439D01*
X222089222Y-65455139D01*
X222127461Y-65549311D01*
X222162873Y-65636520D01*
X222173266Y-65662116D01*
X222289987Y-65852588D01*
X222436250Y-66021438D01*
X222608126Y-66164132D01*
X222630106Y-66176976D01*
X222681445Y-66206976D01*
X222730169Y-66258614D01*
X222743240Y-66328397D01*
X222716509Y-66394169D01*
X222676055Y-66427527D01*
X222663607Y-66434007D01*
X222659474Y-66437110D01*
X222659471Y-66437112D01*
X222489100Y-66565030D01*
X222484965Y-66568135D01*
X222481393Y-66571873D01*
X222334319Y-66725777D01*
X222330629Y-66729638D01*
X222204743Y-66914180D01*
X222110688Y-67116805D01*
X222050989Y-67332070D01*
X222027251Y-67554195D01*
X222027548Y-67559348D01*
X222027548Y-67559351D01*
X222039812Y-67772047D01*
X222040110Y-67777215D01*
X222041247Y-67782261D01*
X222041248Y-67782267D01*
X222054358Y-67840439D01*
X222089222Y-67995139D01*
X222127461Y-68089311D01*
X222162873Y-68176520D01*
X222173266Y-68202116D01*
X222289987Y-68392588D01*
X222436250Y-68561438D01*
X222608126Y-68704132D01*
X222630106Y-68716976D01*
X222681445Y-68746976D01*
X222730169Y-68798614D01*
X222743240Y-68868397D01*
X222716509Y-68934169D01*
X222676055Y-68967527D01*
X222663607Y-68974007D01*
X222659474Y-68977110D01*
X222659471Y-68977112D01*
X222489100Y-69105030D01*
X222484965Y-69108135D01*
X222481393Y-69111873D01*
X222334319Y-69265777D01*
X222330629Y-69269638D01*
X222204743Y-69454180D01*
X222110688Y-69656805D01*
X222050989Y-69872070D01*
X222027251Y-70094195D01*
X222027548Y-70099348D01*
X222027548Y-70099351D01*
X222039812Y-70312047D01*
X222040110Y-70317215D01*
X222041247Y-70322261D01*
X222041248Y-70322267D01*
X222054358Y-70380439D01*
X222089222Y-70535139D01*
X222127461Y-70629311D01*
X222162873Y-70716520D01*
X222173266Y-70742116D01*
X222289987Y-70932588D01*
X222436250Y-71101438D01*
X222608126Y-71244132D01*
X222630106Y-71256976D01*
X222681445Y-71286976D01*
X222730169Y-71338614D01*
X222743240Y-71408397D01*
X222716509Y-71474169D01*
X222676055Y-71507527D01*
X222663607Y-71514007D01*
X222659474Y-71517110D01*
X222659471Y-71517112D01*
X222489100Y-71645030D01*
X222484965Y-71648135D01*
X222481393Y-71651873D01*
X222334319Y-71805777D01*
X222330629Y-71809638D01*
X222204743Y-71994180D01*
X222110688Y-72196805D01*
X222050989Y-72412070D01*
X222027251Y-72634195D01*
X222027548Y-72639348D01*
X222027548Y-72639351D01*
X222039812Y-72852047D01*
X222040110Y-72857215D01*
X222041247Y-72862261D01*
X222041248Y-72862267D01*
X222054358Y-72920439D01*
X222089222Y-73075139D01*
X222127461Y-73169311D01*
X222162873Y-73256520D01*
X222173266Y-73282116D01*
X222289987Y-73472588D01*
X222436250Y-73641438D01*
X222608126Y-73784132D01*
X222649649Y-73808396D01*
X222681445Y-73826976D01*
X222730169Y-73878614D01*
X222743240Y-73948397D01*
X222716509Y-74014169D01*
X222676055Y-74047527D01*
X222663607Y-74054007D01*
X222659474Y-74057110D01*
X222659471Y-74057112D01*
X222635247Y-74075300D01*
X222484965Y-74188135D01*
X222330629Y-74349638D01*
X222204743Y-74534180D01*
X222110688Y-74736805D01*
X222050989Y-74952070D01*
X222027251Y-75174195D01*
X119380000Y-75174195D01*
X119380000Y-72604195D01*
X191487251Y-72604195D01*
X191487548Y-72609348D01*
X191487548Y-72609351D01*
X191494932Y-72737408D01*
X191500110Y-72827215D01*
X191501247Y-72832261D01*
X191501248Y-72832267D01*
X191508009Y-72862267D01*
X191549222Y-73045139D01*
X191633266Y-73252116D01*
X191749987Y-73442588D01*
X191896250Y-73611438D01*
X192068126Y-73754132D01*
X192261000Y-73866838D01*
X192469692Y-73946530D01*
X192474760Y-73947561D01*
X192474763Y-73947562D01*
X192582017Y-73969383D01*
X192688597Y-73991067D01*
X192693772Y-73991257D01*
X192693774Y-73991257D01*
X192906673Y-73999064D01*
X192906677Y-73999064D01*
X192911837Y-73999253D01*
X192916957Y-73998597D01*
X192916959Y-73998597D01*
X193128288Y-73971525D01*
X193128289Y-73971525D01*
X193133416Y-73970868D01*
X193200116Y-73950857D01*
X193342429Y-73908161D01*
X193342434Y-73908159D01*
X193347384Y-73906674D01*
X193547994Y-73808396D01*
X193729860Y-73678673D01*
X193888096Y-73520989D01*
X193922876Y-73472588D01*
X194015435Y-73343777D01*
X194018453Y-73339577D01*
X194117430Y-73139311D01*
X194182370Y-72925569D01*
X194211529Y-72704090D01*
X194213156Y-72637500D01*
X194194852Y-72414861D01*
X194140431Y-72198202D01*
X194051354Y-71993340D01*
X193930014Y-71805777D01*
X193779670Y-71640551D01*
X193775619Y-71637352D01*
X193775615Y-71637348D01*
X193608414Y-71505300D01*
X193608410Y-71505298D01*
X193604359Y-71502098D01*
X193563053Y-71479296D01*
X193513084Y-71428864D01*
X193498312Y-71359421D01*
X193523428Y-71293016D01*
X193550780Y-71266409D01*
X193594603Y-71235150D01*
X193729860Y-71138673D01*
X193888096Y-70980989D01*
X193922876Y-70932588D01*
X194015435Y-70803777D01*
X194018453Y-70799577D01*
X194117430Y-70599311D01*
X194182370Y-70385569D01*
X194211529Y-70164090D01*
X194213156Y-70097500D01*
X194194852Y-69874861D01*
X194140431Y-69658202D01*
X194051354Y-69453340D01*
X193930014Y-69265777D01*
X193779670Y-69100551D01*
X193775619Y-69097352D01*
X193775615Y-69097348D01*
X193608414Y-68965300D01*
X193608410Y-68965298D01*
X193604359Y-68962098D01*
X193563053Y-68939296D01*
X193513084Y-68888864D01*
X193498312Y-68819421D01*
X193523428Y-68753016D01*
X193550780Y-68726409D01*
X193594603Y-68695150D01*
X193729860Y-68598673D01*
X193888096Y-68440989D01*
X193922876Y-68392588D01*
X194015435Y-68263777D01*
X194018453Y-68259577D01*
X194117430Y-68059311D01*
X194182370Y-67845569D01*
X194211529Y-67624090D01*
X194213156Y-67557500D01*
X194194852Y-67334861D01*
X194140431Y-67118202D01*
X194051354Y-66913340D01*
X193930014Y-66725777D01*
X193779670Y-66560551D01*
X193775619Y-66557352D01*
X193775615Y-66557348D01*
X193608414Y-66425300D01*
X193608410Y-66425298D01*
X193604359Y-66422098D01*
X193563053Y-66399296D01*
X193513084Y-66348864D01*
X193498312Y-66279421D01*
X193523428Y-66213016D01*
X193550780Y-66186409D01*
X193594603Y-66155150D01*
X193729860Y-66058673D01*
X193888096Y-65900989D01*
X193922876Y-65852588D01*
X194015435Y-65723777D01*
X194018453Y-65719577D01*
X194117430Y-65519311D01*
X194182370Y-65305569D01*
X194211529Y-65084090D01*
X194213156Y-65017500D01*
X194194852Y-64794861D01*
X194140431Y-64578202D01*
X194051354Y-64373340D01*
X193930014Y-64185777D01*
X193779670Y-64020551D01*
X193775619Y-64017352D01*
X193775615Y-64017348D01*
X193608414Y-63885300D01*
X193608410Y-63885298D01*
X193604359Y-63882098D01*
X193563053Y-63859296D01*
X193513084Y-63808864D01*
X193498312Y-63739421D01*
X193523428Y-63673016D01*
X193550780Y-63646409D01*
X193594603Y-63615150D01*
X193729860Y-63518673D01*
X193888096Y-63360989D01*
X193922876Y-63312588D01*
X194015435Y-63183777D01*
X194018453Y-63179577D01*
X194117430Y-62979311D01*
X194182370Y-62765569D01*
X194211529Y-62544090D01*
X194213156Y-62477500D01*
X194194852Y-62254861D01*
X194140431Y-62038202D01*
X194051354Y-61833340D01*
X193930014Y-61645777D01*
X193779670Y-61480551D01*
X193775619Y-61477352D01*
X193775615Y-61477348D01*
X193608414Y-61345300D01*
X193608410Y-61345298D01*
X193604359Y-61342098D01*
X193563053Y-61319296D01*
X193513084Y-61268864D01*
X193498312Y-61199421D01*
X193523428Y-61133016D01*
X193550780Y-61106409D01*
X193609948Y-61064205D01*
X193729860Y-60978673D01*
X193888096Y-60820989D01*
X193947594Y-60738189D01*
X194015435Y-60643777D01*
X194018453Y-60639577D01*
X194117430Y-60439311D01*
X194182370Y-60225569D01*
X194211529Y-60004090D01*
X194213156Y-59937500D01*
X194194852Y-59714861D01*
X194140431Y-59498202D01*
X194051354Y-59293340D01*
X193930014Y-59105777D01*
X193779670Y-58940551D01*
X193775619Y-58937352D01*
X193775615Y-58937348D01*
X193608414Y-58805300D01*
X193608410Y-58805298D01*
X193604359Y-58802098D01*
X193563053Y-58779296D01*
X193513084Y-58728864D01*
X193498312Y-58659421D01*
X193523428Y-58593016D01*
X193550780Y-58566409D01*
X193594603Y-58535150D01*
X193729860Y-58438673D01*
X193888096Y-58280989D01*
X193947594Y-58198189D01*
X194015435Y-58103777D01*
X194018453Y-58099577D01*
X194117430Y-57899311D01*
X194182370Y-57685569D01*
X194211529Y-57464090D01*
X194213156Y-57397500D01*
X194194852Y-57174861D01*
X194140431Y-56958202D01*
X194051354Y-56753340D01*
X193930014Y-56565777D01*
X193926532Y-56561950D01*
X193782798Y-56403988D01*
X193751746Y-56340142D01*
X193760141Y-56269643D01*
X193805317Y-56214875D01*
X193831761Y-56201206D01*
X193938297Y-56161267D01*
X193946705Y-56158115D01*
X194063261Y-56070761D01*
X194150615Y-55954205D01*
X194201745Y-55817816D01*
X194208500Y-55755634D01*
X194208500Y-53959366D01*
X194201745Y-53897184D01*
X194150615Y-53760795D01*
X194063261Y-53644239D01*
X193946705Y-53556885D01*
X193810316Y-53505755D01*
X193748134Y-53499000D01*
X191951866Y-53499000D01*
X191889684Y-53505755D01*
X191753295Y-53556885D01*
X191636739Y-53644239D01*
X191549385Y-53760795D01*
X191498255Y-53897184D01*
X191491500Y-53959366D01*
X191491500Y-55755634D01*
X191498255Y-55817816D01*
X191549385Y-55954205D01*
X191636739Y-56070761D01*
X191753295Y-56158115D01*
X191761704Y-56161267D01*
X191761705Y-56161268D01*
X191870451Y-56202035D01*
X191927216Y-56244676D01*
X191951916Y-56311238D01*
X191936709Y-56380587D01*
X191917316Y-56407068D01*
X191790629Y-56539638D01*
X191664743Y-56724180D01*
X191570688Y-56926805D01*
X191510989Y-57142070D01*
X191487251Y-57364195D01*
X191487548Y-57369348D01*
X191487548Y-57369351D01*
X191493011Y-57464090D01*
X191500110Y-57587215D01*
X191501247Y-57592261D01*
X191501248Y-57592267D01*
X191521119Y-57680439D01*
X191549222Y-57805139D01*
X191633266Y-58012116D01*
X191749987Y-58202588D01*
X191896250Y-58371438D01*
X192068126Y-58514132D01*
X192138595Y-58555311D01*
X192141445Y-58556976D01*
X192190169Y-58608614D01*
X192203240Y-58678397D01*
X192176509Y-58744169D01*
X192136055Y-58777527D01*
X192123607Y-58784007D01*
X192119474Y-58787110D01*
X192119471Y-58787112D01*
X191949100Y-58915030D01*
X191944965Y-58918135D01*
X191790629Y-59079638D01*
X191664743Y-59264180D01*
X191570688Y-59466805D01*
X191510989Y-59682070D01*
X191487251Y-59904195D01*
X191487548Y-59909348D01*
X191487548Y-59909351D01*
X191493011Y-60004090D01*
X191500110Y-60127215D01*
X191501247Y-60132261D01*
X191501248Y-60132267D01*
X191521119Y-60220439D01*
X191549222Y-60345139D01*
X191633266Y-60552116D01*
X191749987Y-60742588D01*
X191896250Y-60911438D01*
X192068126Y-61054132D01*
X192138595Y-61095311D01*
X192141445Y-61096976D01*
X192190169Y-61148614D01*
X192203240Y-61218397D01*
X192176509Y-61284169D01*
X192136055Y-61317527D01*
X192123607Y-61324007D01*
X192119474Y-61327110D01*
X192119471Y-61327112D01*
X191949100Y-61455030D01*
X191944965Y-61458135D01*
X191790629Y-61619638D01*
X191787715Y-61623910D01*
X191787714Y-61623911D01*
X191749373Y-61680117D01*
X191664743Y-61804180D01*
X191570688Y-62006805D01*
X191510989Y-62222070D01*
X191487251Y-62444195D01*
X191487548Y-62449348D01*
X191487548Y-62449351D01*
X191494932Y-62577408D01*
X191500110Y-62667215D01*
X191501247Y-62672261D01*
X191501248Y-62672267D01*
X191508009Y-62702267D01*
X191549222Y-62885139D01*
X191633266Y-63092116D01*
X191749987Y-63282588D01*
X191896250Y-63451438D01*
X192068126Y-63594132D01*
X192113809Y-63620827D01*
X192141445Y-63636976D01*
X192190169Y-63688614D01*
X192203240Y-63758397D01*
X192176509Y-63824169D01*
X192136055Y-63857527D01*
X192123607Y-63864007D01*
X192119474Y-63867110D01*
X192119471Y-63867112D01*
X192055291Y-63915300D01*
X191944965Y-63998135D01*
X191790629Y-64159638D01*
X191787715Y-64163910D01*
X191787714Y-64163911D01*
X191749373Y-64220117D01*
X191664743Y-64344180D01*
X191570688Y-64546805D01*
X191510989Y-64762070D01*
X191487251Y-64984195D01*
X191487548Y-64989348D01*
X191487548Y-64989351D01*
X191494932Y-65117408D01*
X191500110Y-65207215D01*
X191501247Y-65212261D01*
X191501248Y-65212267D01*
X191508009Y-65242267D01*
X191549222Y-65425139D01*
X191633266Y-65632116D01*
X191749987Y-65822588D01*
X191896250Y-65991438D01*
X192068126Y-66134132D01*
X192113809Y-66160827D01*
X192141445Y-66176976D01*
X192190169Y-66228614D01*
X192203240Y-66298397D01*
X192176509Y-66364169D01*
X192136055Y-66397527D01*
X192123607Y-66404007D01*
X192119474Y-66407110D01*
X192119471Y-66407112D01*
X192055291Y-66455300D01*
X191944965Y-66538135D01*
X191790629Y-66699638D01*
X191787715Y-66703910D01*
X191787714Y-66703911D01*
X191749373Y-66760117D01*
X191664743Y-66884180D01*
X191570688Y-67086805D01*
X191510989Y-67302070D01*
X191487251Y-67524195D01*
X191487548Y-67529348D01*
X191487548Y-67529351D01*
X191494932Y-67657408D01*
X191500110Y-67747215D01*
X191501247Y-67752261D01*
X191501248Y-67752267D01*
X191508009Y-67782267D01*
X191549222Y-67965139D01*
X191633266Y-68172116D01*
X191749987Y-68362588D01*
X191896250Y-68531438D01*
X192068126Y-68674132D01*
X192113809Y-68700827D01*
X192141445Y-68716976D01*
X192190169Y-68768614D01*
X192203240Y-68838397D01*
X192176509Y-68904169D01*
X192136055Y-68937527D01*
X192123607Y-68944007D01*
X192119474Y-68947110D01*
X192119471Y-68947112D01*
X192055291Y-68995300D01*
X191944965Y-69078135D01*
X191790629Y-69239638D01*
X191787715Y-69243910D01*
X191787714Y-69243911D01*
X191749373Y-69300117D01*
X191664743Y-69424180D01*
X191570688Y-69626805D01*
X191510989Y-69842070D01*
X191487251Y-70064195D01*
X191487548Y-70069348D01*
X191487548Y-70069351D01*
X191494932Y-70197408D01*
X191500110Y-70287215D01*
X191501247Y-70292261D01*
X191501248Y-70292267D01*
X191508009Y-70322267D01*
X191549222Y-70505139D01*
X191633266Y-70712116D01*
X191749987Y-70902588D01*
X191896250Y-71071438D01*
X192068126Y-71214132D01*
X192113809Y-71240827D01*
X192141445Y-71256976D01*
X192190169Y-71308614D01*
X192203240Y-71378397D01*
X192176509Y-71444169D01*
X192136055Y-71477527D01*
X192123607Y-71484007D01*
X192119474Y-71487110D01*
X192119471Y-71487112D01*
X192055291Y-71535300D01*
X191944965Y-71618135D01*
X191790629Y-71779638D01*
X191787715Y-71783910D01*
X191787714Y-71783911D01*
X191749373Y-71840117D01*
X191664743Y-71964180D01*
X191570688Y-72166805D01*
X191510989Y-72382070D01*
X191487251Y-72604195D01*
X119380000Y-72604195D01*
X119380000Y-43137233D01*
X191877822Y-43137233D01*
X191877975Y-43141621D01*
X191877975Y-43141627D01*
X191886222Y-43377767D01*
X191887625Y-43417958D01*
X191888387Y-43422281D01*
X191888388Y-43422288D01*
X191912164Y-43557124D01*
X191936402Y-43694587D01*
X192023203Y-43961735D01*
X192025131Y-43965688D01*
X192025133Y-43965693D01*
X192073907Y-44065693D01*
X192146340Y-44214202D01*
X192148795Y-44217841D01*
X192148798Y-44217847D01*
X192211125Y-44310250D01*
X192303415Y-44447076D01*
X192491371Y-44655822D01*
X192706550Y-44836379D01*
X192944764Y-44985231D01*
X193201375Y-45099482D01*
X193471390Y-45176907D01*
X193475740Y-45177518D01*
X193475743Y-45177519D01*
X193578690Y-45191987D01*
X193749552Y-45216000D01*
X193960146Y-45216000D01*
X193962332Y-45215847D01*
X193962336Y-45215847D01*
X194165827Y-45201618D01*
X194165832Y-45201617D01*
X194170212Y-45201311D01*
X194444970Y-45142909D01*
X194449099Y-45141406D01*
X194449103Y-45141405D01*
X194704781Y-45048346D01*
X194704785Y-45048344D01*
X194708926Y-45046837D01*
X194956942Y-44914964D01*
X195042990Y-44852447D01*
X195180629Y-44752447D01*
X195180632Y-44752444D01*
X195184192Y-44749858D01*
X195386252Y-44554731D01*
X195559188Y-44333382D01*
X195561384Y-44329578D01*
X195561389Y-44329571D01*
X195697435Y-44093931D01*
X195699636Y-44090119D01*
X195804862Y-43829676D01*
X195838544Y-43694587D01*
X195871753Y-43561393D01*
X195871754Y-43561388D01*
X195872817Y-43557124D01*
X195876479Y-43522288D01*
X195901719Y-43282136D01*
X195901719Y-43282133D01*
X195902178Y-43277767D01*
X195900763Y-43237233D01*
X220497822Y-43237233D01*
X220507625Y-43517958D01*
X220508387Y-43522281D01*
X220508388Y-43522288D01*
X220532164Y-43657124D01*
X220556402Y-43794587D01*
X220643203Y-44061735D01*
X220766340Y-44314202D01*
X220768795Y-44317841D01*
X220768798Y-44317847D01*
X220776706Y-44329571D01*
X220923415Y-44547076D01*
X220926360Y-44550347D01*
X220926361Y-44550348D01*
X220933059Y-44557787D01*
X221111371Y-44755822D01*
X221326550Y-44936379D01*
X221564764Y-45085231D01*
X221821375Y-45199482D01*
X222091390Y-45276907D01*
X222095740Y-45277518D01*
X222095743Y-45277519D01*
X222198690Y-45291987D01*
X222369552Y-45316000D01*
X222580146Y-45316000D01*
X222582332Y-45315847D01*
X222582336Y-45315847D01*
X222785827Y-45301618D01*
X222785832Y-45301617D01*
X222790212Y-45301311D01*
X223064970Y-45242909D01*
X223069099Y-45241406D01*
X223069103Y-45241405D01*
X223324781Y-45148346D01*
X223324785Y-45148344D01*
X223328926Y-45146837D01*
X223576942Y-45014964D01*
X223580503Y-45012377D01*
X223800629Y-44852447D01*
X223800632Y-44852444D01*
X223804192Y-44849858D01*
X223821079Y-44833551D01*
X224003087Y-44657787D01*
X224006252Y-44654731D01*
X224179188Y-44433382D01*
X224181384Y-44429578D01*
X224181389Y-44429571D01*
X224317435Y-44193931D01*
X224319636Y-44190119D01*
X224424862Y-43929676D01*
X224458544Y-43794587D01*
X224491753Y-43661393D01*
X224491754Y-43661388D01*
X224492817Y-43657124D01*
X224503328Y-43557124D01*
X224521719Y-43382136D01*
X224521719Y-43382133D01*
X224522178Y-43377767D01*
X224513932Y-43141627D01*
X224512529Y-43101439D01*
X224512528Y-43101433D01*
X224512375Y-43097042D01*
X224494743Y-42997042D01*
X224464360Y-42824736D01*
X224463598Y-42820413D01*
X224376797Y-42553265D01*
X224328024Y-42453265D01*
X224265406Y-42324881D01*
X224253660Y-42300798D01*
X224251205Y-42297159D01*
X224251202Y-42297153D01*
X224108392Y-42085429D01*
X224096585Y-42067924D01*
X223908629Y-41859178D01*
X223693450Y-41678621D01*
X223455236Y-41529769D01*
X223198625Y-41415518D01*
X222928610Y-41338093D01*
X222924260Y-41337482D01*
X222924257Y-41337481D01*
X222780695Y-41317305D01*
X222650448Y-41299000D01*
X222439854Y-41299000D01*
X222437668Y-41299153D01*
X222437664Y-41299153D01*
X222234173Y-41313382D01*
X222234168Y-41313383D01*
X222229788Y-41313689D01*
X221955030Y-41372091D01*
X221950901Y-41373594D01*
X221950897Y-41373595D01*
X221695219Y-41466654D01*
X221695215Y-41466656D01*
X221691074Y-41468163D01*
X221443058Y-41600036D01*
X221439499Y-41602622D01*
X221439497Y-41602623D01*
X221224017Y-41759178D01*
X221215808Y-41765142D01*
X221013748Y-41960269D01*
X220840812Y-42181618D01*
X220838616Y-42185422D01*
X220838611Y-42185429D01*
X220760300Y-42321069D01*
X220700364Y-42424881D01*
X220595138Y-42685324D01*
X220594073Y-42689597D01*
X220594072Y-42689599D01*
X220551026Y-42862249D01*
X220527183Y-42957876D01*
X220526724Y-42962244D01*
X220526723Y-42962249D01*
X220522604Y-43001439D01*
X220497822Y-43237233D01*
X195900763Y-43237233D01*
X195892375Y-42997042D01*
X195884717Y-42953607D01*
X195844360Y-42724736D01*
X195843598Y-42720413D01*
X195756797Y-42453265D01*
X195633660Y-42200798D01*
X195631205Y-42197159D01*
X195631202Y-42197153D01*
X195541829Y-42064652D01*
X195476585Y-41967924D01*
X195469693Y-41960269D01*
X195291566Y-41762440D01*
X195288629Y-41759178D01*
X195073450Y-41578621D01*
X194835236Y-41429769D01*
X194578625Y-41315518D01*
X194308610Y-41238093D01*
X194304260Y-41237482D01*
X194304257Y-41237481D01*
X194201310Y-41223013D01*
X194030448Y-41199000D01*
X193819854Y-41199000D01*
X193817668Y-41199153D01*
X193817664Y-41199153D01*
X193614173Y-41213382D01*
X193614168Y-41213383D01*
X193609788Y-41213689D01*
X193335030Y-41272091D01*
X193330901Y-41273594D01*
X193330897Y-41273595D01*
X193075219Y-41366654D01*
X193075215Y-41366656D01*
X193071074Y-41368163D01*
X192823058Y-41500036D01*
X192819499Y-41502622D01*
X192819497Y-41502623D01*
X192688263Y-41597970D01*
X192595808Y-41665142D01*
X192592644Y-41668198D01*
X192592641Y-41668200D01*
X192503864Y-41753931D01*
X192393748Y-41860269D01*
X192220812Y-42081618D01*
X192218616Y-42085422D01*
X192218611Y-42085429D01*
X192104794Y-42282567D01*
X192080364Y-42324881D01*
X191975138Y-42585324D01*
X191974073Y-42589597D01*
X191974072Y-42589599D01*
X191915446Y-42824736D01*
X191907183Y-42857876D01*
X191906724Y-42862244D01*
X191906723Y-42862249D01*
X191896213Y-42962249D01*
X191877822Y-43137233D01*
X119380000Y-43137233D01*
X119380000Y-37234500D01*
X119400002Y-37166379D01*
X119453658Y-37119886D01*
X119506000Y-37108500D01*
X228465500Y-37108500D01*
X228533621Y-37128502D01*
G37*
%TD.AperFunction*%
%TD*%
M02*
